<?xml version="1.0" standalone="no"?>
<!DOCTYPE svg PUBLIC "-//W3C//DTD SVG 1.1//EN" "http://www.w3.org/Graphics/SVG/1.1/DTD/svg11.dtd" >
<svg xmlns="http://www.w3.org/2000/svg" xmlns:xlink="http://www.w3.org/1999/xlink" version="1.1">
<metadata>
Created by FontForge 20190801 at Tue Nov 27 13:49:58 2018
 By Jimmy Wärting
Copyright 2018 The Work Sans Project Authors \(https://github.com/weiweihuanghuang/Work-Sans\)
</metadata>
<defs>
<font id="WorkSans-Regular" horiz-adv-x="604" >
  <font-face 
    font-family="Work Sans"
    font-weight="400"
    font-stretch="normal"
    units-per-em="1000"
    panose-1="0 0 5 0 0 0 0 0 0 0"
    ascent="760"
    descent="-240"
    x-height="500"
    cap-height="660"
    bbox="-808 -337 1283 1100"
    underline-thickness="50"
    underline-position="-100"
    stemh="69"
    stemv="76"
    unicode-range="U+000D-FB02"
  />
<missing-glyph horiz-adv-x="500" 
d="M50 0v660h400v-660h-400zM130 80h240v500h-240v-500z" />
    <glyph glyph-name="f_f" unicode="ff" horiz-adv-x="786" 
d="M303 662c-58 0 -91 -26 -91 -86v-76h167v-69h-167v-431h-80v431h-100v69h100v84c0 89 54 151 164 151c35 0 67 -8 85 -23l-21 -65c-16 10 -34 15 -57 15zM605 576v-76h167v-69h-167v-431h-80v431h-100v69h100v84c0 89 54 151 164 151c35 0 67 -8 85 -23l-21 -65
c-16 10 -34 15 -57 15c-58 0 -91 -26 -91 -86z" />
    <glyph glyph-name="f_f_i" unicode="ffi" horiz-adv-x="1052" 
d="M303 662c-58 0 -91 -26 -91 -86v-76h167v-69h-167v-431h-80v431h-100v69h100v84c0 89 54 151 164 151c35 0 67 -8 85 -23l-21 -65c-16 10 -34 15 -57 15zM696 662c-58 0 -91 -26 -91 -86v-76h167v-69h-167v-431h-80v431h-100v69h100v84c0 89 54 151 164 151
c35 0 67 -8 85 -23l-21 -65c-16 10 -34 15 -57 15zM919 716c36 0 60 -24 60 -60s-24 -60 -60 -60s-60 24 -60 60s24 60 60 60zM879 0v500h80v-500h-80z" />
    <glyph glyph-name="f_f_l" unicode="ffl" horiz-adv-x="1092" 
d="M303 662c-58 0 -91 -26 -91 -86v-76h167v-69h-167v-431h-80v431h-100v69h100v84c0 89 54 151 164 151c35 0 67 -8 85 -23l-21 -65c-16 10 -34 15 -57 15zM696 662c-58 0 -91 -26 -91 -86v-76h167v-69h-167v-431h-80v431h-100v69h100v84c0 89 54 151 164 151
c35 0 67 -8 85 -23l-21 -65c-16 10 -34 15 -57 15zM1014 60c27 0 39 3 68 14l-13 -70c-21 -9 -48 -14 -74 -14c-81 0 -120 43 -120 134v606h80v-603c0 -51 18 -67 59 -67z" />
    <glyph glyph-name="fi" unicode="fi" horiz-adv-x="659" 
d="M303 662c-58 0 -91 -26 -91 -86v-76h167v-69h-167v-431h-80v431h-100v69h100v84c0 89 54 151 164 151c35 0 67 -8 85 -23l-21 -65c-16 10 -34 15 -57 15zM526 716c36 0 60 -24 60 -60s-24 -60 -60 -60s-60 24 -60 60s24 60 60 60zM486 0v500h80v-500h-80z" />
    <glyph glyph-name="fl" unicode="fl" horiz-adv-x="699" 
d="M303 662c-58 0 -91 -26 -91 -86v-76h167v-69h-167v-431h-80v431h-100v69h100v84c0 89 54 151 164 151c35 0 67 -8 85 -23l-21 -65c-16 10 -34 15 -57 15zM621 60c27 0 39 3 68 14l-13 -70c-21 -9 -48 -14 -74 -14c-81 0 -120 43 -120 134v606h80v-603
c0 -51 18 -67 59 -67z" />
    <glyph glyph-name=".notdef" horiz-adv-x="500" 
d="M50 0v660h400v-660h-400zM130 80h240v500h-240v-500z" />
    <glyph glyph-name="NULL" horiz-adv-x="0" 
 />
    <glyph glyph-name="NULL" horiz-adv-x="0" 
 />
    <glyph glyph-name="CR" unicode="&#xd;" horiz-adv-x="341" 
 />
    <glyph glyph-name="space" unicode=" " horiz-adv-x="341" 
 />
    <glyph glyph-name="A" unicode="A" horiz-adv-x="660" 
d="M549 0l-70 183h-299l-70 -183h-84l257 660h95l256 -660h-85zM209 258h241l-89 234l-31 92h-2l-29 -89z" />
    <glyph glyph-name="Aacute" unicode="&#xc1;" horiz-adv-x="660" 
d="M437 902l-86 -159h-64l66 159h84zM549 0l-70 183h-299l-70 -183h-84l257 660h95l256 -660h-85zM209 258h241l-89 234l-31 92h-2l-29 -89z" />
    <glyph glyph-name="Abreve" unicode="&#x102;" horiz-adv-x="660" 
d="M330 737c-88 0 -148 60 -148 148h65c1 -47 29 -88 83 -88s82 41 83 88h65c0 -88 -60 -148 -148 -148zM549 0l-70 183h-299l-70 -183h-84l257 660h95l256 -660h-85zM209 258h241l-89 234l-31 92h-2l-29 -89z" />
    <glyph glyph-name="uni1EAE" unicode="&#x1eae;" horiz-adv-x="660" 
d="M416 1033l-73 -130h-62l52 130h83zM330 737c-88 0 -148 60 -148 148h65c1 -47 29 -88 83 -88s82 41 83 88h65c0 -88 -60 -148 -148 -148zM549 0l-70 183h-299l-70 -183h-84l257 660h95l256 -660h-85zM209 258h241l-89 234l-31 92h-2l-29 -89z" />
    <glyph glyph-name="uni1EB6" unicode="&#x1eb6;" horiz-adv-x="660" 
d="M330 737c-88 0 -148 60 -148 148h65c1 -47 29 -88 83 -88s82 41 83 88h65c0 -88 -60 -148 -148 -148zM634 0h-85l-70 183h-299l-70 -183h-84l257 660h95zM209 258h241l-89 234l-31 92h-2l-29 -89zM330 -96c36 0 60 -24 60 -60s-24 -60 -60 -60s-60 24 -60 60s24 60 60 60
z" />
    <glyph glyph-name="uni1EB0" unicode="&#x1eb0;" horiz-adv-x="660" 
d="M379 903h-62l-73 130h83zM330 737c-88 0 -148 60 -148 148h65c1 -47 29 -88 83 -88s82 41 83 88h65c0 -88 -60 -148 -148 -148zM549 0l-70 183h-299l-70 -183h-84l257 660h95l256 -660h-85zM209 258h241l-89 234l-31 92h-2l-29 -89z" />
    <glyph glyph-name="uni1EB2" unicode="&#x1eb2;" horiz-adv-x="660" 
d="M316 1019c-20 0 -34 -9 -46 -30l-47 32c20 37 55 59 105 59c56 0 92 -38 92 -86c0 -47 -31 -87 -89 -106l-28 32c35 18 52 33 52 63c0 20 -14 36 -39 36zM330 737c-88 0 -148 60 -148 148h65c1 -47 29 -88 83 -88s82 41 83 88h65c0 -88 -60 -148 -148 -148zM549 0
l-70 183h-299l-70 -183h-84l257 660h95l256 -660h-85zM209 258h241l-89 234l-31 92h-2l-29 -89z" />
    <glyph glyph-name="uni1EB4" unicode="&#x1eb4;" horiz-adv-x="660" 
d="M264 983c-27 0 -39 -20 -46 -60h-63c7 85 45 125 110 125c73 0 90 -62 130 -62c27 0 40 20 47 60h63c-7 -85 -46 -125 -109 -125c-75 0 -89 62 -132 62zM331 797c54 0 82 41 83 88h65c0 -88 -60 -148 -148 -148s-148 60 -148 148h65c1 -47 29 -88 83 -88zM549 0l-70 183
h-299l-70 -183h-84l257 660h95l256 -660h-85zM209 258h241l-89 234l-31 92h-2l-29 -89z" />
    <glyph glyph-name="Acircumflex" unicode="&#xc2;" horiz-adv-x="660" 
d="M330 850l-80 -107h-74l110 159h88l110 -159h-74zM549 0l-70 183h-299l-70 -183h-84l257 660h95l256 -660h-85zM209 258h241l-89 234l-31 92h-2l-29 -89z" />
    <glyph glyph-name="uni1EA4" unicode="&#x1ea4;" horiz-adv-x="660" 
d="M587 996l-77 -143h-58l60 143h75zM330 851l-86 -115h-73l114 167h90l114 -167h-73zM549 0l-70 183h-299l-70 -183h-84l257 660h95l256 -660h-85zM209 258h241l-89 234l-31 92h-2l-29 -89z" />
    <glyph glyph-name="uni1EAC" unicode="&#x1eac;" horiz-adv-x="660" 
d="M330 850l-80 -107h-74l110 159h88l110 -159h-74zM634 0h-85l-70 183h-299l-70 -183h-84l257 660h95zM209 258h241l-89 234l-31 92h-2l-29 -89zM330 -96c36 0 60 -24 60 -60s-24 -60 -60 -60s-60 24 -60 60s24 60 60 60z" />
    <glyph glyph-name="uni1EA6" unicode="&#x1ea6;" horiz-adv-x="660" 
d="M530 853h-58l-77 143h75zM330 851l-86 -115h-73l114 167h90l114 -167h-73zM549 0l-70 183h-299l-70 -183h-84l257 660h95l256 -660h-85zM209 258h241l-89 234l-31 92h-2l-29 -89z" />
    <glyph glyph-name="uni1EA8" unicode="&#x1ea8;" horiz-adv-x="660" 
d="M477 964c-20 0 -34 -9 -46 -30l-47 32c20 37 55 59 105 59c56 0 92 -38 92 -86c0 -47 -31 -87 -89 -106l-28 32c35 18 52 33 52 63c0 20 -14 36 -39 36zM330 851l-86 -115h-73l114 167h90l114 -167h-73zM549 0l-70 183h-299l-70 -183h-84l257 660h95l256 -660h-85z
M209 258h241l-89 234l-31 92h-2l-29 -89z" />
    <glyph glyph-name="uni1EAA" unicode="&#x1eaa;" horiz-adv-x="660" 
d="M263 992c-27 0 -39 -20 -46 -60h-63c7 85 45 125 110 125c73 0 90 -62 130 -62c27 0 40 20 47 60h63c-7 -85 -46 -125 -109 -125c-75 0 -89 62 -132 62zM285 903h90l114 -167h-73l-86 115l-86 -115h-73zM549 0l-70 183h-299l-70 -183h-84l257 660h95l256 -660h-85z
M209 258h241l-89 234l-31 92h-2l-29 -89z" />
    <glyph glyph-name="uni0200" unicode="&#x200;" horiz-adv-x="660" 
d="M273 743h-64l-86 159h84zM450 743h-64l-86 159h84zM549 0l-70 183h-299l-70 -183h-84l257 660h95l256 -660h-85zM209 258h241l-89 234l-31 92h-2l-29 -89z" />
    <glyph glyph-name="Adieresis" unicode="&#xc4;" horiz-adv-x="660" 
d="M233 742c-34 0 -57 23 -57 57s23 57 57 57s57 -23 57 -57s-23 -57 -57 -57zM427 742c-34 0 -57 23 -57 57s23 57 57 57s57 -23 57 -57s-23 -57 -57 -57zM549 0l-70 183h-299l-70 -183h-84l257 660h95l256 -660h-85zM209 258h241l-89 234l-31 92h-2l-29 -89z" />
    <glyph glyph-name="uni1EA0" unicode="&#x1ea0;" horiz-adv-x="660" 
d="M634 0h-85l-70 183h-299l-70 -183h-84l257 660h95zM209 258h241l-89 234l-31 92h-2l-29 -89zM330 -96c36 0 60 -24 60 -60s-24 -60 -60 -60s-60 24 -60 60s24 60 60 60z" />
    <glyph glyph-name="Agrave" unicode="&#xc0;" horiz-adv-x="660" 
d="M368 743h-64l-86 159h84zM549 0l-70 183h-299l-70 -183h-84l257 660h95l256 -660h-85zM209 258h241l-89 234l-31 92h-2l-29 -89z" />
    <glyph glyph-name="uni1EA2" unicode="&#x1ea2;" horiz-adv-x="660" 
d="M316 846c-20 0 -34 -9 -46 -30l-47 32c20 37 55 59 105 59c56 0 92 -38 92 -86c0 -47 -31 -87 -89 -106l-28 32c35 18 52 33 52 63c0 20 -14 36 -39 36zM549 0l-70 183h-299l-70 -183h-84l257 660h95l256 -660h-85zM209 258h241l-89 234l-31 92h-2l-29 -89z" />
    <glyph glyph-name="uni0202" unicode="&#x202;" horiz-adv-x="660" 
d="M330 825c-54 0 -82 -41 -83 -88h-65c0 88 60 148 148 148s148 -60 148 -148h-65c-1 47 -29 88 -83 88zM549 0l-70 183h-299l-70 -183h-84l257 660h95l256 -660h-85zM209 258h241l-89 234l-31 92h-2l-29 -89z" />
    <glyph glyph-name="Amacron" unicode="&#x100;" horiz-adv-x="660" 
d="M494 823v-67h-328v67h328zM549 0l-70 183h-299l-70 -183h-84l257 660h95l256 -660h-85zM209 258h241l-89 234l-31 92h-2l-29 -89z" />
    <glyph glyph-name="Aogonek" unicode="&#x104;" horiz-adv-x="660" 
d="M629 -146l16 -51c-19 -13 -52 -18 -81 -18c-72 0 -119 38 -119 104c0 55 31 96 98 125l-64 169h-299l-70 -183h-84l257 660h95l256 -660c-101 -33 -124 -68 -124 -106c0 -33 25 -52 64 -52c17 0 39 1 55 12zM209 258h241l-89 234l-31 92h-2l-29 -89z" />
    <glyph glyph-name="Aring" unicode="&#xc5;" horiz-adv-x="660" 
d="M549 0l-70 183h-299l-70 -183h-84l242 622c-41 19 -66 57 -66 107c0 70 51 118 126 118s125 -48 125 -118c0 -48 -23 -86 -61 -105l242 -624h-85zM328 798c-41 0 -71 -29 -71 -69s30 -69 71 -69s71 29 71 69s-30 69 -71 69zM209 258h241l-89 234l-31 92h-2l-29 -89z" />
    <glyph glyph-name="Aringacute" unicode="&#x1fa;" horiz-adv-x="660" 
d="M438 1059l-86 -159h-64l66 159h84zM549 0l-70 183h-299l-70 -183h-84l242 622c-41 19 -66 57 -66 107c0 70 51 118 126 118s125 -48 125 -118c0 -48 -23 -86 -61 -105l242 -624h-85zM328 798c-41 0 -71 -29 -71 -69s30 -69 71 -69s71 29 71 69s-30 69 -71 69zM209 258
h241l-89 234l-31 92h-2l-29 -89z" />
    <glyph glyph-name="Atilde" unicode="&#xc3;" horiz-adv-x="660" 
d="M260 811c-30 0 -42 -26 -49 -69h-63c7 88 42 134 113 134c73 0 96 -68 136 -68c30 0 43 26 50 69h63c-7 -88 -43 -134 -112 -134c-75 0 -95 68 -138 68zM549 0l-70 183h-299l-70 -183h-84l257 660h95l256 -660h-85zM209 258h241l-89 234l-31 92h-2l-29 -89z" />
    <glyph glyph-name="AE" unicode="&#xc6;" horiz-adv-x="954" 
d="M531 75h371v-75h-451v213h-236l-123 -213h-86l386 660h495v-75h-356v-213h271v-75h-271v-222zM259 288h192v297h-20z" />
    <glyph glyph-name="AEacute" unicode="&#x1fc;" horiz-adv-x="954" 
d="M514 902h84l-86 -159h-64zM531 75h371v-75h-451v213h-236l-123 -213h-86l386 660h495v-75h-356v-213h271v-75h-271v-222zM259 288h192v297h-20z" />
    <glyph glyph-name="B" unicode="B" horiz-adv-x="653" 
d="M108 0v660h235c156 0 225 -70 225 -182c0 -67 -40 -128 -111 -142v-1c78 -15 128 -78 128 -150c0 -112 -87 -185 -243 -185h-234zM188 370h156c94 0 140 35 140 108c0 72 -46 107 -140 107h-156v-215zM188 75h173c94 0 140 40 140 110s-46 110 -140 110h-173v-220z" />
    <glyph glyph-name="C" unicode="C" horiz-adv-x="686" 
d="M640 169c-42 -113 -142 -179 -266 -179c-188 0 -306 131 -306 340s120 340 304 340c128 0 214 -54 256 -154l-79 -37c-29 76 -83 116 -171 116c-135 0 -226 -98 -226 -265c0 -166 85 -265 222 -265c88 0 157 45 186 134z" />
    <glyph glyph-name="Cacute" unicode="&#x106;" horiz-adv-x="686" 
d="M395 902h84l-86 -159h-64zM640 169c-42 -113 -142 -179 -266 -179c-188 0 -306 131 -306 340s120 340 304 340c128 0 214 -54 256 -154l-79 -37c-29 76 -83 116 -171 116c-135 0 -226 -98 -226 -265c0 -166 85 -265 222 -265c88 0 157 45 186 134z" />
    <glyph glyph-name="Ccaron" unicode="&#x10c;" horiz-adv-x="686" 
d="M526 902l-110 -159h-88l-110 159h74l80 -107l80 107h74zM640 169c-42 -113 -142 -179 -266 -179c-188 0 -306 131 -306 340s120 340 304 340c128 0 214 -54 256 -154l-79 -37c-29 76 -83 116 -171 116c-135 0 -226 -98 -226 -265c0 -166 85 -265 222 -265
c88 0 157 45 186 134z" />
    <glyph glyph-name="Ccedilla" unicode="&#xc7;" horiz-adv-x="686" 
d="M640 169c-36 -97 -114 -159 -214 -175c29 -24 42 -56 42 -93c0 -64 -51 -116 -121 -116c-42 0 -72 12 -95 29l19 58c18 -12 37 -23 67 -23c37 0 64 24 64 70c0 30 -16 50 -58 72c-171 14 -276 141 -276 339c0 209 120 340 304 340c128 0 214 -54 256 -154l-79 -37
c-29 76 -83 116 -171 116c-135 0 -226 -98 -226 -265c0 -166 85 -265 222 -265c88 0 157 45 186 134z" />
    <glyph glyph-name="uni1E08" unicode="&#x1e08;" horiz-adv-x="686" 
d="M479 902l-86 -159h-64l66 159h84zM640 169c-36 -97 -114 -159 -214 -175c29 -24 42 -56 42 -93c0 -64 -51 -116 -121 -116c-42 0 -72 12 -95 29l19 58c18 -12 37 -23 67 -23c37 0 64 24 64 70c0 30 -16 50 -58 72c-171 14 -276 141 -276 339c0 209 120 340 304 340
c128 0 214 -54 256 -154l-79 -37c-29 76 -83 116 -171 116c-135 0 -226 -98 -226 -265c0 -166 85 -265 222 -265c88 0 157 45 186 134z" />
    <glyph glyph-name="Ccircumflex" unicode="&#x108;" horiz-adv-x="686" 
d="M526 743h-74l-80 107l-80 -107h-74l110 159h88zM640 169c-42 -113 -142 -179 -266 -179c-188 0 -306 131 -306 340s120 340 304 340c128 0 214 -54 256 -154l-79 -37c-29 76 -83 116 -171 116c-135 0 -226 -98 -226 -265c0 -166 85 -265 222 -265c88 0 157 45 186 134z
" />
    <glyph glyph-name="Cdotaccent" unicode="&#x10a;" horiz-adv-x="686" 
d="M372 876c36 0 60 -24 60 -60s-24 -60 -60 -60s-60 24 -60 60s24 60 60 60zM640 169c-42 -113 -142 -179 -266 -179c-188 0 -306 131 -306 340s120 340 304 340c128 0 214 -54 256 -154l-79 -37c-29 76 -83 116 -171 116c-135 0 -226 -98 -226 -265
c0 -166 85 -265 222 -265c88 0 157 45 186 134z" />
    <glyph glyph-name="D" unicode="D" horiz-adv-x="721" 
d="M321 660c207 0 332 -118 332 -330s-125 -330 -332 -330h-213v660h213zM329 75c151 0 240 95 240 255s-89 255 -240 255h-141v-510h141z" />
    <glyph glyph-name="uni01F1" unicode="&#x1f1;" horiz-adv-x="1338" 
d="M321 660c207 0 332 -118 332 -330s-125 -330 -332 -330h-213v660h213zM859 75h424v-75h-519v71l411 514h-401v75h496v-71zM329 75c151 0 240 95 240 255s-89 255 -240 255h-141v-510h141z" />
    <glyph glyph-name="uni01C4" unicode="&#x1c4;" horiz-adv-x="1338" 
d="M1058 743h-88l-110 159h74l80 -107l80 107h74zM321 660c207 0 332 -118 332 -330s-125 -330 -332 -330h-213v660h213zM859 75h424v-75h-519v71l411 514h-401v75h496v-71zM329 75c151 0 240 95 240 255s-89 255 -240 255h-141v-510h141z" />
    <glyph glyph-name="Eth" unicode="&#xd0;" horiz-adv-x="737" 
d="M337 660c207 0 332 -118 332 -330s-125 -330 -332 -330h-213v296h-98v75h98v289h213zM345 75c151 0 240 95 240 255s-89 255 -240 255h-141v-214h197v-75h-197v-221h141z" />
    <glyph glyph-name="Dcaron" unicode="&#x10e;" horiz-adv-x="721" 
d="M519 902l-110 -159h-88l-110 159h74l80 -107l80 107h74zM321 660c207 0 332 -118 332 -330s-125 -330 -332 -330h-213v660h213zM329 75c151 0 240 95 240 255s-89 255 -240 255h-141v-510h141z" />
    <glyph glyph-name="Dcroat" unicode="&#x110;" horiz-adv-x="737" 
d="M337 660c207 0 332 -118 332 -330s-125 -330 -332 -330h-213v296h-98v75h98v289h213zM345 75c151 0 240 95 240 255s-89 255 -240 255h-141v-214h197v-75h-197v-221h141z" />
    <glyph glyph-name="uni1E0C" unicode="&#x1e0c;" horiz-adv-x="721" 
d="M321 660c207 0 332 -118 332 -330s-125 -330 -332 -330h-213v660h213zM329 75c151 0 240 95 240 255s-89 255 -240 255h-141v-510h141zM346 -216c-36 0 -60 24 -60 60s24 60 60 60s60 -24 60 -60s-24 -60 -60 -60z" />
    <glyph glyph-name="uni1E0E" unicode="&#x1e0e;" horiz-adv-x="721" 
d="M321 660c207 0 332 -118 332 -330s-125 -330 -332 -330h-213v660h213zM329 75c151 0 240 95 240 255s-89 255 -240 255h-141v-510h141zM510 -96v-67h-328v67h328z" />
    <glyph glyph-name="uni01F2" unicode="&#x1f2;" horiz-adv-x="1249" 
d="M321 660c207 0 332 -118 332 -330s-125 -330 -332 -330h-213v660h213zM329 75c151 0 240 95 240 255s-89 255 -240 255h-141v-510h141zM772 0v61l262 307l63 65l-89 -2h-233v69h411v-61l-262 -307l-62 -65l97 2h235v-69h-422z" />
    <glyph glyph-name="uni01C5" unicode="&#x1c5;" horiz-adv-x="1249" 
d="M1126 750l-114 -167h-90l-114 167h73l86 -115l86 115h73zM321 660c207 0 332 -118 332 -330s-125 -330 -332 -330h-213v660h213zM329 75c151 0 240 95 240 255s-89 255 -240 255h-141v-510h141zM772 0v61l262 307l63 65l-89 -2h-233v69h411v-61l-262 -307l-62 -65l97 2
h235v-69h-422z" />
    <glyph glyph-name="E" unicode="E" horiz-adv-x="638" 
d="M108 0v660h463v-75h-383v-213h298v-75h-298v-222h398v-75h-478z" />
    <glyph glyph-name="Eacute" unicode="&#xc9;" horiz-adv-x="638" 
d="M363 902h84l-86 -159h-64zM108 0v660h463v-75h-383v-213h298v-75h-298v-222h398v-75h-478z" />
    <glyph glyph-name="Ebreve" unicode="&#x114;" horiz-adv-x="638" 
d="M488 885c0 -88 -60 -148 -148 -148s-148 60 -148 148h65c1 -47 29 -88 83 -88s82 41 83 88h65zM108 0v660h463v-75h-383v-213h298v-75h-298v-222h398v-75h-478z" />
    <glyph glyph-name="Ecaron" unicode="&#x11a;" horiz-adv-x="638" 
d="M494 902l-110 -159h-88l-110 159h74l80 -107l80 107h74zM108 0v660h463v-75h-383v-213h298v-75h-298v-222h398v-75h-478z" />
    <glyph glyph-name="uni1E1C" unicode="&#x1e1c;" horiz-adv-x="638" 
d="M340 737c-88 0 -148 60 -148 148h65c1 -47 29 -88 83 -88s82 41 83 88h65c0 -88 -60 -148 -148 -148zM586 75v-75h-189c34 -25 49 -59 49 -99c0 -64 -51 -116 -121 -116c-42 0 -72 12 -95 29l19 58c18 -12 37 -23 67 -23c37 0 64 24 64 70c0 33 -20 55 -76 81h-196v660
h463v-75h-383v-213h298v-75h-298v-222h398z" />
    <glyph glyph-name="Ecircumflex" unicode="&#xca;" horiz-adv-x="638" 
d="M494 743h-74l-80 107l-80 -107h-74l110 159h88zM108 0v660h463v-75h-383v-213h298v-75h-298v-222h398v-75h-478z" />
    <glyph glyph-name="uni1EBE" unicode="&#x1ebe;" horiz-adv-x="638" 
d="M522 996h75l-77 -143h-58zM499 736h-73l-86 115l-86 -115h-73l114 167h90zM108 0v660h463v-75h-383v-213h298v-75h-298v-222h398v-75h-478z" />
    <glyph glyph-name="uni1EC6" unicode="&#x1ec6;" horiz-adv-x="638" 
d="M494 743h-74l-80 107l-80 -107h-74l110 159h88zM108 0v660h463v-75h-383v-213h298v-75h-298v-222h398v-75h-478zM350 -216c-36 0 -60 24 -60 60s24 60 60 60s60 -24 60 -60s-24 -60 -60 -60z" />
    <glyph glyph-name="uni1EC0" unicode="&#x1ec0;" horiz-adv-x="638" 
d="M480 996l60 -143h-58l-77 143h75zM499 736h-73l-86 115l-86 -115h-73l114 167h90zM108 0v660h463v-75h-383v-213h298v-75h-298v-222h398v-75h-478z" />
    <glyph glyph-name="uni1EC2" unicode="&#x1ec2;" horiz-adv-x="638" 
d="M502 833l-28 32c35 18 52 33 52 63c0 20 -14 36 -39 36c-20 0 -34 -9 -46 -30l-47 32c20 37 55 59 105 59c56 0 92 -38 92 -86c0 -47 -31 -87 -89 -106zM499 736h-73l-86 115l-86 -115h-73l114 167h90zM108 0v660h463v-75h-383v-213h298v-75h-298v-222h398v-75h-478z" />
    <glyph glyph-name="uni1EC4" unicode="&#x1ec4;" horiz-adv-x="638" 
d="M514 1055c-7 -85 -46 -125 -109 -125c-75 0 -89 62 -132 62c-27 0 -39 -20 -46 -60h-63c7 85 45 125 110 125c73 0 90 -62 130 -62c27 0 40 20 47 60h63zM499 736h-73l-86 115l-86 -115h-73l114 167h90zM108 0v660h463v-75h-383v-213h298v-75h-298v-222h398v-75h-478z
" />
    <glyph glyph-name="uni0204" unicode="&#x204;" horiz-adv-x="638" 
d="M217 902l66 -159h-64l-86 159h84zM394 902l66 -159h-64l-86 159h84zM108 0v660h463v-75h-383v-213h298v-75h-298v-222h398v-75h-478z" />
    <glyph glyph-name="Edieresis" unicode="&#xcb;" horiz-adv-x="638" 
d="M243 856c34 0 57 -23 57 -57s-23 -57 -57 -57s-57 23 -57 57s23 57 57 57zM437 856c34 0 57 -23 57 -57s-23 -57 -57 -57s-57 23 -57 57s23 57 57 57zM108 0v660h463v-75h-383v-213h298v-75h-298v-222h398v-75h-478z" />
    <glyph glyph-name="Edotaccent" unicode="&#x116;" horiz-adv-x="638" 
d="M340 876c36 0 60 -24 60 -60s-24 -60 -60 -60s-60 24 -60 60s24 60 60 60zM108 0v660h463v-75h-383v-213h298v-75h-298v-222h398v-75h-478z" />
    <glyph glyph-name="uni1EB8" unicode="&#x1eb8;" horiz-adv-x="638" 
d="M108 0v660h463v-75h-383v-213h298v-75h-298v-222h398v-75h-478zM350 -216c-36 0 -60 24 -60 60s24 60 60 60s60 -24 60 -60s-24 -60 -60 -60z" />
    <glyph glyph-name="Egrave" unicode="&#xc8;" horiz-adv-x="638" 
d="M317 902l66 -159h-64l-86 159h84zM108 0v660h463v-75h-383v-213h298v-75h-298v-222h398v-75h-478z" />
    <glyph glyph-name="uni1EBA" unicode="&#x1eba;" horiz-adv-x="638" 
d="M341 715l-28 32c35 18 52 33 52 63c0 20 -14 36 -39 36c-20 0 -34 -9 -46 -30l-47 32c20 37 55 59 105 59c56 0 92 -38 92 -86c0 -47 -31 -87 -89 -106zM108 0v660h463v-75h-383v-213h298v-75h-298v-222h398v-75h-478z" />
    <glyph glyph-name="uni0206" unicode="&#x206;" horiz-adv-x="638" 
d="M488 737h-65c-1 47 -29 88 -83 88s-82 -41 -83 -88h-65c0 88 60 148 148 148s148 -60 148 -148zM108 0v660h463v-75h-383v-213h298v-75h-298v-222h398v-75h-478z" />
    <glyph glyph-name="Emacron" unicode="&#x112;" horiz-adv-x="638" 
d="M504 823v-67h-328v67h328zM108 0v660h463v-75h-383v-213h298v-75h-298v-222h398v-75h-478z" />
    <glyph glyph-name="uni1E16" unicode="&#x1e16;" horiz-adv-x="638" 
d="M363 1063h84l-86 -159h-64zM504 823v-67h-328v67h328zM108 0v660h463v-75h-383v-213h298v-75h-298v-222h398v-75h-478z" />
    <glyph glyph-name="uni1E14" unicode="&#x1e14;" horiz-adv-x="638" 
d="M317 1063l66 -159h-64l-86 159h84zM504 823v-67h-328v67h328zM108 0v660h463v-75h-383v-213h298v-75h-298v-222h398v-75h-478z" />
    <glyph glyph-name="Eogonek" unicode="&#x118;" horiz-adv-x="638" 
d="M571 -162l16 -51c-19 -12 -52 -18 -81 -18c-72 0 -119 41 -119 99c0 60 35 98 100 132h-379v660h463v-75h-383v-213h298v-75h-298v-222h398v-75c-100 -44 -134 -84 -134 -121c0 -33 26 -53 64 -53c17 0 39 2 55 12z" />
    <glyph glyph-name="uni1EBC" unicode="&#x1ebc;" horiz-adv-x="638" 
d="M520 877c-7 -88 -43 -134 -112 -134c-75 0 -95 68 -138 68c-30 0 -42 -26 -49 -69h-63c7 88 42 134 113 134c73 0 96 -68 136 -68c30 0 43 26 50 69h63zM108 0v660h463v-75h-383v-213h298v-75h-298v-222h398v-75h-478z" />
    <glyph glyph-name="F" unicode="F" horiz-adv-x="610" 
d="M570 585h-382v-213h298v-75h-298v-297h-80v660h462v-75z" />
    <glyph glyph-name="G" unicode="G" horiz-adv-x="724" 
d="M362 333h283v-333h-63l-3 89c-39 -64 -109 -99 -205 -99c-188 0 -306 131 -306 340s128 340 313 340c131 0 208 -49 259 -151l-73 -40c-29 76 -94 116 -186 116c-134 0 -229 -99 -229 -265s78 -265 225 -265c110 0 195 56 195 170v23h-210v75z" />
    <glyph glyph-name="Gbreve" unicode="&#x11e;" horiz-adv-x="724" 
d="M373 737c-88 0 -148 60 -148 148h65c1 -47 29 -88 83 -88s82 41 83 88h65c0 -88 -60 -148 -148 -148zM362 333h283v-333h-63l-3 89c-39 -64 -109 -99 -205 -99c-188 0 -306 131 -306 340s128 340 313 340c131 0 208 -49 259 -151l-73 -40c-29 76 -94 116 -186 116
c-134 0 -229 -99 -229 -265s78 -265 225 -265c110 0 195 56 195 170v23h-210v75z" />
    <glyph glyph-name="Gcaron" unicode="&#x1e6;" horiz-adv-x="724" 
d="M417 743h-88l-110 159h74l80 -107l80 107h74zM362 333h283v-333h-63l-3 89c-39 -64 -109 -99 -205 -99c-188 0 -306 131 -306 340s128 340 313 340c131 0 208 -49 259 -151l-73 -40c-29 76 -94 116 -186 116c-134 0 -229 -99 -229 -265s78 -265 225 -265
c110 0 195 56 195 170v23h-210v75z" />
    <glyph glyph-name="Gcircumflex" unicode="&#x11c;" horiz-adv-x="724" 
d="M373 850l-80 -107h-74l110 159h88l110 -159h-74zM362 333h283v-333h-63l-3 89c-39 -64 -109 -99 -205 -99c-188 0 -306 131 -306 340s128 340 313 340c131 0 208 -49 259 -151l-73 -40c-29 76 -94 116 -186 116c-134 0 -229 -99 -229 -265s78 -265 225 -265
c110 0 195 56 195 170v23h-210v75z" />
    <glyph glyph-name="uni0122" unicode="&#x122;" horiz-adv-x="724" 
d="M362 333h283v-333h-63l-3 89c-39 -64 -109 -99 -205 -99c-188 0 -306 131 -306 340s128 340 313 340c131 0 208 -49 259 -151l-73 -40c-29 76 -94 116 -186 116c-134 0 -229 -99 -229 -265s78 -265 225 -265c110 0 195 56 195 170v23h-210v75zM314 -237l44 161h84
l-65 -161h-63z" />
    <glyph glyph-name="Gdotaccent" unicode="&#x120;" horiz-adv-x="724" 
d="M373 756c-36 0 -60 24 -60 60s24 60 60 60s60 -24 60 -60s-24 -60 -60 -60zM362 333h283v-333h-63l-3 89c-39 -64 -109 -99 -205 -99c-188 0 -306 131 -306 340s128 340 313 340c131 0 208 -49 259 -151l-73 -40c-29 76 -94 116 -186 116c-134 0 -229 -99 -229 -265
s78 -265 225 -265c110 0 195 56 195 170v23h-210v75z" />
    <glyph glyph-name="uni1E20" unicode="&#x1e20;" horiz-adv-x="724" 
d="M537 823v-67h-328v67h328zM362 333h283v-333h-63l-3 89c-39 -64 -109 -99 -205 -99c-188 0 -306 131 -306 340s128 340 313 340c131 0 208 -49 259 -151l-73 -40c-29 76 -94 116 -186 116c-134 0 -229 -99 -229 -265s78 -265 225 -265c110 0 195 56 195 170v23h-210v75z
" />
    <glyph glyph-name="H" unicode="H" horiz-adv-x="734" 
d="M546 660h80v-660h-80v297h-358v-297h-80v660h80v-288h358v288z" />
    <glyph glyph-name="Hbar" unicode="&#x126;" horiz-adv-x="734" 
d="M704 549v-70h-78v-479h-80v297h-358v-297h-80v479h-78v70h78v111h80v-111h358v111h80v-111h78zM546 372v107h-358v-107h358z" />
    <glyph glyph-name="uni1E2A" unicode="&#x1e2a;" horiz-adv-x="734" 
d="M546 660h80v-660h-80v297h-358v-297h-80v660h80v-288h358v288zM367 -165c54 0 82 41 83 88h65c0 -88 -60 -148 -148 -148s-148 60 -148 148h65c1 -47 29 -88 83 -88z" />
    <glyph glyph-name="Hcircumflex" unicode="&#x124;" horiz-adv-x="734" 
d="M367 850l-80 -107h-74l110 159h88l110 -159h-74zM546 660h80v-660h-80v297h-358v-297h-80v660h80v-288h358v288z" />
    <glyph glyph-name="uni1E24" unicode="&#x1e24;" horiz-adv-x="734" 
d="M546 660h80v-660h-80v297h-358v-297h-80v660h80v-288h358v288zM367 -96c36 0 60 -24 60 -60s-24 -60 -60 -60s-60 24 -60 60s24 60 60 60z" />
    <glyph glyph-name="I" unicode="I" horiz-adv-x="296" 
d="M188 660v-660h-80v660h80z" />
    <glyph glyph-name="IJ" unicode="&#x132;" horiz-adv-x="862" 
d="M188 660v-660h-80v660h80zM761 660v-434c0 -148 -84 -236 -224 -236c-148 0 -220 89 -194 228l74 15c-15 -113 17 -168 117 -168c113 0 147 63 147 181v414h80z" />
    <glyph glyph-name="Iacute" unicode="&#xcd;" horiz-adv-x="296" 
d="M181 902h84l-86 -159h-64zM188 660v-660h-80v660h80z" />
    <glyph glyph-name="Ibreve" unicode="&#x12c;" horiz-adv-x="296" 
d="M296 885c0 -88 -60 -148 -148 -148s-148 60 -148 148h65c1 -47 29 -88 83 -88s82 41 83 88h65zM188 660v-660h-80v660h80z" />
    <glyph glyph-name="Icircumflex" unicode="&#xce;" horiz-adv-x="296" 
d="M302 743h-74l-80 107l-80 -107h-74l110 159h88zM188 660v-660h-80v660h80z" />
    <glyph glyph-name="uni0208" unicode="&#x208;" horiz-adv-x="296" 
d="M25 902l66 -159h-64l-86 159h84zM202 902l66 -159h-64l-86 159h84zM188 660v-660h-80v660h80z" />
    <glyph glyph-name="Idieresis" unicode="&#xcf;" horiz-adv-x="296" 
d="M62 856c34 0 57 -23 57 -57s-23 -57 -57 -57s-57 23 -57 57s23 57 57 57zM234 856c34 0 57 -23 57 -57s-23 -57 -57 -57s-57 23 -57 57s23 57 57 57zM188 660v-660h-80v660h80z" />
    <glyph glyph-name="uni1E2E" unicode="&#x1e2e;" horiz-adv-x="296" 
d="M171 1071h84l-86 -159h-64zM51 856c34 0 57 -23 57 -57s-23 -57 -57 -57s-57 23 -57 57s23 57 57 57zM245 856c34 0 57 -23 57 -57s-23 -57 -57 -57s-57 23 -57 57s23 57 57 57zM188 660v-660h-80v660h80z" />
    <glyph glyph-name="Idotaccent" unicode="&#x130;" horiz-adv-x="296" 
d="M148 876c36 0 60 -24 60 -60s-24 -60 -60 -60s-60 24 -60 60s24 60 60 60zM188 660v-660h-80v660h80z" />
    <glyph glyph-name="uni1ECA" unicode="&#x1eca;" horiz-adv-x="296" 
d="M188 660v-660h-80v660h80zM148 -216c-36 0 -60 24 -60 60s24 60 60 60s60 -24 60 -60s-24 -60 -60 -60z" />
    <glyph glyph-name="Igrave" unicode="&#xcc;" horiz-adv-x="296" 
d="M115 902l66 -159h-64l-86 159h84zM188 660v-660h-80v660h80z" />
    <glyph glyph-name="uni1EC8" unicode="&#x1ec8;" horiz-adv-x="296" 
d="M149 715l-28 32c35 18 52 33 52 63c0 20 -14 36 -39 36c-20 0 -34 -9 -46 -30l-47 32c20 37 55 59 105 59c56 0 92 -38 92 -86c0 -47 -31 -87 -89 -106zM188 660v-660h-80v660h80z" />
    <glyph glyph-name="uni020A" unicode="&#x20a;" horiz-adv-x="296" 
d="M296 737h-65c-1 47 -29 88 -83 88s-82 -41 -83 -88h-65c0 88 60 148 148 148s148 -60 148 -148zM188 660v-660h-80v660h80z" />
    <glyph glyph-name="Imacron" unicode="&#x12a;" horiz-adv-x="296" 
d="M256 823v-67h-216v67h216zM188 660v-660h-80v660h80z" />
    <glyph glyph-name="Iogonek" unicode="&#x12e;" horiz-adv-x="296" 
d="M187 -163l16 -51c-18 -10 -44 -17 -75 -17c-63 0 -112 37 -112 99c0 61 35 98 92 133v659h80v-660c-80 -46 -107 -84 -107 -121c0 -32 20 -53 57 -53c16 0 37 4 49 11z" />
    <glyph glyph-name="Itilde" unicode="&#x128;" horiz-adv-x="296" 
d="M328 877c-7 -88 -43 -134 -112 -134c-75 0 -95 68 -138 68c-30 0 -42 -26 -49 -69h-63c7 88 42 134 113 134c73 0 96 -68 136 -68c30 0 43 26 50 69h63zM188 660v-660h-80v660h80z" />
    <glyph glyph-name="J" unicode="J" horiz-adv-x="566" 
d="M465 660v-434c0 -148 -84 -236 -224 -236c-148 0 -220 89 -194 228l74 15c-15 -113 17 -168 117 -168c113 0 147 63 147 181v414h80z" />
    <glyph glyph-name="Jcircumflex" unicode="&#x134;" horiz-adv-x="566" 
d="M579 743h-74l-80 107l-80 -107h-74l110 159h88zM465 660v-434c0 -148 -84 -236 -224 -236c-148 0 -220 89 -194 228l74 15c-15 -113 17 -168 117 -168c113 0 147 63 147 181v414h80z" />
    <glyph glyph-name="K" unicode="K" horiz-adv-x="656" 
d="M532 0l-226 332l-118 -120v-212h-80v660h80v-340l332 340h105l-263 -269l266 -391h-96z" />
    <glyph glyph-name="uni0136" unicode="&#x136;" horiz-adv-x="656" 
d="M362 391l266 -391h-96l-226 332l-118 -120v-212h-80v660h80v-340l332 340h105zM282 -237l44 161h84l-65 -161h-63z" />
    <glyph glyph-name="L" unicode="L" horiz-adv-x="598" 
d="M188 75h378v-75h-458v660h80v-585z" />
    <glyph glyph-name="uni01C7" unicode="&#x1c7;" horiz-adv-x="1164" 
d="M188 75h378v-75h-458v660h80v-585zM1063 660v-434c0 -148 -84 -236 -224 -236c-148 0 -220 89 -194 228l74 15c-15 -113 17 -168 117 -168c113 0 147 63 147 181v414h80z" />
    <glyph glyph-name="Lacute" unicode="&#x139;" horiz-adv-x="598" 
d="M171 902h84l-86 -159h-64zM188 75h378v-75h-458v660h80v-585z" />
    <glyph glyph-name="Lcaron" unicode="&#x13d;" horiz-adv-x="598" 
d="M188 75h378v-75h-458v660h80v-585zM406 660l-41 -197h-55l20 197h76z" />
    <glyph glyph-name="uni013B" unicode="&#x13b;" horiz-adv-x="598" 
d="M188 75h378v-75h-458v660h80v-585zM399 -76l-65 -161h-63l44 161h84z" />
    <glyph glyph-name="Ldot" unicode="&#x13f;" horiz-adv-x="618" 
d="M188 75h378v-75h-458v660h80v-585zM464 419c39 0 65 -26 65 -65s-26 -65 -65 -65s-65 26 -65 65s26 65 65 65z" />
    <glyph glyph-name="uni1E36" unicode="&#x1e36;" horiz-adv-x="598" 
d="M188 75h378v-75h-458v660h80v-585zM362 -216c-36 0 -60 24 -60 60s24 60 60 60s60 -24 60 -60s-24 -60 -60 -60z" />
    <glyph glyph-name="uni01C8" unicode="&#x1c8;" horiz-adv-x="864" 
d="M731 596c-36 0 -60 24 -60 60s24 60 60 60s60 -24 60 -60s-24 -60 -60 -60zM188 75h378v-75h-458v660h80v-585zM771 500v-551c0 -125 -84 -164 -152 -164c-41 0 -77 14 -100 33l17 76c19 -17 47 -31 82 -31c43 0 73 24 73 94v543h80z" />
    <glyph glyph-name="uni1E3A" unicode="&#x1e3a;" horiz-adv-x="598" 
d="M188 75h378v-75h-458v660h80v-585zM526 -96v-67h-328v67h328z" />
    <glyph glyph-name="Lslash" unicode="&#x141;" horiz-adv-x="628" 
d="M218 75h378v-75h-458v255l-105 -59v83l105 59v322h80v-278l177 99v-83l-177 -99v-224z" />
    <glyph glyph-name="M" unicode="M" horiz-adv-x="854" 
d="M746 660v-660h-76v415l9 174h-1l-217 -589h-68l-217 589h-1l9 -174v-415h-76v660h123l145 -401l50 -165h2l51 164l144 402h123z" />
    <glyph glyph-name="uni1E42" unicode="&#x1e42;" horiz-adv-x="854" 
d="M746 660v-660h-76v415l9 174h-1l-217 -589h-68l-217 589h-1l9 -174v-415h-76v660h123l145 -401l50 -165h2l51 164l144 402h123zM427 -216c-36 0 -60 24 -60 60s24 60 60 60s60 -24 60 -60s-24 -60 -60 -60z" />
    <glyph glyph-name="N" unicode="N" horiz-adv-x="734" 
d="M626 660v-660h-99l-276 442l-70 124h-1l4 -100v-466h-76v660h99l275 -440l71 -127h1l-4 101v466h76z" />
    <glyph glyph-name="uni01CA" unicode="&#x1ca;" horiz-adv-x="1300" 
d="M626 660v-660h-99l-276 442l-70 124h-1l4 -100v-466h-76v660h99l275 -440l71 -127h1l-4 101v466h76zM1199 660v-434c0 -148 -84 -236 -224 -236c-148 0 -220 89 -194 228l74 15c-15 -113 17 -168 117 -168c113 0 147 63 147 181v414h80z" />
    <glyph glyph-name="Nacute" unicode="&#x143;" horiz-adv-x="734" 
d="M394 902h84l-86 -159h-64zM626 660v-660h-99l-276 442l-70 124h-1l4 -100v-466h-76v660h99l275 -440l71 -127h1l-4 101v466h76z" />
    <glyph glyph-name="Ncaron" unicode="&#x147;" horiz-adv-x="734" 
d="M525 902l-110 -159h-88l-110 159h74l80 -107l80 107h74zM626 660v-660h-99l-276 442l-70 124h-1l4 -100v-466h-76v660h99l275 -440l71 -127h1l-4 101v466h76z" />
    <glyph glyph-name="uni0145" unicode="&#x145;" horiz-adv-x="734" 
d="M626 660v-660h-99l-276 442l-70 124h-1l4 -100v-466h-76v660h99l275 -440l71 -127h1l-4 101v466h76zM434 -76l-65 -161h-63l44 161h84z" />
    <glyph glyph-name="uni1E44" unicode="&#x1e44;" horiz-adv-x="734" 
d="M371 876c36 0 60 -24 60 -60s-24 -60 -60 -60s-60 24 -60 60s24 60 60 60zM626 660v-660h-99l-276 442l-70 124h-1l4 -100v-466h-76v660h99l275 -440l71 -127h1l-4 101v466h76z" />
    <glyph glyph-name="uni1E46" unicode="&#x1e46;" horiz-adv-x="734" 
d="M626 660v-660h-99l-276 442l-70 124h-1l4 -100v-466h-76v660h99l275 -440l71 -127h1l-4 101v466h76zM397 -216c-36 0 -60 24 -60 60s24 60 60 60s60 -24 60 -60s-24 -60 -60 -60z" />
    <glyph glyph-name="Eng" unicode="&#x14a;" horiz-adv-x="734" 
d="M474 -215c-41 0 -77 14 -100 33l17 76c19 -17 47 -31 82 -31c43 0 77 24 77 94v46l-299 439l-70 130h-1l4 -106v-466h-76v660h99l300 -440l43 -80h1l-1 520h76v-711c0 -125 -84 -164 -152 -164z" />
    <glyph glyph-name="uni01CB" unicode="&#x1cb;" horiz-adv-x="1000" 
d="M867 596c-36 0 -60 24 -60 60s24 60 60 60s60 -24 60 -60s-24 -60 -60 -60zM626 660v-660h-99l-276 442l-70 124h-1l4 -100v-466h-76v660h99l275 -440l71 -127h1l-4 101v466h76zM907 500v-551c0 -125 -84 -164 -152 -164c-41 0 -77 14 -100 33l17 76
c19 -17 47 -31 82 -31c43 0 73 24 73 94v543h80z" />
    <glyph glyph-name="uni1E48" unicode="&#x1e48;" horiz-adv-x="734" 
d="M626 660v-660h-99l-276 442l-70 124h-1l4 -100v-466h-76v660h99l275 -440l71 -127h1l-4 101v466h76zM561 -96v-67h-328v67h328z" />
    <glyph glyph-name="Ntilde" unicode="&#xd1;" horiz-adv-x="734" 
d="M551 877c-7 -88 -43 -134 -112 -134c-75 0 -95 68 -138 68c-30 0 -42 -26 -49 -69h-63c7 88 42 134 113 134c73 0 96 -68 136 -68c30 0 43 26 50 69h63zM626 660v-660h-99l-276 442l-70 124h-1l4 -100v-466h-76v660h99l275 -440l71 -127h1l-4 101v466h76z" />
    <glyph glyph-name="O" unicode="O" horiz-adv-x="748" 
d="M374 670c188 0 306 -131 306 -340s-118 -340 -306 -340s-306 131 -306 340s118 340 306 340zM374 595c-137 0 -222 -99 -222 -265s85 -265 222 -265s222 99 222 265s-85 265 -222 265z" />
    <glyph glyph-name="Oacute" unicode="&#xd3;" horiz-adv-x="748" 
d="M397 902h84l-86 -159h-64zM374 670c188 0 306 -131 306 -340s-118 -340 -306 -340s-306 131 -306 340s118 340 306 340zM374 595c-137 0 -222 -99 -222 -265s85 -265 222 -265s222 99 222 265s-85 265 -222 265z" />
    <glyph glyph-name="Obreve" unicode="&#x14e;" horiz-adv-x="748" 
d="M522 885c0 -88 -60 -148 -148 -148s-148 60 -148 148h65c1 -47 29 -88 83 -88s82 41 83 88h65zM374 670c188 0 306 -131 306 -340s-118 -340 -306 -340s-306 131 -306 340s118 340 306 340zM374 595c-137 0 -222 -99 -222 -265s85 -265 222 -265s222 99 222 265
s-85 265 -222 265z" />
    <glyph glyph-name="Ocircumflex" unicode="&#xd4;" horiz-adv-x="748" 
d="M528 743h-74l-80 107l-80 -107h-74l110 159h88zM374 670c188 0 306 -131 306 -340s-118 -340 -306 -340s-306 131 -306 340s118 340 306 340zM374 595c-137 0 -222 -99 -222 -265s85 -265 222 -265s222 99 222 265s-85 265 -222 265z" />
    <glyph glyph-name="uni1ED0" unicode="&#x1ed0;" horiz-adv-x="748" 
d="M556 996h75l-77 -143h-58zM533 736h-73l-86 115l-86 -115h-73l114 167h90zM374 670c188 0 306 -131 306 -340s-118 -340 -306 -340s-306 131 -306 340s118 340 306 340zM374 595c-137 0 -222 -99 -222 -265s85 -265 222 -265s222 99 222 265s-85 265 -222 265z" />
    <glyph glyph-name="uni1ED8" unicode="&#x1ed8;" horiz-adv-x="748" 
d="M528 743h-74l-80 107l-80 -107h-74l110 159h88zM374 670c188 0 306 -131 306 -340s-118 -340 -306 -340s-306 131 -306 340s118 340 306 340zM374 595c-137 0 -222 -99 -222 -265s85 -265 222 -265s222 99 222 265s-85 265 -222 265zM374 -216c-36 0 -60 24 -60 60
s24 60 60 60s60 -24 60 -60s-24 -60 -60 -60z" />
    <glyph glyph-name="uni1ED2" unicode="&#x1ed2;" horiz-adv-x="748" 
d="M514 996l60 -143h-58l-77 143h75zM533 736h-73l-86 115l-86 -115h-73l114 167h90zM374 670c188 0 306 -131 306 -340s-118 -340 -306 -340s-306 131 -306 340s118 340 306 340zM374 595c-137 0 -222 -99 -222 -265s85 -265 222 -265s222 99 222 265s-85 265 -222 265z
" />
    <glyph glyph-name="uni1ED4" unicode="&#x1ed4;" horiz-adv-x="748" 
d="M536 833l-28 32c35 18 52 33 52 63c0 20 -14 36 -39 36c-20 0 -34 -9 -46 -30l-47 32c20 37 55 59 105 59c56 0 92 -38 92 -86c0 -47 -31 -87 -89 -106zM533 736h-73l-86 115l-86 -115h-73l114 167h90zM374 670c188 0 306 -131 306 -340s-118 -340 -306 -340
s-306 131 -306 340s118 340 306 340zM374 595c-137 0 -222 -99 -222 -265s85 -265 222 -265s222 99 222 265s-85 265 -222 265z" />
    <glyph glyph-name="uni1ED6" unicode="&#x1ed6;" horiz-adv-x="748" 
d="M548 1055c-7 -85 -46 -125 -109 -125c-75 0 -89 62 -132 62c-27 0 -39 -20 -46 -60h-63c7 85 45 125 110 125c73 0 90 -62 130 -62c27 0 40 20 47 60h63zM533 736h-73l-86 115l-86 -115h-73l114 167h90zM374 670c188 0 306 -131 306 -340s-118 -340 -306 -340
s-306 131 -306 340s118 340 306 340zM374 595c-137 0 -222 -99 -222 -265s85 -265 222 -265s222 99 222 265s-85 265 -222 265z" />
    <glyph glyph-name="uni020C" unicode="&#x20c;" horiz-adv-x="748" 
d="M251 902l66 -159h-64l-86 159h84zM428 902l66 -159h-64l-86 159h84zM374 670c188 0 306 -131 306 -340s-118 -340 -306 -340s-306 131 -306 340s118 340 306 340zM374 595c-137 0 -222 -99 -222 -265s85 -265 222 -265s222 99 222 265s-85 265 -222 265z" />
    <glyph glyph-name="Odieresis" unicode="&#xd6;" horiz-adv-x="748" 
d="M277 856c34 0 57 -23 57 -57s-23 -57 -57 -57s-57 23 -57 57s23 57 57 57zM471 856c34 0 57 -23 57 -57s-23 -57 -57 -57s-57 23 -57 57s23 57 57 57zM374 670c188 0 306 -131 306 -340s-118 -340 -306 -340s-306 131 -306 340s118 340 306 340zM374 595
c-137 0 -222 -99 -222 -265s85 -265 222 -265s222 99 222 265s-85 265 -222 265z" />
    <glyph glyph-name="uni022A" unicode="&#x22a;" horiz-adv-x="748" 
d="M538 992v-67h-328v67h328zM277 856c34 0 57 -23 57 -57s-23 -57 -57 -57s-57 23 -57 57s23 57 57 57zM471 856c34 0 57 -23 57 -57s-23 -57 -57 -57s-57 23 -57 57s23 57 57 57zM374 670c188 0 306 -131 306 -340s-118 -340 -306 -340s-306 131 -306 340s118 340 306 340
zM374 595c-137 0 -222 -99 -222 -265s85 -265 222 -265s222 99 222 265s-85 265 -222 265z" />
    <glyph glyph-name="uni0230" unicode="&#x230;" horiz-adv-x="748" 
d="M538 1012v-67h-328v67h328zM374 876c36 0 60 -24 60 -60s-24 -60 -60 -60s-60 24 -60 60s24 60 60 60zM374 670c188 0 306 -131 306 -340s-118 -340 -306 -340s-306 131 -306 340s118 340 306 340zM374 595c-137 0 -222 -99 -222 -265s85 -265 222 -265s222 99 222 265
s-85 265 -222 265z" />
    <glyph glyph-name="uni1ECC" unicode="&#x1ecc;" horiz-adv-x="748" 
d="M374 670c188 0 306 -131 306 -340s-118 -340 -306 -340s-306 131 -306 340s118 340 306 340zM374 595c-137 0 -222 -99 -222 -265s85 -265 222 -265s222 99 222 265s-85 265 -222 265zM374 -216c-36 0 -60 24 -60 60s24 60 60 60s60 -24 60 -60s-24 -60 -60 -60z" />
    <glyph glyph-name="Ograve" unicode="&#xd2;" horiz-adv-x="748" 
d="M341 902l66 -159h-64l-86 159h84zM374 670c188 0 306 -131 306 -340s-118 -340 -306 -340s-306 131 -306 340s118 340 306 340zM374 595c-137 0 -222 -99 -222 -265s85 -265 222 -265s222 99 222 265s-85 265 -222 265z" />
    <glyph glyph-name="uni1ECE" unicode="&#x1ece;" horiz-adv-x="748" 
d="M375 715l-28 32c35 18 52 33 52 63c0 20 -14 36 -39 36c-20 0 -34 -9 -46 -30l-47 32c20 37 55 59 105 59c56 0 92 -38 92 -86c0 -47 -31 -87 -89 -106zM374 670c188 0 306 -131 306 -340s-118 -340 -306 -340s-306 131 -306 340s118 340 306 340zM374 595
c-137 0 -222 -99 -222 -265s85 -265 222 -265s222 99 222 265s-85 265 -222 265z" />
    <glyph glyph-name="Ohorn" unicode="&#x1a0;" horiz-adv-x="748" 
d="M560 612c77 -57 120 -155 120 -282c0 -209 -118 -340 -306 -340s-306 131 -306 340s118 340 306 340c30 0 59 -3 85 -10c90 1 115 40 115 108h76c0 -77 -31 -131 -90 -156zM374 65c137 0 222 99 222 265s-85 265 -222 265s-222 -99 -222 -265s85 -265 222 -265z" />
    <glyph glyph-name="uni1EDA" unicode="&#x1eda;" horiz-adv-x="748" 
d="M481 902l-86 -159h-64l66 159h84zM560 612c77 -57 120 -155 120 -282c0 -209 -118 -340 -306 -340s-306 131 -306 340s118 340 306 340c30 0 59 -3 85 -10c90 1 115 40 115 108h76c0 -77 -31 -131 -90 -156zM374 65c137 0 222 99 222 265s-85 265 -222 265
s-222 -99 -222 -265s85 -265 222 -265z" />
    <glyph glyph-name="uni1EE2" unicode="&#x1ee2;" horiz-adv-x="748" 
d="M560 612c77 -57 120 -155 120 -282c0 -209 -118 -340 -306 -340s-306 131 -306 340s118 340 306 340c30 0 59 -3 85 -10c90 1 115 40 115 108h76c0 -77 -31 -131 -90 -156zM374 65c137 0 222 99 222 265s-85 265 -222 265s-222 -99 -222 -265s85 -265 222 -265zM374 -96
c36 0 60 -24 60 -60s-24 -60 -60 -60s-60 24 -60 60s24 60 60 60z" />
    <glyph glyph-name="uni1EDC" unicode="&#x1edc;" horiz-adv-x="748" 
d="M417 743h-64l-86 159h84zM560 612c77 -57 120 -155 120 -282c0 -209 -118 -340 -306 -340s-306 131 -306 340s118 340 306 340c30 0 59 -3 85 -10c90 1 115 40 115 108h76c0 -77 -31 -131 -90 -156zM374 65c137 0 222 99 222 265s-85 265 -222 265s-222 -99 -222 -265
s85 -265 222 -265z" />
    <glyph glyph-name="uni1EDE" unicode="&#x1ede;" horiz-adv-x="748" 
d="M360 846c-20 0 -34 -9 -46 -30l-47 32c20 37 55 59 105 59c56 0 92 -38 92 -86c0 -47 -31 -87 -89 -106l-28 32c35 18 52 33 52 63c0 20 -14 36 -39 36zM560 612c77 -57 120 -155 120 -282c0 -209 -118 -340 -306 -340s-306 131 -306 340s118 340 306 340
c30 0 59 -3 85 -10c90 1 115 40 115 108h76c0 -77 -31 -131 -90 -156zM374 65c137 0 222 99 222 265s-85 265 -222 265s-222 -99 -222 -265s85 -265 222 -265z" />
    <glyph glyph-name="uni1EE0" unicode="&#x1ee0;" horiz-adv-x="748" 
d="M304 811c-30 0 -42 -26 -49 -69h-63c7 88 42 134 113 134c73 0 96 -68 136 -68c30 0 43 26 50 69h63c-7 -88 -43 -134 -112 -134c-75 0 -95 68 -138 68zM560 612c77 -57 120 -155 120 -282c0 -209 -118 -340 -306 -340s-306 131 -306 340s118 340 306 340
c30 0 59 -3 85 -10c90 1 115 40 115 108h76c0 -77 -31 -131 -90 -156zM374 65c137 0 222 99 222 265s-85 265 -222 265s-222 -99 -222 -265s85 -265 222 -265z" />
    <glyph glyph-name="Ohungarumlaut" unicode="&#x150;" horiz-adv-x="748" 
d="M320 902h84l-86 -159h-64zM497 902h84l-86 -159h-64zM374 670c188 0 306 -131 306 -340s-118 -340 -306 -340s-306 131 -306 340s118 340 306 340zM374 595c-137 0 -222 -99 -222 -265s85 -265 222 -265s222 99 222 265s-85 265 -222 265z" />
    <glyph glyph-name="uni020E" unicode="&#x20e;" horiz-adv-x="748" 
d="M522 737h-65c-1 47 -29 88 -83 88s-82 -41 -83 -88h-65c0 88 60 148 148 148s148 -60 148 -148zM374 670c188 0 306 -131 306 -340s-118 -340 -306 -340s-306 131 -306 340s118 340 306 340zM374 595c-137 0 -222 -99 -222 -265s85 -265 222 -265s222 99 222 265
s-85 265 -222 265z" />
    <glyph glyph-name="Omacron" unicode="&#x14c;" horiz-adv-x="748" 
d="M538 823v-67h-328v67h328zM374 670c188 0 306 -131 306 -340s-118 -340 -306 -340s-306 131 -306 340s118 340 306 340zM374 595c-137 0 -222 -99 -222 -265s85 -265 222 -265s222 99 222 265s-85 265 -222 265z" />
    <glyph glyph-name="uni1E52" unicode="&#x1e52;" horiz-adv-x="748" 
d="M397 1063h84l-86 -159h-64zM538 823v-67h-328v67h328zM374 670c188 0 306 -131 306 -340s-118 -340 -306 -340s-306 131 -306 340s118 340 306 340zM374 595c-137 0 -222 -99 -222 -265s85 -265 222 -265s222 99 222 265s-85 265 -222 265z" />
    <glyph glyph-name="uni1E50" unicode="&#x1e50;" horiz-adv-x="748" 
d="M351 1063l66 -159h-64l-86 159h84zM538 823v-67h-328v67h328zM374 670c188 0 306 -131 306 -340s-118 -340 -306 -340s-306 131 -306 340s118 340 306 340zM374 595c-137 0 -222 -99 -222 -265s85 -265 222 -265s222 99 222 265s-85 265 -222 265z" />
    <glyph glyph-name="uni01EA" unicode="&#x1ea;" horiz-adv-x="748" 
d="M472 4c-105 -40 -119 -76 -119 -117c0 -35 24 -54 62 -54c20 0 39 4 55 11l12 -53c-18 -9 -46 -16 -74 -16c-76 0 -118 42 -118 103c0 51 21 85 66 112c-178 9 -288 138 -288 340c0 209 118 340 306 340s306 -131 306 -340c0 -170 -78 -288 -208 -326zM152 330
c0 -166 85 -265 222 -265s222 99 222 265s-85 265 -222 265s-222 -99 -222 -265z" />
    <glyph glyph-name="Oslash" unicode="&#xd8;" horiz-adv-x="748" 
d="M592 584c56 -59 88 -146 88 -254c0 -209 -118 -340 -306 -340c-64 0 -120 15 -166 43l-49 -70h-71l74 107c-60 59 -94 148 -94 260c0 209 118 340 306 340c68 0 126 -17 173 -48l43 61h71zM152 330c0 -81 20 -147 57 -192l293 419c-35 25 -78 38 -128 38
c-137 0 -222 -99 -222 -265zM374 65c137 0 222 99 222 265c0 77 -18 140 -52 185l-291 -417c34 -22 74 -33 121 -33z" />
    <glyph glyph-name="Oslashacute" unicode="&#x1fe;" horiz-adv-x="748" 
d="M481 902l-86 -159h-64l66 159h84zM592 584c56 -59 88 -146 88 -254c0 -209 -118 -340 -306 -340c-64 0 -120 15 -166 43l-49 -70h-71l74 107c-60 59 -94 148 -94 260c0 209 118 340 306 340c68 0 126 -17 173 -48l43 61h71zM152 330c0 -81 20 -147 57 -192l293 419
c-35 25 -78 38 -128 38c-137 0 -222 -99 -222 -265zM374 65c137 0 222 99 222 265c0 77 -18 140 -52 185l-291 -417c34 -22 74 -33 121 -33z" />
    <glyph glyph-name="Otilde" unicode="&#xd5;" horiz-adv-x="748" 
d="M554 877c-7 -88 -43 -134 -112 -134c-75 0 -95 68 -138 68c-30 0 -42 -26 -49 -69h-63c7 88 42 134 113 134c73 0 96 -68 136 -68c30 0 43 26 50 69h63zM374 670c188 0 306 -131 306 -340s-118 -340 -306 -340s-306 131 -306 340s118 340 306 340zM374 595
c-137 0 -222 -99 -222 -265s85 -265 222 -265s222 99 222 265s-85 265 -222 265z" />
    <glyph glyph-name="uni1E4C" unicode="&#x1e4c;" horiz-adv-x="748" 
d="M396 1100h84l-86 -159h-64zM554 877c-7 -88 -43 -134 -112 -134c-75 0 -95 68 -138 68c-30 0 -42 -26 -49 -69h-63c7 88 42 134 113 134c73 0 96 -68 136 -68c30 0 43 26 50 69h63zM374 670c188 0 306 -131 306 -340s-118 -340 -306 -340s-306 131 -306 340
s118 340 306 340zM374 595c-137 0 -222 -99 -222 -265s85 -265 222 -265s222 99 222 265s-85 265 -222 265z" />
    <glyph glyph-name="uni1E4E" unicode="&#x1e4e;" horiz-adv-x="748" 
d="M276 1054c34 0 57 -23 57 -57s-23 -57 -57 -57s-57 23 -57 57s23 57 57 57zM470 1054c34 0 57 -23 57 -57s-23 -57 -57 -57s-57 23 -57 57s23 57 57 57zM554 877c-7 -88 -43 -134 -112 -134c-75 0 -95 68 -138 68c-30 0 -42 -26 -49 -69h-63c7 88 42 134 113 134
c73 0 96 -68 136 -68c30 0 43 26 50 69h63zM374 670c188 0 306 -131 306 -340s-118 -340 -306 -340s-306 131 -306 340s118 340 306 340zM374 595c-137 0 -222 -99 -222 -265s85 -265 222 -265s222 99 222 265s-85 265 -222 265z" />
    <glyph glyph-name="uni022C" unicode="&#x22c;" horiz-adv-x="748" 
d="M537 1021v-67h-328v67h328zM554 877c-7 -88 -43 -134 -112 -134c-75 0 -95 68 -138 68c-30 0 -42 -26 -49 -69h-63c7 88 42 134 113 134c73 0 96 -68 136 -68c30 0 43 26 50 69h63zM374 670c188 0 306 -131 306 -340s-118 -340 -306 -340s-306 131 -306 340
s118 340 306 340zM374 595c-137 0 -222 -99 -222 -265s85 -265 222 -265s222 99 222 265s-85 265 -222 265z" />
    <glyph glyph-name="OE" unicode="&#x152;" horiz-adv-x="1080" 
d="M659 75h369v-75h-442v99c-49 -70 -124 -109 -214 -109c-188 0 -304 131 -304 340s114 340 308 340c89 0 162 -38 210 -107v97h427v-75h-354v-213h269v-75h-269v-222zM376 65c125 0 210 99 210 265s-85 265 -210 265c-143 0 -224 -99 -224 -265s81 -265 224 -265z" />
    <glyph glyph-name="P" unicode="P" horiz-adv-x="610" 
d="M341 660c133 0 222 -77 222 -201s-89 -201 -222 -201h-153v-258h-80v660h233zM329 333c104 0 150 44 150 126s-46 126 -150 126h-141v-252h141z" />
    <glyph glyph-name="Thorn" unicode="&#xde;" horiz-adv-x="627" 
d="M327 542c164 0 246 -73 246 -205c0 -131 -82 -205 -246 -205h-139v-132h-80v660h80v-118h139zM335 207c104 0 154 42 154 130s-50 130 -154 130h-147v-260h147z" />
    <glyph glyph-name="Q" unicode="Q" horiz-adv-x="748" 
d="M536 -114c49 0 93 14 118 37l26 -74c-32 -28 -97 -44 -146 -44c-97 0 -188 44 -197 187c-166 16 -269 143 -269 338c0 209 118 340 306 340s306 -131 306 -340c0 -196 -104 -323 -271 -338c8 -90 64 -106 127 -106zM152 330c0 -166 85 -265 222 -265s222 99 222 265
s-85 265 -222 265s-222 -99 -222 -265z" />
    <glyph glyph-name="R" unicode="R" horiz-adv-x="665" 
d="M621 0h-95l-180 274h-158v-274h-80v660h250c134 0 223 -74 223 -193c0 -95 -57 -158 -148 -180zM188 585v-236h169c94 0 140 39 140 118s-46 118 -140 118h-169z" />
    <glyph glyph-name="Racute" unicode="&#x154;" horiz-adv-x="665" 
d="M429 902l-86 -159h-64l66 159h84zM621 0h-95l-180 274h-158v-274h-80v660h250c134 0 223 -74 223 -193c0 -95 -57 -158 -148 -180zM188 585v-236h169c94 0 140 39 140 118s-46 118 -140 118h-169z" />
    <glyph glyph-name="Rcaron" unicode="&#x158;" horiz-adv-x="665" 
d="M366 743h-88l-110 159h74l80 -107l80 107h74zM621 0h-95l-180 274h-158v-274h-80v660h250c134 0 223 -74 223 -193c0 -95 -57 -158 -148 -180zM188 585v-236h169c94 0 140 39 140 118s-46 118 -140 118h-169z" />
    <glyph glyph-name="uni0156" unicode="&#x156;" horiz-adv-x="665" 
d="M433 287l188 -287h-95l-180 274h-158v-274h-80v660h250c134 0 223 -74 223 -193c0 -95 -57 -158 -148 -180zM188 585v-236h169c94 0 140 39 140 118s-46 118 -140 118h-169zM274 -237l44 161h84l-65 -161h-63z" />
    <glyph glyph-name="uni0210" unicode="&#x210;" horiz-adv-x="665" 
d="M265 743h-64l-86 159h84zM442 743h-64l-86 159h84zM621 0h-95l-180 274h-158v-274h-80v660h250c134 0 223 -74 223 -193c0 -95 -57 -158 -148 -180zM188 585v-236h169c94 0 140 39 140 118s-46 118 -140 118h-169z" />
    <glyph glyph-name="uni1E5A" unicode="&#x1e5a;" horiz-adv-x="665" 
d="M433 287l188 -287h-95l-180 274h-158v-274h-80v660h250c134 0 223 -74 223 -193c0 -95 -57 -158 -148 -180zM188 585v-236h169c94 0 140 39 140 118s-46 118 -140 118h-169zM365 -96c36 0 60 -24 60 -60s-24 -60 -60 -60s-60 24 -60 60s24 60 60 60z" />
    <glyph glyph-name="uni0212" unicode="&#x212;" horiz-adv-x="665" 
d="M322 825c-54 0 -82 -41 -83 -88h-65c0 88 60 148 148 148s148 -60 148 -148h-65c-1 47 -29 88 -83 88zM621 0h-95l-180 274h-158v-274h-80v660h250c134 0 223 -74 223 -193c0 -95 -57 -158 -148 -180zM188 585v-236h169c94 0 140 39 140 118s-46 118 -140 118h-169z" />
    <glyph glyph-name="uni1E5E" unicode="&#x1e5e;" horiz-adv-x="665" 
d="M526 0l-180 274h-158v-274h-80v660h250c134 0 223 -74 223 -193c0 -95 -57 -158 -148 -180l188 -287h-95zM188 585v-236h169c94 0 140 39 140 118s-46 118 -140 118h-169zM201 -163v67h328v-67h-328z" />
    <glyph glyph-name="S" unicode="S" horiz-adv-x="641" 
d="M320 670c116 0 199 -48 255 -140l-67 -52c-49 85 -108 117 -196 117c-107 0 -154 -49 -154 -110c0 -47 22 -83 110 -103l143 -32c126 -28 170 -85 170 -169c0 -113 -100 -191 -254 -191c-143 0 -235 64 -284 146l70 57c38 -76 108 -128 219 -128c102 0 166 38 166 109
c0 42 -23 79 -100 96l-155 35c-123 27 -169 90 -169 169c0 106 93 196 246 196z" />
    <glyph glyph-name="Sacute" unicode="&#x15a;" horiz-adv-x="641" 
d="M349 902h84l-86 -159h-64zM320 670c116 0 199 -48 255 -140l-67 -52c-49 85 -108 117 -196 117c-107 0 -154 -49 -154 -110c0 -47 22 -83 110 -103l143 -32c126 -28 170 -85 170 -169c0 -113 -100 -191 -254 -191c-143 0 -235 64 -284 146l70 57
c38 -76 108 -128 219 -128c102 0 166 38 166 109c0 42 -23 79 -100 96l-155 35c-123 27 -169 90 -169 169c0 106 93 196 246 196z" />
    <glyph glyph-name="uni1E64" unicode="&#x1e64;" horiz-adv-x="641" 
d="M326 1087c36 0 60 -24 60 -60s-24 -60 -60 -60s-60 24 -60 60s24 60 60 60zM349 902h84l-86 -159h-64zM320 670c116 0 199 -48 255 -140l-67 -52c-49 85 -108 117 -196 117c-107 0 -154 -49 -154 -110c0 -47 22 -83 110 -103l143 -32c126 -28 170 -85 170 -169
c0 -113 -100 -191 -254 -191c-143 0 -235 64 -284 146l70 57c38 -76 108 -128 219 -128c102 0 166 38 166 109c0 42 -23 79 -100 96l-155 35c-123 27 -169 90 -169 169c0 106 93 196 246 196z" />
    <glyph glyph-name="Scaron" unicode="&#x160;" horiz-adv-x="641" 
d="M480 902l-110 -159h-88l-110 159h74l80 -107l80 107h74zM320 670c116 0 199 -48 255 -140l-67 -52c-49 85 -108 117 -196 117c-107 0 -154 -49 -154 -110c0 -47 22 -83 110 -103l143 -32c126 -28 170 -85 170 -169c0 -113 -100 -191 -254 -191c-143 0 -235 64 -284 146
l70 57c38 -76 108 -128 219 -128c102 0 166 38 166 109c0 42 -23 79 -100 96l-155 35c-123 27 -169 90 -169 169c0 106 93 196 246 196z" />
    <glyph glyph-name="uni1E66" unicode="&#x1e66;" horiz-adv-x="641" 
d="M326 1083c36 0 60 -24 60 -60s-24 -60 -60 -60s-60 24 -60 60s24 60 60 60zM480 902l-110 -159h-88l-110 159h74l80 -107l80 107h74zM320 670c116 0 199 -48 255 -140l-67 -52c-49 85 -108 117 -196 117c-107 0 -154 -49 -154 -110c0 -47 22 -83 110 -103l143 -32
c126 -28 170 -85 170 -169c0 -113 -100 -191 -254 -191c-143 0 -235 64 -284 146l70 57c38 -76 108 -128 219 -128c102 0 166 38 166 109c0 42 -23 79 -100 96l-155 35c-123 27 -169 90 -169 169c0 106 93 196 246 196z" />
    <glyph glyph-name="Scedilla" unicode="&#x15e;" horiz-adv-x="641" 
d="M581 181c0 -101 -80 -174 -207 -188c28 -25 40 -56 40 -92c0 -64 -51 -116 -121 -116c-42 0 -72 12 -95 29l19 58c18 -12 37 -23 67 -23c37 0 64 24 64 70c0 30 -16 50 -59 73c-122 10 -201 70 -246 144l70 57c38 -76 108 -128 219 -128c102 0 166 38 166 109
c0 42 -23 79 -100 96l-155 35c-123 27 -169 90 -169 169c0 106 93 196 246 196c116 0 199 -48 255 -140l-67 -52c-49 85 -108 117 -196 117c-107 0 -154 -49 -154 -110c0 -47 22 -83 110 -103l143 -32c126 -28 170 -85 170 -169z" />
    <glyph glyph-name="Scircumflex" unicode="&#x15c;" horiz-adv-x="641" 
d="M480 743h-74l-80 107l-80 -107h-74l110 159h88zM320 670c116 0 199 -48 255 -140l-67 -52c-49 85 -108 117 -196 117c-107 0 -154 -49 -154 -110c0 -47 22 -83 110 -103l143 -32c126 -28 170 -85 170 -169c0 -113 -100 -191 -254 -191c-143 0 -235 64 -284 146l70 57
c38 -76 108 -128 219 -128c102 0 166 38 166 109c0 42 -23 79 -100 96l-155 35c-123 27 -169 90 -169 169c0 106 93 196 246 196z" />
    <glyph glyph-name="uni0218" unicode="&#x218;" horiz-adv-x="641" 
d="M320 670c116 0 199 -48 255 -140l-67 -52c-49 85 -108 117 -196 117c-107 0 -154 -49 -154 -110c0 -47 22 -83 110 -103l143 -32c126 -28 170 -85 170 -169c0 -113 -100 -191 -254 -191c-143 0 -235 64 -284 146l70 57c38 -76 108 -128 219 -128c102 0 166 38 166 109
c0 42 -23 79 -100 96l-155 35c-123 27 -169 90 -169 169c0 106 93 196 246 196zM355 -76l-65 -161h-63l44 161h84z" />
    <glyph glyph-name="uni1E60" unicode="&#x1e60;" horiz-adv-x="641" 
d="M326 876c36 0 60 -24 60 -60s-24 -60 -60 -60s-60 24 -60 60s24 60 60 60zM320 670c116 0 199 -48 255 -140l-67 -52c-49 85 -108 117 -196 117c-107 0 -154 -49 -154 -110c0 -47 22 -83 110 -103l143 -32c126 -28 170 -85 170 -169c0 -113 -100 -191 -254 -191
c-143 0 -235 64 -284 146l70 57c38 -76 108 -128 219 -128c102 0 166 38 166 109c0 42 -23 79 -100 96l-155 35c-123 27 -169 90 -169 169c0 106 93 196 246 196z" />
    <glyph glyph-name="uni1E62" unicode="&#x1e62;" horiz-adv-x="641" 
d="M320 670c116 0 199 -48 255 -140l-67 -52c-49 85 -108 117 -196 117c-107 0 -154 -49 -154 -110c0 -47 22 -83 110 -103l143 -32c126 -28 170 -85 170 -169c0 -113 -100 -191 -254 -191c-143 0 -235 64 -284 146l70 57c38 -76 108 -128 219 -128c102 0 166 38 166 109
c0 42 -23 79 -100 96l-155 35c-123 27 -169 90 -169 169c0 106 93 196 246 196zM318 -216c-36 0 -60 24 -60 60s24 60 60 60s60 -24 60 -60s-24 -60 -60 -60z" />
    <glyph glyph-name="uni1E68" unicode="&#x1e68;" horiz-adv-x="641" 
d="M326 876c36 0 60 -24 60 -60s-24 -60 -60 -60s-60 24 -60 60s24 60 60 60zM320 670c116 0 199 -48 255 -140l-67 -52c-49 85 -108 117 -196 117c-107 0 -154 -49 -154 -110c0 -47 22 -83 110 -103l143 -32c126 -28 170 -85 170 -169c0 -113 -100 -191 -254 -191
c-143 0 -235 64 -284 146l70 57c38 -76 108 -128 219 -128c102 0 166 38 166 109c0 42 -23 79 -100 96l-155 35c-123 27 -169 90 -169 169c0 106 93 196 246 196zM318 -216c-36 0 -60 24 -60 60s24 60 60 60s60 -24 60 -60s-24 -60 -60 -60z" />
    <glyph glyph-name="uni1E9E" unicode="&#x1e9e;" horiz-adv-x="671" 
d="M433 -5c-83 0 -142 26 -168 54l36 69c28 -30 75 -50 127 -50c83 0 128 54 128 123c0 72 -51 111 -129 111h-101v68l174 215h-183c-77 0 -142 -60 -142 -143v-442h-80v443c0 130 95 217 222 217h278v-76l-183 -214h35c111 0 191 -67 191 -177c0 -123 -86 -198 -205 -198z
" />
    <glyph glyph-name="uni018F" unicode="&#x18f;" horiz-adv-x="713" 
d="M341 670c188 0 304 -131 304 -340s-120 -340 -304 -340c-167 0 -286 116 -286 312c0 19 1 37 3 57h502c-9 148 -90 236 -219 236c-93 0 -159 -48 -190 -137l-84 30c44 113 145 182 274 182zM348 65c120 0 196 71 211 214h-415v-5c0 -132 92 -209 204 -209z" />
    <glyph glyph-name="T" unicode="T" 
d="M572 660v-75h-230v-585h-80v585h-230v75h540z" />
    <glyph glyph-name="Tbar" unicode="&#x166;" 
d="M572 585h-230v-226h159v-75h-159v-284h-80v284h-158v75h158v226h-230v75h540v-75z" />
    <glyph glyph-name="Tcaron" unicode="&#x164;" 
d="M456 902l-110 -159h-88l-110 159h74l80 -107l80 107h74zM572 660v-75h-230v-585h-80v585h-230v75h540z" />
    <glyph glyph-name="uni0162" unicode="&#x162;" 
d="M572 585h-230v-580c39 -26 56 -62 56 -104c0 -64 -51 -116 -121 -116c-42 0 -72 12 -95 29l19 58c18 -12 37 -23 67 -23c37 0 64 24 64 70c0 35 -22 57 -70 81v585h-230v75h540v-75z" />
    <glyph glyph-name="uni021A" unicode="&#x21a;" 
d="M572 660v-75h-230v-585h-80v585h-230v75h540zM355 -76l-65 -161h-63l44 161h84z" />
    <glyph glyph-name="uni1E6C" unicode="&#x1e6c;" 
d="M572 660v-75h-230v-585h-80v585h-230v75h540zM302 -216c-36 0 -60 24 -60 60s24 60 60 60s60 -24 60 -60s-24 -60 -60 -60z" />
    <glyph glyph-name="uni1E6E" unicode="&#x1e6e;" 
d="M572 660v-75h-230v-585h-80v585h-230v75h540zM466 -96v-67h-328v67h328z" />
    <glyph glyph-name="U" unicode="U" horiz-adv-x="708" 
d="M613 660v-414c0 -170 -92 -256 -259 -256c-166 0 -259 86 -259 256v414h80v-394c0 -138 56 -201 179 -201s179 63 179 201v394h80z" />
    <glyph glyph-name="Uacute" unicode="&#xda;" horiz-adv-x="708" 
d="M377 877h84l-86 -159h-64zM613 660v-414c0 -170 -92 -256 -259 -256c-166 0 -259 86 -259 256v414h80v-394c0 -138 56 -201 179 -201s179 63 179 201v394h80z" />
    <glyph glyph-name="Ubreve" unicode="&#x16c;" horiz-adv-x="708" 
d="M502 860c0 -88 -60 -148 -148 -148s-148 60 -148 148h65c1 -47 29 -88 83 -88s82 41 83 88h65zM613 660v-414c0 -170 -92 -256 -259 -256c-166 0 -259 86 -259 256v414h80v-394c0 -138 56 -201 179 -201s179 63 179 201v394h80z" />
    <glyph glyph-name="Ucircumflex" unicode="&#xdb;" horiz-adv-x="708" 
d="M508 718h-74l-80 107l-80 -107h-74l110 159h88zM613 660v-414c0 -170 -92 -256 -259 -256c-166 0 -259 86 -259 256v414h80v-394c0 -138 56 -201 179 -201s179 63 179 201v394h80z" />
    <glyph glyph-name="uni0214" unicode="&#x214;" horiz-adv-x="708" 
d="M231 877l66 -159h-64l-86 159h84zM408 877l66 -159h-64l-86 159h84zM613 660v-414c0 -170 -92 -256 -259 -256c-166 0 -259 86 -259 256v414h80v-394c0 -138 56 -201 179 -201s179 63 179 201v394h80z" />
    <glyph glyph-name="Udieresis" unicode="&#xdc;" horiz-adv-x="708" 
d="M257 831c34 0 57 -23 57 -57s-23 -57 -57 -57s-57 23 -57 57s23 57 57 57zM451 831c34 0 57 -23 57 -57s-23 -57 -57 -57s-57 23 -57 57s23 57 57 57zM613 660v-414c0 -170 -92 -256 -259 -256c-166 0 -259 86 -259 256v414h80v-394c0 -138 56 -201 179 -201
s179 63 179 201v394h80z" />
    <glyph glyph-name="uni1EE4" unicode="&#x1ee4;" horiz-adv-x="708" 
d="M613 660v-414c0 -170 -92 -256 -259 -256c-166 0 -259 86 -259 256v414h80v-394c0 -138 56 -201 179 -201s179 63 179 201v394h80zM354 -216c-36 0 -60 24 -60 60s24 60 60 60s60 -24 60 -60s-24 -60 -60 -60z" />
    <glyph glyph-name="Ugrave" unicode="&#xd9;" horiz-adv-x="708" 
d="M331 877l66 -159h-64l-86 159h84zM613 660v-414c0 -170 -92 -256 -259 -256c-166 0 -259 86 -259 256v414h80v-394c0 -138 56 -201 179 -201s179 63 179 201v394h80z" />
    <glyph glyph-name="uni1EE6" unicode="&#x1ee6;" horiz-adv-x="708" 
d="M355 690l-28 32c35 18 52 33 52 63c0 20 -14 36 -39 36c-20 0 -34 -9 -46 -30l-47 32c20 37 55 59 105 59c56 0 92 -38 92 -86c0 -47 -31 -87 -89 -106zM613 660v-414c0 -170 -92 -256 -259 -256c-166 0 -259 86 -259 256v414h80v-394c0 -138 56 -201 179 -201
s179 63 179 201v394h80z" />
    <glyph glyph-name="Uhorn" unicode="&#x1af;" horiz-adv-x="708" 
d="M717 768c0 -85 -38 -142 -104 -162v-360c0 -170 -92 -256 -259 -256c-166 0 -259 86 -259 256v414h80v-394c0 -138 56 -201 179 -201s179 63 179 201v391l-1 3c83 0 109 39 109 108h76z" />
    <glyph glyph-name="uni1EE8" unicode="&#x1ee8;" horiz-adv-x="708" 
d="M461 877l-86 -159h-64l66 159h84zM717 768c0 -85 -38 -142 -104 -162v-360c0 -170 -92 -256 -259 -256c-166 0 -259 86 -259 256v414h80v-394c0 -138 56 -201 179 -201s179 63 179 201v391l-1 3c83 0 109 39 109 108h76z" />
    <glyph glyph-name="uni1EF0" unicode="&#x1ef0;" horiz-adv-x="708" 
d="M717 768c0 -85 -38 -142 -104 -162v-360c0 -170 -92 -256 -259 -256c-166 0 -259 86 -259 256v414h80v-394c0 -138 56 -201 179 -201s179 63 179 201v391l-1 3c83 0 109 39 109 108h76zM354 -96c36 0 60 -24 60 -60s-24 -60 -60 -60s-60 24 -60 60s24 60 60 60z" />
    <glyph glyph-name="uni1EEA" unicode="&#x1eea;" horiz-adv-x="708" 
d="M397 718h-64l-86 159h84zM717 768c0 -85 -38 -142 -104 -162v-360c0 -170 -92 -256 -259 -256c-166 0 -259 86 -259 256v414h80v-394c0 -138 56 -201 179 -201s179 63 179 201v391l-1 3c83 0 109 39 109 108h76z" />
    <glyph glyph-name="uni1EEC" unicode="&#x1eec;" horiz-adv-x="708" 
d="M340 821c-20 0 -34 -9 -46 -30l-47 32c20 37 55 59 105 59c56 0 92 -38 92 -86c0 -47 -31 -87 -89 -106l-28 32c35 18 52 33 52 63c0 20 -14 36 -39 36zM717 768c0 -85 -38 -142 -104 -162v-360c0 -170 -92 -256 -259 -256c-166 0 -259 86 -259 256v414h80v-394
c0 -138 56 -201 179 -201s179 63 179 201v391l-1 3c83 0 109 39 109 108h76z" />
    <glyph glyph-name="uni1EEE" unicode="&#x1eee;" horiz-adv-x="708" 
d="M284 786c-30 0 -42 -26 -49 -69h-63c7 88 42 134 113 134c73 0 96 -68 136 -68c30 0 43 26 50 69h63c-7 -88 -43 -134 -112 -134c-75 0 -95 68 -138 68zM717 768c0 -85 -38 -142 -104 -162v-360c0 -170 -92 -256 -259 -256c-166 0 -259 86 -259 256v414h80v-394
c0 -138 56 -201 179 -201s179 63 179 201v391l-1 3c83 0 109 39 109 108h76z" />
    <glyph glyph-name="Uhungarumlaut" unicode="&#x170;" horiz-adv-x="708" 
d="M300 877h84l-86 -159h-64zM477 877h84l-86 -159h-64zM613 660v-414c0 -170 -92 -256 -259 -256c-166 0 -259 86 -259 256v414h80v-394c0 -138 56 -201 179 -201s179 63 179 201v394h80z" />
    <glyph glyph-name="uni0216" unicode="&#x216;" horiz-adv-x="708" 
d="M502 712h-65c-1 47 -29 88 -83 88s-82 -41 -83 -88h-65c0 88 60 148 148 148s148 -60 148 -148zM613 660v-414c0 -170 -92 -256 -259 -256c-166 0 -259 86 -259 256v414h80v-394c0 -138 56 -201 179 -201s179 63 179 201v394h80z" />
    <glyph glyph-name="Umacron" unicode="&#x16a;" horiz-adv-x="708" 
d="M518 798v-67h-328v67h328zM613 660v-414c0 -170 -92 -256 -259 -256c-166 0 -259 86 -259 256v414h80v-394c0 -138 56 -201 179 -201s179 63 179 201v394h80z" />
    <glyph glyph-name="uni1E7A" unicode="&#x1e7a;" horiz-adv-x="708" 
d="M257 992c34 0 57 -23 57 -57s-23 -57 -57 -57s-57 23 -57 57s23 57 57 57zM451 992c34 0 57 -23 57 -57s-23 -57 -57 -57s-57 23 -57 57s23 57 57 57zM518 798v-67h-328v67h328zM613 660v-414c0 -170 -92 -256 -259 -256c-166 0 -259 86 -259 256v414h80v-394
c0 -138 56 -201 179 -201s179 63 179 201v394h80z" />
    <glyph glyph-name="Uogonek" unicode="&#x172;" horiz-adv-x="708" 
d="M533 660h80v-414c0 -128 -52 -208 -149 -240c-98 -38 -112 -74 -112 -114c0 -35 24 -54 62 -54c20 0 39 4 55 11l12 -53c-18 -9 -46 -16 -74 -16c-76 0 -118 42 -118 103c0 48 19 80 57 107c-161 3 -251 89 -251 256v414h80v-394c0 -138 56 -201 179 -201s179 63 179 201
v394z" />
    <glyph glyph-name="Uring" unicode="&#x16e;" horiz-adv-x="708" 
d="M351 920c75 0 125 -48 125 -118c0 -71 -50 -119 -125 -119s-126 48 -126 119c0 70 51 118 126 118zM351 871c-41 0 -71 -29 -71 -69s30 -69 71 -69s71 29 71 69s-30 69 -71 69zM613 660v-414c0 -170 -92 -256 -259 -256c-166 0 -259 86 -259 256v414h80v-394
c0 -138 56 -201 179 -201s179 63 179 201v394h80z" />
    <glyph glyph-name="Utilde" unicode="&#x168;" horiz-adv-x="708" 
d="M534 852c-7 -88 -43 -134 -112 -134c-75 0 -95 68 -138 68c-30 0 -42 -26 -49 -69h-63c7 88 42 134 113 134c73 0 96 -68 136 -68c30 0 43 26 50 69h63zM613 660v-414c0 -170 -92 -256 -259 -256c-166 0 -259 86 -259 256v414h80v-394c0 -138 56 -201 179 -201
s179 63 179 201v394h80z" />
    <glyph glyph-name="uni1E78" unicode="&#x1e78;" horiz-adv-x="708" 
d="M376 1075h84l-86 -159h-64zM534 852c-7 -88 -43 -134 -112 -134c-75 0 -95 68 -138 68c-30 0 -42 -26 -49 -69h-63c7 88 42 134 113 134c73 0 96 -68 136 -68c30 0 43 26 50 69h63zM613 660v-414c0 -170 -92 -256 -259 -256c-166 0 -259 86 -259 256v414h80v-394
c0 -138 56 -201 179 -201s179 63 179 201v394h80z" />
    <glyph glyph-name="V" unicode="V" horiz-adv-x="648" 
d="M620 660l-250 -660h-91l-251 660h86l168 -456l42 -131l42 130l168 457h86z" />
    <glyph glyph-name="W" unicode="W" horiz-adv-x="961" 
d="M231 0l-195 660h83l163 -587l155 587h91l155 -589l163 589h79l-194 -660h-99l-117 428l-34 149h-1l-34 -149l-116 -428h-99z" />
    <glyph glyph-name="Wacute" unicode="&#x1e82;" horiz-adv-x="961" 
d="M504 902h84l-86 -159h-64zM231 0l-195 660h83l163 -587l155 587h91l155 -589l163 589h79l-194 -660h-99l-117 428l-34 149h-1l-34 -149l-116 -428h-99z" />
    <glyph glyph-name="Wcircumflex" unicode="&#x174;" horiz-adv-x="961" 
d="M635 743h-74l-80 107l-80 -107h-74l110 159h88zM231 0l-195 660h83l163 -587l155 587h91l155 -589l163 589h79l-194 -660h-99l-117 428l-34 149h-1l-34 -149l-116 -428h-99z" />
    <glyph glyph-name="Wdieresis" unicode="&#x1e84;" horiz-adv-x="961" 
d="M384 856c34 0 57 -23 57 -57s-23 -57 -57 -57s-57 23 -57 57s23 57 57 57zM578 856c34 0 57 -23 57 -57s-23 -57 -57 -57s-57 23 -57 57s23 57 57 57zM231 0l-195 660h83l163 -587l155 587h91l155 -589l163 589h79l-194 -660h-99l-117 428l-34 149h-1l-34 -149l-116 -428
h-99z" />
    <glyph glyph-name="Wgrave" unicode="&#x1e80;" horiz-adv-x="961" 
d="M458 902l66 -159h-64l-86 159h84zM231 0l-195 660h83l163 -587l155 587h91l155 -589l163 589h79l-194 -660h-99l-117 428l-34 149h-1l-34 -149l-116 -428h-99z" />
    <glyph glyph-name="X" unicode="X" horiz-adv-x="601" 
d="M569 0h-92l-179 272l-180 -272h-93l231 336l-211 324h94l167 -257l169 257h87l-214 -320z" />
    <glyph glyph-name="Y" unicode="Y" horiz-adv-x="572" 
d="M562 660l-236 -402v-258h-80v258l-236 402h95l181 -320l181 320h95z" />
    <glyph glyph-name="Yacute" unicode="&#xdd;" horiz-adv-x="572" 
d="M309 882h84l-86 -159h-64zM562 660l-236 -402v-258h-80v258l-236 402h95l181 -320l181 320h95z" />
    <glyph glyph-name="Ycircumflex" unicode="&#x176;" horiz-adv-x="572" 
d="M440 723h-74l-80 107l-80 -107h-74l110 159h88zM562 660l-236 -402v-258h-80v258l-236 402h95l181 -320l181 320h95z" />
    <glyph glyph-name="Ydieresis" unicode="&#x178;" horiz-adv-x="572" 
d="M189 836c34 0 57 -23 57 -57s-23 -57 -57 -57s-57 23 -57 57s23 57 57 57zM383 836c34 0 57 -23 57 -57s-23 -57 -57 -57s-57 23 -57 57s23 57 57 57zM562 660l-236 -402v-258h-80v258l-236 402h95l181 -320l181 320h95z" />
    <glyph glyph-name="uni1E8E" unicode="&#x1e8e;" horiz-adv-x="572" 
d="M286 856c36 0 60 -24 60 -60s-24 -60 -60 -60s-60 24 -60 60s24 60 60 60zM562 660l-236 -402v-258h-80v258l-236 402h95l181 -320l181 320h95z" />
    <glyph glyph-name="uni1EF4" unicode="&#x1ef4;" horiz-adv-x="572" 
d="M562 660l-236 -402v-258h-80v258l-236 402h95l181 -320l181 320h95zM286 -216c-36 0 -60 24 -60 60s24 60 60 60s60 -24 60 -60s-24 -60 -60 -60z" />
    <glyph glyph-name="Ygrave" unicode="&#x1ef2;" horiz-adv-x="572" 
d="M263 882l66 -159h-64l-86 159h84zM562 660l-236 -402v-258h-80v258l-236 402h95l181 -320l181 320h95z" />
    <glyph glyph-name="uni1EF6" unicode="&#x1ef6;" horiz-adv-x="572" 
d="M287 695l-28 32c35 18 52 33 52 63c0 20 -14 36 -39 36c-20 0 -34 -9 -46 -30l-47 32c20 37 55 59 105 59c56 0 92 -38 92 -86c0 -47 -31 -87 -89 -106zM562 660l-236 -402v-258h-80v258l-236 402h95l181 -320l181 320h95z" />
    <glyph glyph-name="uni0232" unicode="&#x232;" horiz-adv-x="572" 
d="M450 803v-67h-328v67h328zM562 660l-236 -402v-258h-80v258l-236 402h95l181 -320l181 320h95z" />
    <glyph glyph-name="uni1EF8" unicode="&#x1ef8;" horiz-adv-x="572" 
d="M466 857c-7 -88 -43 -134 -112 -134c-75 0 -95 68 -138 68c-30 0 -42 -26 -49 -69h-63c7 88 42 134 113 134c73 0 96 -68 136 -68c30 0 43 26 50 69h63zM562 660l-236 -402v-258h-80v258l-236 402h95l181 -320l181 320h95z" />
    <glyph glyph-name="Z" unicode="Z" horiz-adv-x="630" 
d="M151 75h424v-75h-519v71l411 514h-401v75h496v-71z" />
    <glyph glyph-name="Zacute" unicode="&#x179;" horiz-adv-x="630" 
d="M413 902l-86 -159h-64l66 159h84zM151 75h424v-75h-519v71l411 514h-401v75h496v-71z" />
    <glyph glyph-name="Zcaron" unicode="&#x17d;" horiz-adv-x="630" 
d="M350 743h-88l-110 159h74l80 -107l80 107h74zM151 75h424v-75h-519v71l411 514h-401v75h496v-71z" />
    <glyph glyph-name="Zdotaccent" unicode="&#x17b;" horiz-adv-x="630" 
d="M306 756c-36 0 -60 24 -60 60s24 60 60 60s60 -24 60 -60s-24 -60 -60 -60zM151 75h424v-75h-519v71l411 514h-401v75h496v-71z" />
    <glyph glyph-name="uni1E92" unicode="&#x1e92;" horiz-adv-x="630" 
d="M151 75h424v-75h-519v71l411 514h-401v75h496v-71zM306 -96c36 0 60 -24 60 -60s-24 -60 -60 -60s-60 24 -60 60s24 60 60 60z" />
    <glyph glyph-name="E.swsh.001" horiz-adv-x="747" 
d="M614 338c65 -3 123 -63 123 -163c0 -113 -82 -175 -209 -175h-420v660h488v-75h-408v-222h218v-75h-218v-213h323c98 0 146 29 146 101c0 64 -32 97 -74 98z" />
    <glyph glyph-name="Eacute.swsh.001" horiz-adv-x="747" 
d="M472 902l-86 -159h-64l66 159h84zM614 338c65 -3 123 -63 123 -163c0 -113 -82 -175 -209 -175h-420v660h488v-75h-408v-222h218v-75h-218v-213h323c98 0 146 29 146 101c0 64 -32 97 -74 98z" />
    <glyph glyph-name="Ecaron.swsh.001" horiz-adv-x="747" 
d="M409 743h-88l-110 159h74l80 -107l80 107h74zM614 338c65 -3 123 -63 123 -163c0 -113 -82 -175 -209 -175h-420v660h488v-75h-408v-222h218v-75h-218v-213h323c98 0 146 29 146 101c0 64 -32 97 -74 98z" />
    <glyph glyph-name="Ecircumflex.swsh.001" horiz-adv-x="747" 
d="M365 850l-80 -107h-74l110 159h88l110 -159h-74zM614 338c65 -3 123 -63 123 -163c0 -113 -82 -175 -209 -175h-420v660h488v-75h-408v-222h218v-75h-218v-213h323c98 0 146 29 146 101c0 64 -32 97 -74 98z" />
    <glyph glyph-name="Edieresis.swsh.001" horiz-adv-x="747" 
d="M268 742c-34 0 -57 23 -57 57s23 57 57 57s57 -23 57 -57s-23 -57 -57 -57zM462 742c-34 0 -57 23 -57 57s23 57 57 57s57 -23 57 -57s-23 -57 -57 -57zM614 338c65 -3 123 -63 123 -163c0 -113 -82 -175 -209 -175h-420v660h488v-75h-408v-222h218v-75h-218v-213h323
c98 0 146 29 146 101c0 64 -32 97 -74 98z" />
    <glyph glyph-name="Edotaccent.swsh.001" horiz-adv-x="747" 
d="M365 756c-36 0 -60 24 -60 60s24 60 60 60s60 -24 60 -60s-24 -60 -60 -60zM614 338c65 -3 123 -63 123 -163c0 -113 -82 -175 -209 -175h-420v660h488v-75h-408v-222h218v-75h-218v-213h323c98 0 146 29 146 101c0 64 -32 97 -74 98z" />
    <glyph glyph-name="Egrave.swsh.001" horiz-adv-x="747" 
d="M408 743h-64l-86 159h84zM614 338c65 -3 123 -63 123 -163c0 -113 -82 -175 -209 -175h-420v660h488v-75h-408v-222h218v-75h-218v-213h323c98 0 146 29 146 101c0 64 -32 97 -74 98z" />
    <glyph glyph-name="Emacron.swsh.001" horiz-adv-x="747" 
d="M529 823v-67h-328v67h328zM614 338c65 -3 123 -63 123 -163c0 -113 -82 -175 -209 -175h-420v660h488v-75h-408v-222h218v-75h-218v-213h323c98 0 146 29 146 101c0 64 -32 97 -74 98z" />
    <glyph glyph-name="M.swsh.001" horiz-adv-x="1073" 
d="M842 660h123v-660h-76v415l9 174h-1l-217 -589h-68l-217 589h-1l9 -174v-415h-76v595h-91c-88 0 -146 -37 -146 -115c0 -61 46 -103 110 -114l-31 -64c-85 13 -159 80 -159 179c0 112 82 179 209 179h231l145 -401l50 -165h2l51 164z" />
    <glyph glyph-name="R.swsh.001" horiz-adv-x="685" 
d="M535 90c30 -42 101 -104 150 -121l-43 -55c-114 57 -144 98 -183 154l-144 206h-127v-274h-80v660h250c134 0 223 -74 223 -193c0 -106 -70 -176 -180 -190zM188 585v-236h169c94 0 140 39 140 118s-46 118 -140 118h-169z" />
    <glyph glyph-name="Racute.swsh.001" horiz-adv-x="685" 
d="M429 902l-86 -159h-64l66 159h84zM535 90c30 -42 101 -104 150 -121l-43 -55c-114 57 -144 98 -183 154l-144 206h-127v-274h-80v660h250c134 0 223 -74 223 -193c0 -106 -70 -176 -180 -190zM188 585v-236h169c94 0 140 39 140 118s-46 118 -140 118h-169z" />
    <glyph glyph-name="Rcaron.swsh.001" horiz-adv-x="685" 
d="M366 743h-88l-110 159h74l80 -107l80 107h74zM535 90c30 -42 101 -104 150 -121l-43 -55c-114 57 -144 98 -183 154l-144 206h-127v-274h-80v660h250c134 0 223 -74 223 -193c0 -106 -70 -176 -180 -190zM188 585v-236h169c94 0 140 39 140 118s-46 118 -140 118h-169z
" />
    <glyph glyph-name="uni0156.swsh.001" horiz-adv-x="685" 
d="M535 90c30 -42 101 -104 150 -121l-43 -55c-114 57 -144 98 -183 154l-144 206h-127v-274h-80v660h250c134 0 223 -74 223 -193c0 -106 -70 -176 -180 -190zM188 585v-236h169c94 0 140 39 140 118s-46 118 -140 118h-169zM274 -237l44 161h84l-65 -161h-63z" />
    <glyph glyph-name="Iacute_J.loclNLD" horiz-adv-x="862" 
d="M181 902h84l-86 -159h-64zM754 902h84l-86 -159h-64zM188 660v-660h-80v660h80zM761 660v-434c0 -148 -84 -236 -224 -236c-148 0 -220 89 -194 228l74 15c-15 -113 17 -168 117 -168c113 0 147 63 147 181v414h80z" />
    <glyph glyph-name="R.ss03" horiz-adv-x="655" 
d="M108 0v660h250c134 0 223 -74 223 -193c0 -86 -48 -145 -138 -167v-2c77 -13 114 -62 117 -134c7 -119 18 -140 31 -161v-3h-86c-10 23 -19 63 -24 156c-4 77 -50 118 -153 118h-140v-274h-80zM188 349h169c94 0 140 39 140 118s-46 118 -140 118h-169v-236z" />
    <glyph glyph-name="Racute.ss03" horiz-adv-x="655" 
d="M345 902h84l-86 -159h-64zM108 0v660h250c134 0 223 -74 223 -193c0 -86 -48 -145 -138 -167v-2c77 -13 114 -62 117 -134c7 -119 18 -140 31 -161v-3h-86c-10 23 -19 63 -24 156c-4 77 -50 118 -153 118h-140v-274h-80zM188 349h169c94 0 140 39 140 118
s-46 118 -140 118h-169v-236z" />
    <glyph glyph-name="Rcaron.ss03" horiz-adv-x="655" 
d="M476 902l-110 -159h-88l-110 159h74l80 -107l80 107h74zM108 0v660h250c134 0 223 -74 223 -193c0 -86 -48 -145 -138 -167v-2c77 -13 114 -62 117 -134c7 -119 18 -140 31 -161v-3h-86c-10 23 -19 63 -24 156c-4 77 -50 118 -153 118h-140v-274h-80zM188 349h169
c94 0 140 39 140 118s-46 118 -140 118h-169v-236z" />
    <glyph glyph-name="uni0156.ss03" horiz-adv-x="655" 
d="M108 0v660h250c134 0 223 -74 223 -193c0 -86 -48 -145 -138 -167v-2c77 -13 114 -62 117 -134c7 -119 18 -140 31 -161v-3h-86c-10 23 -19 63 -24 156c-4 77 -50 118 -153 118h-140v-274h-80zM188 349h169c94 0 140 39 140 118s-46 118 -140 118h-169v-236zM402 -76
l-65 -161h-63l44 161h84z" />
    <glyph glyph-name="uni0210.ss03" horiz-adv-x="655" 
d="M199 902l66 -159h-64l-86 159h84zM376 902l66 -159h-64l-86 159h84zM108 0v660h250c134 0 223 -74 223 -193c0 -86 -48 -145 -138 -167v-2c77 -13 114 -62 117 -134c7 -119 18 -140 31 -161v-3h-86c-10 23 -19 63 -24 156c-4 77 -50 118 -153 118h-140v-274h-80zM188 349
h169c94 0 140 39 140 118s-46 118 -140 118h-169v-236z" />
    <glyph glyph-name="uni1E5A.ss03" horiz-adv-x="655" 
d="M108 0v660h250c134 0 223 -74 223 -193c0 -86 -48 -145 -138 -167v-2c77 -13 114 -62 117 -134c7 -119 18 -140 31 -161v-3h-86c-10 23 -19 63 -24 156c-4 77 -50 118 -153 118h-140v-274h-80zM188 349h169c94 0 140 39 140 118s-46 118 -140 118h-169v-236zM365 -216
c-36 0 -60 24 -60 60s24 60 60 60s60 -24 60 -60s-24 -60 -60 -60z" />
    <glyph glyph-name="uni0212.ss03" horiz-adv-x="655" 
d="M470 737h-65c-1 47 -29 88 -83 88s-82 -41 -83 -88h-65c0 88 60 148 148 148s148 -60 148 -148zM108 0v660h250c134 0 223 -74 223 -193c0 -86 -48 -145 -138 -167v-2c77 -13 114 -62 117 -134c7 -119 18 -140 31 -161v-3h-86c-10 23 -19 63 -24 156
c-4 77 -50 118 -153 118h-140v-274h-80zM188 349h169c94 0 140 39 140 118s-46 118 -140 118h-169v-236z" />
    <glyph glyph-name="uni1E5E.ss03" horiz-adv-x="655" 
d="M108 0v660h250c134 0 223 -74 223 -193c0 -86 -48 -145 -138 -167v-2c77 -13 114 -62 117 -134c7 -119 18 -140 31 -161v-3h-86c-10 23 -19 63 -24 156c-4 77 -50 118 -153 118h-140v-274h-80zM188 349h169c94 0 140 39 140 118s-46 118 -140 118h-169v-236zM529 -96v-67
h-328v67h328z" />
    <glyph glyph-name="G.ss04" horiz-adv-x="724" 
d="M362 333h296v-61c0 -169 -98 -282 -284 -282c-188 0 -306 131 -306 340s123 340 308 340c131 0 213 -49 264 -151l-73 -40c-29 76 -99 116 -191 116c-134 0 -224 -99 -224 -265s80 -265 228 -265c149 0 202 103 202 187v6h-220v75z" />
    <glyph glyph-name="Gbreve.ss04" horiz-adv-x="724" 
d="M373 737c-88 0 -148 60 -148 148h65c1 -47 29 -88 83 -88s82 41 83 88h65c0 -88 -60 -148 -148 -148zM362 333h296v-61c0 -169 -98 -282 -284 -282c-188 0 -306 131 -306 340s123 340 308 340c131 0 213 -49 264 -151l-73 -40c-29 76 -99 116 -191 116
c-134 0 -224 -99 -224 -265s80 -265 228 -265c149 0 202 103 202 187v6h-220v75z" />
    <glyph glyph-name="Gcaron.ss04" horiz-adv-x="724" 
d="M417 743h-88l-110 159h74l80 -107l80 107h74zM362 333h296v-61c0 -169 -98 -282 -284 -282c-188 0 -306 131 -306 340s123 340 308 340c131 0 213 -49 264 -151l-73 -40c-29 76 -99 116 -191 116c-134 0 -224 -99 -224 -265s80 -265 228 -265c149 0 202 103 202 187v6
h-220v75z" />
    <glyph glyph-name="Gcircumflex.ss04" horiz-adv-x="724" 
d="M373 850l-80 -107h-74l110 159h88l110 -159h-74zM362 333h296v-61c0 -169 -98 -282 -284 -282c-188 0 -306 131 -306 340s123 340 308 340c131 0 213 -49 264 -151l-73 -40c-29 76 -99 116 -191 116c-134 0 -224 -99 -224 -265s80 -265 228 -265c149 0 202 103 202 187v6
h-220v75z" />
    <glyph glyph-name="uni0122.ss04" horiz-adv-x="724" 
d="M362 333h296v-61c0 -169 -98 -282 -284 -282c-188 0 -306 131 -306 340s123 340 308 340c131 0 213 -49 264 -151l-73 -40c-29 76 -99 116 -191 116c-134 0 -224 -99 -224 -265s80 -265 228 -265c149 0 202 103 202 187v6h-220v75zM314 -237l44 161h84l-65 -161h-63z" />
    <glyph glyph-name="Gdotaccent.ss04" horiz-adv-x="724" 
d="M373 756c-36 0 -60 24 -60 60s24 60 60 60s60 -24 60 -60s-24 -60 -60 -60zM362 333h296v-61c0 -169 -98 -282 -284 -282c-188 0 -306 131 -306 340s123 340 308 340c131 0 213 -49 264 -151l-73 -40c-29 76 -99 116 -191 116c-134 0 -224 -99 -224 -265
s80 -265 228 -265c149 0 202 103 202 187v6h-220v75z" />
    <glyph glyph-name="uni1E20.ss04" horiz-adv-x="724" 
d="M537 823v-67h-328v67h328zM362 333h296v-61c0 -169 -98 -282 -284 -282c-188 0 -306 131 -306 340s123 340 308 340c131 0 213 -49 264 -151l-73 -40c-29 76 -99 116 -191 116c-134 0 -224 -99 -224 -265s80 -265 228 -265c149 0 202 103 202 187v6h-220v75z" />
    <glyph glyph-name="IJ.ss05" horiz-adv-x="633" 
d="M313 -10c-143 0 -216 73 -201 201h77c-11 -85 37 -126 124 -126c100 0 139 62 139 180v415h80v-434c0 -148 -86 -236 -219 -236zM108 287v373h80v-373h-80z" />
    <glyph glyph-name="Iacute_J.loclNLD.ss05" horiz-adv-x="633" 
d="M181 902h84l-86 -159h-64zM525 902h84l-86 -159h-64zM313 -10c-143 0 -216 73 -201 201h77c-11 -85 37 -126 124 -126c100 0 139 62 139 180v415h80v-434c0 -148 -86 -236 -219 -236zM108 287v373h80v-373h-80z" />
    <glyph glyph-name="A.swsh" horiz-adv-x="905" 
d="M794 0l-70 183h-299l-54 -141c-37 -100 -96 -152 -198 -152c-105 0 -167 50 -173 132l58 43c12 -86 49 -105 114 -105c68 0 94 28 136 135l195 500h-138c-88 0 -146 -37 -146 -115c0 -61 46 -103 110 -114l-31 -64c-85 13 -159 80 -159 179c0 112 82 179 209 179h275
l256 -660h-85zM453 258h242l-89 234l-31 92h-2l-29 -89z" />
    <glyph glyph-name="Aacute.swsh" horiz-adv-x="905" 
d="M682 902l-86 -159h-64l66 159h84zM794 0l-70 183h-299l-54 -141c-37 -100 -96 -152 -198 -152c-105 0 -167 50 -173 132l58 43c12 -86 49 -105 114 -105c68 0 94 28 136 135l195 500h-138c-88 0 -146 -37 -146 -115c0 -61 46 -103 110 -114l-31 -64
c-85 13 -159 80 -159 179c0 112 82 179 209 179h275l256 -660h-85zM453 258h242l-89 234l-31 92h-2l-29 -89z" />
    <glyph glyph-name="Abreve.swsh" horiz-adv-x="905" 
d="M575 737c-88 0 -148 60 -148 148h65c1 -47 29 -88 83 -88s82 41 83 88h65c0 -88 -60 -148 -148 -148zM794 0l-70 183h-299l-54 -141c-37 -100 -96 -152 -198 -152c-105 0 -167 50 -173 132l58 43c12 -86 49 -105 114 -105c68 0 94 28 136 135l195 500h-138
c-88 0 -146 -37 -146 -115c0 -61 46 -103 110 -114l-31 -64c-85 13 -159 80 -159 179c0 112 82 179 209 179h275l256 -660h-85zM453 258h242l-89 234l-31 92h-2l-29 -89z" />
    <glyph glyph-name="Acircumflex.swsh" horiz-adv-x="905" 
d="M575 850l-80 -107h-74l110 159h88l110 -159h-74zM794 0l-70 183h-299l-54 -141c-37 -100 -96 -152 -198 -152c-105 0 -167 50 -173 132l58 43c12 -86 49 -105 114 -105c68 0 94 28 136 135l195 500h-138c-88 0 -146 -37 -146 -115c0 -61 46 -103 110 -114l-31 -64
c-85 13 -159 80 -159 179c0 112 82 179 209 179h275l256 -660h-85zM453 258h242l-89 234l-31 92h-2l-29 -89z" />
    <glyph glyph-name="Adieresis.swsh" horiz-adv-x="905" 
d="M478 742c-34 0 -57 23 -57 57s23 57 57 57s57 -23 57 -57s-23 -57 -57 -57zM672 742c-34 0 -57 23 -57 57s23 57 57 57s57 -23 57 -57s-23 -57 -57 -57zM794 0l-70 183h-299l-54 -141c-37 -100 -96 -152 -198 -152c-105 0 -167 50 -173 132l58 43
c12 -86 49 -105 114 -105c68 0 94 28 136 135l195 500h-138c-88 0 -146 -37 -146 -115c0 -61 46 -103 110 -114l-31 -64c-85 13 -159 80 -159 179c0 112 82 179 209 179h275l256 -660h-85zM453 258h242l-89 234l-31 92h-2l-29 -89z" />
    <glyph glyph-name="Agrave.swsh" horiz-adv-x="905" 
d="M608 743h-64l-86 159h84zM794 0l-70 183h-299l-54 -141c-37 -100 -96 -152 -198 -152c-105 0 -167 50 -173 132l58 43c12 -86 49 -105 114 -105c68 0 94 28 136 135l195 500h-138c-88 0 -146 -37 -146 -115c0 -61 46 -103 110 -114l-31 -64c-85 13 -159 80 -159 179
c0 112 82 179 209 179h275l256 -660h-85zM453 258h242l-89 234l-31 92h-2l-29 -89z" />
    <glyph glyph-name="Amacron.swsh" horiz-adv-x="905" 
d="M739 823v-67h-328v67h328zM794 0l-70 183h-299l-54 -141c-37 -100 -96 -152 -198 -152c-105 0 -167 50 -173 132l58 43c12 -86 49 -105 114 -105c68 0 94 28 136 135l195 500h-138c-88 0 -146 -37 -146 -115c0 -61 46 -103 110 -114l-31 -64c-85 13 -159 80 -159 179
c0 112 82 179 209 179h275l256 -660h-85zM453 258h242l-89 234l-31 92h-2l-29 -89z" />
    <glyph glyph-name="Aogonek.swsh" horiz-adv-x="905" 
d="M874 -146l16 -51c-19 -13 -52 -18 -81 -18c-72 0 -119 38 -119 104c0 55 31 96 98 125l-64 169h-299l-54 -141c-37 -100 -96 -152 -198 -152c-105 0 -167 50 -173 132l58 43c12 -86 49 -105 114 -105c68 0 94 28 136 135l195 500h-138c-88 0 -146 -37 -146 -115
c0 -61 46 -103 110 -114l-31 -64c-85 13 -159 80 -159 179c0 112 82 179 209 179h275l256 -660c-101 -33 -124 -68 -124 -106c0 -33 25 -52 64 -52c17 0 39 1 55 12zM453 258h242l-89 234l-31 92h-2l-29 -89z" />
    <glyph glyph-name="Atilde.swsh" horiz-adv-x="905" 
d="M505 811c-30 0 -42 -26 -49 -69h-63c7 88 42 134 113 134c73 0 96 -68 136 -68c30 0 43 26 50 69h63c-7 -88 -43 -134 -112 -134c-75 0 -95 68 -138 68zM794 0l-70 183h-299l-54 -141c-37 -100 -96 -152 -198 -152c-105 0 -167 50 -173 132l58 43
c12 -86 49 -105 114 -105c68 0 94 28 136 135l195 500h-138c-88 0 -146 -37 -146 -115c0 -61 46 -103 110 -114l-31 -64c-85 13 -159 80 -159 179c0 112 82 179 209 179h275l256 -660h-85zM453 258h242l-89 234l-31 92h-2l-29 -89z" />
    <glyph glyph-name="E.swsh" horiz-adv-x="857" 
d="M407 75h398v-75h-478v595h-91c-88 0 -146 -37 -146 -115c0 -61 46 -103 110 -114l-31 -64c-85 13 -159 80 -159 179c0 112 82 179 209 179h571v-75h-383v-213h298v-75h-298v-222z" />
    <glyph glyph-name="Eacute.swsh" horiz-adv-x="857" 
d="M665 902l-86 -159h-64l66 159h84zM407 75h398v-75h-478v595h-91c-88 0 -146 -37 -146 -115c0 -61 46 -103 110 -114l-31 -64c-85 13 -159 80 -159 179c0 112 82 179 209 179h571v-75h-383v-213h298v-75h-298v-222z" />
    <glyph glyph-name="Ecaron.swsh" horiz-adv-x="857" 
d="M602 743h-88l-110 159h74l80 -107l80 107h74zM407 75h398v-75h-478v595h-91c-88 0 -146 -37 -146 -115c0 -61 46 -103 110 -114l-31 -64c-85 13 -159 80 -159 179c0 112 82 179 209 179h571v-75h-383v-213h298v-75h-298v-222z" />
    <glyph glyph-name="Ecircumflex.swsh" horiz-adv-x="857" 
d="M558 850l-80 -107h-74l110 159h88l110 -159h-74zM407 75h398v-75h-478v595h-91c-88 0 -146 -37 -146 -115c0 -61 46 -103 110 -114l-31 -64c-85 13 -159 80 -159 179c0 112 82 179 209 179h571v-75h-383v-213h298v-75h-298v-222z" />
    <glyph glyph-name="Edieresis.swsh" horiz-adv-x="857" 
d="M462 742c-34 0 -57 23 -57 57s23 57 57 57s57 -23 57 -57s-23 -57 -57 -57zM656 742c-34 0 -57 23 -57 57s23 57 57 57s57 -23 57 -57s-23 -57 -57 -57zM407 75h398v-75h-478v595h-91c-88 0 -146 -37 -146 -115c0 -61 46 -103 110 -114l-31 -64c-85 13 -159 80 -159 179
c0 112 82 179 209 179h571v-75h-383v-213h298v-75h-298v-222z" />
    <glyph glyph-name="Edotaccent.swsh" horiz-adv-x="857" 
d="M559 756c-36 0 -60 24 -60 60s24 60 60 60s60 -24 60 -60s-24 -60 -60 -60zM407 75h398v-75h-478v595h-91c-88 0 -146 -37 -146 -115c0 -61 46 -103 110 -114l-31 -64c-85 13 -159 80 -159 179c0 112 82 179 209 179h571v-75h-383v-213h298v-75h-298v-222z" />
    <glyph glyph-name="Egrave.swsh" horiz-adv-x="857" 
d="M586 743h-64l-86 159h84zM407 75h398v-75h-478v595h-91c-88 0 -146 -37 -146 -115c0 -61 46 -103 110 -114l-31 -64c-85 13 -159 80 -159 179c0 112 82 179 209 179h571v-75h-383v-213h298v-75h-298v-222z" />
    <glyph glyph-name="Emacron.swsh" horiz-adv-x="857" 
d="M723 823v-67h-328v67h328zM407 75h398v-75h-478v595h-91c-88 0 -146 -37 -146 -115c0 -61 46 -103 110 -114l-31 -64c-85 13 -159 80 -159 179c0 112 82 179 209 179h571v-75h-383v-213h298v-75h-298v-222z" />
    <glyph glyph-name="Eogonek.swsh" horiz-adv-x="857" 
d="M790 -162l16 -51c-19 -12 -52 -18 -81 -18c-72 0 -119 41 -119 99c0 60 35 98 100 132h-379v595h-91c-88 0 -146 -37 -146 -115c0 -61 46 -103 110 -114l-31 -64c-85 13 -159 80 -159 179c0 112 82 179 209 179h571v-75h-383v-213h298v-75h-298v-222h398v-75
c-100 -44 -134 -84 -134 -121c0 -33 26 -53 64 -53c17 0 39 2 55 12z" />
    <glyph glyph-name="F.swsh" horiz-adv-x="829" 
d="M789 585h-382v-213h298v-75h-298v-297h-80v595h-91c-88 0 -146 -37 -146 -115c0 -61 46 -103 110 -114l-31 -64c-85 13 -159 80 -159 179c0 112 82 179 209 179h570v-75z" />
    <glyph glyph-name="L.swsh" horiz-adv-x="637" 
d="M468 348c85 -3 159 -60 159 -169c0 -122 -82 -179 -209 -179h-310v660h80v-585h213c88 0 146 24 146 105c0 71 -46 103 -110 104z" />
    <glyph glyph-name="Lacute.swsh" horiz-adv-x="637" 
d="M255 902l-86 -159h-64l66 159h84zM468 348c85 -3 159 -60 159 -169c0 -122 -82 -179 -209 -179h-310v660h80v-585h213c88 0 146 24 146 105c0 71 -46 103 -110 104z" />
    <glyph glyph-name="Lcaron.swsh" horiz-adv-x="637" 
d="M376 700l-41 -197h-55l20 197h76zM468 348c85 -3 159 -60 159 -169c0 -122 -82 -179 -209 -179h-310v660h80v-585h213c88 0 146 24 146 105c0 71 -46 103 -110 104z" />
    <glyph glyph-name="uni013B.swsh" horiz-adv-x="637" 
d="M468 348c85 -3 159 -60 159 -169c0 -122 -82 -179 -209 -179h-310v660h80v-585h213c88 0 146 24 146 105c0 71 -46 103 -110 104zM286 -237l44 161h84l-65 -161h-63z" />
    <glyph glyph-name="Lslash.swsh" horiz-adv-x="667" 
d="M498 348c85 -3 159 -60 159 -169c0 -122 -82 -179 -209 -179h-310v255l-105 -59v83l105 59v322h80v-278l177 99v-83l-177 -99v-224h213c88 0 146 24 146 105c0 71 -46 103 -110 104z" />
    <glyph glyph-name="M.swsh" horiz-adv-x="1073" 
d="M842 660h123v-660h-76v415l9 174h-1l-217 -589h-68l-217 589h-1l9 -174v-349c0 -92 -66 -176 -192 -176c-107 0 -161 52 -173 131l59 43c12 -74 43 -105 114 -105c73 0 116 54 116 131v505h-91c-88 0 -146 -37 -146 -115c0 -61 46 -103 110 -114l-31 -64
c-85 13 -159 80 -159 179c0 112 82 179 209 179h231l145 -401l50 -165h2l51 164z" />
    <glyph glyph-name="N.swsh" horiz-adv-x="734" 
d="M742 735c107 0 161 -52 173 -131l-59 -43c-12 74 -43 105 -114 105c-73 0 -116 -54 -116 -131v-535h-99l-276 442l-70 130h-1l4 -106v-466h-76v660h99l275 -440l71 -132h1l-4 106v365c0 92 66 176 192 176z" />
    <glyph glyph-name="Nacute.swsh" horiz-adv-x="734" 
d="M478 902l-86 -159h-64l66 159h84zM742 735c107 0 161 -52 173 -131l-59 -43c-12 74 -43 105 -114 105c-73 0 -116 -54 -116 -131v-535h-99l-276 442l-70 130h-1l4 -106v-466h-76v660h99l275 -440l71 -132h1l-4 106v365c0 92 66 176 192 176z" />
    <glyph glyph-name="Ncaron.swsh" horiz-adv-x="734" 
d="M415 743h-88l-110 159h74l80 -107l80 107h74zM742 735c107 0 161 -52 173 -131l-59 -43c-12 74 -43 105 -114 105c-73 0 -116 -54 -116 -131v-535h-99l-276 442l-70 130h-1l4 -106v-466h-76v660h99l275 -440l71 -132h1l-4 106v365c0 92 66 176 192 176z" />
    <glyph glyph-name="uni0145.swsh" horiz-adv-x="734" 
d="M742 735c107 0 161 -52 173 -131l-59 -43c-12 74 -43 105 -114 105c-73 0 -116 -54 -116 -131v-535h-99l-276 442l-70 130h-1l4 -106v-466h-76v660h99l275 -440l71 -132h1l-4 106v365c0 92 66 176 192 176zM306 -237l44 161h84l-65 -161h-63z" />
    <glyph glyph-name="Ntilde.swsh" horiz-adv-x="734" 
d="M301 811c-30 0 -42 -26 -49 -69h-63c7 88 42 134 113 134c73 0 96 -68 136 -68c30 0 43 26 50 69h63c-7 -88 -43 -134 -112 -134c-75 0 -95 68 -138 68zM742 735c107 0 161 -52 173 -131l-59 -43c-12 74 -43 105 -114 105c-73 0 -116 -54 -116 -131v-535h-99l-276 442
l-70 130h-1l4 -106v-466h-76v660h99l275 -440l71 -132h1l-4 106v365c0 92 66 176 192 176z" />
    <glyph glyph-name="R.swsh" horiz-adv-x="884" 
d="M745 0l-180 274h-158v-208c0 -92 -67 -176 -196 -176c-107 0 -161 52 -173 131l59 43c12 -74 43 -105 114 -105c73 0 116 54 116 131v505h-91c-88 0 -146 -37 -146 -115c0 -61 46 -103 110 -114l-31 -64c-85 13 -159 80 -159 179c0 112 82 179 209 179h358
c134 0 223 -74 223 -193c0 -94 -56 -160 -146 -184l186 -283h-95zM407 585v-236h169c94 0 140 39 140 118s-46 118 -140 118h-169z" />
    <glyph glyph-name="Racute.swsh" horiz-adv-x="884" 
d="M648 902l-86 -159h-64l66 159h84zM745 0l-180 274h-158v-208c0 -92 -67 -176 -196 -176c-107 0 -161 52 -173 131l59 43c12 -74 43 -105 114 -105c73 0 116 54 116 131v505h-91c-88 0 -146 -37 -146 -115c0 -61 46 -103 110 -114l-31 -64c-85 13 -159 80 -159 179
c0 112 82 179 209 179h358c134 0 223 -74 223 -193c0 -94 -56 -160 -146 -184l186 -283h-95zM407 585v-236h169c94 0 140 39 140 118s-46 118 -140 118h-169z" />
    <glyph glyph-name="Rcaron.swsh" horiz-adv-x="884" 
d="M585 743h-88l-110 159h74l80 -107l80 107h74zM745 0l-180 274h-158v-208c0 -92 -67 -176 -196 -176c-107 0 -161 52 -173 131l59 43c12 -74 43 -105 114 -105c73 0 116 54 116 131v505h-91c-88 0 -146 -37 -146 -115c0 -61 46 -103 110 -114l-31 -64
c-85 13 -159 80 -159 179c0 112 82 179 209 179h358c134 0 223 -74 223 -193c0 -94 -56 -160 -146 -184l186 -283h-95zM407 585v-236h169c94 0 140 39 140 118s-46 118 -140 118h-169z" />
    <glyph glyph-name="uni0156.swsh" horiz-adv-x="884" 
d="M654 283l186 -283h-95l-180 274h-158v-208c0 -92 -67 -176 -196 -176c-107 0 -161 52 -173 131l59 43c12 -74 43 -105 114 -105c73 0 116 54 116 131v505h-91c-88 0 -146 -37 -146 -115c0 -61 46 -103 110 -114l-31 -64c-85 13 -159 80 -159 179c0 112 82 179 209 179
h358c134 0 223 -74 223 -193c0 -94 -56 -160 -146 -184zM407 585v-236h169c94 0 140 39 140 118s-46 118 -140 118h-169zM493 -237l44 161h84l-65 -161h-63z" />
    <glyph glyph-name="S.swsh" horiz-adv-x="641" 
d="M326 -110c-167 0 -260 66 -260 185c0 12 1 25 3 39l75 22c-2 -14 -3 -27 -3 -39c0 -90 60 -132 188 -132c113 0 173 49 173 139c0 64 -43 101 -184 137c-176 45 -239 106 -239 209c0 134 98 220 251 220c144 0 228 -65 242 -188l-79 -31c-4 103 -51 144 -162 144
c-107 0 -168 -50 -168 -136c0 -70 46 -109 190 -147c173 -46 232 -99 232 -204c0 -131 -103 -218 -259 -218z" />
    <glyph glyph-name="Sacute.swsh" horiz-adv-x="641" 
d="M349 902h84l-86 -159h-64zM326 -110c-167 0 -260 66 -260 185c0 12 1 25 3 39l75 22c-2 -14 -3 -27 -3 -39c0 -90 60 -132 188 -132c113 0 173 49 173 139c0 64 -43 101 -184 137c-176 45 -239 106 -239 209c0 134 98 220 251 220c144 0 228 -65 242 -188l-79 -31
c-4 103 -51 144 -162 144c-107 0 -168 -50 -168 -136c0 -70 46 -109 190 -147c173 -46 232 -99 232 -204c0 -131 -103 -218 -259 -218z" />
    <glyph glyph-name="Scaron.swsh" horiz-adv-x="641" 
d="M480 902l-110 -159h-88l-110 159h74l80 -107l80 107h74zM326 -110c-167 0 -260 66 -260 185c0 12 1 25 3 39l75 22c-2 -14 -3 -27 -3 -39c0 -90 60 -132 188 -132c113 0 173 49 173 139c0 64 -43 101 -184 137c-176 45 -239 106 -239 209c0 134 98 220 251 220
c144 0 228 -65 242 -188l-79 -31c-4 103 -51 144 -162 144c-107 0 -168 -50 -168 -136c0 -70 46 -109 190 -147c173 -46 232 -99 232 -204c0 -131 -103 -218 -259 -218z" />
    <glyph glyph-name="Scedilla.swsh" horiz-adv-x="641" 
d="M585 108c0 -112 -76 -192 -196 -213c30 -25 43 -57 43 -94c0 -64 -51 -116 -121 -116c-42 0 -72 12 -95 29l19 58c18 -12 37 -23 67 -23c37 0 64 24 64 70c0 29 -15 49 -56 71c-157 4 -244 70 -244 185c0 12 1 25 3 39l75 22c-2 -14 -3 -27 -3 -39
c0 -90 60 -132 188 -132c113 0 173 49 173 139c0 64 -43 101 -184 137c-176 45 -239 106 -239 209c0 134 98 220 251 220c144 0 228 -65 242 -188l-79 -31c-4 103 -51 144 -162 144c-107 0 -168 -50 -168 -136c0 -70 46 -109 190 -147c173 -46 232 -99 232 -204z" />
    <glyph glyph-name="uni0218.swsh" horiz-adv-x="641" 
d="M326 -110c-167 0 -260 66 -260 185c0 12 1 25 3 39l75 22c-2 -14 -3 -27 -3 -39c0 -90 60 -132 188 -132c113 0 173 49 173 139c0 64 -43 101 -184 137c-176 45 -239 106 -239 209c0 134 98 220 251 220c144 0 228 -65 242 -188l-79 -31c-4 103 -51 144 -162 144
c-107 0 -168 -50 -168 -136c0 -70 46 -109 190 -147c173 -46 232 -99 232 -204c0 -131 -103 -218 -259 -218zM373 -176l-65 -161h-63l44 161h84z" />
    <glyph glyph-name="T.swsh" horiz-adv-x="709" 
d="M677 660v-75h-230v-585h-80v585h-131c-88 0 -146 -28 -146 -105c0 -61 46 -103 110 -114l-31 -64c-85 13 -159 80 -159 179c0 112 82 179 209 179h458z" />
    <glyph glyph-name="Tcaron.swsh" horiz-adv-x="709" 
d="M451 743h-88l-110 159h74l80 -107l80 107h74zM677 660v-75h-230v-585h-80v585h-131c-88 0 -146 -28 -146 -105c0 -61 46 -103 110 -114l-31 -64c-85 13 -159 80 -159 179c0 112 82 179 209 179h458z" />
    <glyph glyph-name="uni0162.swsh" horiz-adv-x="709" 
d="M677 585h-230v-576c52 -36 71 -76 71 -118c0 -55 -45 -106 -117 -106c-47 0 -82 10 -110 35l30 55c16 -17 41 -30 69 -30c32 0 57 23 57 58c0 38 -22 58 -80 97v585h-131c-88 0 -146 -28 -146 -105c0 -61 46 -103 110 -114l-31 -64c-85 13 -159 80 -159 179
c0 112 82 179 209 179h458v-75z" />
    <glyph glyph-name="uni021A.swsh" horiz-adv-x="709" 
d="M677 660v-75h-230v-585h-80v585h-131c-88 0 -146 -28 -146 -105c0 -61 46 -103 110 -114l-31 -64c-85 13 -159 80 -159 179c0 112 82 179 209 179h458zM332 -237l44 161h84l-65 -161h-63z" />
    <glyph glyph-name="W.swsh" horiz-adv-x="1216" 
d="M1101 660h79l-194 -660h-99l-117 428l-34 149h-1l-34 -149l-116 -428h-99l-176 595h-74c-88 0 -146 -37 -146 -115c0 -61 46 -103 110 -114l-31 -64c-85 13 -159 80 -159 179c0 112 82 179 209 179h155l163 -587l155 587h91l155 -589z" />
    <glyph glyph-name="Adieresis.titl" horiz-adv-x="660" 
d="M173 553c-32 0 -54 22 -54 55c0 32 22 54 54 54c33 0 55 -22 55 -54c0 -33 -22 -55 -55 -55zM488 553c-33 0 -55 22 -55 55c0 32 22 54 55 54c32 0 54 -22 54 -54c0 -33 -22 -55 -54 -55zM549 0l-70 183h-299l-70 -183h-84l257 660h95l256 -660h-85zM209 258h241l-89 234
l-31 92h-2l-29 -89z" />
    <glyph glyph-name="Odieresis.titl" horiz-adv-x="748" 
d="M374 670c188 0 306 -131 306 -340s-118 -340 -306 -340s-306 131 -306 340s118 340 306 340zM374 595c-137 0 -222 -99 -222 -265s85 -265 222 -265s222 99 222 265s-85 265 -222 265zM307 560c33 0 55 -22 55 -54c0 -33 -22 -55 -55 -55c-32 0 -54 22 -54 55
c0 32 22 54 54 54zM441 560c32 0 54 -22 54 -54c0 -33 -22 -55 -54 -55c-33 0 -55 22 -55 55c0 32 22 54 55 54z" />
    <glyph glyph-name="Udieresis.titl" horiz-adv-x="708" 
d="M282 553c-32 0 -54 22 -54 55c0 32 22 54 54 54c33 0 55 -22 55 -54c0 -33 -22 -55 -55 -55zM426 553c-33 0 -55 22 -55 55c0 32 22 54 55 54c32 0 54 -22 54 -54c0 -33 -22 -55 -54 -55zM613 660v-414c0 -170 -92 -256 -259 -256c-166 0 -259 86 -259 256v414h80v-394
c0 -138 56 -201 179 -201s179 63 179 201v394h80z" />
    <glyph glyph-name="a" unicode="a" horiz-adv-x="566" 
d="M503 61c11 0 26 2 37 5l-4 -63c-12 -6 -30 -10 -52 -10c-49 0 -89 24 -98 73c-35 -52 -102 -76 -160 -76c-89 0 -165 45 -165 136c0 75 53 124 142 142l182 36v19c0 74 -42 117 -115 117c-69 0 -119 -29 -141 -95l-65 40c27 75 101 125 208 125c108 0 193 -54 193 -171
v-242c0 -24 13 -36 38 -36zM237 60c77 0 148 39 148 125v53l-145 -30c-66 -14 -97 -35 -97 -78c0 -41 34 -70 94 -70z" />
    <glyph glyph-name="aacute" unicode="&#xe1;" horiz-adv-x="566" 
d="M390 750l-98 -167h-65l76 167h87zM503 61c11 0 26 2 37 5l-4 -63c-12 -6 -30 -10 -52 -10c-49 0 -89 24 -98 73c-35 -52 -102 -76 -160 -76c-89 0 -165 45 -165 136c0 75 53 124 142 142l182 36v19c0 74 -42 117 -115 117c-69 0 -119 -29 -141 -95l-65 40
c27 75 101 125 208 125c108 0 193 -54 193 -171v-242c0 -24 13 -36 38 -36zM237 60c77 0 148 39 148 125v53l-145 -30c-66 -14 -97 -35 -97 -78c0 -41 34 -70 94 -70z" />
    <glyph glyph-name="abreve" unicode="&#x103;" horiz-adv-x="566" 
d="M276 577c-88 0 -148 60 -148 148h65c1 -47 29 -88 83 -88s82 41 83 88h65c0 -88 -60 -148 -148 -148zM503 61c11 0 26 2 37 5l-4 -63c-12 -6 -30 -10 -52 -10c-49 0 -89 24 -98 73c-35 -52 -102 -76 -160 -76c-89 0 -165 45 -165 136c0 75 53 124 142 142l182 36v19
c0 74 -42 117 -115 117c-69 0 -119 -29 -141 -95l-65 40c27 75 101 125 208 125c108 0 193 -54 193 -171v-242c0 -24 13 -36 38 -36zM237 60c77 0 148 39 148 125v53l-145 -30c-66 -14 -97 -35 -97 -78c0 -41 34 -70 94 -70z" />
    <glyph glyph-name="uni1EAF" unicode="&#x1eaf;" horiz-adv-x="566" 
d="M362 873l-73 -130h-62l52 130h83zM276 577c-88 0 -148 60 -148 148h65c1 -47 29 -88 83 -88s82 41 83 88h65c0 -88 -60 -148 -148 -148zM503 61c11 0 26 2 37 5l-4 -63c-12 -6 -30 -10 -52 -10c-49 0 -89 24 -98 73c-35 -52 -102 -76 -160 -76c-89 0 -165 45 -165 136
c0 75 53 124 142 142l182 36v19c0 74 -42 117 -115 117c-69 0 -119 -29 -141 -95l-65 40c27 75 101 125 208 125c108 0 193 -54 193 -171v-242c0 -24 13 -36 38 -36zM237 60c77 0 148 39 148 125v53l-145 -30c-66 -14 -97 -35 -97 -78c0 -41 34 -70 94 -70z" />
    <glyph glyph-name="uni1EB7" unicode="&#x1eb7;" horiz-adv-x="566" 
d="M276 577c-88 0 -148 60 -148 148h65c1 -47 29 -88 83 -88s82 41 83 88h65c0 -88 -60 -148 -148 -148zM503 61c11 0 26 2 37 5l-4 -63c-12 -6 -30 -10 -52 -10c-49 0 -89 24 -98 73c-35 -52 -102 -76 -160 -76c-89 0 -165 45 -165 136c0 75 53 124 142 142l182 36v19
c0 74 -42 117 -115 117c-69 0 -119 -29 -141 -95l-65 40c27 75 101 125 208 125c108 0 193 -54 193 -171v-242c0 -24 13 -36 38 -36zM237 60c77 0 148 39 148 125v53l-145 -30c-66 -14 -97 -35 -97 -78c0 -41 34 -70 94 -70zM276 -96c36 0 60 -24 60 -60s-24 -60 -60 -60
s-60 24 -60 60s24 60 60 60z" />
    <glyph glyph-name="uni1EB1" unicode="&#x1eb1;" horiz-adv-x="566" 
d="M325 743h-62l-73 130h83zM276 577c-88 0 -148 60 -148 148h65c1 -47 29 -88 83 -88s82 41 83 88h65c0 -88 -60 -148 -148 -148zM503 61c11 0 26 2 37 5l-4 -63c-12 -6 -30 -10 -52 -10c-49 0 -89 24 -98 73c-35 -52 -102 -76 -160 -76c-89 0 -165 45 -165 136
c0 75 53 124 142 142l182 36v19c0 74 -42 117 -115 117c-69 0 -119 -29 -141 -95l-65 40c27 75 101 125 208 125c108 0 193 -54 193 -171v-242c0 -24 13 -36 38 -36zM237 60c77 0 148 39 148 125v53l-145 -30c-66 -14 -97 -35 -97 -78c0 -41 34 -70 94 -70z" />
    <glyph glyph-name="uni1EB3" unicode="&#x1eb3;" horiz-adv-x="566" 
d="M262 859c-20 0 -34 -9 -46 -30l-47 32c20 37 55 59 105 59c56 0 92 -38 92 -86c0 -47 -31 -87 -89 -106l-28 32c35 18 52 33 52 63c0 20 -14 36 -39 36zM276 577c-88 0 -148 60 -148 148h65c1 -47 29 -88 83 -88s82 41 83 88h65c0 -88 -60 -148 -148 -148zM503 61
c11 0 26 2 37 5l-4 -63c-12 -6 -30 -10 -52 -10c-49 0 -89 24 -98 73c-35 -52 -102 -76 -160 -76c-89 0 -165 45 -165 136c0 75 53 124 142 142l182 36v19c0 74 -42 117 -115 117c-69 0 -119 -29 -141 -95l-65 40c27 75 101 125 208 125c108 0 193 -54 193 -171v-242
c0 -24 13 -36 38 -36zM237 60c77 0 148 39 148 125v53l-145 -30c-66 -14 -97 -35 -97 -78c0 -41 34 -70 94 -70z" />
    <glyph glyph-name="uni1EB5" unicode="&#x1eb5;" horiz-adv-x="566" 
d="M210 823c-27 0 -39 -20 -46 -60h-63c7 85 45 125 110 125c73 0 90 -62 130 -62c27 0 40 20 47 60h63c-7 -85 -46 -125 -109 -125c-75 0 -89 62 -132 62zM277 637c54 0 82 41 83 88h65c0 -88 -60 -148 -148 -148s-148 60 -148 148h65c1 -47 29 -88 83 -88zM503 61
c11 0 26 2 37 5l-4 -63c-12 -6 -30 -10 -52 -10c-49 0 -89 24 -98 73c-35 -52 -102 -76 -160 -76c-89 0 -165 45 -165 136c0 75 53 124 142 142l182 36v19c0 74 -42 117 -115 117c-69 0 -119 -29 -141 -95l-65 40c27 75 101 125 208 125c108 0 193 -54 193 -171v-242
c0 -24 13 -36 38 -36zM237 60c77 0 148 39 148 125v53l-145 -30c-66 -14 -97 -35 -97 -78c0 -41 34 -70 94 -70z" />
    <glyph glyph-name="acircumflex" unicode="&#xe2;" horiz-adv-x="566" 
d="M276 691l-86 -115h-73l114 167h90l114 -167h-73zM503 61c11 0 26 2 37 5l-4 -63c-12 -6 -30 -10 -52 -10c-49 0 -89 24 -98 73c-35 -52 -102 -76 -160 -76c-89 0 -165 45 -165 136c0 75 53 124 142 142l182 36v19c0 74 -42 117 -115 117c-69 0 -119 -29 -141 -95l-65 40
c27 75 101 125 208 125c108 0 193 -54 193 -171v-242c0 -24 13 -36 38 -36zM237 60c77 0 148 39 148 125v53l-145 -30c-66 -14 -97 -35 -97 -78c0 -41 34 -70 94 -70z" />
    <glyph glyph-name="uni1EA5" unicode="&#x1ea5;" horiz-adv-x="566" 
d="M533 836l-77 -143h-58l60 143h75zM276 691l-86 -115h-73l114 167h90l114 -167h-73zM503 61c11 0 26 2 37 5l-4 -63c-12 -6 -30 -10 -52 -10c-49 0 -89 24 -98 73c-35 -52 -102 -76 -160 -76c-89 0 -165 45 -165 136c0 75 53 124 142 142l182 36v19c0 74 -42 117 -115 117
c-69 0 -119 -29 -141 -95l-65 40c27 75 101 125 208 125c108 0 193 -54 193 -171v-242c0 -24 13 -36 38 -36zM237 60c77 0 148 39 148 125v53l-145 -30c-66 -14 -97 -35 -97 -78c0 -41 34 -70 94 -70z" />
    <glyph glyph-name="uni1EAD" unicode="&#x1ead;" horiz-adv-x="566" 
d="M276 691l-86 -115h-73l114 167h90l114 -167h-73zM503 61c11 0 26 2 37 5l-4 -63c-12 -6 -30 -10 -52 -10c-49 0 -89 24 -98 73c-35 -52 -102 -76 -160 -76c-89 0 -165 45 -165 136c0 75 53 124 142 142l182 36v19c0 74 -42 117 -115 117c-69 0 -119 -29 -141 -95l-65 40
c27 75 101 125 208 125c108 0 193 -54 193 -171v-242c0 -24 13 -36 38 -36zM237 60c77 0 148 39 148 125v53l-145 -30c-66 -14 -97 -35 -97 -78c0 -41 34 -70 94 -70zM276 -96c36 0 60 -24 60 -60s-24 -60 -60 -60s-60 24 -60 60s24 60 60 60z" />
    <glyph glyph-name="uni1EA7" unicode="&#x1ea7;" horiz-adv-x="566" 
d="M476 693h-58l-77 143h75zM276 691l-86 -115h-73l114 167h90l114 -167h-73zM503 61c11 0 26 2 37 5l-4 -63c-12 -6 -30 -10 -52 -10c-49 0 -89 24 -98 73c-35 -52 -102 -76 -160 -76c-89 0 -165 45 -165 136c0 75 53 124 142 142l182 36v19c0 74 -42 117 -115 117
c-69 0 -119 -29 -141 -95l-65 40c27 75 101 125 208 125c108 0 193 -54 193 -171v-242c0 -24 13 -36 38 -36zM237 60c77 0 148 39 148 125v53l-145 -30c-66 -14 -97 -35 -97 -78c0 -41 34 -70 94 -70z" />
    <glyph glyph-name="uni1EA9" unicode="&#x1ea9;" horiz-adv-x="566" 
d="M423 804c-20 0 -34 -9 -46 -30l-47 32c20 37 55 59 105 59c56 0 92 -38 92 -86c0 -47 -31 -87 -89 -106l-28 32c35 18 52 33 52 63c0 20 -14 36 -39 36zM276 691l-86 -115h-73l114 167h90l114 -167h-73zM503 61c11 0 26 2 37 5l-4 -63c-12 -6 -30 -10 -52 -10
c-49 0 -89 24 -98 73c-35 -52 -102 -76 -160 -76c-89 0 -165 45 -165 136c0 75 53 124 142 142l182 36v19c0 74 -42 117 -115 117c-69 0 -119 -29 -141 -95l-65 40c27 75 101 125 208 125c108 0 193 -54 193 -171v-242c0 -24 13 -36 38 -36zM237 60c77 0 148 39 148 125v53
l-145 -30c-66 -14 -97 -35 -97 -78c0 -41 34 -70 94 -70z" />
    <glyph glyph-name="uni1EAB" unicode="&#x1eab;" horiz-adv-x="566" 
d="M209 832c-27 0 -39 -20 -46 -60h-63c7 85 45 125 110 125c73 0 90 -62 130 -62c27 0 40 20 47 60h63c-7 -85 -46 -125 -109 -125c-75 0 -89 62 -132 62zM231 743h90l114 -167h-73l-86 115l-86 -115h-73zM503 61c11 0 26 2 37 5l-4 -63c-12 -6 -30 -10 -52 -10
c-49 0 -89 24 -98 73c-35 -52 -102 -76 -160 -76c-89 0 -165 45 -165 136c0 75 53 124 142 142l182 36v19c0 74 -42 117 -115 117c-69 0 -119 -29 -141 -95l-65 40c27 75 101 125 208 125c108 0 193 -54 193 -171v-242c0 -24 13 -36 38 -36zM237 60c77 0 148 39 148 125v53
l-145 -30c-66 -14 -97 -35 -97 -78c0 -41 34 -70 94 -70z" />
    <glyph glyph-name="uni0201" unicode="&#x201;" horiz-adv-x="566" 
d="M231 583h-65l-98 167h87zM407 583h-65l-98 167h87zM503 61c11 0 26 2 37 5l-4 -63c-12 -6 -30 -10 -52 -10c-49 0 -89 24 -98 73c-35 -52 -102 -76 -160 -76c-89 0 -165 45 -165 136c0 75 53 124 142 142l182 36v19c0 74 -42 117 -115 117c-69 0 -119 -29 -141 -95
l-65 40c27 75 101 125 208 125c108 0 193 -54 193 -171v-242c0 -24 13 -36 38 -36zM237 60c77 0 148 39 148 125v53l-145 -30c-66 -14 -97 -35 -97 -78c0 -41 34 -70 94 -70z" />
    <glyph glyph-name="adieresis" unicode="&#xe4;" horiz-adv-x="566" 
d="M179 582c-34 0 -57 23 -57 57s23 57 57 57s57 -23 57 -57s-23 -57 -57 -57zM373 582c-34 0 -57 23 -57 57s23 57 57 57s57 -23 57 -57s-23 -57 -57 -57zM503 61c11 0 26 2 37 5l-4 -63c-12 -6 -30 -10 -52 -10c-49 0 -89 24 -98 73c-35 -52 -102 -76 -160 -76
c-89 0 -165 45 -165 136c0 75 53 124 142 142l182 36v19c0 74 -42 117 -115 117c-69 0 -119 -29 -141 -95l-65 40c27 75 101 125 208 125c108 0 193 -54 193 -171v-242c0 -24 13 -36 38 -36zM237 60c77 0 148 39 148 125v53l-145 -30c-66 -14 -97 -35 -97 -78
c0 -41 34 -70 94 -70z" />
    <glyph glyph-name="uni1EA1" unicode="&#x1ea1;" horiz-adv-x="566" 
d="M503 61c11 0 26 2 37 5l-4 -63c-12 -6 -30 -10 -52 -10c-49 0 -89 24 -98 73c-35 -52 -102 -76 -160 -76c-89 0 -165 45 -165 136c0 75 53 124 142 142l182 36v19c0 74 -42 117 -115 117c-69 0 -119 -29 -141 -95l-65 40c27 75 101 125 208 125c108 0 193 -54 193 -171
v-242c0 -24 13 -36 38 -36zM237 60c77 0 148 39 148 125v53l-145 -30c-66 -14 -97 -35 -97 -78c0 -41 34 -70 94 -70zM276 -96c36 0 60 -24 60 -60s-24 -60 -60 -60s-60 24 -60 60s24 60 60 60z" />
    <glyph glyph-name="agrave" unicode="&#xe0;" horiz-adv-x="566" 
d="M318 583h-65l-98 167h87zM503 61c11 0 26 2 37 5l-4 -63c-12 -6 -30 -10 -52 -10c-49 0 -89 24 -98 73c-35 -52 -102 -76 -160 -76c-89 0 -165 45 -165 136c0 75 53 124 142 142l182 36v19c0 74 -42 117 -115 117c-69 0 -119 -29 -141 -95l-65 40c27 75 101 125 208 125
c108 0 193 -54 193 -171v-242c0 -24 13 -36 38 -36zM237 60c77 0 148 39 148 125v53l-145 -30c-66 -14 -97 -35 -97 -78c0 -41 34 -70 94 -70z" />
    <glyph glyph-name="uni1EA3" unicode="&#x1ea3;" horiz-adv-x="566" 
d="M254 692c-18 0 -34 -10 -48 -34l-46 32c18 42 56 63 106 63c58 0 95 -40 95 -90c0 -48 -32 -89 -96 -114l-28 39c40 19 59 34 59 64c0 22 -15 40 -42 40zM503 61c11 0 26 2 37 5l-4 -63c-12 -6 -30 -10 -52 -10c-49 0 -89 24 -98 73c-35 -52 -102 -76 -160 -76
c-89 0 -165 45 -165 136c0 75 53 124 142 142l182 36v19c0 74 -42 117 -115 117c-69 0 -119 -29 -141 -95l-65 40c27 75 101 125 208 125c108 0 193 -54 193 -171v-242c0 -24 13 -36 38 -36zM237 60c77 0 148 39 148 125v53l-145 -30c-66 -14 -97 -35 -97 -78
c0 -41 34 -70 94 -70z" />
    <glyph glyph-name="uni0203" unicode="&#x203;" horiz-adv-x="566" 
d="M276 665c-54 0 -82 -41 -83 -88h-65c0 88 60 148 148 148s148 -60 148 -148h-65c-1 47 -29 88 -83 88zM503 61c11 0 26 2 37 5l-4 -63c-12 -6 -30 -10 -52 -10c-49 0 -89 24 -98 73c-35 -52 -102 -76 -160 -76c-89 0 -165 45 -165 136c0 75 53 124 142 142l182 36v19
c0 74 -42 117 -115 117c-69 0 -119 -29 -141 -95l-65 40c27 75 101 125 208 125c108 0 193 -54 193 -171v-242c0 -24 13 -36 38 -36zM237 60c77 0 148 39 148 125v53l-145 -30c-66 -14 -97 -35 -97 -78c0 -41 34 -70 94 -70z" />
    <glyph glyph-name="amacron" unicode="&#x101;" horiz-adv-x="566" 
d="M440 663v-67h-328v67h328zM503 61c11 0 26 2 37 5l-4 -63c-12 -6 -30 -10 -52 -10c-49 0 -89 24 -98 73c-35 -52 -102 -76 -160 -76c-89 0 -165 45 -165 136c0 75 53 124 142 142l182 36v19c0 74 -42 117 -115 117c-69 0 -119 -29 -141 -95l-65 40c27 75 101 125 208 125
c108 0 193 -54 193 -171v-242c0 -24 13 -36 38 -36zM237 60c77 0 148 39 148 125v53l-145 -30c-66 -14 -97 -35 -97 -78c0 -41 34 -70 94 -70z" />
    <glyph glyph-name="aogonek" unicode="&#x105;" horiz-adv-x="566" 
d="M466 -171c17 0 39 2 55 12l16 -51c-19 -12 -52 -18 -81 -18c-72 0 -119 41 -119 99c0 60 34 97 98 131c-25 12 -43 33 -49 64c-35 -52 -102 -76 -160 -76c-89 0 -165 45 -165 136c0 75 53 124 142 142l182 36v19c0 74 -42 117 -115 117c-69 0 -119 -29 -141 -95l-65 40
c27 75 101 125 208 125c108 0 193 -54 193 -171v-242c0 -24 13 -36 38 -36c11 0 26 2 37 5l-4 -63c-2 -1 -3 -2 -5 -2c-96 -43 -129 -83 -129 -119c0 -33 26 -53 64 -53zM237 60c77 0 148 39 148 125v53l-145 -30c-66 -14 -97 -35 -97 -78c0 -41 34 -70 94 -70z" />
    <glyph glyph-name="aring" unicode="&#xe5;" horiz-adv-x="566" 
d="M273 575c-75 0 -126 48 -126 119c0 70 51 118 126 118s125 -48 125 -118c0 -71 -50 -119 -125 -119zM273 763c-41 0 -71 -29 -71 -69s30 -69 71 -69s71 29 71 69s-30 69 -71 69zM503 61c11 0 26 2 37 5l-4 -63c-12 -6 -30 -10 -52 -10c-49 0 -89 24 -98 73
c-35 -52 -102 -76 -160 -76c-89 0 -165 45 -165 136c0 75 53 124 142 142l182 36v19c0 74 -42 117 -115 117c-69 0 -119 -29 -141 -95l-65 40c27 75 101 125 208 125c108 0 193 -54 193 -171v-242c0 -24 13 -36 38 -36zM237 60c77 0 148 39 148 125v53l-145 -30
c-66 -14 -97 -35 -97 -78c0 -41 34 -70 94 -70z" />
    <glyph glyph-name="aringacute" unicode="&#x1fb;" horiz-adv-x="566" 
d="M378 982l-73 -130h-62l52 130h83zM273 575c-75 0 -126 48 -126 119c0 70 51 118 126 118s125 -48 125 -118c0 -71 -50 -119 -125 -119zM273 763c-41 0 -71 -29 -71 -69s30 -69 71 -69s71 29 71 69s-30 69 -71 69zM503 61c11 0 26 2 37 5l-4 -63c-12 -6 -30 -10 -52 -10
c-49 0 -89 24 -98 73c-35 -52 -102 -76 -160 -76c-89 0 -165 45 -165 136c0 75 53 124 142 142l182 36v19c0 74 -42 117 -115 117c-69 0 -119 -29 -141 -95l-65 40c27 75 101 125 208 125c108 0 193 -54 193 -171v-242c0 -24 13 -36 38 -36zM237 60c77 0 148 39 148 125v53
l-145 -30c-66 -14 -97 -35 -97 -78c0 -41 34 -70 94 -70z" />
    <glyph glyph-name="atilde" unicode="&#xe3;" horiz-adv-x="566" 
d="M206 651c-30 0 -42 -26 -49 -69h-63c7 88 42 134 113 134c73 0 96 -68 136 -68c30 0 43 26 50 69h63c-7 -88 -43 -134 -112 -134c-75 0 -95 68 -138 68zM503 61c11 0 26 2 37 5l-4 -63c-12 -6 -30 -10 -52 -10c-49 0 -89 24 -98 73c-35 -52 -102 -76 -160 -76
c-89 0 -165 45 -165 136c0 75 53 124 142 142l182 36v19c0 74 -42 117 -115 117c-69 0 -119 -29 -141 -95l-65 40c27 75 101 125 208 125c108 0 193 -54 193 -171v-242c0 -24 13 -36 38 -36zM237 60c77 0 148 39 148 125v53l-145 -30c-66 -14 -97 -35 -97 -78
c0 -41 34 -70 94 -70z" />
    <glyph glyph-name="ae" unicode="&#xe6;" horiz-adv-x="895" 
d="M836 283c0 -23 -2 -42 -4 -56h-366c7 -105 71 -167 159 -167c66 0 110 30 138 78l63 -37c-38 -68 -109 -111 -199 -111c-88 0 -160 37 -200 109c-30 -69 -115 -109 -197 -109c-93 0 -169 45 -169 136c0 75 51 124 138 141l186 37v19c0 74 -48 117 -116 117
c-63 0 -114 -29 -140 -95l-65 40c31 75 104 125 203 125c78 0 142 -28 172 -90c40 57 106 90 183 90c133 0 214 -99 214 -227zM469 298h287c-3 91 -59 142 -136 142c-81 0 -137 -52 -151 -142zM385 185v52l-145 -29c-66 -13 -97 -35 -97 -78c0 -41 34 -70 94 -70
c77 0 148 39 148 125z" />
    <glyph glyph-name="aeacute" unicode="&#x1fd;" horiz-adv-x="895" 
d="M562 750l-98 -167h-65l76 167h87zM836 283c0 -23 -2 -42 -4 -56h-366c7 -105 71 -167 159 -167c66 0 110 30 138 78l63 -37c-38 -68 -109 -111 -199 -111c-88 0 -160 37 -200 109c-30 -69 -115 -109 -197 -109c-93 0 -169 45 -169 136c0 75 51 124 138 141l186 37v19
c0 74 -48 117 -116 117c-63 0 -114 -29 -140 -95l-65 40c31 75 104 125 203 125c78 0 142 -28 172 -90c40 57 106 90 183 90c133 0 214 -99 214 -227zM469 298h287c-3 91 -59 142 -136 142c-81 0 -137 -52 -151 -142zM385 185v52l-145 -29c-66 -13 -97 -35 -97 -78
c0 -41 34 -70 94 -70c77 0 148 39 148 125z" />
    <glyph glyph-name="b" unicode="b" horiz-adv-x="627" 
d="M339 510c124 0 228 -97 228 -260s-105 -260 -229 -260c-76 0 -140 39 -170 97l-5 -87h-70v730h80v-308c31 52 93 88 166 88zM330 60c99 0 157 75 157 190s-57 190 -156 190c-94 0 -158 -77 -158 -192s63 -188 157 -188z" />
    <glyph glyph-name="c" unicode="c" horiz-adv-x="560" 
d="M300 510c103 0 170 -51 207 -133l-76 -36c-21 64 -64 99 -133 99c-100 0 -160 -71 -160 -190s60 -190 160 -190c78 0 125 37 140 103l74 -26c-34 -92 -106 -147 -212 -147c-141 0 -242 98 -242 260s101 260 242 260z" />
    <glyph glyph-name="cacute" unicode="&#x107;" horiz-adv-x="560" 
d="M319 750h87l-98 -167h-65zM300 510c103 0 170 -51 207 -133l-76 -36c-21 64 -64 99 -133 99c-100 0 -160 -71 -160 -190s60 -190 160 -190c78 0 125 37 140 103l74 -26c-34 -92 -106 -147 -212 -147c-141 0 -242 98 -242 260s101 260 242 260z" />
    <glyph glyph-name="ccaron" unicode="&#x10d;" horiz-adv-x="560" 
d="M451 750l-114 -167h-90l-114 167h73l86 -115l86 115h73zM300 510c103 0 170 -51 207 -133l-76 -36c-21 64 -64 99 -133 99c-100 0 -160 -71 -160 -190s60 -190 160 -190c78 0 125 37 140 103l74 -26c-34 -92 -106 -147 -212 -147c-141 0 -242 98 -242 260
s101 260 242 260z" />
    <glyph glyph-name="ccedilla" unicode="&#xe7;" horiz-adv-x="560" 
d="M512 137c-28 -76 -82 -127 -160 -142c30 -25 43 -57 43 -94c0 -64 -51 -116 -121 -116c-42 0 -72 12 -95 29l19 58c18 -12 37 -23 67 -23c37 0 64 24 64 70c0 30 -16 50 -59 73c-125 13 -212 108 -212 258c0 162 101 260 242 260c103 0 170 -51 207 -133l-76 -36
c-21 64 -64 99 -133 99c-100 0 -160 -71 -160 -190s60 -190 160 -190c78 0 125 37 140 103z" />
    <glyph glyph-name="uni1E09" unicode="&#x1e09;" horiz-adv-x="560" 
d="M406 750l-98 -167h-65l76 167h87zM512 137c-28 -76 -82 -127 -160 -142c30 -25 43 -57 43 -94c0 -64 -51 -116 -121 -116c-42 0 -72 12 -95 29l19 58c18 -12 37 -23 67 -23c37 0 64 24 64 70c0 30 -16 50 -59 73c-125 13 -212 108 -212 258c0 162 101 260 242 260
c103 0 170 -51 207 -133l-76 -36c-21 64 -64 99 -133 99c-100 0 -160 -71 -160 -190s60 -190 160 -190c78 0 125 37 140 103z" />
    <glyph glyph-name="ccircumflex" unicode="&#x109;" horiz-adv-x="560" 
d="M451 576h-73l-86 115l-86 -115h-73l114 167h90zM300 510c103 0 170 -51 207 -133l-76 -36c-21 64 -64 99 -133 99c-100 0 -160 -71 -160 -190s60 -190 160 -190c78 0 125 37 140 103l74 -26c-34 -92 -106 -147 -212 -147c-141 0 -242 98 -242 260s101 260 242 260z" />
    <glyph glyph-name="cdotaccent" unicode="&#x10b;" horiz-adv-x="560" 
d="M292 716c36 0 60 -24 60 -60s-24 -60 -60 -60s-60 24 -60 60s24 60 60 60zM300 510c103 0 170 -51 207 -133l-76 -36c-21 64 -64 99 -133 99c-100 0 -160 -71 -160 -190s60 -190 160 -190c78 0 125 37 140 103l74 -26c-34 -92 -106 -147 -212 -147
c-141 0 -242 98 -242 260s101 260 242 260z" />
    <glyph glyph-name="d" unicode="d" horiz-adv-x="627" 
d="M454 730h80v-730h-70l-5 94c-27 -67 -97 -104 -171 -104c-124 0 -228 97 -228 260c0 166 111 260 236 260c72 0 131 -36 158 -91v311zM296 60c95 0 158 76 158 197c0 114 -63 183 -154 183c-101 0 -160 -75 -160 -190s57 -190 156 -190z" />
    <glyph glyph-name="eth" unicode="&#xf0;" horiz-adv-x="620" 
d="M552 619l-91 -21c57 -83 85 -186 85 -310c0 -174 -79 -298 -248 -298c-145 0 -236 93 -236 248c0 154 101 247 234 247c73 0 127 -22 163 -63c-15 59 -39 111 -73 157l-179 -46l-15 61l153 34c-37 37 -83 71 -140 102h111c41 -24 76 -52 106 -84l113 32zM302 60
c105 0 166 84 166 178c0 110 -61 177 -161 177c-101 0 -162 -67 -162 -177c0 -112 61 -178 157 -178z" />
    <glyph glyph-name="dcaron" unicode="&#x10f;" horiz-adv-x="650" 
d="M454 419v311h80v-730h-70l-5 94c-27 -67 -97 -104 -171 -104c-124 0 -228 97 -228 260c0 166 111 260 236 260c72 0 131 -36 158 -91zM611 730h76l-41 -197h-55zM296 60c95 0 158 76 158 197c0 114 -63 183 -154 183c-101 0 -160 -75 -160 -190s57 -190 156 -190z" />
    <glyph glyph-name="dcroat" unicode="&#x111;" horiz-adv-x="629" 
d="M614 627v-61h-80v-566h-70l-5 94c-27 -67 -97 -104 -171 -104c-124 0 -228 97 -228 260c0 166 111 260 236 260c72 0 131 -36 158 -91v147h-154v61h154v103h80v-103h80zM296 60c95 0 158 76 158 197c0 114 -63 183 -154 183c-101 0 -160 -75 -160 -190s57 -190 156 -190z
" />
    <glyph glyph-name="uni1E0D" unicode="&#x1e0d;" horiz-adv-x="627" 
d="M454 730h80v-730h-70l-5 94c-27 -67 -97 -104 -171 -104c-124 0 -228 97 -228 260c0 166 111 260 236 260c72 0 131 -36 158 -91v311zM296 60c95 0 158 76 158 197c0 114 -63 183 -154 183c-101 0 -160 -75 -160 -190s57 -190 156 -190zM305 -96c36 0 60 -24 60 -60
s-24 -60 -60 -60s-60 24 -60 60s24 60 60 60z" />
    <glyph glyph-name="uni1E0F" unicode="&#x1e0f;" horiz-adv-x="627" 
d="M454 730h80v-730h-70l-5 94c-27 -67 -97 -104 -171 -104c-124 0 -228 97 -228 260c0 166 111 260 236 260c72 0 131 -36 158 -91v311zM296 60c95 0 158 76 158 197c0 114 -63 183 -154 183c-101 0 -160 -75 -160 -190s57 -190 156 -190zM141 -163v67h328v-67h-328z" />
    <glyph glyph-name="uni01F3" unicode="&#x1f3;" horiz-adv-x="1161" 
d="M454 730h80v-730h-70l-5 94c-27 -67 -97 -104 -171 -104c-124 0 -228 97 -228 260c0 166 111 260 236 260c72 0 131 -36 158 -91v311zM684 0v61l262 307l63 65l-89 -2h-233v69h411v-61l-262 -307l-62 -65l97 2h235v-69h-422zM296 60c95 0 158 76 158 197
c0 114 -63 183 -154 183c-101 0 -160 -75 -160 -190s57 -190 156 -190z" />
    <glyph glyph-name="uni01C6" unicode="&#x1c6;" horiz-adv-x="1161" 
d="M1038 750l-114 -167h-90l-114 167h73l86 -115l86 115h73zM454 730h80v-730h-70l-5 94c-27 -67 -97 -104 -171 -104c-124 0 -228 97 -228 260c0 166 111 260 236 260c72 0 131 -36 158 -91v311zM684 0v61l262 307l63 65l-89 -2h-233v69h411v-61l-262 -307l-62 -65l97 2
h235v-69h-422zM296 60c95 0 158 76 158 197c0 114 -63 183 -154 183c-101 0 -160 -75 -160 -190s57 -190 156 -190z" />
    <glyph glyph-name="e" unicode="e" horiz-adv-x="577" 
d="M518 283c0 -23 -2 -42 -4 -56h-377c8 -105 69 -167 163 -167c73 0 117 30 145 78l63 -37c-38 -68 -109 -111 -206 -111c-143 0 -244 98 -244 260s100 260 239 260c140 0 221 -99 221 -227zM295 440c-84 0 -141 -52 -155 -142h298c-3 91 -60 142 -143 142z" />
    <glyph glyph-name="eacute" unicode="&#xe9;" horiz-adv-x="577" 
d="M405 750l-98 -167h-65l76 167h87zM518 283c0 -23 -2 -42 -4 -56h-377c8 -105 69 -167 163 -167c73 0 117 30 145 78l63 -37c-38 -68 -109 -111 -206 -111c-143 0 -244 98 -244 260s100 260 239 260c140 0 221 -99 221 -227zM295 440c-84 0 -141 -52 -155 -142h298
c-3 91 -60 142 -143 142z" />
    <glyph glyph-name="ebreve" unicode="&#x115;" horiz-adv-x="577" 
d="M291 577c-88 0 -148 60 -148 148h65c1 -47 29 -88 83 -88s82 41 83 88h65c0 -88 -60 -148 -148 -148zM518 283c0 -23 -2 -42 -4 -56h-377c8 -105 69 -167 163 -167c73 0 117 30 145 78l63 -37c-38 -68 -109 -111 -206 -111c-143 0 -244 98 -244 260s100 260 239 260
c140 0 221 -99 221 -227zM295 440c-84 0 -141 -52 -155 -142h298c-3 91 -60 142 -143 142z" />
    <glyph glyph-name="ecaron" unicode="&#x11b;" horiz-adv-x="577" 
d="M336 583h-90l-114 167h73l86 -115l86 115h73zM518 283c0 -23 -2 -42 -4 -56h-377c8 -105 69 -167 163 -167c73 0 117 30 145 78l63 -37c-38 -68 -109 -111 -206 -111c-143 0 -244 98 -244 260s100 260 239 260c140 0 221 -99 221 -227zM295 440c-84 0 -141 -52 -155 -142
h298c-3 91 -60 142 -143 142z" />
    <glyph glyph-name="uni1E1D" unicode="&#x1e1d;" horiz-adv-x="577" 
d="M291 577c-88 0 -148 60 -148 148h65c1 -47 29 -88 83 -88s82 41 83 88h65c0 -88 -60 -148 -148 -148zM518 283c0 -23 -2 -42 -4 -56h-377c8 -105 69 -167 163 -167c73 0 117 30 145 78l63 -37c-31 -55 -83 -94 -154 -107c29 -24 42 -56 42 -93c0 -64 -51 -116 -121 -116
c-42 0 -72 12 -95 29l19 58c18 -12 37 -23 67 -23c37 0 64 24 64 70c0 30 -16 50 -59 73c-126 13 -213 108 -213 258c0 162 100 260 239 260c140 0 221 -99 221 -227zM295 440c-84 0 -141 -52 -155 -142h298c-3 91 -60 142 -143 142z" />
    <glyph glyph-name="ecircumflex" unicode="&#xea;" horiz-adv-x="577" 
d="M291 691l-86 -115h-73l114 167h90l114 -167h-73zM518 283c0 -23 -2 -42 -4 -56h-377c8 -105 69 -167 163 -167c73 0 117 30 145 78l63 -37c-38 -68 -109 -111 -206 -111c-143 0 -244 98 -244 260s100 260 239 260c140 0 221 -99 221 -227zM295 440
c-84 0 -141 -52 -155 -142h298c-3 91 -60 142 -143 142z" />
    <glyph glyph-name="uni1EBF" unicode="&#x1ebf;" horiz-adv-x="577" 
d="M548 836l-77 -143h-58l60 143h75zM291 691l-86 -115h-73l114 167h90l114 -167h-73zM297 510c140 0 221 -99 221 -227c0 -23 -2 -42 -4 -56h-377c8 -105 69 -167 163 -167c73 0 117 30 145 78l63 -37c-38 -68 -109 -111 -206 -111c-143 0 -244 98 -244 260
s100 260 239 260zM295 440c-84 0 -141 -52 -155 -142h298c-3 91 -60 142 -143 142z" />
    <glyph glyph-name="uni1EC7" unicode="&#x1ec7;" horiz-adv-x="577" 
d="M291 691l-86 -115h-73l114 167h90l114 -167h-73zM518 283c0 -23 -2 -42 -4 -56h-377c8 -105 69 -167 163 -167c73 0 117 30 145 78l63 -37c-38 -68 -109 -111 -206 -111c-143 0 -244 98 -244 260s100 260 239 260c140 0 221 -99 221 -227zM295 440
c-84 0 -141 -52 -155 -142h298c-3 91 -60 142 -143 142zM300 -96c36 0 60 -24 60 -60s-24 -60 -60 -60s-60 24 -60 60s24 60 60 60z" />
    <glyph glyph-name="uni1EC1" unicode="&#x1ec1;" horiz-adv-x="577" 
d="M491 693h-58l-77 143h75zM291 691l-86 -115h-73l114 167h90l114 -167h-73zM518 283c0 -23 -2 -42 -4 -56h-377c8 -105 69 -167 163 -167c73 0 117 30 145 78l63 -37c-38 -68 -109 -111 -206 -111c-143 0 -244 98 -244 260s100 260 239 260c140 0 221 -99 221 -227z
M295 440c-84 0 -141 -52 -155 -142h298c-3 91 -60 142 -143 142z" />
    <glyph glyph-name="uni1EC3" unicode="&#x1ec3;" horiz-adv-x="577" 
d="M438 804c-20 0 -34 -9 -46 -30l-47 32c20 37 55 59 105 59c56 0 92 -38 92 -86c0 -47 -31 -87 -89 -106l-28 32c35 18 52 33 52 63c0 20 -14 36 -39 36zM291 691l-86 -115h-73l114 167h90l114 -167h-73zM297 510c140 0 221 -99 221 -227c0 -23 -2 -42 -4 -56h-377
c8 -105 69 -167 163 -167c73 0 117 30 145 78l63 -37c-38 -68 -109 -111 -206 -111c-143 0 -244 98 -244 260s100 260 239 260zM295 440c-84 0 -141 -52 -155 -142h298c-3 91 -60 142 -143 142z" />
    <glyph glyph-name="uni1EC5" unicode="&#x1ec5;" horiz-adv-x="577" 
d="M224 832c-27 0 -39 -20 -46 -60h-63c7 85 45 125 110 125c73 0 90 -62 130 -62c27 0 40 20 47 60h63c-7 -85 -46 -125 -109 -125c-75 0 -89 62 -132 62zM246 743h90l114 -167h-73l-86 115l-86 -115h-73zM518 283c0 -23 -2 -42 -4 -56h-377c8 -105 69 -167 163 -167
c73 0 117 30 145 78l63 -37c-38 -68 -109 -111 -206 -111c-143 0 -244 98 -244 260s100 260 239 260c140 0 221 -99 221 -227zM295 440c-84 0 -141 -52 -155 -142h298c-3 91 -60 142 -143 142z" />
    <glyph glyph-name="uni0205" unicode="&#x205;" horiz-adv-x="577" 
d="M246 583h-65l-98 167h87zM422 583h-65l-98 167h87zM518 283c0 -23 -2 -42 -4 -56h-377c8 -105 69 -167 163 -167c73 0 117 30 145 78l63 -37c-38 -68 -109 -111 -206 -111c-143 0 -244 98 -244 260s100 260 239 260c140 0 221 -99 221 -227zM295 440
c-84 0 -141 -52 -155 -142h298c-3 91 -60 142 -143 142z" />
    <glyph glyph-name="edieresis" unicode="&#xeb;" horiz-adv-x="577" 
d="M194 582c-34 0 -57 23 -57 57s23 57 57 57s57 -23 57 -57s-23 -57 -57 -57zM388 582c-34 0 -57 23 -57 57s23 57 57 57s57 -23 57 -57s-23 -57 -57 -57zM518 283c0 -23 -2 -42 -4 -56h-377c8 -105 69 -167 163 -167c73 0 117 30 145 78l63 -37
c-38 -68 -109 -111 -206 -111c-143 0 -244 98 -244 260s100 260 239 260c140 0 221 -99 221 -227zM295 440c-84 0 -141 -52 -155 -142h298c-3 91 -60 142 -143 142z" />
    <glyph glyph-name="edotaccent" unicode="&#x117;" horiz-adv-x="577" 
d="M291 596c-36 0 -60 24 -60 60s24 60 60 60s60 -24 60 -60s-24 -60 -60 -60zM518 283c0 -23 -2 -42 -4 -56h-377c8 -105 69 -167 163 -167c73 0 117 30 145 78l63 -37c-38 -68 -109 -111 -206 -111c-143 0 -244 98 -244 260s100 260 239 260c140 0 221 -99 221 -227z
M295 440c-84 0 -141 -52 -155 -142h298c-3 91 -60 142 -143 142z" />
    <glyph glyph-name="uni1EB9" unicode="&#x1eb9;" horiz-adv-x="577" 
d="M518 283c0 -23 -2 -42 -4 -56h-377c8 -105 69 -167 163 -167c73 0 117 30 145 78l63 -37c-38 -68 -109 -111 -206 -111c-143 0 -244 98 -244 260s100 260 239 260c140 0 221 -99 221 -227zM295 440c-84 0 -141 -52 -155 -142h298c-3 91 -60 142 -143 142zM300 -96
c36 0 60 -24 60 -60s-24 -60 -60 -60s-60 24 -60 60s24 60 60 60z" />
    <glyph glyph-name="egrave" unicode="&#xe8;" horiz-adv-x="577" 
d="M333 583h-65l-98 167h87zM518 283c0 -23 -2 -42 -4 -56h-377c8 -105 69 -167 163 -167c73 0 117 30 145 78l63 -37c-38 -68 -109 -111 -206 -111c-143 0 -244 98 -244 260s100 260 239 260c140 0 221 -99 221 -227zM295 440c-84 0 -141 -52 -155 -142h298
c-3 91 -60 142 -143 142z" />
    <glyph glyph-name="uni1EBB" unicode="&#x1ebb;" horiz-adv-x="577" 
d="M269 692c-18 0 -34 -10 -48 -34l-46 32c18 42 56 63 106 63c58 0 95 -40 95 -90c0 -48 -32 -89 -96 -114l-28 39c40 19 59 34 59 64c0 22 -15 40 -42 40zM518 283c0 -23 -2 -42 -4 -56h-377c8 -105 69 -167 163 -167c73 0 117 30 145 78l63 -37
c-38 -68 -109 -111 -206 -111c-143 0 -244 98 -244 260s100 260 239 260c140 0 221 -99 221 -227zM295 440c-84 0 -141 -52 -155 -142h298c-3 91 -60 142 -143 142z" />
    <glyph glyph-name="uni0207" unicode="&#x207;" horiz-adv-x="577" 
d="M291 665c-54 0 -82 -41 -83 -88h-65c0 88 60 148 148 148s148 -60 148 -148h-65c-1 47 -29 88 -83 88zM518 283c0 -23 -2 -42 -4 -56h-377c8 -105 69 -167 163 -167c73 0 117 30 145 78l63 -37c-38 -68 -109 -111 -206 -111c-143 0 -244 98 -244 260s100 260 239 260
c140 0 221 -99 221 -227zM295 440c-84 0 -141 -52 -155 -142h298c-3 91 -60 142 -143 142z" />
    <glyph glyph-name="emacron" unicode="&#x113;" horiz-adv-x="577" 
d="M455 663v-67h-328v67h328zM518 283c0 -23 -2 -42 -4 -56h-377c8 -105 69 -167 163 -167c73 0 117 30 145 78l63 -37c-38 -68 -109 -111 -206 -111c-143 0 -244 98 -244 260s100 260 239 260c140 0 221 -99 221 -227zM295 440c-84 0 -141 -52 -155 -142h298
c-3 91 -60 142 -143 142z" />
    <glyph glyph-name="uni1E17" unicode="&#x1e17;" horiz-adv-x="577" 
d="M398 903l-86 -159h-64l66 159h84zM455 663v-67h-328v67h328zM518 283c0 -23 -2 -42 -4 -56h-377c8 -105 69 -167 163 -167c73 0 117 30 145 78l63 -37c-38 -68 -109 -111 -206 -111c-143 0 -244 98 -244 260s100 260 239 260c140 0 221 -99 221 -227zM295 440
c-84 0 -141 -52 -155 -142h298c-3 91 -60 142 -143 142z" />
    <glyph glyph-name="uni1E15" unicode="&#x1e15;" horiz-adv-x="577" 
d="M334 744h-64l-86 159h84zM455 663v-67h-328v67h328zM518 283c0 -23 -2 -42 -4 -56h-377c8 -105 69 -167 163 -167c73 0 117 30 145 78l63 -37c-38 -68 -109 -111 -206 -111c-143 0 -244 98 -244 260s100 260 239 260c140 0 221 -99 221 -227zM295 440
c-84 0 -141 -52 -155 -142h298c-3 91 -60 142 -143 142z" />
    <glyph glyph-name="eogonek" unicode="&#x119;" horiz-adv-x="577" 
d="M518 283c0 -23 -2 -42 -4 -56h-377c8 -105 69 -167 163 -167c73 0 117 30 145 78l63 -37c-26 -47 -69 -83 -125 -100c-97 -37 -111 -73 -111 -113c0 -35 24 -54 62 -54c20 0 39 4 55 11l12 -53c-18 -9 -46 -16 -74 -16c-76 0 -118 42 -118 103c0 51 21 85 65 112
c-128 12 -216 108 -216 259c0 162 100 260 239 260c140 0 221 -99 221 -227zM295 440c-84 0 -141 -52 -155 -142h298c-3 91 -60 142 -143 142z" />
    <glyph glyph-name="uni1EBD" unicode="&#x1ebd;" horiz-adv-x="577" 
d="M221 651c-30 0 -42 -26 -49 -69h-63c7 88 42 134 113 134c73 0 96 -68 136 -68c30 0 43 26 50 69h63c-7 -88 -43 -134 -112 -134c-75 0 -95 68 -138 68zM518 283c0 -23 -2 -42 -4 -56h-377c8 -105 69 -167 163 -167c73 0 117 30 145 78l63 -37
c-38 -68 -109 -111 -206 -111c-143 0 -244 98 -244 260s100 260 239 260c140 0 221 -99 221 -227zM295 440c-84 0 -141 -52 -155 -142h298c-3 91 -60 142 -143 142z" />
    <glyph glyph-name="uni0259" unicode="&#x259;" horiz-adv-x="575" 
d="M285 510c151 0 232 -98 232 -260s-85 -260 -236 -260c-136 0 -223 96 -223 226c0 20 2 42 7 64h372c-10 101 -60 160 -152 160c-62 0 -117 -32 -143 -88l-68 34c36 74 104 124 211 124zM281 60c89 0 146 53 156 149h-297v-3c0 -90 57 -146 141 -146z" />
    <glyph glyph-name="f" unicode="f" horiz-adv-x="393" 
d="M212 576v-76h167v-69h-167v-431h-80v431h-100v69h100v84c0 89 54 151 164 151c35 0 67 -8 85 -23l-21 -65c-16 10 -34 15 -57 15c-58 0 -91 -26 -91 -86z" />
    <glyph glyph-name="g" unicode="g" horiz-adv-x="532" 
d="M362 64c95 0 151 -47 151 -119c0 -99 -107 -160 -242 -160c-158 0 -235 61 -235 136c0 45 23 87 82 102c-32 14 -54 40 -54 83c0 42 24 77 72 96c-51 29 -78 79 -78 139c0 99 85 169 205 169c43 0 81 -9 113 -25c10 67 67 107 138 107l18 -70c-65 0 -105 -22 -108 -72
c28 -29 44 -66 44 -109c0 -99 -85 -169 -205 -169c-25 0 -48 3 -69 7c-40 -12 -56 -35 -56 -60c0 -37 28 -55 78 -55h146zM263 445c-69 0 -122 -42 -122 -104s53 -104 122 -104s122 42 122 104s-53 104 -122 104zM270 -148c116 0 169 40 169 84c0 36 -24 59 -99 59h-154
c-43 0 -76 -24 -76 -62c0 -49 60 -81 160 -81z" />
    <glyph glyph-name="gbreve" unicode="&#x11f;" horiz-adv-x="532" 
d="M277 577c-88 0 -148 60 -148 148h65c1 -47 29 -88 83 -88s82 41 83 88h65c0 -88 -60 -148 -148 -148zM362 64c95 0 151 -47 151 -119c0 -99 -107 -160 -242 -160c-158 0 -235 61 -235 136c0 45 23 87 82 102c-32 14 -54 40 -54 83c0 42 24 77 72 96
c-51 29 -78 79 -78 139c0 99 85 169 205 169c43 0 81 -9 113 -25c10 67 67 107 138 107l18 -70c-65 0 -105 -22 -108 -72c28 -29 44 -66 44 -109c0 -99 -85 -169 -205 -169c-25 0 -48 3 -69 7c-40 -12 -56 -35 -56 -60c0 -37 28 -55 78 -55h146zM263 445
c-69 0 -122 -42 -122 -104s53 -104 122 -104s122 42 122 104s-53 104 -122 104zM270 -148c116 0 169 40 169 84c0 36 -24 59 -99 59h-154c-43 0 -76 -24 -76 -62c0 -49 60 -81 160 -81z" />
    <glyph glyph-name="gcaron" unicode="&#x1e7;" horiz-adv-x="532" 
d="M312 583h-90l-114 167h73l86 -115l86 115h73zM362 64c95 0 151 -47 151 -119c0 -99 -107 -160 -242 -160c-158 0 -235 61 -235 136c0 45 23 87 82 102c-32 14 -54 40 -54 83c0 42 24 77 72 96c-51 29 -78 79 -78 139c0 99 85 169 205 169c43 0 81 -9 113 -25
c10 67 67 107 138 107l18 -70c-65 0 -105 -22 -108 -72c28 -29 44 -66 44 -109c0 -99 -85 -169 -205 -169c-25 0 -48 3 -69 7c-40 -12 -56 -35 -56 -60c0 -37 28 -55 78 -55h146zM263 445c-69 0 -122 -42 -122 -104s53 -104 122 -104s122 42 122 104s-53 104 -122 104z
M270 -148c116 0 169 40 169 84c0 36 -24 59 -99 59h-154c-43 0 -76 -24 -76 -62c0 -49 60 -81 160 -81z" />
    <glyph glyph-name="gcircumflex" unicode="&#x11d;" horiz-adv-x="532" 
d="M267 691l-86 -115h-73l114 167h90l114 -167h-73zM362 64c95 0 151 -47 151 -119c0 -99 -107 -160 -242 -160c-158 0 -235 61 -235 136c0 45 23 87 82 102c-32 14 -54 40 -54 83c0 42 24 77 72 96c-51 29 -78 79 -78 139c0 99 85 169 205 169c43 0 81 -9 113 -25
c10 67 67 107 138 107l18 -70c-65 0 -105 -22 -108 -72c28 -29 44 -66 44 -109c0 -99 -85 -169 -205 -169c-25 0 -48 3 -69 7c-40 -12 -56 -35 -56 -60c0 -37 28 -55 78 -55h146zM263 445c-69 0 -122 -42 -122 -104s53 -104 122 -104s122 42 122 104s-53 104 -122 104z
M270 -148c116 0 169 40 169 84c0 36 -24 59 -99 59h-154c-43 0 -76 -24 -76 -62c0 -49 60 -81 160 -81z" />
    <glyph glyph-name="uni0123" unicode="&#x123;" horiz-adv-x="532" 
d="M357 778l-42 -191h-88l70 191h60zM362 64c95 0 151 -47 151 -119c0 -99 -107 -160 -242 -160c-158 0 -235 61 -235 136c0 45 23 87 82 102c-32 14 -54 40 -54 83c0 42 24 77 72 96c-51 29 -78 79 -78 139c0 99 85 169 205 169c43 0 81 -9 113 -25c10 67 67 107 138 107
l18 -70c-65 0 -105 -22 -108 -72c28 -29 44 -66 44 -109c0 -99 -85 -169 -205 -169c-25 0 -48 3 -69 7c-40 -12 -56 -35 -56 -60c0 -37 28 -55 78 -55h146zM263 445c-69 0 -122 -42 -122 -104s53 -104 122 -104s122 42 122 104s-53 104 -122 104zM270 -148
c116 0 169 40 169 84c0 36 -24 59 -99 59h-154c-43 0 -76 -24 -76 -62c0 -49 60 -81 160 -81z" />
    <glyph glyph-name="gdotaccent" unicode="&#x121;" horiz-adv-x="532" 
d="M267 596c-36 0 -60 24 -60 60s24 60 60 60s60 -24 60 -60s-24 -60 -60 -60zM362 64c95 0 151 -47 151 -119c0 -99 -107 -160 -242 -160c-158 0 -235 61 -235 136c0 45 23 87 82 102c-32 14 -54 40 -54 83c0 42 24 77 72 96c-51 29 -78 79 -78 139c0 99 85 169 205 169
c43 0 81 -9 113 -25c10 67 67 107 138 107l18 -70c-65 0 -105 -22 -108 -72c28 -29 44 -66 44 -109c0 -99 -85 -169 -205 -169c-25 0 -48 3 -69 7c-40 -12 -56 -35 -56 -60c0 -37 28 -55 78 -55h146zM263 445c-69 0 -122 -42 -122 -104s53 -104 122 -104s122 42 122 104
s-53 104 -122 104zM270 -148c116 0 169 40 169 84c0 36 -24 59 -99 59h-154c-43 0 -76 -24 -76 -62c0 -49 60 -81 160 -81z" />
    <glyph glyph-name="uni1E21" unicode="&#x1e21;" horiz-adv-x="532" 
d="M380 663v-67h-226v67h226zM362 64c95 0 151 -47 151 -119c0 -99 -107 -160 -242 -160c-158 0 -235 61 -235 136c0 45 23 87 82 102c-32 14 -54 40 -54 83c0 42 24 77 72 96c-51 29 -78 79 -78 139c0 99 85 169 205 169c43 0 81 -9 113 -25c10 67 67 107 138 107l18 -70
c-65 0 -105 -22 -108 -72c28 -29 44 -66 44 -109c0 -99 -85 -169 -205 -169c-25 0 -48 3 -69 7c-40 -12 -56 -35 -56 -60c0 -37 28 -55 78 -55h146zM263 445c-69 0 -122 -42 -122 -104s53 -104 122 -104s122 42 122 104s-53 104 -122 104zM270 -148c116 0 169 40 169 84
c0 36 -24 59 -99 59h-154c-43 0 -76 -24 -76 -62c0 -49 60 -81 160 -81z" />
    <glyph glyph-name="h" unicode="h" horiz-adv-x="619" 
d="M93 0v730h80v-305c35 60 95 85 163 85c107 0 195 -61 195 -190v-320h-80v292c0 111 -54 148 -123 148c-73 0 -155 -47 -155 -175v-265h-80z" />
    <glyph glyph-name="hbar" unicode="&#x127;" horiz-adv-x="619" 
d="M336 510c107 0 195 -61 195 -190v-320h-80v292c0 111 -54 148 -123 148c-73 0 -155 -47 -155 -175v-265h-80v566h-77v61h77v103h80v-103h157v-61h-157v-141c35 60 95 85 163 85z" />
    <glyph glyph-name="uni1E2B" unicode="&#x1e2b;" horiz-adv-x="619" 
d="M93 0v730h80v-305c35 60 95 85 163 85c107 0 195 -61 195 -190v-320h-80v292c0 111 -54 148 -123 148c-73 0 -155 -47 -155 -175v-265h-80zM490 -77c0 -88 -60 -148 -148 -148s-148 60 -148 148h65c1 -47 29 -88 83 -88s82 41 83 88h65z" />
    <glyph glyph-name="hcircumflex" unicode="&#x125;" horiz-adv-x="619" 
d="M287 793h-74l-80 107l-80 -107h-74l110 159h88zM93 0v730h80v-305c35 60 95 85 163 85c107 0 195 -61 195 -190v-320h-80v292c0 111 -54 148 -123 148c-73 0 -155 -47 -155 -175v-265h-80z" />
    <glyph glyph-name="uni1E25" unicode="&#x1e25;" horiz-adv-x="619" 
d="M93 0v730h80v-305c35 60 95 85 163 85c107 0 195 -61 195 -190v-320h-80v292c0 111 -54 148 -123 148c-73 0 -155 -47 -155 -175v-265h-80zM342 -216c-36 0 -60 24 -60 60s24 60 60 60s60 -24 60 -60s-24 -60 -60 -60z" />
    <glyph glyph-name="i" unicode="i" horiz-adv-x="266" 
d="M133 596c-36 0 -60 24 -60 60s24 60 60 60s60 -24 60 -60s-24 -60 -60 -60zM173 500v-500h-80v500h80z" />
    <glyph glyph-name="dotlessi" unicode="&#x131;" horiz-adv-x="266" 
d="M173 500v-500h-80v500h80z" />
    <glyph glyph-name="iacute" unicode="&#xed;" horiz-adv-x="266" 
d="M160 750h87l-98 -167h-65zM173 500v-500h-80v500h80z" />
    <glyph glyph-name="ibreve" unicode="&#x12d;" horiz-adv-x="266" 
d="M281 725c0 -88 -60 -148 -148 -148s-148 60 -148 148h65c1 -47 29 -88 83 -88s82 41 83 88h65zM173 500v-500h-80v500h80z" />
    <glyph glyph-name="icircumflex" unicode="&#xee;" horiz-adv-x="266" 
d="M292 576h-73l-86 115l-86 -115h-73l114 167h90zM173 500v-500h-80v500h80z" />
    <glyph glyph-name="uni0209" unicode="&#x209;" horiz-adv-x="266" 
d="M88 583h-65l-98 167h87zM264 583h-65l-98 167h87zM173 500v-500h-80v500h80z" />
    <glyph glyph-name="idieresis" unicode="&#xef;" horiz-adv-x="266" 
d="M53 582c-34 0 -57 23 -57 57s23 57 57 57c35 0 58 -23 58 -57s-23 -57 -58 -57zM213 582c-35 0 -58 23 -58 57s23 57 58 57c34 0 57 -23 57 -57s-23 -57 -57 -57zM173 500v-500h-80v500h80z" />
    <glyph glyph-name="uni1E2F" unicode="&#x1e2f;" horiz-adv-x="266" 
d="M156 911h84l-86 -159h-64zM36 696c34 0 57 -23 57 -57s-23 -57 -57 -57s-57 23 -57 57s23 57 57 57zM230 696c34 0 57 -23 57 -57s-23 -57 -57 -57s-57 23 -57 57s23 57 57 57zM173 500v-500h-80v500h80z" />
    <glyph glyph-name="i.loclTRK" horiz-adv-x="266" 
d="M133 596c-36 0 -60 24 -60 60s24 60 60 60s60 -24 60 -60s-24 -60 -60 -60zM173 500v-500h-80v500h80z" />
    <glyph glyph-name="uni1ECB" unicode="&#x1ecb;" horiz-adv-x="266" 
d="M133 596c-36 0 -60 24 -60 60s24 60 60 60s60 -24 60 -60s-24 -60 -60 -60zM173 500v-500h-80v500h80zM133 -216c-36 0 -60 24 -60 60s24 60 60 60s60 -24 60 -60s-24 -60 -60 -60z" />
    <glyph glyph-name="igrave" unicode="&#xec;" horiz-adv-x="266" 
d="M99 750l76 -167h-65l-98 167h87zM173 500v-500h-80v500h80z" />
    <glyph glyph-name="uni1EC9" unicode="&#x1ec9;" horiz-adv-x="266" 
d="M122 549l-28 39c40 19 59 34 59 64c0 22 -15 40 -42 40c-18 0 -34 -10 -48 -34l-46 32c18 42 56 63 106 63c58 0 95 -40 95 -90c0 -48 -32 -89 -96 -114zM173 500v-500h-80v500h80z" />
    <glyph glyph-name="uni020B" unicode="&#x20b;" horiz-adv-x="266" 
d="M281 577h-65c-1 47 -29 88 -83 88s-82 -41 -83 -88h-65c0 88 60 148 148 148s148 -60 148 -148zM173 500v-500h-80v500h80z" />
    <glyph glyph-name="ij" unicode="&#x133;" horiz-adv-x="532" 
d="M133 596c-36 0 -60 24 -60 60s24 60 60 60s60 -24 60 -60s-24 -60 -60 -60zM399 596c-36 0 -60 24 -60 60s24 60 60 60s60 -24 60 -60s-24 -60 -60 -60zM173 500v-500h-80v500h80zM439 500v-551c0 -125 -84 -164 -152 -164c-41 0 -77 14 -100 33l17 76
c19 -17 47 -31 82 -31c43 0 73 24 73 94v543h80z" />
    <glyph glyph-name="imacron" unicode="&#x12b;" horiz-adv-x="266" 
d="M238 663v-67h-210v67h210zM173 500v-500h-80v500h80z" />
    <glyph glyph-name="iogonek" unicode="&#x12f;" horiz-adv-x="266" 
d="M133 596c-36 0 -60 24 -60 60s24 60 60 60s60 -24 60 -60s-24 -60 -60 -60zM123 -174c16 0 37 4 49 11l16 -51c-18 -10 -44 -17 -75 -17c-63 0 -112 37 -112 99c0 61 35 98 92 133v499h80v-500c-80 -46 -107 -84 -107 -121c0 -32 20 -53 57 -53z" />
    <glyph glyph-name="itilde" unicode="&#x129;" horiz-adv-x="266" 
d="M313 717c-7 -88 -43 -134 -112 -134c-75 0 -95 68 -138 68c-30 0 -42 -26 -49 -69h-63c7 88 42 134 113 134c73 0 96 -68 136 -68c30 0 43 26 50 69h63zM173 500v-500h-80v500h80z" />
    <glyph glyph-name="j" unicode="j" horiz-adv-x="266" 
d="M133 596c-36 0 -60 24 -60 60s24 60 60 60s60 -24 60 -60s-24 -60 -60 -60zM173 500v-551c0 -125 -84 -164 -152 -164c-41 0 -77 14 -100 33l17 76c19 -17 47 -31 82 -31c43 0 73 24 73 94v543h80z" />
    <glyph glyph-name="uni0237" unicode="&#x237;" horiz-adv-x="266" 
d="M173 500v-551c0 -125 -84 -164 -152 -164c-41 0 -77 14 -100 33l17 76c19 -17 47 -31 82 -31c43 0 73 24 73 94v543h80z" />
    <glyph glyph-name="jcircumflex" unicode="&#x135;" horiz-adv-x="266" 
d="M292 576h-73l-86 115l-86 -115h-73l114 167h90zM173 500v-551c0 -125 -84 -164 -152 -164c-41 0 -77 14 -100 33l17 76c19 -17 47 -31 82 -31c43 0 73 24 73 94v543h80z" />
    <glyph glyph-name="k" unicode="k" horiz-adv-x="567" 
d="M447 0l-168 247l-106 -106v-141h-80v730h80v-489l258 259h101l-195 -195l207 -305h-97z" />
    <glyph glyph-name="uni0137" unicode="&#x137;" horiz-adv-x="567" 
d="M337 305l207 -305h-97l-168 247l-106 -106v-141h-80v730h80v-489l258 259h101zM224 -237l44 161h84l-65 -161h-63z" />
    <glyph glyph-name="kgreenlandic" unicode="&#x138;" horiz-adv-x="567" 
d="M447 0l-168 247l-106 -106v-141h-80v500h80v-259l259 259h100l-195 -195l207 -305h-97z" />
    <glyph glyph-name="l" unicode="l" horiz-adv-x="306" 
d="M169 730v-603c0 -51 18 -67 59 -67c27 0 39 3 68 14l-13 -70c-21 -9 -48 -14 -74 -14c-81 0 -120 43 -120 134v606h80z" />
    <glyph glyph-name="lacute" unicode="&#x13a;" horiz-adv-x="306" 
d="M80 800l52 130h83l-73 -130h-62zM169 730v-603c0 -51 18 -67 59 -67c27 0 39 3 68 14l-13 -70c-21 -9 -48 -14 -74 -14c-81 0 -120 43 -120 134v606h80z" />
    <glyph glyph-name="lcaron" unicode="&#x13e;" horiz-adv-x="315" 
d="M169 730v-603c0 -51 18 -67 59 -67c27 0 39 3 68 14l-13 -70c-21 -9 -48 -14 -74 -14c-81 0 -120 43 -120 134v606h80zM322 730l-41 -197h-55l20 197h76z" />
    <glyph glyph-name="uni013C" unicode="&#x13c;" horiz-adv-x="306" 
d="M169 730v-603c0 -51 18 -67 59 -67c27 0 39 3 68 14l-13 -70c-21 -9 -48 -14 -74 -14c-81 0 -120 43 -120 134v606h80zM236 -76l-65 -161h-63l44 161h84z" />
    <glyph glyph-name="ldot" unicode="&#x140;" horiz-adv-x="407" 
d="M169 730v-603c0 -51 18 -67 59 -67c27 0 39 3 68 14l-13 -70c-21 -9 -48 -14 -74 -14c-81 0 -120 43 -120 134v606h80zM334 431c39 0 65 -26 65 -65s-26 -65 -65 -65s-65 26 -65 65s26 65 65 65z" />
    <glyph glyph-name="uni1E37" unicode="&#x1e37;" horiz-adv-x="306" 
d="M169 730v-603c0 -51 18 -67 59 -67c27 0 39 3 68 14l-13 -70c-21 -9 -48 -14 -74 -14c-81 0 -120 43 -120 134v606h80zM199 -216c-36 0 -60 24 -60 60s24 60 60 60s60 -24 60 -60s-24 -60 -60 -60z" />
    <glyph glyph-name="uni01C9" unicode="&#x1c9;" horiz-adv-x="572" 
d="M169 730v-603c0 -51 18 -67 59 -67c27 0 39 3 68 14l-13 -70c-21 -9 -48 -14 -74 -14c-81 0 -120 43 -120 134v606h80zM439 596c-36 0 -60 24 -60 60s24 60 60 60s60 -24 60 -60s-24 -60 -60 -60zM479 500v-551c0 -125 -84 -164 -152 -164c-41 0 -77 14 -100 33l17 76
c19 -17 47 -31 82 -31c43 0 73 24 73 94v543h80z" />
    <glyph glyph-name="uni1E3B" unicode="&#x1e3b;" horiz-adv-x="306" 
d="M169 730v-603c0 -51 18 -67 59 -67c27 0 39 3 68 14l-13 -70c-21 -9 -48 -14 -74 -14c-81 0 -120 43 -120 134v606h80zM314 -96v-67h-230v67h230z" />
    <glyph glyph-name="lslash" unicode="&#x142;" horiz-adv-x="372" 
d="M274 60c27 0 39 3 68 14l-13 -70c-21 -9 -48 -14 -74 -14c-81 0 -120 43 -120 134v166l-96 -61v83l96 61v357h80v-306l120 76v-83l-120 -77v-213c0 -51 18 -67 59 -67z" />
    <glyph glyph-name="m" unicode="m" horiz-adv-x="953" 
d="M93 0v500h70l5 -78c36 61 98 88 160 88c70 0 139 -31 172 -98c31 68 111 98 174 98c96 0 191 -58 191 -190v-320h-80v312c0 91 -52 128 -118 128c-78 0 -148 -59 -148 -166v-274h-80v312c0 91 -52 128 -118 128s-148 -49 -148 -173v-267h-80z" />
    <glyph glyph-name="uni1E43" unicode="&#x1e43;" horiz-adv-x="953" 
d="M93 0v500h70l5 -78c36 61 98 88 160 88c70 0 139 -31 172 -98c31 68 111 98 174 98c96 0 191 -58 191 -190v-320h-80v312c0 91 -52 128 -118 128c-78 0 -148 -59 -148 -166v-274h-80v312c0 91 -52 128 -118 128s-148 -49 -148 -173v-267h-80zM479 -216
c-36 0 -60 24 -60 60s24 60 60 60s60 -24 60 -60s-24 -60 -60 -60z" />
    <glyph glyph-name="n" unicode="n" horiz-adv-x="619" 
d="M336 510c107 0 195 -61 195 -190v-320h-80v292c0 111 -54 148 -123 148c-73 0 -155 -46 -155 -174v-266h-80v500h70l5 -78c35 63 99 88 168 88z" />
    <glyph glyph-name="nacute" unicode="&#x144;" horiz-adv-x="619" 
d="M432 750l-98 -167h-65l76 167h87zM336 510c107 0 195 -61 195 -190v-320h-80v292c0 111 -54 148 -123 148c-73 0 -155 -46 -155 -174v-266h-80v500h70l5 -78c35 63 99 88 168 88z" />
    <glyph glyph-name="ncaron" unicode="&#x148;" horiz-adv-x="619" 
d="M363 583h-90l-114 167h73l86 -115l86 115h73zM336 510c107 0 195 -61 195 -190v-320h-80v292c0 111 -54 148 -123 148c-73 0 -155 -46 -155 -174v-266h-80v500h70l5 -78c35 63 99 88 168 88z" />
    <glyph glyph-name="uni0146" unicode="&#x146;" horiz-adv-x="619" 
d="M336 510c107 0 195 -61 195 -190v-320h-80v292c0 111 -54 148 -123 148c-73 0 -155 -46 -155 -174v-266h-80v500h70l5 -78c35 63 99 88 168 88zM251 -237l44 161h84l-65 -161h-63z" />
    <glyph glyph-name="uni1E45" unicode="&#x1e45;" horiz-adv-x="619" 
d="M318 596c-36 0 -60 24 -60 60s24 60 60 60s60 -24 60 -60s-24 -60 -60 -60zM336 510c107 0 195 -61 195 -190v-320h-80v292c0 111 -54 148 -123 148c-73 0 -155 -46 -155 -174v-266h-80v500h70l5 -78c35 63 99 88 168 88z" />
    <glyph glyph-name="uni1E47" unicode="&#x1e47;" horiz-adv-x="619" 
d="M336 510c107 0 195 -61 195 -190v-320h-80v292c0 111 -54 148 -123 148c-73 0 -155 -46 -155 -174v-266h-80v500h70l5 -78c35 63 99 88 168 88zM342 -96c36 0 60 -24 60 -60s-24 -60 -60 -60s-60 24 -60 60s24 60 60 60z" />
    <glyph glyph-name="eng" unicode="&#x14b;" horiz-adv-x="619" 
d="M336 510c107 0 195 -61 195 -190v-371c0 -125 -84 -164 -152 -164c-41 0 -77 14 -100 33l17 76c19 -17 47 -31 82 -31c43 0 73 24 73 94v335c0 111 -54 148 -123 148c-73 0 -155 -46 -155 -174v-266h-80v500h70l5 -78c35 63 99 88 168 88z" />
    <glyph glyph-name="uni01CC" unicode="&#x1cc;" horiz-adv-x="885" 
d="M752 596c-36 0 -60 24 -60 60s24 60 60 60s60 -24 60 -60s-24 -60 -60 -60zM336 510c107 0 195 -61 195 -190v-320h-80v292c0 111 -54 148 -123 148c-73 0 -155 -46 -155 -174v-266h-80v500h70l5 -78c35 63 99 88 168 88zM792 500v-551c0 -125 -84 -164 -152 -164
c-41 0 -77 14 -100 33l17 76c19 -17 47 -31 82 -31c43 0 73 24 73 94v543h80z" />
    <glyph glyph-name="uni1E49" unicode="&#x1e49;" horiz-adv-x="619" 
d="M336 510c107 0 195 -61 195 -190v-320h-80v292c0 111 -54 148 -123 148c-73 0 -155 -46 -155 -174v-266h-80v500h70l5 -78c35 63 99 88 168 88zM506 -96v-67h-328v67h328z" />
    <glyph glyph-name="ntilde" unicode="&#xf1;" horiz-adv-x="619" 
d="M498 717c-7 -88 -43 -134 -112 -134c-75 0 -95 68 -138 68c-30 0 -42 -26 -49 -69h-63c7 88 42 134 113 134c73 0 96 -68 136 -68c30 0 43 26 50 69h63zM336 510c107 0 195 -61 195 -190v-320h-80v292c0 111 -54 148 -123 148c-73 0 -155 -46 -155 -174v-266h-80v500h70
l5 -78c35 63 99 88 168 88z" />
    <glyph glyph-name="o" unicode="o" horiz-adv-x="600" 
d="M300 510c141 0 242 -98 242 -260s-101 -260 -242 -260s-242 98 -242 260s101 260 242 260zM300 441c-101 0 -162 -72 -162 -191s61 -191 162 -191s162 72 162 191s-61 191 -162 191z" />
    <glyph glyph-name="oacute" unicode="&#xf3;" horiz-adv-x="600" 
d="M327 750h87l-98 -167h-65zM300 510c141 0 242 -98 242 -260s-101 -260 -242 -260s-242 98 -242 260s101 260 242 260zM300 441c-101 0 -162 -72 -162 -191s61 -191 162 -191s162 72 162 191s-61 191 -162 191z" />
    <glyph glyph-name="obreve" unicode="&#x14f;" horiz-adv-x="600" 
d="M448 725c0 -88 -60 -148 -148 -148s-148 60 -148 148h65c1 -47 29 -88 83 -88s82 41 83 88h65zM300 510c141 0 242 -98 242 -260s-101 -260 -242 -260s-242 98 -242 260s101 260 242 260zM300 441c-101 0 -162 -72 -162 -191s61 -191 162 -191s162 72 162 191
s-61 191 -162 191z" />
    <glyph glyph-name="ocircumflex" unicode="&#xf4;" horiz-adv-x="600" 
d="M459 576h-73l-86 115l-86 -115h-73l114 167h90zM300 510c141 0 242 -98 242 -260s-101 -260 -242 -260s-242 98 -242 260s101 260 242 260zM300 441c-101 0 -162 -72 -162 -191s61 -191 162 -191s162 72 162 191s-61 191 -162 191z" />
    <glyph glyph-name="uni1ED1" unicode="&#x1ed1;" horiz-adv-x="600" 
d="M482 836h75l-77 -143h-58zM459 576h-73l-86 115l-86 -115h-73l114 167h90zM300 510c141 0 242 -98 242 -260s-101 -260 -242 -260s-242 98 -242 260s101 260 242 260zM300 441c-101 0 -162 -72 -162 -191s61 -191 162 -191s162 72 162 191s-61 191 -162 191z" />
    <glyph glyph-name="uni1ED9" unicode="&#x1ed9;" horiz-adv-x="600" 
d="M459 576h-73l-86 115l-86 -115h-73l114 167h90zM300 510c141 0 242 -98 242 -260s-101 -260 -242 -260s-242 98 -242 260s101 260 242 260zM300 441c-101 0 -162 -72 -162 -191s61 -191 162 -191s162 72 162 191s-61 191 -162 191zM300 -216c-36 0 -60 24 -60 60
s24 60 60 60s60 -24 60 -60s-24 -60 -60 -60z" />
    <glyph glyph-name="uni1ED3" unicode="&#x1ed3;" horiz-adv-x="600" 
d="M440 836l60 -143h-58l-77 143h75zM459 576h-73l-86 115l-86 -115h-73l114 167h90zM300 510c141 0 242 -98 242 -260s-101 -260 -242 -260s-242 98 -242 260s101 260 242 260zM300 441c-101 0 -162 -72 -162 -191s61 -191 162 -191s162 72 162 191s-61 191 -162 191z" />
    <glyph glyph-name="uni1ED5" unicode="&#x1ed5;" horiz-adv-x="600" 
d="M462 673l-28 32c35 18 52 33 52 63c0 20 -14 36 -39 36c-20 0 -34 -9 -46 -30l-47 32c20 37 55 59 105 59c56 0 92 -38 92 -86c0 -47 -31 -87 -89 -106zM459 576h-73l-86 115l-86 -115h-73l114 167h90zM300 510c141 0 242 -98 242 -260s-101 -260 -242 -260
s-242 98 -242 260s101 260 242 260zM300 441c-101 0 -162 -72 -162 -191s61 -191 162 -191s162 72 162 191s-61 191 -162 191z" />
    <glyph glyph-name="uni1ED7" unicode="&#x1ed7;" horiz-adv-x="600" 
d="M474 895c-7 -85 -46 -125 -109 -125c-75 0 -89 62 -132 62c-27 0 -39 -20 -46 -60h-63c7 85 45 125 110 125c73 0 90 -62 130 -62c27 0 40 20 47 60h63zM459 576h-73l-86 115l-86 -115h-73l114 167h90zM300 510c141 0 242 -98 242 -260s-101 -260 -242 -260
s-242 98 -242 260s101 260 242 260zM300 441c-101 0 -162 -72 -162 -191s61 -191 162 -191s162 72 162 191s-61 191 -162 191z" />
    <glyph glyph-name="uni020D" unicode="&#x20d;" horiz-adv-x="600" 
d="M255 583h-65l-98 167h87zM431 583h-65l-98 167h87zM300 510c141 0 242 -98 242 -260s-101 -260 -242 -260s-242 98 -242 260s101 260 242 260zM300 441c-101 0 -162 -72 -162 -191s61 -191 162 -191s162 72 162 191s-61 191 -162 191z" />
    <glyph glyph-name="odieresis" unicode="&#xf6;" horiz-adv-x="600" 
d="M203 696c34 0 57 -23 57 -57s-23 -57 -57 -57s-57 23 -57 57s23 57 57 57zM397 696c34 0 57 -23 57 -57s-23 -57 -57 -57s-57 23 -57 57s23 57 57 57zM300 510c141 0 242 -98 242 -260s-101 -260 -242 -260s-242 98 -242 260s101 260 242 260zM300 441
c-101 0 -162 -72 -162 -191s61 -191 162 -191s162 72 162 191s-61 191 -162 191z" />
    <glyph glyph-name="uni022B" unicode="&#x22b;" horiz-adv-x="600" 
d="M464 832v-67h-328v67h328zM203 696c34 0 57 -23 57 -57s-23 -57 -57 -57s-57 23 -57 57s23 57 57 57zM397 696c34 0 57 -23 57 -57s-23 -57 -57 -57s-57 23 -57 57s23 57 57 57zM300 510c141 0 242 -98 242 -260s-101 -260 -242 -260s-242 98 -242 260s101 260 242 260z
M300 441c-101 0 -162 -72 -162 -191s61 -191 162 -191s162 72 162 191s-61 191 -162 191z" />
    <glyph glyph-name="uni0231" unicode="&#x231;" horiz-adv-x="600" 
d="M464 852v-67h-328v67h328zM300 716c36 0 60 -24 60 -60s-24 -60 -60 -60s-60 24 -60 60s24 60 60 60zM300 510c141 0 242 -98 242 -260s-101 -260 -242 -260s-242 98 -242 260s101 260 242 260zM300 441c-101 0 -162 -72 -162 -191s61 -191 162 -191s162 72 162 191
s-61 191 -162 191z" />
    <glyph glyph-name="uni1ECD" unicode="&#x1ecd;" horiz-adv-x="600" 
d="M300 510c141 0 242 -98 242 -260s-101 -260 -242 -260s-242 98 -242 260s101 260 242 260zM300 441c-101 0 -162 -72 -162 -191s61 -191 162 -191s162 72 162 191s-61 191 -162 191zM300 -216c-36 0 -60 24 -60 60s24 60 60 60s60 -24 60 -60s-24 -60 -60 -60z" />
    <glyph glyph-name="ograve" unicode="&#xf2;" horiz-adv-x="600" 
d="M266 750l76 -167h-65l-98 167h87zM300 510c141 0 242 -98 242 -260s-101 -260 -242 -260s-242 98 -242 260s101 260 242 260zM300 441c-101 0 -162 -72 -162 -191s61 -191 162 -191s162 72 162 191s-61 191 -162 191z" />
    <glyph glyph-name="uni1ECF" unicode="&#x1ecf;" horiz-adv-x="600" 
d="M289 549l-28 39c40 19 59 34 59 64c0 22 -15 40 -42 40c-18 0 -34 -10 -48 -34l-46 32c18 42 56 63 106 63c58 0 95 -40 95 -90c0 -48 -32 -89 -96 -114zM300 510c141 0 242 -98 242 -260s-101 -260 -242 -260s-242 98 -242 260s101 260 242 260zM300 441
c-101 0 -162 -72 -162 -191s61 -191 162 -191s162 72 162 191s-61 191 -162 191z" />
    <glyph glyph-name="ohorn" unicode="&#x1a1;" horiz-adv-x="600" 
d="M455 458c54 -44 87 -116 87 -208c0 -162 -101 -260 -242 -260s-242 98 -242 260s101 260 242 260c26 0 51 -3 74 -10c57 0 92 34 92 118h69c0 -82 -30 -135 -80 -160zM300 59c101 0 162 72 162 191s-61 191 -162 191s-162 -72 -162 -191s61 -191 162 -191z" />
    <glyph glyph-name="uni1EDB" unicode="&#x1edb;" horiz-adv-x="600" 
d="M414 750l-98 -167h-65l76 167h87zM455 458c54 -44 87 -116 87 -208c0 -162 -101 -260 -242 -260s-242 98 -242 260s101 260 242 260c26 0 51 -3 74 -10c57 0 92 34 92 118h69c0 -82 -30 -135 -80 -160zM300 59c101 0 162 72 162 191s-61 191 -162 191s-162 -72 -162 -191
s61 -191 162 -191z" />
    <glyph glyph-name="uni1EE3" unicode="&#x1ee3;" horiz-adv-x="600" 
d="M455 458c54 -44 87 -116 87 -208c0 -162 -101 -260 -242 -260s-242 98 -242 260s101 260 242 260c26 0 51 -3 74 -10c57 0 92 34 92 118h69c0 -82 -30 -135 -80 -160zM300 59c101 0 162 72 162 191s-61 191 -162 191s-162 -72 -162 -191s61 -191 162 -191zM300 -96
c36 0 60 -24 60 -60s-24 -60 -60 -60s-60 24 -60 60s24 60 60 60z" />
    <glyph glyph-name="uni1EDD" unicode="&#x1edd;" horiz-adv-x="600" 
d="M342 583h-65l-98 167h87zM455 458c54 -44 87 -116 87 -208c0 -162 -101 -260 -242 -260s-242 98 -242 260s101 260 242 260c26 0 51 -3 74 -10c57 0 92 34 92 118h69c0 -82 -30 -135 -80 -160zM300 59c101 0 162 72 162 191s-61 191 -162 191s-162 -72 -162 -191
s61 -191 162 -191z" />
    <glyph glyph-name="uni1EDF" unicode="&#x1edf;" horiz-adv-x="600" 
d="M278 692c-18 0 -34 -10 -48 -34l-46 32c18 42 56 63 106 63c58 0 95 -40 95 -90c0 -48 -32 -89 -96 -114l-28 39c40 19 59 34 59 64c0 22 -15 40 -42 40zM455 458c54 -44 87 -116 87 -208c0 -162 -101 -260 -242 -260s-242 98 -242 260s101 260 242 260
c26 0 51 -3 74 -10c57 0 92 34 92 118h69c0 -82 -30 -135 -80 -160zM300 59c101 0 162 72 162 191s-61 191 -162 191s-162 -72 -162 -191s61 -191 162 -191z" />
    <glyph glyph-name="uni1EE1" unicode="&#x1ee1;" horiz-adv-x="600" 
d="M217 651c-30 0 -42 -26 -49 -69h-63c7 88 42 134 113 134c73 0 96 -68 136 -68c30 0 43 26 50 69h63c-7 -88 -43 -134 -112 -134c-75 0 -95 68 -138 68zM455 458c54 -44 87 -116 87 -208c0 -162 -101 -260 -242 -260s-242 98 -242 260s101 260 242 260c26 0 51 -3 74 -10
c57 0 92 34 92 118h69c0 -82 -30 -135 -80 -160zM300 59c101 0 162 72 162 191s-61 191 -162 191s-162 -72 -162 -191s61 -191 162 -191z" />
    <glyph glyph-name="ohungarumlaut" unicode="&#x151;" horiz-adv-x="600" 
d="M159 583l76 167h87l-98 -167h-65zM335 583l76 167h87l-98 -167h-65zM300 510c141 0 242 -98 242 -260s-101 -260 -242 -260s-242 98 -242 260s101 260 242 260zM300 441c-101 0 -162 -72 -162 -191s61 -191 162 -191s162 72 162 191s-61 191 -162 191z" />
    <glyph glyph-name="uni020F" unicode="&#x20f;" horiz-adv-x="600" 
d="M448 577h-65c-1 47 -29 88 -83 88s-82 -41 -83 -88h-65c0 88 60 148 148 148s148 -60 148 -148zM300 510c141 0 242 -98 242 -260s-101 -260 -242 -260s-242 98 -242 260s101 260 242 260zM300 441c-101 0 -162 -72 -162 -191s61 -191 162 -191s162 72 162 191
s-61 191 -162 191z" />
    <glyph glyph-name="omacron" unicode="&#x14d;" horiz-adv-x="600" 
d="M464 663v-67h-328v67h328zM300 510c141 0 242 -98 242 -260s-101 -260 -242 -260s-242 98 -242 260s101 260 242 260zM300 441c-101 0 -162 -72 -162 -191s61 -191 162 -191s162 72 162 191s-61 191 -162 191z" />
    <glyph glyph-name="uni1E53" unicode="&#x1e53;" horiz-adv-x="600" 
d="M323 903h84l-86 -159h-64zM464 663v-67h-328v67h328zM300 510c141 0 242 -98 242 -260s-101 -260 -242 -260s-242 98 -242 260s101 260 242 260zM300 441c-101 0 -162 -72 -162 -191s61 -191 162 -191s162 72 162 191s-61 191 -162 191z" />
    <glyph glyph-name="uni1E51" unicode="&#x1e51;" horiz-adv-x="600" 
d="M277 903l66 -159h-64l-86 159h84zM464 663v-67h-328v67h328zM300 510c141 0 242 -98 242 -260s-101 -260 -242 -260s-242 98 -242 260s101 260 242 260zM300 441c-101 0 -162 -72 -162 -191s61 -191 162 -191s162 72 162 191s-61 191 -162 191z" />
    <glyph glyph-name="uni01EB" unicode="&#x1eb;" horiz-adv-x="600" 
d="M542 250c0 -116 -52 -199 -132 -237l-4 -1c-7 -4 -14 -6 -22 -9c-87 -36 -100 -71 -100 -109c0 -35 24 -54 62 -54c20 0 39 4 55 11l12 -53c-18 -9 -46 -16 -74 -16c-76 0 -118 42 -118 103c0 47 18 79 56 106c-129 10 -219 106 -219 259c0 162 101 260 242 260
s242 -98 242 -260zM300 59c101 0 162 72 162 191s-61 191 -162 191s-162 -72 -162 -191s61 -191 162 -191z" />
    <glyph glyph-name="oslash" unicode="&#xf8;" horiz-adv-x="600" 
d="M545 530l-69 -91c42 -45 66 -109 66 -189c0 -162 -101 -260 -242 -260c-51 0 -97 13 -135 37l-43 -57h-67l69 91c-42 45 -66 109 -66 189c0 162 101 260 242 260c51 0 97 -13 135 -37l43 57h67zM138 250c0 -52 12 -95 33 -127l220 292c-25 17 -55 26 -91 26
c-101 0 -162 -72 -162 -191zM462 250c0 52 -12 95 -33 127l-220 -292c25 -17 55 -26 91 -26c101 0 162 72 162 191z" />
    <glyph glyph-name="oslashacute" unicode="&#x1ff;" horiz-adv-x="600" 
d="M414 750l-98 -167h-65l76 167h87zM545 530l-69 -91c42 -45 66 -109 66 -189c0 -162 -101 -260 -242 -260c-51 0 -97 13 -135 37l-43 -57h-67l69 91c-42 45 -66 109 -66 189c0 162 101 260 242 260c51 0 97 -13 135 -37l43 57h67zM138 250c0 -52 12 -95 33 -127l220 292
c-25 17 -55 26 -91 26c-101 0 -162 -72 -162 -191zM462 250c0 52 -12 95 -33 127l-220 -292c25 -17 55 -26 91 -26c101 0 162 72 162 191z" />
    <glyph glyph-name="otilde" unicode="&#xf5;" horiz-adv-x="600" 
d="M480 717c-7 -88 -43 -134 -112 -134c-75 0 -95 68 -138 68c-30 0 -42 -26 -49 -69h-63c7 88 42 134 113 134c73 0 96 -68 136 -68c30 0 43 26 50 69h63zM300 510c141 0 242 -98 242 -260s-101 -260 -242 -260s-242 98 -242 260s101 260 242 260zM300 441
c-101 0 -162 -72 -162 -191s61 -191 162 -191s162 72 162 191s-61 191 -162 191z" />
    <glyph glyph-name="uni1E4D" unicode="&#x1e4d;" horiz-adv-x="600" 
d="M322 940h84l-86 -159h-64zM480 717c-7 -88 -43 -134 -112 -134c-75 0 -95 68 -138 68c-30 0 -42 -26 -49 -69h-63c7 88 42 134 113 134c73 0 96 -68 136 -68c30 0 43 26 50 69h63zM300 510c141 0 242 -98 242 -260s-101 -260 -242 -260s-242 98 -242 260s101 260 242 260
zM300 441c-101 0 -162 -72 -162 -191s61 -191 162 -191s162 72 162 191s-61 191 -162 191z" />
    <glyph glyph-name="uni1E4F" unicode="&#x1e4f;" horiz-adv-x="600" 
d="M202 894c34 0 57 -23 57 -57s-23 -57 -57 -57s-57 23 -57 57s23 57 57 57zM396 894c34 0 57 -23 57 -57s-23 -57 -57 -57s-57 23 -57 57s23 57 57 57zM480 717c-7 -88 -43 -134 -112 -134c-75 0 -95 68 -138 68c-30 0 -42 -26 -49 -69h-63c7 88 42 134 113 134
c73 0 96 -68 136 -68c30 0 43 26 50 69h63zM300 510c141 0 242 -98 242 -260s-101 -260 -242 -260s-242 98 -242 260s101 260 242 260zM300 441c-101 0 -162 -72 -162 -191s61 -191 162 -191s162 72 162 191s-61 191 -162 191z" />
    <glyph glyph-name="uni022D" unicode="&#x22d;" horiz-adv-x="600" 
d="M463 861v-67h-328v67h328zM480 717c-7 -88 -43 -134 -112 -134c-75 0 -95 68 -138 68c-30 0 -42 -26 -49 -69h-63c7 88 42 134 113 134c73 0 96 -68 136 -68c30 0 43 26 50 69h63zM300 510c141 0 242 -98 242 -260s-101 -260 -242 -260s-242 98 -242 260s101 260 242 260
zM300 441c-101 0 -162 -72 -162 -191s61 -191 162 -191s162 72 162 191s-61 191 -162 191z" />
    <glyph glyph-name="oe" unicode="&#x153;" horiz-adv-x="981" 
d="M922 283c0 -23 -2 -42 -4 -56h-377c8 -105 69 -167 163 -167c73 0 117 30 145 78l63 -37c-38 -68 -109 -111 -206 -111c-90 0 -163 38 -205 114c-41 -76 -114 -114 -201 -114c-141 0 -242 98 -242 260s101 260 242 260c87 0 159 -38 201 -115c41 77 113 115 200 115
c140 0 221 -99 221 -227zM300 59c101 0 162 72 162 191s-61 191 -162 191s-162 -72 -162 -191s61 -191 162 -191zM544 298h298c-3 91 -60 142 -143 142c-84 0 -141 -52 -155 -142z" />
    <glyph glyph-name="p" unicode="p" horiz-adv-x="627" 
d="M341 510c122 0 226 -97 226 -260s-106 -260 -229 -260c-74 0 -134 36 -165 88v-288h-80v710h70l5 -88c30 58 95 98 173 98zM330 60c98 0 157 75 157 190s-57 190 -154 190c-96 0 -160 -75 -160 -190s62 -190 157 -190z" />
    <glyph glyph-name="thorn" unicode="&#xfe;" horiz-adv-x="627" 
d="M339 510c124 0 228 -97 228 -260s-106 -260 -229 -260c-74 0 -134 36 -165 88v-288h-80v940h80v-308c31 52 93 88 166 88zM330 60c98 0 157 75 157 190s-57 190 -154 190c-96 0 -160 -75 -160 -190s62 -190 157 -190z" />
    <glyph glyph-name="q" unicode="q" horiz-adv-x="627" 
d="M464 500h70v-710h-80v293c-30 -60 -95 -93 -166 -93c-124 0 -228 97 -228 260c0 166 111 260 236 260c71 0 136 -36 163 -96zM296 60c94 0 158 75 158 193c0 120 -62 187 -156 187c-99 0 -158 -75 -158 -190s57 -190 156 -190z" />
    <glyph glyph-name="r" unicode="r" horiz-adv-x="408" 
d="M93 0v500h65l11 -82c28 61 82 92 160 92c17 0 40 -2 55 -10l-14 -73c-15 5 -29 8 -61 8c-63 0 -136 -53 -136 -165v-270h-80z" />
    <glyph glyph-name="racute" unicode="&#x155;" horiz-adv-x="408" 
d="M263 750h87l-98 -167h-65zM93 0v500h65l11 -82c28 61 82 92 160 92c17 0 40 -2 55 -10l-14 -73c-15 5 -29 8 -61 8c-63 0 -136 -53 -136 -165v-270h-80z" />
    <glyph glyph-name="rcaron" unicode="&#x159;" horiz-adv-x="408" 
d="M395 750l-114 -167h-90l-114 167h73l86 -115l86 115h73zM93 0v500h65l11 -82c28 61 82 92 160 92c17 0 40 -2 55 -10l-14 -73c-15 5 -29 8 -61 8c-63 0 -136 -53 -136 -165v-270h-80z" />
    <glyph glyph-name="uni0157" unicode="&#x157;" horiz-adv-x="408" 
d="M93 0v500h65l11 -82c28 61 82 92 160 92c17 0 40 -2 55 -10l-14 -73c-15 5 -29 8 -61 8c-63 0 -136 -53 -136 -165v-270h-80zM170 -76l-65 -161h-63l44 161h84z" />
    <glyph glyph-name="uni0211" unicode="&#x211;" horiz-adv-x="408" 
d="M191 583h-65l-98 167h87zM367 583h-65l-98 167h87zM93 0v500h65l11 -82c28 61 82 92 160 92c17 0 40 -2 55 -10l-14 -73c-15 5 -29 8 -61 8c-63 0 -136 -53 -136 -165v-270h-80z" />
    <glyph glyph-name="uni1E5B" unicode="&#x1e5b;" horiz-adv-x="408" 
d="M93 0v500h65l11 -82c28 61 82 92 160 92c17 0 40 -2 55 -10l-14 -73c-15 5 -29 8 -61 8c-63 0 -136 -53 -136 -165v-270h-80zM133 -216c-36 0 -60 24 -60 60s24 60 60 60s60 -24 60 -60s-24 -60 -60 -60z" />
    <glyph glyph-name="uni0213" unicode="&#x213;" horiz-adv-x="408" 
d="M384 577h-65c-1 47 -29 88 -83 88s-82 -41 -83 -88h-65c0 88 60 148 148 148s148 -60 148 -148zM93 0v500h65l11 -82c28 61 82 92 160 92c17 0 40 -2 55 -10l-14 -73c-15 5 -29 8 -61 8c-63 0 -136 -53 -136 -165v-270h-80z" />
    <glyph glyph-name="uni1E5F" unicode="&#x1e5f;" horiz-adv-x="408" 
d="M93 0v500h65l11 -82c28 61 82 92 160 92c17 0 40 -2 55 -10l-14 -73c-15 5 -29 8 -61 8c-63 0 -136 -53 -136 -165v-270h-80zM242 -96v-67h-218v67h218z" />
    <glyph glyph-name="s" unicode="s" horiz-adv-x="527" 
d="M273 -10c-97 0 -185 43 -229 119l68 49c29 -62 87 -98 167 -98c70 0 113 30 113 74c0 28 -14 53 -65 64l-120 25c-97 20 -136 68 -136 137c0 81 75 150 193 150c98 0 168 -41 201 -111l-67 -44c-23 59 -80 85 -134 85c-72 0 -114 -33 -114 -77c0 -29 16 -56 71 -67
l125 -26c93 -19 126 -63 126 -124c0 -95 -81 -156 -199 -156z" />
    <glyph glyph-name="sacute" unicode="&#x15b;" horiz-adv-x="527" 
d="M291 750h87l-98 -167h-65zM273 -10c-97 0 -185 43 -229 119l68 49c29 -62 87 -98 167 -98c70 0 113 30 113 74c0 28 -14 53 -65 64l-120 25c-97 20 -136 68 -136 137c0 81 75 150 193 150c98 0 168 -41 201 -111l-67 -44c-23 59 -80 85 -134 85c-72 0 -114 -33 -114 -77
c0 -29 16 -56 71 -67l125 -26c93 -19 126 -63 126 -124c0 -95 -81 -156 -199 -156z" />
    <glyph glyph-name="uni1E65" unicode="&#x1e65;" horiz-adv-x="527" 
d="M264 924c36 0 60 -24 60 -60s-24 -60 -60 -60s-60 24 -60 60s24 60 60 60zM291 750h87l-98 -167h-65zM273 -10c-97 0 -185 43 -229 119l68 49c29 -62 87 -98 167 -98c70 0 113 30 113 74c0 28 -14 53 -65 64l-120 25c-97 20 -136 68 -136 137c0 81 75 150 193 150
c98 0 168 -41 201 -111l-67 -44c-23 59 -80 85 -134 85c-72 0 -114 -33 -114 -77c0 -29 16 -56 71 -67l125 -26c93 -19 126 -63 126 -124c0 -95 -81 -156 -199 -156z" />
    <glyph glyph-name="scaron" unicode="&#x161;" horiz-adv-x="527" 
d="M423 750l-114 -167h-90l-114 167h73l86 -115l86 115h73zM273 -10c-97 0 -185 43 -229 119l68 49c29 -62 87 -98 167 -98c70 0 113 30 113 74c0 28 -14 53 -65 64l-120 25c-97 20 -136 68 -136 137c0 81 75 150 193 150c98 0 168 -41 201 -111l-67 -44
c-23 59 -80 85 -134 85c-72 0 -114 -33 -114 -77c0 -29 16 -56 71 -67l125 -26c93 -19 126 -63 126 -124c0 -95 -81 -156 -199 -156z" />
    <glyph glyph-name="uni1E67" unicode="&#x1e67;" horiz-adv-x="527" 
d="M264 908c36 0 60 -24 60 -60s-24 -60 -60 -60s-60 24 -60 60s24 60 60 60zM423 750l-114 -167h-90l-114 167h73l86 -115l86 115h73zM273 -10c-97 0 -185 43 -229 119l68 49c29 -62 87 -98 167 -98c70 0 113 30 113 74c0 28 -14 53 -65 64l-120 25
c-97 20 -136 68 -136 137c0 81 75 150 193 150c98 0 168 -41 201 -111l-67 -44c-23 59 -80 85 -134 85c-72 0 -114 -33 -114 -77c0 -29 16 -56 71 -67l125 -26c93 -19 126 -63 126 -124c0 -95 -81 -156 -199 -156z" />
    <glyph glyph-name="scedilla" unicode="&#x15f;" horiz-adv-x="527" 
d="M472 146c0 -81 -59 -137 -149 -152c29 -25 42 -56 42 -93c0 -64 -51 -116 -121 -116c-42 0 -72 12 -95 29l19 58c18 -12 37 -23 67 -23c37 0 64 24 64 70c0 30 -16 50 -59 73c-84 8 -157 50 -196 117l68 49c29 -62 87 -98 167 -98c70 0 113 30 113 74c0 28 -14 53 -65 64
l-120 25c-97 20 -136 68 -136 137c0 81 75 150 193 150c98 0 168 -41 201 -111l-67 -44c-23 59 -80 85 -134 85c-72 0 -114 -33 -114 -77c0 -29 16 -56 71 -67l125 -26c93 -19 126 -63 126 -124z" />
    <glyph glyph-name="scircumflex" unicode="&#x15d;" horiz-adv-x="527" 
d="M423 576h-73l-86 115l-86 -115h-73l114 167h90zM273 -10c-97 0 -185 43 -229 119l68 49c29 -62 87 -98 167 -98c70 0 113 30 113 74c0 28 -14 53 -65 64l-120 25c-97 20 -136 68 -136 137c0 81 75 150 193 150c98 0 168 -41 201 -111l-67 -44c-23 59 -80 85 -134 85
c-72 0 -114 -33 -114 -77c0 -29 16 -56 71 -67l125 -26c93 -19 126 -63 126 -124c0 -95 -81 -156 -199 -156z" />
    <glyph glyph-name="uni0219" unicode="&#x219;" horiz-adv-x="527" 
d="M273 -10c-97 0 -185 43 -229 119l68 49c29 -62 87 -98 167 -98c70 0 113 30 113 74c0 28 -14 53 -65 64l-120 25c-97 20 -136 68 -136 137c0 81 75 150 193 150c98 0 168 -41 201 -111l-67 -44c-23 59 -80 85 -134 85c-72 0 -114 -33 -114 -77c0 -29 16 -56 71 -67
l125 -26c93 -19 126 -63 126 -124c0 -95 -81 -156 -199 -156zM306 -76l-65 -161h-63l44 161h84z" />
    <glyph glyph-name="uni1E61" unicode="&#x1e61;" horiz-adv-x="527" 
d="M264 716c36 0 60 -24 60 -60s-24 -60 -60 -60s-60 24 -60 60s24 60 60 60zM273 -10c-97 0 -185 43 -229 119l68 49c29 -62 87 -98 167 -98c70 0 113 30 113 74c0 28 -14 53 -65 64l-120 25c-97 20 -136 68 -136 137c0 81 75 150 193 150c98 0 168 -41 201 -111l-67 -44
c-23 59 -80 85 -134 85c-72 0 -114 -33 -114 -77c0 -29 16 -56 71 -67l125 -26c93 -19 126 -63 126 -124c0 -95 -81 -156 -199 -156z" />
    <glyph glyph-name="uni1E63" unicode="&#x1e63;" horiz-adv-x="527" 
d="M273 -10c-97 0 -185 43 -229 119l68 49c29 -62 87 -98 167 -98c70 0 113 30 113 74c0 28 -14 53 -65 64l-120 25c-97 20 -136 68 -136 137c0 81 75 150 193 150c98 0 168 -41 201 -111l-67 -44c-23 59 -80 85 -134 85c-72 0 -114 -33 -114 -77c0 -29 16 -56 71 -67
l125 -26c93 -19 126 -63 126 -124c0 -95 -81 -156 -199 -156zM269 -216c-36 0 -60 24 -60 60s24 60 60 60s60 -24 60 -60s-24 -60 -60 -60z" />
    <glyph glyph-name="uni1E69" unicode="&#x1e69;" horiz-adv-x="527" 
d="M264 716c36 0 60 -24 60 -60s-24 -60 -60 -60s-60 24 -60 60s24 60 60 60zM273 -10c-97 0 -185 43 -229 119l68 49c29 -62 87 -98 167 -98c70 0 113 30 113 74c0 28 -14 53 -65 64l-120 25c-97 20 -136 68 -136 137c0 81 75 150 193 150c98 0 168 -41 201 -111l-67 -44
c-23 59 -80 85 -134 85c-72 0 -114 -33 -114 -77c0 -29 16 -56 71 -67l125 -26c93 -19 126 -63 126 -124c0 -95 -81 -156 -199 -156zM269 -216c-36 0 -60 24 -60 60s24 60 60 60s60 -24 60 -60s-24 -60 -60 -60z" />
    <glyph glyph-name="germandbls" unicode="&#xdf;" horiz-adv-x="617" 
d="M383 387c129 0 177 -94 177 -183c0 -116 -63 -214 -197 -214c-64 0 -110 18 -129 33l23 68c24 -15 51 -28 104 -28c76 0 122 60 122 143c0 93 -52 143 -154 143h-59v71h49c86 0 133 56 133 126c0 79 -56 114 -132 114c-112 0 -147 -64 -147 -187v-473h-80v497
c0 137 57 238 235 238c140 0 206 -86 206 -173c0 -79 -49 -166 -151 -173v-2z" />
    <glyph glyph-name="longs" unicode="&#x17f;" horiz-adv-x="260" 
d="M89 0v584c0 89 36 151 135 151c38 0 63 -8 77 -23l-16 -65c-13 10 -27 15 -45 15c-45 0 -71 -26 -71 -86v-576h-80z" />
    <glyph glyph-name="t" unicode="t" horiz-adv-x="419" 
d="M374 102l28 -67c-31 -28 -72 -45 -127 -45c-77 0 -143 37 -144 134v307h-100v69h100v120l80 22v-142h182v-69h-182v-293c0 -49 31 -73 75 -73c39 0 65 14 88 37z" />
    <glyph glyph-name="tbar" unicode="&#x167;" horiz-adv-x="419" 
d="M374 102l28 -67c-31 -28 -72 -45 -127 -45c-77 0 -143 37 -144 134v155h-100v61h100v91h-100v69h100v120l80 22v-142h182v-69h-182v-91h185v-61h-185v-141c0 -49 31 -73 75 -73c39 0 65 14 88 37z" />
    <glyph glyph-name="tcaron" unicode="&#x165;" horiz-adv-x="419" 
d="M368 767l-41 -197h-55l20 197h76zM374 102l28 -67c-31 -28 -72 -45 -127 -45c-77 0 -143 37 -144 134v307h-100v69h100v120l80 22v-142h182v-69h-182v-293c0 -49 31 -73 75 -73c39 0 65 14 88 37z" />
    <glyph glyph-name="uni0163" unicode="&#x163;" horiz-adv-x="419" 
d="M312 -7c28 -25 40 -56 40 -92c0 -64 -51 -116 -121 -116c-42 0 -72 12 -95 29l19 58c18 -12 37 -23 67 -23c37 0 64 24 64 70c0 35 -22 57 -85 85c-41 19 -69 57 -70 120v307h-100v69h100v120l80 22v-142h182v-69h-182v-293c0 -49 31 -73 75 -73c39 0 65 14 88 37l28 -67
c-24 -21 -53 -36 -90 -42z" />
    <glyph glyph-name="uni021B" unicode="&#x21b;" horiz-adv-x="419" 
d="M275 -10c-77 0 -143 37 -144 134v307h-100v69h100v120l80 22v-142h182v-69h-182v-293c0 -49 31 -73 75 -73c39 0 65 14 88 37l28 -67c-31 -28 -72 -45 -127 -45zM165 -237l44 161h84l-65 -161h-63z" />
    <glyph glyph-name="uni1E97" unicode="&#x1e97;" horiz-adv-x="419" 
d="M74 722c-34 0 -57 23 -57 57s23 57 57 57s57 -23 57 -57s-23 -57 -57 -57zM268 722c-34 0 -57 23 -57 57s23 57 57 57s57 -23 57 -57s-23 -57 -57 -57zM374 102l28 -67c-31 -28 -72 -45 -127 -45c-77 0 -143 37 -144 134v307h-100v69h100v120l80 22v-142h182v-69h-182
v-293c0 -49 31 -73 75 -73c39 0 65 14 88 37z" />
    <glyph glyph-name="uni1E6D" unicode="&#x1e6d;" horiz-adv-x="419" 
d="M402 35c-31 -28 -72 -45 -127 -45c-77 0 -143 37 -144 134v307h-100v69h100v120l80 22v-142h182v-69h-182v-293c0 -49 31 -73 75 -73c39 0 65 14 88 37zM256 -96c36 0 60 -24 60 -60s-24 -60 -60 -60s-60 24 -60 60s24 60 60 60z" />
    <glyph glyph-name="uni1E6F" unicode="&#x1e6f;" horiz-adv-x="419" 
d="M131 124v307h-100v69h100v120l80 22v-142h182v-69h-182v-293c0 -49 31 -73 75 -73c39 0 65 14 88 37l28 -67c-31 -28 -72 -45 -127 -45c-77 0 -143 37 -144 134zM92 -96h328v-67h-328v67z" />
    <glyph glyph-name="u" unicode="u" horiz-adv-x="617" 
d="M274 -10c-97 0 -186 51 -186 182v328h80v-307c0 -102 46 -133 126 -133c75 0 150 50 150 168v272h80v-500h-70l-5 76c-35 -60 -95 -86 -175 -86z" />
    <glyph glyph-name="uacute" unicode="&#xfa;" horiz-adv-x="617" 
d="M333 740h87l-98 -167h-65zM274 -10c-97 0 -186 51 -186 182v328h80v-307c0 -102 46 -133 126 -133c75 0 150 50 150 168v272h80v-500h-70l-5 76c-35 -60 -95 -86 -175 -86z" />
    <glyph glyph-name="ubreve" unicode="&#x16d;" horiz-adv-x="617" 
d="M454 715c0 -88 -60 -148 -148 -148s-148 60 -148 148h65c1 -47 29 -88 83 -88s82 41 83 88h65zM274 -10c-97 0 -186 51 -186 182v328h80v-307c0 -102 46 -133 126 -133c75 0 150 50 150 168v272h80v-500h-70l-5 76c-35 -60 -95 -86 -175 -86z" />
    <glyph glyph-name="ucircumflex" unicode="&#xfb;" horiz-adv-x="617" 
d="M465 566h-73l-86 115l-86 -115h-73l114 167h90zM274 -10c-97 0 -186 51 -186 182v328h80v-307c0 -102 46 -133 126 -133c75 0 150 50 150 168v272h80v-500h-70l-5 76c-35 -60 -95 -86 -175 -86z" />
    <glyph glyph-name="uni0215" unicode="&#x215;" horiz-adv-x="617" 
d="M261 573h-65l-98 167h87zM437 573h-65l-98 167h87zM274 -10c-97 0 -186 51 -186 182v328h80v-307c0 -102 46 -133 126 -133c75 0 150 50 150 168v272h80v-500h-70l-5 76c-35 -60 -95 -86 -175 -86z" />
    <glyph glyph-name="udieresis" unicode="&#xfc;" horiz-adv-x="617" 
d="M209 686c34 0 57 -23 57 -57s-23 -57 -57 -57s-57 23 -57 57s23 57 57 57zM403 686c34 0 57 -23 57 -57s-23 -57 -57 -57s-57 23 -57 57s23 57 57 57zM274 -10c-97 0 -186 51 -186 182v328h80v-307c0 -102 46 -133 126 -133c75 0 150 50 150 168v272h80v-500h-70l-5 76
c-35 -60 -95 -86 -175 -86z" />
    <glyph glyph-name="uni1EE5" unicode="&#x1ee5;" horiz-adv-x="617" 
d="M274 -10c-97 0 -186 51 -186 182v328h80v-307c0 -102 46 -133 126 -133c75 0 150 50 150 168v272h80v-500h-70l-5 76c-35 -60 -95 -86 -175 -86zM306 -216c-36 0 -60 24 -60 60s24 60 60 60s60 -24 60 -60s-24 -60 -60 -60z" />
    <glyph glyph-name="ugrave" unicode="&#xf9;" horiz-adv-x="617" 
d="M272 740l76 -167h-65l-98 167h87zM274 -10c-97 0 -186 51 -186 182v328h80v-307c0 -102 46 -133 126 -133c75 0 150 50 150 168v272h80v-500h-70l-5 76c-35 -60 -95 -86 -175 -86z" />
    <glyph glyph-name="uni1EE7" unicode="&#x1ee7;" horiz-adv-x="617" 
d="M295 539l-28 39c40 19 59 34 59 64c0 22 -15 40 -42 40c-18 0 -34 -10 -48 -34l-46 32c18 42 56 63 106 63c58 0 95 -40 95 -90c0 -48 -32 -89 -96 -114zM274 -10c-97 0 -186 51 -186 182v328h80v-307c0 -102 46 -133 126 -133c75 0 150 50 150 168v272h80v-500h-70
l-5 76c-35 -60 -95 -86 -175 -86z" />
    <glyph glyph-name="uhorn" unicode="&#x1b0;" horiz-adv-x="617" 
d="M624 618c0 -92 -38 -148 -100 -168v-450h-70l-5 76c-35 -60 -95 -86 -175 -86c-97 0 -186 51 -186 182v328h80v-307c0 -102 46 -133 126 -133c75 0 150 50 150 168v272h19c57 0 92 34 92 118h69z" />
    <glyph glyph-name="uni1EE9" unicode="&#x1ee9;" horiz-adv-x="617" 
d="M420 740l-98 -167h-65l76 167h87zM624 618c0 -92 -38 -148 -100 -168v-450h-70l-5 76c-35 -60 -95 -86 -175 -86c-97 0 -186 51 -186 182v328h80v-307c0 -102 46 -133 126 -133c75 0 150 50 150 168v272h19c57 0 92 34 92 118h69z" />
    <glyph glyph-name="uni1EF1" unicode="&#x1ef1;" horiz-adv-x="617" 
d="M624 618c0 -92 -38 -148 -100 -168v-450h-70l-5 76c-35 -60 -95 -86 -175 -86c-97 0 -186 51 -186 182v328h80v-307c0 -102 46 -133 126 -133c75 0 150 50 150 168v272h19c57 0 92 34 92 118h69zM306 -96c36 0 60 -24 60 -60s-24 -60 -60 -60s-60 24 -60 60s24 60 60 60z
" />
    <glyph glyph-name="uni1EEB" unicode="&#x1eeb;" horiz-adv-x="617" 
d="M348 573h-65l-98 167h87zM624 618c0 -92 -38 -148 -100 -168v-450h-70l-5 76c-35 -60 -95 -86 -175 -86c-97 0 -186 51 -186 182v328h80v-307c0 -102 46 -133 126 -133c75 0 150 50 150 168v272h19c57 0 92 34 92 118h69z" />
    <glyph glyph-name="uni1EED" unicode="&#x1eed;" horiz-adv-x="617" 
d="M284 682c-18 0 -34 -10 -48 -34l-46 32c18 42 56 63 106 63c58 0 95 -40 95 -90c0 -48 -32 -89 -96 -114l-28 39c40 19 59 34 59 64c0 22 -15 40 -42 40zM624 618c0 -92 -38 -148 -100 -168v-450h-70l-5 76c-35 -60 -95 -86 -175 -86c-97 0 -186 51 -186 182v328h80v-307
c0 -102 46 -133 126 -133c75 0 150 50 150 168v272h19c57 0 92 34 92 118h69z" />
    <glyph glyph-name="uni1EEF" unicode="&#x1eef;" horiz-adv-x="617" 
d="M236 641c-30 0 -42 -26 -49 -69h-63c7 88 42 134 113 134c73 0 96 -68 136 -68c30 0 43 26 50 69h63c-7 -88 -43 -134 -112 -134c-75 0 -95 68 -138 68zM624 618c0 -92 -38 -148 -100 -168v-450h-70l-5 76c-35 -60 -95 -86 -175 -86c-97 0 -186 51 -186 182v328h80v-307
c0 -102 46 -133 126 -133c75 0 150 50 150 168v272h19c57 0 92 34 92 118h69z" />
    <glyph glyph-name="uhungarumlaut" unicode="&#x171;" horiz-adv-x="617" 
d="M165 573l76 167h87l-98 -167h-65zM341 573l76 167h87l-98 -167h-65zM274 -10c-97 0 -186 51 -186 182v328h80v-307c0 -102 46 -133 126 -133c75 0 150 50 150 168v272h80v-500h-70l-5 76c-35 -60 -95 -86 -175 -86z" />
    <glyph glyph-name="uni0217" unicode="&#x217;" horiz-adv-x="617" 
d="M454 567h-65c-1 47 -29 88 -83 88s-82 -41 -83 -88h-65c0 88 60 148 148 148s148 -60 148 -148zM274 -10c-97 0 -186 51 -186 182v328h80v-307c0 -102 46 -133 126 -133c75 0 150 50 150 168v272h80v-500h-70l-5 76c-35 -60 -95 -86 -175 -86z" />
    <glyph glyph-name="umacron" unicode="&#x16b;" horiz-adv-x="617" 
d="M470 653v-67h-328v67h328zM274 -10c-97 0 -186 51 -186 182v328h80v-307c0 -102 46 -133 126 -133c75 0 150 50 150 168v272h80v-500h-70l-5 76c-35 -60 -95 -86 -175 -86z" />
    <glyph glyph-name="uni1E7B" unicode="&#x1e7b;" horiz-adv-x="617" 
d="M209 847c34 0 57 -23 57 -57s-23 -57 -57 -57s-57 23 -57 57s23 57 57 57zM403 847c34 0 57 -23 57 -57s-23 -57 -57 -57s-57 23 -57 57s23 57 57 57zM470 653v-67h-328v67h328zM274 -10c-97 0 -186 51 -186 182v328h80v-307c0 -102 46 -133 126 -133
c75 0 150 50 150 168v272h80v-500h-70l-5 76c-35 -60 -95 -86 -175 -86z" />
    <glyph glyph-name="uogonek" unicode="&#x173;" horiz-adv-x="617" 
d="M523 -163l16 -51c-18 -10 -44 -17 -75 -17c-63 0 -112 37 -112 99c0 64 39 102 102 139l-5 69c-35 -60 -95 -86 -175 -86c-97 0 -186 51 -186 182v328h80v-307c0 -102 46 -133 126 -133c75 0 150 50 150 168v272h80v-500c-80 -46 -107 -84 -107 -121c0 -32 20 -53 57 -53
c16 0 37 4 49 11z" />
    <glyph glyph-name="uring" unicode="&#x16f;" horiz-adv-x="617" 
d="M303 802c75 0 125 -48 125 -118c0 -71 -50 -119 -125 -119s-126 48 -126 119c0 70 51 118 126 118zM303 753c-41 0 -71 -29 -71 -69s30 -69 71 -69s71 29 71 69s-30 69 -71 69zM274 -10c-97 0 -186 51 -186 182v328h80v-307c0 -102 46 -133 126 -133c75 0 150 50 150 168
v272h80v-500h-70l-5 76c-35 -60 -95 -86 -175 -86z" />
    <glyph glyph-name="utilde" unicode="&#x169;" horiz-adv-x="617" 
d="M486 707c-7 -88 -43 -134 -112 -134c-75 0 -95 68 -138 68c-30 0 -42 -26 -49 -69h-63c7 88 42 134 113 134c73 0 96 -68 136 -68c30 0 43 26 50 69h63zM274 -10c-97 0 -186 51 -186 182v328h80v-307c0 -102 46 -133 126 -133c75 0 150 50 150 168v272h80v-500h-70l-5 76
c-35 -60 -95 -86 -175 -86z" />
    <glyph glyph-name="uni1E79" unicode="&#x1e79;" horiz-adv-x="617" 
d="M328 930h84l-86 -159h-64zM486 707c-7 -88 -43 -134 -112 -134c-75 0 -95 68 -138 68c-30 0 -42 -26 -49 -69h-63c7 88 42 134 113 134c73 0 96 -68 136 -68c30 0 43 26 50 69h63zM274 -10c-97 0 -186 51 -186 182v328h80v-307c0 -102 46 -133 126 -133
c75 0 150 50 150 168v272h80v-500h-70l-5 76c-35 -60 -95 -86 -175 -86z" />
    <glyph glyph-name="v" unicode="v" horiz-adv-x="520" 
d="M424 500h84l-208 -500h-80l-208 500h91l158 -419z" />
    <glyph glyph-name="w" unicode="w" horiz-adv-x="836" 
d="M720 500h89l-174 -500h-80l-141 398l-133 -398h-80l-174 500h89l126 -407l136 407h80l136 -407z" />
    <glyph glyph-name="wacute" unicode="&#x1e83;" horiz-adv-x="836" 
d="M445 750h87l-98 -167h-65zM720 500h89l-174 -500h-80l-141 398l-133 -398h-80l-174 500h89l126 -407l136 407h80l136 -407z" />
    <glyph glyph-name="wcircumflex" unicode="&#x175;" horiz-adv-x="836" 
d="M577 576h-73l-86 115l-86 -115h-73l114 167h90zM720 500h89l-174 -500h-80l-141 398l-133 -398h-80l-174 500h89l126 -407l136 407h80l136 -407z" />
    <glyph glyph-name="wdieresis" unicode="&#x1e85;" horiz-adv-x="836" 
d="M321 696c34 0 57 -23 57 -57s-23 -57 -57 -57s-57 23 -57 57s23 57 57 57zM515 696c34 0 57 -23 57 -57s-23 -57 -57 -57s-57 23 -57 57s23 57 57 57zM720 500h89l-174 -500h-80l-141 398l-133 -398h-80l-174 500h89l126 -407l136 407h80l136 -407z" />
    <glyph glyph-name="wgrave" unicode="&#x1e81;" horiz-adv-x="836" 
d="M384 750l76 -167h-65l-98 167h87zM720 500h89l-174 -500h-80l-141 398l-133 -398h-80l-174 500h89l126 -407l136 407h80l136 -407z" />
    <glyph glyph-name="x" unicode="x" horiz-adv-x="533" 
d="M500 0h-98l-138 193l-142 -193h-93l192 252l-180 248h100l132 -185l130 185h94l-181 -245z" />
    <glyph glyph-name="y" unicode="y" horiz-adv-x="516" 
d="M504 500l-235 -584c-39 -98 -84 -131 -155 -131c-46 0 -84 13 -113 35l22 70c26 -24 58 -35 87 -35c35 0 66 15 91 81l26 65l-209 499h91l125 -326l31 -89l36 99l117 316h86z" />
    <glyph glyph-name="yacute" unicode="&#xfd;" horiz-adv-x="516" 
d="M286 740h87l-98 -167h-65zM504 500l-235 -584c-39 -98 -84 -131 -155 -131c-46 0 -84 13 -113 35l22 70c26 -24 58 -35 87 -35c35 0 66 15 91 81l26 65l-209 499h91l125 -326l31 -89l36 99l117 316h86z" />
    <glyph glyph-name="ycircumflex" unicode="&#x177;" horiz-adv-x="516" 
d="M418 566h-73l-86 115l-86 -115h-73l114 167h90zM504 500l-235 -584c-39 -98 -84 -131 -155 -131c-46 0 -84 13 -113 35l22 70c26 -24 58 -35 87 -35c35 0 66 15 91 81l26 65l-209 499h91l125 -326l31 -89l36 99l117 316h86z" />
    <glyph glyph-name="ydieresis" unicode="&#xff;" horiz-adv-x="516" 
d="M162 686c34 0 57 -23 57 -57s-23 -57 -57 -57s-57 23 -57 57s23 57 57 57zM356 686c34 0 57 -23 57 -57s-23 -57 -57 -57s-57 23 -57 57s23 57 57 57zM504 500l-235 -584c-39 -98 -84 -131 -155 -131c-46 0 -84 13 -113 35l22 70c26 -24 58 -35 87 -35c35 0 66 15 91 81
l26 65l-209 499h91l125 -326l31 -89l36 99l117 316h86z" />
    <glyph glyph-name="uni1E8F" unicode="&#x1e8f;" horiz-adv-x="516" 
d="M259 706c36 0 60 -24 60 -60s-24 -60 -60 -60s-60 24 -60 60s24 60 60 60zM504 500l-235 -584c-39 -98 -84 -131 -155 -131c-46 0 -84 13 -113 35l22 70c26 -24 58 -35 87 -35c35 0 66 15 91 81l26 65l-209 499h91l125 -326l31 -89l36 99l117 316h86z" />
    <glyph glyph-name="uni1EF5" unicode="&#x1ef5;" horiz-adv-x="516" 
d="M504 500l-235 -584c-39 -98 -84 -131 -155 -131c-46 0 -84 13 -113 35l22 70c26 -24 58 -35 87 -35c35 0 66 15 91 81l26 65l-209 499h91l125 -326l31 -89l36 99l117 316h86zM409 -216c-36 0 -60 24 -60 60s24 60 60 60s60 -24 60 -60s-24 -60 -60 -60z" />
    <glyph glyph-name="ygrave" unicode="&#x1ef3;" horiz-adv-x="516" 
d="M225 740l76 -167h-65l-98 167h87zM504 500l-235 -584c-39 -98 -84 -131 -155 -131c-46 0 -84 13 -113 35l22 70c26 -24 58 -35 87 -35c35 0 66 15 91 81l26 65l-209 499h91l125 -326l31 -89l36 99l117 316h86z" />
    <glyph glyph-name="uni1EF7" unicode="&#x1ef7;" horiz-adv-x="516" 
d="M258 507l-28 39c40 19 59 34 59 64c0 22 -15 40 -42 40c-18 0 -34 -10 -48 -34l-46 32c18 42 56 63 106 63c58 0 95 -40 95 -90c0 -48 -32 -89 -96 -114zM504 500l-235 -584c-39 -98 -84 -131 -155 -131c-46 0 -84 13 -113 35l22 70c26 -24 58 -35 87 -35
c35 0 66 15 91 81l26 65l-209 499h91l125 -326l31 -89l36 99l117 316h86z" />
    <glyph glyph-name="uni0233" unicode="&#x233;" horiz-adv-x="516" 
d="M423 653v-67h-328v67h328zM504 500l-235 -584c-39 -98 -84 -131 -155 -131c-46 0 -84 13 -113 35l22 70c26 -24 58 -35 87 -35c35 0 66 15 91 81l26 65l-209 499h91l125 -326l31 -89l36 99l117 316h86z" />
    <glyph glyph-name="uni1EF9" unicode="&#x1ef9;" horiz-adv-x="516" 
d="M439 707c-7 -88 -43 -134 -112 -134c-75 0 -95 68 -138 68c-30 0 -42 -26 -49 -69h-63c7 88 42 134 113 134c73 0 96 -68 136 -68c30 0 43 26 50 69h63zM504 500l-235 -584c-39 -98 -84 -131 -155 -131c-46 0 -84 13 -113 35l22 70c26 -24 58 -35 87 -35
c35 0 66 15 91 81l26 65l-209 499h91l125 -326l31 -89l36 99l117 316h86z" />
    <glyph glyph-name="z" unicode="z" horiz-adv-x="534" 
d="M57 0v61l262 307l63 65l-89 -2h-233v69h411v-61l-262 -307l-62 -65l97 2h235v-69h-422z" />
    <glyph glyph-name="zacute" unicode="&#x17a;" horiz-adv-x="534" 
d="M279 750h87l-98 -167h-65zM57 0v61l262 307l63 65l-89 -2h-233v69h411v-61l-262 -307l-62 -65l97 2h235v-69h-422z" />
    <glyph glyph-name="zcaron" unicode="&#x17e;" horiz-adv-x="534" 
d="M411 750l-114 -167h-90l-114 167h73l86 -115l86 115h73zM57 0v61l262 307l63 65l-89 -2h-233v69h411v-61l-262 -307l-62 -65l97 2h235v-69h-422z" />
    <glyph glyph-name="zdotaccent" unicode="&#x17c;" horiz-adv-x="534" 
d="M252 716c36 0 60 -24 60 -60s-24 -60 -60 -60s-60 24 -60 60s24 60 60 60zM57 0v61l262 307l63 65l-89 -2h-233v69h411v-61l-262 -307l-62 -65l97 2h235v-69h-422z" />
    <glyph glyph-name="uni1E93" unicode="&#x1e93;" horiz-adv-x="534" 
d="M57 0v61l262 307l63 65l-89 -2h-233v69h411v-61l-262 -307l-62 -65l97 2h235v-69h-422zM252 -216c-36 0 -60 24 -60 60s24 60 60 60s60 -24 60 -60s-24 -60 -60 -60z" />
    <glyph glyph-name="iacute_j.loclNLD" horiz-adv-x="532" 
d="M160 750h87l-98 -167h-65zM426 750h87l-98 -167h-65zM173 500v-500h-80v500h80zM439 500v-551c0 -125 -84 -164 -152 -164c-41 0 -77 14 -100 33l17 76c19 -17 47 -31 82 -31c43 0 73 24 73 94v543h80z" />
    <glyph glyph-name="j.short" horiz-adv-x="266" 
d="M133 596c-36 0 -60 24 -60 60s24 60 60 60s60 -24 60 -60s-24 -60 -60 -60zM173 500v-551c0 -125 -64 -164 -132 -164c-29 0 -51 5 -68 13l15 76c15 -8 28 -11 47 -11c41 0 58 24 58 94v543h80z" />
    <glyph glyph-name="uni0237.short" horiz-adv-x="266" 
d="M173 500v-551c0 -125 -64 -164 -132 -164c-29 0 -51 5 -68 13l15 76c15 -8 28 -11 47 -11c41 0 58 24 58 94v543h80z" />
    <glyph glyph-name="jcircumflex.short" horiz-adv-x="266" 
d="M292 576h-73l-86 115l-86 -115h-73l114 167h90zM173 500v-551c0 -125 -64 -164 -132 -164c-29 0 -51 5 -68 13l15 76c15 -8 28 -11 47 -11c41 0 58 24 58 94v543h80z" />
    <glyph glyph-name="g.ss01" horiz-adv-x="630" 
d="M291 -215c-110 0 -210 49 -229 155l79 23c13 -70 66 -108 161 -108c101 0 154 68 154 166v73c-30 -54 -88 -94 -164 -94c-132 0 -230 95 -230 255s116 255 228 255c83 0 141 -35 171 -89l6 79h70v-460c0 -172 -85 -255 -246 -255zM299 70c95 0 157 65 157 185
s-62 185 -157 185c-98 0 -157 -80 -157 -185c0 -113 59 -185 157 -185z" />
    <glyph glyph-name="gbreve.ss01" horiz-adv-x="630" 
d="M435 725c0 -88 -60 -148 -148 -148s-148 60 -148 148h65c1 -47 29 -88 83 -88s82 41 83 88h65zM291 -215c-110 0 -210 49 -229 155l79 23c13 -70 66 -108 161 -108c101 0 154 68 154 166v73c-30 -54 -88 -94 -164 -94c-132 0 -230 95 -230 255s116 255 228 255
c83 0 141 -35 171 -89l6 79h70v-460c0 -172 -85 -255 -246 -255zM299 70c95 0 157 65 157 185s-62 185 -157 185c-98 0 -157 -80 -157 -185c0 -113 59 -185 157 -185z" />
    <glyph glyph-name="gcaron.ss01" horiz-adv-x="630" 
d="M446 750l-114 -167h-90l-114 167h73l86 -115l86 115h73zM291 -215c-110 0 -210 49 -229 155l79 23c13 -70 66 -108 161 -108c101 0 154 68 154 166v73c-30 -54 -88 -94 -164 -94c-132 0 -230 95 -230 255s116 255 228 255c83 0 141 -35 171 -89l6 79h70v-460
c0 -172 -85 -255 -246 -255zM299 70c95 0 157 65 157 185s-62 185 -157 185c-98 0 -157 -80 -157 -185c0 -113 59 -185 157 -185z" />
    <glyph glyph-name="gcircumflex.ss01" horiz-adv-x="630" 
d="M446 576h-73l-86 115l-86 -115h-73l114 167h90zM291 -215c-110 0 -210 49 -229 155l79 23c13 -70 66 -108 161 -108c101 0 154 68 154 166v73c-30 -54 -88 -94 -164 -94c-132 0 -230 95 -230 255s116 255 228 255c83 0 141 -35 171 -89l6 79h70v-460
c0 -172 -85 -255 -246 -255zM299 70c95 0 157 65 157 185s-62 185 -157 185c-98 0 -157 -80 -157 -185c0 -113 59 -185 157 -185z" />
    <glyph glyph-name="uni0123.ss01" horiz-adv-x="630" 
d="M400 778l-42 -191h-88l70 191h60zM291 -215c-110 0 -210 49 -229 155l79 23c13 -70 66 -108 161 -108c101 0 154 68 154 166v73c-30 -54 -88 -94 -164 -94c-132 0 -230 95 -230 255s116 255 228 255c83 0 141 -35 171 -89l6 79h70v-460c0 -172 -85 -255 -246 -255z
M299 70c95 0 157 65 157 185s-62 185 -157 185c-98 0 -157 -80 -157 -185c0 -113 59 -185 157 -185z" />
    <glyph glyph-name="gdotaccent.ss01" horiz-adv-x="630" 
d="M287 716c36 0 60 -24 60 -60s-24 -60 -60 -60s-60 24 -60 60s24 60 60 60zM291 -215c-110 0 -210 49 -229 155l79 23c13 -70 66 -108 161 -108c101 0 154 68 154 166v73c-30 -54 -88 -94 -164 -94c-132 0 -230 95 -230 255s116 255 228 255c83 0 141 -35 171 -89l6 79h70
v-460c0 -172 -85 -255 -246 -255zM299 70c95 0 157 65 157 185s-62 185 -157 185c-98 0 -157 -80 -157 -185c0 -113 59 -185 157 -185z" />
    <glyph glyph-name="uni1E21.ss01" horiz-adv-x="630" 
d="M451 663v-67h-328v67h328zM291 -215c-110 0 -210 49 -229 155l79 23c13 -70 66 -108 161 -108c101 0 154 68 154 166v73c-30 -54 -88 -94 -164 -94c-132 0 -230 95 -230 255s116 255 228 255c83 0 141 -35 171 -89l6 79h70v-460c0 -172 -85 -255 -246 -255zM299 70
c95 0 157 65 157 185s-62 185 -157 185c-98 0 -157 -80 -157 -185c0 -113 59 -185 157 -185z" />
    <glyph glyph-name="l.ss02" horiz-adv-x="270" 
d="M175 730v-730h-80v730h80z" />
    <glyph glyph-name="lacute.ss02" horiz-adv-x="270" 
d="M86 800l52 130h83l-73 -130h-62zM175 730v-730h-80v730h80z" />
    <glyph glyph-name="lcaron.ss02" horiz-adv-x="292" 
d="M173 730v-730h-80v730h80zM329 730l-41 -197h-55l20 197h76z" />
    <glyph glyph-name="uni013C.ss02" horiz-adv-x="270" 
d="M175 730v-730h-80v730h80zM172 -76l-65 -161h-63l44 161h84z" />
    <glyph glyph-name="ldot.ss02" horiz-adv-x="430" 
d="M175 730v-730h-80v730h80zM350 420c39 0 65 -26 65 -65s-26 -65 -65 -65s-65 26 -65 65s26 65 65 65z" />
    <glyph glyph-name="uni1E37.ss02" horiz-adv-x="270" 
d="M175 730v-730h-80v730h80zM135 -216c-36 0 -60 24 -60 60s24 60 60 60s60 -24 60 -60s-24 -60 -60 -60z" />
    <glyph glyph-name="uni01C9.ss02" horiz-adv-x="536" 
d="M175 730v-730h-80v730h80zM403 596c-36 0 -60 24 -60 60s24 60 60 60s60 -24 60 -60s-24 -60 -60 -60zM443 500v-551c0 -125 -84 -164 -152 -164c-41 0 -77 14 -100 33l17 76c19 -17 47 -31 82 -31c43 0 73 24 73 94v543h80z" />
    <glyph glyph-name="uni1E3B.ss02" horiz-adv-x="270" 
d="M175 730v-730h-80v730h80zM299 -96v-67h-328v67h328z" />
    <glyph glyph-name="lslash.ss02" horiz-adv-x="323" 
d="M284 478v-83l-81 -51v-344h-80v293l-81 -52v83l81 52v354h80v-303z" />
    <glyph glyph-name="a.ss06" horiz-adv-x="627" 
d="M462 500h72v-500h-76l-3 86c-29 -62 -96 -96 -167 -96c-124 0 -228 97 -228 260c0 166 111 260 236 260c74 0 134 -37 160 -95zM296 60c95 0 159 76 159 197c0 114 -64 183 -155 183c-101 0 -160 -75 -160 -190s57 -190 156 -190z" />
    <glyph glyph-name="aacute.ss06" horiz-adv-x="627" 
d="M415 750l-98 -167h-65l76 167h87zM462 500h72v-500h-76l-3 86c-29 -62 -96 -96 -167 -96c-124 0 -228 97 -228 260c0 166 111 260 236 260c74 0 134 -37 160 -95zM296 60c95 0 159 76 159 197c0 114 -64 183 -155 183c-101 0 -160 -75 -160 -190s57 -190 156 -190z" />
    <glyph glyph-name="abreve.ss06" horiz-adv-x="627" 
d="M301 577c-88 0 -148 60 -148 148h65c1 -47 29 -88 83 -88s82 41 83 88h65c0 -88 -60 -148 -148 -148zM462 500h72v-500h-76l-3 86c-29 -62 -96 -96 -167 -96c-124 0 -228 97 -228 260c0 166 111 260 236 260c74 0 134 -37 160 -95zM296 60c95 0 159 76 159 197
c0 114 -64 183 -155 183c-101 0 -160 -75 -160 -190s57 -190 156 -190z" />
    <glyph glyph-name="uni1EAF.ss06" horiz-adv-x="627" 
d="M387 873l-73 -130h-62l52 130h83zM301 577c-88 0 -148 60 -148 148h65c1 -47 29 -88 83 -88s82 41 83 88h65c0 -88 -60 -148 -148 -148zM462 500h72v-500h-76l-3 86c-29 -62 -96 -96 -167 -96c-124 0 -228 97 -228 260c0 166 111 260 236 260c74 0 134 -37 160 -95z
M296 60c95 0 159 76 159 197c0 114 -64 183 -155 183c-101 0 -160 -75 -160 -190s57 -190 156 -190z" />
    <glyph glyph-name="uni1EB7.ss06" horiz-adv-x="627" 
d="M301 577c-88 0 -148 60 -148 148h65c1 -47 29 -88 83 -88s82 41 83 88h65c0 -88 -60 -148 -148 -148zM462 500h72v-500h-76l-3 86c-29 -62 -96 -96 -167 -96c-124 0 -228 97 -228 260c0 166 111 260 236 260c74 0 134 -37 160 -95zM296 60c95 0 159 76 159 197
c0 114 -64 183 -155 183c-101 0 -160 -75 -160 -190s57 -190 156 -190zM291 -96c36 0 60 -24 60 -60s-24 -60 -60 -60s-60 24 -60 60s24 60 60 60z" />
    <glyph glyph-name="uni1EB1.ss06" horiz-adv-x="627" 
d="M350 743h-62l-73 130h83zM301 577c-88 0 -148 60 -148 148h65c1 -47 29 -88 83 -88s82 41 83 88h65c0 -88 -60 -148 -148 -148zM462 500h72v-500h-76l-3 86c-29 -62 -96 -96 -167 -96c-124 0 -228 97 -228 260c0 166 111 260 236 260c74 0 134 -37 160 -95zM296 60
c95 0 159 76 159 197c0 114 -64 183 -155 183c-101 0 -160 -75 -160 -190s57 -190 156 -190z" />
    <glyph glyph-name="uni1EB3.ss06" horiz-adv-x="627" 
d="M287 859c-20 0 -34 -9 -46 -30l-47 32c20 37 55 59 105 59c56 0 92 -38 92 -86c0 -47 -31 -87 -89 -106l-28 32c35 18 52 33 52 63c0 20 -14 36 -39 36zM301 577c-88 0 -148 60 -148 148h65c1 -47 29 -88 83 -88s82 41 83 88h65c0 -88 -60 -148 -148 -148zM462 500h72
v-500h-76l-3 86c-29 -62 -96 -96 -167 -96c-124 0 -228 97 -228 260c0 166 111 260 236 260c74 0 134 -37 160 -95zM296 60c95 0 159 76 159 197c0 114 -64 183 -155 183c-101 0 -160 -75 -160 -190s57 -190 156 -190z" />
    <glyph glyph-name="uni1EB5.ss06" horiz-adv-x="627" 
d="M235 823c-27 0 -39 -20 -46 -60h-63c7 85 45 125 110 125c73 0 90 -62 130 -62c27 0 40 20 47 60h63c-7 -85 -46 -125 -109 -125c-75 0 -89 62 -132 62zM302 637c54 0 82 41 83 88h65c0 -88 -60 -148 -148 -148s-148 60 -148 148h65c1 -47 29 -88 83 -88zM462 500h72
v-500h-76l-3 86c-29 -62 -96 -96 -167 -96c-124 0 -228 97 -228 260c0 166 111 260 236 260c74 0 134 -37 160 -95zM296 60c95 0 159 76 159 197c0 114 -64 183 -155 183c-101 0 -160 -75 -160 -190s57 -190 156 -190z" />
    <glyph glyph-name="acircumflex.ss06" horiz-adv-x="627" 
d="M301 691l-86 -115h-73l114 167h90l114 -167h-73zM462 500h72v-500h-76l-3 86c-29 -62 -96 -96 -167 -96c-124 0 -228 97 -228 260c0 166 111 260 236 260c74 0 134 -37 160 -95zM296 60c95 0 159 76 159 197c0 114 -64 183 -155 183c-101 0 -160 -75 -160 -190
s57 -190 156 -190z" />
    <glyph glyph-name="uni1EA5.ss06" horiz-adv-x="627" 
d="M558 836l-77 -143h-58l60 143h75zM301 691l-86 -115h-73l114 167h90l114 -167h-73zM456 415l6 85h72v-500h-76l-3 86c-29 -62 -96 -96 -167 -96c-124 0 -228 97 -228 260c0 166 111 260 236 260c74 0 134 -37 160 -95zM296 60c95 0 159 76 159 197
c0 114 -64 183 -155 183c-101 0 -160 -75 -160 -190s57 -190 156 -190z" />
    <glyph glyph-name="uni1EAD.ss06" horiz-adv-x="627" 
d="M301 691l-86 -115h-73l114 167h90l114 -167h-73zM462 500h72v-500h-76l-3 86c-29 -62 -96 -96 -167 -96c-124 0 -228 97 -228 260c0 166 111 260 236 260c74 0 134 -37 160 -95zM296 60c95 0 159 76 159 197c0 114 -64 183 -155 183c-101 0 -160 -75 -160 -190
s57 -190 156 -190zM291 -96c36 0 60 -24 60 -60s-24 -60 -60 -60s-60 24 -60 60s24 60 60 60z" />
    <glyph glyph-name="uni1EA7.ss06" horiz-adv-x="627" 
d="M501 693h-58l-77 143h75zM301 691l-86 -115h-73l114 167h90l114 -167h-73zM462 500h72v-500h-76l-3 86c-29 -62 -96 -96 -167 -96c-124 0 -228 97 -228 260c0 166 111 260 236 260c74 0 134 -37 160 -95zM296 60c95 0 159 76 159 197c0 114 -64 183 -155 183
c-101 0 -160 -75 -160 -190s57 -190 156 -190z" />
    <glyph glyph-name="uni1EA9.ss06" horiz-adv-x="627" 
d="M448 804c-20 0 -34 -9 -46 -30l-47 32c20 37 55 59 105 59c56 0 92 -38 92 -86c0 -47 -31 -87 -89 -106l-28 32c35 18 52 33 52 63c0 20 -14 36 -39 36zM301 691l-86 -115h-73l114 167h90l114 -167h-73zM456 415l6 85h72v-500h-76l-3 86c-29 -62 -96 -96 -167 -96
c-124 0 -228 97 -228 260c0 166 111 260 236 260c74 0 134 -37 160 -95zM296 60c95 0 159 76 159 197c0 114 -64 183 -155 183c-101 0 -160 -75 -160 -190s57 -190 156 -190z" />
    <glyph glyph-name="uni1EAB.ss06" horiz-adv-x="627" 
d="M234 832c-27 0 -39 -20 -46 -60h-63c7 85 45 125 110 125c73 0 90 -62 130 -62c27 0 40 20 47 60h63c-7 -85 -46 -125 -109 -125c-75 0 -89 62 -132 62zM256 743h90l114 -167h-73l-86 115l-86 -115h-73zM462 500h72v-500h-76l-3 86c-29 -62 -96 -96 -167 -96
c-124 0 -228 97 -228 260c0 166 111 260 236 260c74 0 134 -37 160 -95zM296 60c95 0 159 76 159 197c0 114 -64 183 -155 183c-101 0 -160 -75 -160 -190s57 -190 156 -190z" />
    <glyph glyph-name="uni0201.ss06" horiz-adv-x="627" 
d="M256 583h-65l-98 167h87zM432 583h-65l-98 167h87zM462 500h72v-500h-76l-3 86c-29 -62 -96 -96 -167 -96c-124 0 -228 97 -228 260c0 166 111 260 236 260c74 0 134 -37 160 -95zM296 60c95 0 159 76 159 197c0 114 -64 183 -155 183c-101 0 -160 -75 -160 -190
s57 -190 156 -190z" />
    <glyph glyph-name="adieresis.ss06" horiz-adv-x="627" 
d="M204 582c-34 0 -57 23 -57 57s23 57 57 57s57 -23 57 -57s-23 -57 -57 -57zM398 582c-34 0 -57 23 -57 57s23 57 57 57s57 -23 57 -57s-23 -57 -57 -57zM462 500h72v-500h-76l-3 86c-29 -62 -96 -96 -167 -96c-124 0 -228 97 -228 260c0 166 111 260 236 260
c74 0 134 -37 160 -95zM296 60c95 0 159 76 159 197c0 114 -64 183 -155 183c-101 0 -160 -75 -160 -190s57 -190 156 -190z" />
    <glyph glyph-name="uni1EA1.ss06" horiz-adv-x="627" 
d="M462 500h72v-500h-76l-3 86c-29 -62 -96 -96 -167 -96c-124 0 -228 97 -228 260c0 166 111 260 236 260c74 0 134 -37 160 -95zM296 60c95 0 159 76 159 197c0 114 -64 183 -155 183c-101 0 -160 -75 -160 -190s57 -190 156 -190zM291 -96c36 0 60 -24 60 -60
s-24 -60 -60 -60s-60 24 -60 60s24 60 60 60z" />
    <glyph glyph-name="agrave.ss06" horiz-adv-x="627" 
d="M343 583h-65l-98 167h87zM462 500h72v-500h-76l-3 86c-29 -62 -96 -96 -167 -96c-124 0 -228 97 -228 260c0 166 111 260 236 260c74 0 134 -37 160 -95zM296 60c95 0 159 76 159 197c0 114 -64 183 -155 183c-101 0 -160 -75 -160 -190s57 -190 156 -190z" />
    <glyph glyph-name="uni1EA3.ss06" horiz-adv-x="627" 
d="M279 692c-18 0 -34 -10 -48 -34l-46 32c18 42 56 63 106 63c58 0 95 -40 95 -90c0 -48 -32 -89 -96 -114l-28 39c40 19 59 34 59 64c0 22 -15 40 -42 40zM462 500h72v-500h-76l-3 86c-29 -62 -96 -96 -167 -96c-124 0 -228 97 -228 260c0 166 111 260 236 260
c74 0 134 -37 160 -95zM296 60c95 0 159 76 159 197c0 114 -64 183 -155 183c-101 0 -160 -75 -160 -190s57 -190 156 -190z" />
    <glyph glyph-name="uni0203.ss06" horiz-adv-x="627" 
d="M301 665c-54 0 -82 -41 -83 -88h-65c0 88 60 148 148 148s148 -60 148 -148h-65c-1 47 -29 88 -83 88zM462 500h72v-500h-76l-3 86c-29 -62 -96 -96 -167 -96c-124 0 -228 97 -228 260c0 166 111 260 236 260c74 0 134 -37 160 -95zM296 60c95 0 159 76 159 197
c0 114 -64 183 -155 183c-101 0 -160 -75 -160 -190s57 -190 156 -190z" />
    <glyph glyph-name="amacron.ss06" horiz-adv-x="627" 
d="M465 663v-67h-328v67h328zM462 500h72v-500h-76l-3 86c-29 -62 -96 -96 -167 -96c-124 0 -228 97 -228 260c0 166 111 260 236 260c74 0 134 -37 160 -95zM296 60c95 0 159 76 159 197c0 114 -64 183 -155 183c-101 0 -160 -75 -160 -190s57 -190 156 -190z" />
    <glyph glyph-name="aogonek.ss06" horiz-adv-x="627" 
d="M519 -162l16 -51c-19 -12 -52 -18 -81 -18c-72 0 -119 41 -119 99c0 67 43 106 123 143l-3 75c-29 -62 -96 -96 -167 -96c-124 0 -228 97 -228 260c0 166 111 260 236 260c74 0 134 -37 160 -95l6 85h72v-500c-100 -44 -134 -84 -134 -121c0 -33 26 -53 64 -53
c17 0 39 2 55 12zM296 60c95 0 159 76 159 197c0 114 -64 183 -155 183c-101 0 -160 -75 -160 -190s57 -190 156 -190z" />
    <glyph glyph-name="aring.ss06" horiz-adv-x="627" 
d="M298 575c-75 0 -126 48 -126 119c0 70 51 118 126 118s125 -48 125 -118c0 -71 -50 -119 -125 -119zM298 763c-41 0 -71 -29 -71 -69s30 -69 71 -69s71 29 71 69s-30 69 -71 69zM462 500h72v-500h-76l-3 86c-29 -62 -96 -96 -167 -96c-124 0 -228 97 -228 260
c0 166 111 260 236 260c74 0 134 -37 160 -95zM296 60c95 0 159 76 159 197c0 114 -64 183 -155 183c-101 0 -160 -75 -160 -190s57 -190 156 -190z" />
    <glyph glyph-name="aringacute.ss06" horiz-adv-x="627" 
d="M415 1032l-98 -167h-65l76 167h87zM298 575c-75 0 -126 48 -126 119c0 70 51 118 126 118s125 -48 125 -118c0 -71 -50 -119 -125 -119zM298 763c-41 0 -71 -29 -71 -69s30 -69 71 -69s71 29 71 69s-30 69 -71 69zM462 500h72v-500h-76l-3 86c-29 -62 -96 -96 -167 -96
c-124 0 -228 97 -228 260c0 166 111 260 236 260c74 0 134 -37 160 -95zM296 60c95 0 159 76 159 197c0 114 -64 183 -155 183c-101 0 -160 -75 -160 -190s57 -190 156 -190z" />
    <glyph glyph-name="atilde.ss06" horiz-adv-x="627" 
d="M231 651c-30 0 -42 -26 -49 -69h-63c7 88 42 134 113 134c73 0 96 -68 136 -68c30 0 43 26 50 69h63c-7 -88 -43 -134 -112 -134c-75 0 -95 68 -138 68zM462 500h72v-500h-76l-3 86c-29 -62 -96 -96 -167 -96c-124 0 -228 97 -228 260c0 166 111 260 236 260
c74 0 134 -37 160 -95zM296 60c95 0 159 76 159 197c0 114 -64 183 -155 183c-101 0 -160 -75 -160 -190s57 -190 156 -190z" />
    <glyph glyph-name="n.swsh" horiz-adv-x="619" 
d="M578 -27c19 0 30 2 46 9l-12 -59c-14 -9 -29 -13 -60 -13c-68 0 -101 49 -101 120v262c0 111 -54 148 -123 148c-73 0 -155 -46 -155 -174v-266h-80v500h70l5 -78c35 63 99 88 168 88c107 0 195 -61 195 -190v-293c0 -40 22 -54 47 -54z" />
    <glyph glyph-name="nacute.swsh" horiz-adv-x="619" 
d="M432 750l-98 -167h-65l76 167h87zM578 -27c19 0 30 2 46 9l-12 -59c-14 -9 -29 -13 -60 -13c-68 0 -101 49 -101 120v262c0 111 -54 148 -123 148c-73 0 -155 -46 -155 -174v-266h-80v500h70l5 -78c35 63 99 88 168 88c107 0 195 -61 195 -190v-293c0 -40 22 -54 47 -54z
" />
    <glyph glyph-name="ncaron.swsh" horiz-adv-x="619" 
d="M363 583h-90l-114 167h73l86 -115l86 115h73zM578 -27c19 0 30 2 46 9l-12 -59c-14 -9 -29 -13 -60 -13c-68 0 -101 49 -101 120v262c0 111 -54 148 -123 148c-73 0 -155 -46 -155 -174v-266h-80v500h70l5 -78c35 63 99 88 168 88c107 0 195 -61 195 -190v-293
c0 -40 22 -54 47 -54z" />
    <glyph glyph-name="uni0146.swsh" horiz-adv-x="619" 
d="M578 -27c19 0 30 2 46 9l-12 -59c-14 -9 -29 -13 -60 -13c-68 0 -101 49 -101 120v262c0 111 -54 148 -123 148c-73 0 -155 -46 -155 -174v-266h-80v500h70l5 -78c35 63 99 88 168 88c107 0 195 -61 195 -190v-293c0 -40 22 -54 47 -54zM251 -237l44 161h84l-65 -161h-63
z" />
    <glyph glyph-name="ntilde.swsh" horiz-adv-x="619" 
d="M248 651c-30 0 -42 -26 -49 -69h-63c7 88 42 134 113 134c73 0 96 -68 136 -68c30 0 43 26 50 69h63c-7 -88 -43 -134 -112 -134c-75 0 -95 68 -138 68zM578 -27c19 0 30 2 46 9l-12 -59c-14 -9 -29 -13 -60 -13c-68 0 -101 49 -101 120v262c0 111 -54 148 -123 148
c-73 0 -155 -46 -155 -174v-266h-80v500h70l5 -78c35 63 99 88 168 88c107 0 195 -61 195 -190v-293c0 -40 22 -54 47 -54z" />
    <glyph glyph-name="r.swsh" horiz-adv-x="493" 
d="M309 510c104 0 119 -54 194 -67l-43 -60c-63 14 -82 52 -151 52s-136 -53 -136 -165v-270h-80v500h65l11 -82c27 61 78 92 140 92z" />
    <glyph glyph-name="racute.swsh" horiz-adv-x="493" 
d="M334 750l-98 -167h-65l76 167h87zM309 510c104 0 119 -54 194 -67l-43 -60c-63 14 -82 52 -151 52s-136 -53 -136 -165v-270h-80v500h65l11 -82c27 61 78 92 140 92z" />
    <glyph glyph-name="rcaron.swsh" horiz-adv-x="493" 
d="M265 583h-90l-114 167h73l86 -115l86 115h73zM309 510c104 0 119 -54 194 -67l-43 -60c-63 14 -82 52 -151 52s-136 -53 -136 -165v-270h-80v500h65l11 -82c27 61 78 92 140 92z" />
    <glyph glyph-name="uni0157.swsh" horiz-adv-x="493" 
d="M309 510c104 0 119 -54 194 -67l-43 -60c-63 14 -82 52 -151 52s-136 -53 -136 -165v-270h-80v500h65l11 -82c27 61 78 92 140 92zM63 -237l44 161h84l-65 -161h-63z" />
    <glyph glyph-name="t.swsh" horiz-adv-x="439" 
d="M347 431h-136v-293c0 -49 31 -73 75 -73c36 0 62 14 85 37l28 -67c-31 -28 -74 -45 -129 -45c-74 0 -138 37 -139 134v307h-100v69h100v120l80 22v-142h138c83 0 125 13 155 48l35 -52c-39 -47 -87 -65 -192 -65z" />
    <glyph glyph-name="tcaron.swsh" horiz-adv-x="439" 
d="M368 767l-41 -197h-55l20 197h76zM347 431h-136v-293c0 -49 31 -73 75 -73c36 0 62 14 85 37l28 -67c-31 -28 -74 -45 -129 -45c-74 0 -138 37 -139 134v307h-100v69h100v120l80 22v-142h138c83 0 125 13 155 48l35 -52c-39 -47 -87 -65 -192 -65z" />
    <glyph glyph-name="uni0163.swsh" horiz-adv-x="419" 
d="M347 431h-136v-293c0 -49 31 -73 75 -73c36 0 62 14 85 37l28 -67c-21 -19 -47 -33 -79 -40c38 -28 56 -67 56 -103c0 -56 -42 -107 -116 -107c-47 0 -82 10 -110 35l30 55c16 -17 41 -30 69 -30c32 0 57 23 57 58c0 37 -16 59 -73 90c-57 11 -101 51 -102 131v307h-100
v69h100v120l80 22v-142h138c83 0 125 13 155 48l35 -52c-39 -47 -87 -65 -192 -65z" />
    <glyph glyph-name="uni021B.swsh" horiz-adv-x="439" 
d="M347 431h-136v-293c0 -49 31 -73 75 -73c36 0 62 14 85 37l28 -67c-31 -28 -74 -45 -129 -45c-74 0 -138 37 -139 134v307h-100v69h100v120l80 22v-142h138c83 0 125 13 155 48l35 -52c-39 -47 -87 -65 -192 -65zM165 -237l44 161h84l-65 -161h-63z" />
    <glyph glyph-name="y.swsh" horiz-adv-x="547" 
d="M125 -215c-50 0 -82 12 -110 42l28 68c23 -32 53 -40 81 -40c35 0 66 15 91 81l26 65l-209 499h91l125 -326l31 -89l36 99l110 284c32 84 71 121 135 121c37 0 61 -8 78 -25l-16 -51c-13 10 -23 14 -45 14c-37 0 -59 -18 -78 -67l-216 -544c-39 -98 -84 -131 -158 -131z
" />
    <glyph glyph-name="yacute.swsh" horiz-adv-x="547" 
d="M300 750h87l-98 -167h-65zM125 -215c-50 0 -82 12 -110 42l28 68c23 -32 53 -40 81 -40c35 0 66 15 91 81l26 65l-209 499h91l125 -326l31 -89l36 99l110 284c32 84 71 121 135 121c37 0 61 -8 78 -25l-16 -51c-13 10 -23 14 -45 14c-37 0 -59 -18 -78 -67l-216 -544
c-39 -98 -84 -131 -158 -131z" />
    <glyph glyph-name="ydieresis.swsh" horiz-adv-x="547" 
d="M176 696c34 0 57 -23 57 -57s-23 -57 -57 -57s-57 23 -57 57s23 57 57 57zM370 696c34 0 57 -23 57 -57s-23 -57 -57 -57s-57 23 -57 57s23 57 57 57zM125 -215c-50 0 -82 12 -110 42l28 68c23 -32 53 -40 81 -40c35 0 66 15 91 81l26 65l-209 499h91l125 -326l31 -89
l36 99l110 284c32 84 71 121 135 121c37 0 61 -8 78 -25l-16 -51c-13 10 -23 14 -45 14c-37 0 -59 -18 -78 -67l-216 -544c-39 -98 -84 -131 -158 -131z" />
    <glyph glyph-name="T_h" horiz-adv-x="1203" 
d="M677 0v730h80v-305c35 60 95 85 163 85c107 0 195 -61 195 -190v-320h-80v292c0 111 -54 148 -123 148c-73 0 -155 -47 -155 -175v-265h-80zM572 660v-75h-230v-585h-80v585h-230v75h540z" />
    <glyph glyph-name="c_h" horiz-adv-x="1179" 
d="M653 0v730h80v-305c35 60 95 85 163 85c107 0 195 -61 195 -190v-320h-80v292c0 111 -54 148 -123 148c-73 0 -155 -47 -155 -175v-265h-80zM300 510c103 0 170 -51 207 -133l-76 -36c-21 64 -64 99 -133 99c-100 0 -160 -71 -160 -190s60 -190 160 -190
c78 0 125 37 140 103l74 -26c-34 -92 -106 -147 -212 -147c-141 0 -242 98 -242 260s101 260 242 260z" />
    <glyph glyph-name="c_t" horiz-adv-x="900" 
d="M855 102l28 -67c-31 -28 -74 -45 -129 -45c-74 0 -139 37 -139 134v418c0 85 -33 120 -83 120c-49 0 -82 -25 -82 -105c0 -67 30 -135 55 -180l-76 -36c-21 63 -66 99 -131 99c-100 0 -160 -71 -160 -190s60 -190 160 -190c73 0 120 37 140 103l72 -25
c-32 -92 -104 -148 -210 -148c-151 0 -242 98 -242 260s91 260 242 260c35 0 65 -6 91 -19c-8 21 -13 45 -13 76c0 119 75 164 159 164c85 0 158 -47 158 -158v-73h185v-69h-185v-293c0 -49 31 -73 75 -73c36 0 62 14 85 37z" />
    <glyph glyph-name="s_t" horiz-adv-x="853" 
d="M808 102l28 -67c-31 -28 -74 -45 -129 -45c-74 0 -139 37 -139 134v418c0 86 -37 120 -84 120c-53 0 -81 -37 -81 -99c0 -48 9 -95 57 -172l-66 -31c-22 56 -71 80 -134 80c-67 0 -117 -36 -117 -73c0 -43 33 -64 135 -82c140 -24 190 -65 190 -147
c0 -87 -81 -148 -209 -148c-92 0 -177 36 -215 113l65 45c24 -61 86 -88 158 -88c82 0 121 33 121 74c0 37 -31 60 -131 77c-142 24 -194 68 -194 149s75 150 197 150c33 0 63 -4 88 -12c-11 20 -18 43 -18 65c0 120 72 168 160 168c85 0 158 -47 158 -158v-73h185v-69h-185
v-293c0 -49 31 -73 75 -73c36 0 62 14 85 37z" />
    <glyph glyph-name="f_f_l.ss02" horiz-adv-x="1056" 
d="M303 662c-58 0 -91 -26 -91 -86v-76h167v-69h-167v-431h-80v431h-100v69h100v84c0 89 54 151 164 151c35 0 67 -8 85 -23l-21 -65c-16 10 -34 15 -57 15zM696 662c-58 0 -91 -26 -91 -86v-76h167v-69h-167v-431h-80v431h-100v69h100v84c0 89 54 151 164 151
c35 0 67 -8 85 -23l-21 -65c-16 10 -34 15 -57 15zM881 730h80v-730h-80v730z" />
    <glyph glyph-name="fl.ss02" horiz-adv-x="663" 
d="M303 662c-58 0 -91 -26 -91 -86v-76h167v-69h-167v-431h-80v431h-100v69h100v84c0 89 54 151 164 151c35 0 67 -8 85 -23l-21 -65c-16 10 -34 15 -57 15zM488 730h80v-730h-80v730z" />
    <glyph glyph-name="uni1E9E.sc" horiz-adv-x="625" 
d="M404 310c110 0 184 -52 184 -153c0 -99 -77 -161 -184 -161c-75 0 -127 23 -153 53l35 61c23 -24 61 -45 109 -45c68 0 113 36 113 93c0 75 -51 92 -128 92h-76v60l158 181h-158c-73 0 -130 -51 -130 -125v-366h-80v371c0 114 85 189 205 189h251v-69l-163 -181h17z" />
    <glyph glyph-name="a.sc" horiz-adv-x="595" 
d="M487 0l-60 153h-259l-60 -153h-85l227 560h95l227 -560h-85zM195 222h205l-75 193l-27 74h-1l-27 -74z" />
    <glyph glyph-name="aacute.sc" horiz-adv-x="595" 
d="M404 802l-86 -159h-64l66 159h84zM487 0l-60 153h-259l-60 -153h-85l227 560h95l227 -560h-85zM195 222h205l-75 193l-27 74h-1l-27 -74z" />
    <glyph glyph-name="abreve.sc" horiz-adv-x="595" 
d="M297 637c-88 0 -148 60 -148 148h65c1 -47 29 -88 83 -88s82 41 83 88h65c0 -88 -60 -148 -148 -148zM487 0l-60 153h-259l-60 -153h-85l227 560h95l227 -560h-85zM195 222h205l-75 193l-27 74h-1l-27 -74z" />
    <glyph glyph-name="uni1EAF.sc" horiz-adv-x="595" 
d="M383 933l-73 -130h-62l52 130h83zM297 637c-88 0 -148 60 -148 148h65c1 -47 29 -88 83 -88s82 41 83 88h65c0 -88 -60 -148 -148 -148zM487 0l-60 153h-259l-60 -153h-85l227 560h95l227 -560h-85zM195 222h205l-75 193l-27 74h-1l-27 -74z" />
    <glyph glyph-name="uni1EB7.sc" horiz-adv-x="595" 
d="M297 637c-88 0 -148 60 -148 148h65c1 -47 29 -88 83 -88s82 41 83 88h65c0 -88 -60 -148 -148 -148zM572 0h-85l-60 153h-259l-60 -153h-85l227 560h95zM195 222h205l-75 193l-27 74h-1l-27 -74zM297 -96c36 0 60 -24 60 -60s-24 -60 -60 -60s-60 24 -60 60s24 60 60 60
z" />
    <glyph glyph-name="uni1EB1.sc" horiz-adv-x="595" 
d="M346 803h-62l-73 130h83zM297 637c-88 0 -148 60 -148 148h65c1 -47 29 -88 83 -88s82 41 83 88h65c0 -88 -60 -148 -148 -148zM487 0l-60 153h-259l-60 -153h-85l227 560h95l227 -560h-85zM195 222h205l-75 193l-27 74h-1l-27 -74z" />
    <glyph glyph-name="uni1EB3.sc" horiz-adv-x="595" 
d="M283 919c-20 0 -34 -9 -46 -30l-47 32c20 37 55 59 105 59c56 0 92 -38 92 -86c0 -47 -31 -87 -89 -106l-28 32c35 18 52 33 52 63c0 20 -14 36 -39 36zM297 637c-88 0 -148 60 -148 148h65c1 -47 29 -88 83 -88s82 41 83 88h65c0 -88 -60 -148 -148 -148zM487 0l-60 153
h-259l-60 -153h-85l227 560h95l227 -560h-85zM195 222h205l-75 193l-27 74h-1l-27 -74z" />
    <glyph glyph-name="uni1EB5.sc" horiz-adv-x="595" 
d="M231 883c-27 0 -39 -20 -46 -60h-63c7 85 45 125 110 125c73 0 90 -62 130 -62c27 0 40 20 47 60h63c-7 -85 -46 -125 -109 -125c-75 0 -89 62 -132 62zM298 697c54 0 82 41 83 88h65c0 -88 -60 -148 -148 -148s-148 60 -148 148h65c1 -47 29 -88 83 -88zM487 0l-60 153
h-259l-60 -153h-85l227 560h95l227 -560h-85zM195 222h205l-75 193l-27 74h-1l-27 -74z" />
    <glyph glyph-name="acircumflex.sc" horiz-adv-x="595" 
d="M297 750l-80 -107h-74l110 159h88l110 -159h-74zM487 0l-60 153h-259l-60 -153h-85l227 560h95l227 -560h-85zM195 222h205l-75 193l-27 74h-1l-27 -74z" />
    </font>
</defs>
</svg>
