<?xml version="1.0" encoding="UTF-8" ?>
<!DOCTYPE svg PUBLIC "-//W3C//DTD SVG 1.1//EN" "http://www.w3.org/Graphics/SVG/1.1/DTD/svg11.dtd">
<svg width="1790pt" height="409pt" viewBox="0 0 1790 409" version="1.1" xmlns="http://www.w3.org/2000/svg">
<path fill="#ffffff" d=" M 0.00 0.00 L 1790.00 0.00 L 1790.00 409.00 L 0.00 409.00 L 0.00 0.00 Z" />
<path fill="#294179" d=" M 181.54 9.75 C 206.08 7.21 231.14 8.89 254.94 15.55 C 289.48 25.03 321.17 44.46 345.46 70.76 C 369.50 96.66 386.28 129.25 393.18 163.92 C 399.74 196.34 397.89 230.42 387.77 261.91 C 378.95 289.45 363.82 314.95 343.89 335.91 C 308.10 373.98 256.31 396.71 203.97 396.30 C 181.69 396.66 159.38 392.82 138.38 385.40 C 104.14 373.39 73.50 351.42 51.02 322.95 C 27.87 293.91 13.41 258.05 10.02 221.06 C 7.23 192.42 10.94 163.16 20.76 136.11 C 33.07 102.16 55.15 71.87 83.60 49.66 C 111.70 27.60 146.03 13.58 181.54 9.75 Z" />
<path fill="#ffffff" d=" M 194.30 10.41 C 225.51 9.03 257.07 15.28 285.25 28.82 C 313.99 42.43 339.17 63.39 357.95 89.04 C 376.48 114.21 388.68 144.00 393.09 174.95 C 397.46 204.96 394.53 236.00 384.62 264.66 C 367.86 313.81 330.20 355.31 282.95 376.84 C 237.23 398.11 183.01 400.05 135.87 382.19 C 101.04 369.21 70.24 345.78 48.27 315.82 C 28.28 288.81 15.65 256.43 12.06 223.03 C 9.55 199.95 11.26 176.41 17.15 153.95 C 26.73 116.85 47.89 82.91 76.76 57.75 C 109.08 29.27 151.25 12.27 194.30 10.41 Z" />
<path fill="#294179" d=" M 182.63 17.77 C 217.14 14.02 252.76 19.85 283.96 35.20 C 315.83 50.54 343.06 75.27 361.53 105.42 C 378.09 132.26 387.56 163.43 388.75 194.94 C 390.00 224.60 384.02 254.54 371.36 281.40 C 359.84 305.91 342.89 327.85 322.08 345.18 C 297.04 366.13 266.39 380.39 234.16 385.74 C 198.85 391.69 161.80 387.37 128.98 372.95 C 95.31 358.36 66.25 333.46 46.48 302.56 C 29.49 276.14 19.42 245.31 17.60 213.95 C 15.20 176.92 24.29 139.24 43.39 107.43 C 62.81 74.86 92.35 48.42 126.97 32.93 C 144.57 25.00 163.43 19.86 182.63 17.77 Z" />
<path fill="#ffffff" d=" M 210.55 24.70 C 214.54 23.43 219.03 25.25 221.56 28.46 C 227.29 35.90 225.11 48.15 216.83 52.79 C 212.17 55.45 205.82 53.22 203.27 48.65 C 198.12 40.65 201.37 28.10 210.55 24.70 Z" />
<path fill="#ffffff" d=" M 172.65 27.16 C 176.57 26.80 180.45 26.05 184.29 25.19 C 185.32 27.98 186.45 30.75 187.26 33.62 C 184.40 30.50 181.42 27.00 176.73 27.21 C 177.99 35.76 179.50 44.27 180.89 52.79 C 181.60 53.11 183.01 53.76 183.72 54.08 C 180.43 54.90 177.08 55.37 173.74 55.84 C 174.58 55.14 175.43 54.45 176.29 53.76 C 175.17 44.89 172.59 36.14 172.65 27.16 Z" />
<path fill="#294179" d=" M 211.20 26.07 C 213.79 25.01 217.16 25.99 218.32 28.67 C 220.25 33.14 219.86 38.20 219.28 42.92 C 218.79 45.99 217.92 49.31 215.48 51.42 C 213.01 53.56 208.73 52.62 207.34 49.67 C 205.47 45.73 205.93 41.18 206.11 36.96 C 206.58 33.01 207.44 28.21 211.20 26.07 Z" />
<path fill="#ffffff" d=" M 230.98 27.69 C 231.08 27.40 231.28 26.82 231.38 26.53 C 237.30 27.85 243.20 29.36 249.25 29.97 C 249.48 33.09 249.59 36.23 249.31 39.36 C 247.91 37.14 247.06 34.62 245.58 32.45 C 243.73 30.02 240.46 29.66 237.72 28.91 C 236.84 32.94 235.96 36.96 235.26 41.02 C 236.84 41.16 238.42 41.21 240.01 41.16 C 241.36 40.15 242.41 38.83 243.62 37.66 C 243.00 41.30 242.22 44.92 241.27 48.49 C 240.73 46.75 240.37 44.94 239.69 43.25 C 238.30 42.35 236.64 42.07 235.10 41.58 C 234.13 45.76 233.28 49.96 232.41 54.16 C 233.08 54.63 234.42 55.58 235.09 56.05 C 231.51 55.76 227.98 55.03 224.59 53.84 C 225.40 53.69 227.03 53.38 227.84 53.23 C 229.50 44.87 231.39 36.55 233.04 28.18 C 232.53 28.06 231.49 27.81 230.98 27.69 Z" />
<path fill="#ffffff" d=" M 164.14 28.46 C 165.99 28.26 167.85 28.04 169.70 27.75 C 170.34 28.10 170.99 28.46 171.63 28.83 C 166.85 28.92 165.91 34.14 164.21 37.52 C 163.94 34.51 163.99 31.48 164.14 28.46 Z" />
<path fill="#ffffff" d=" M 150.89 32.33 C 153.63 31.61 156.33 30.73 159.02 29.82 C 158.13 31.42 156.21 32.96 156.95 34.99 C 159.26 43.22 162.92 51.05 164.65 59.45 C 156.14 54.21 148.87 47.20 140.69 41.47 C 142.67 47.37 144.50 53.33 146.65 59.17 C 147.16 61.35 149.80 61.21 151.43 62.06 C 148.60 63.20 145.74 64.23 142.86 65.22 C 143.71 63.85 144.71 62.55 145.29 61.03 C 144.69 56.94 142.88 53.16 141.71 49.21 C 140.55 46.09 139.97 42.67 138.07 39.88 C 136.73 39.15 135.20 38.85 133.78 38.34 C 136.21 37.50 138.65 36.66 141.08 35.80 C 147.68 40.79 154.01 46.14 160.66 51.06 C 159.01 45.86 157.40 40.65 155.46 35.55 C 154.99 33.40 152.53 33.18 150.89 32.33 Z" />
<path fill="#ffffff" d=" M 265.11 35.47 C 271.33 37.61 277.07 40.91 283.35 42.92 C 282.77 45.80 282.22 48.69 281.30 51.48 C 280.58 49.19 280.27 46.77 279.38 44.54 C 277.80 41.66 274.49 40.53 271.70 39.20 C 270.06 42.79 268.48 46.40 266.87 50.00 C 268.26 50.41 269.63 50.89 271.07 51.05 C 272.86 50.56 274.18 49.15 275.70 48.16 C 274.41 51.62 272.89 55.00 271.23 58.31 C 271.08 56.62 270.85 54.94 270.54 53.27 C 269.52 52.05 268.00 51.39 266.74 50.47 C 264.78 54.72 262.90 59.01 261.05 63.31 C 263.27 64.30 265.55 65.36 268.02 65.50 C 271.57 65.45 274.30 62.91 277.37 61.49 C 275.79 64.25 274.01 66.91 271.90 69.29 C 265.95 66.60 260.02 63.87 254.00 61.32 C 255.66 61.11 257.45 60.83 257.88 58.94 C 261.01 51.90 264.10 44.84 267.18 37.77 C 266.67 37.20 265.63 36.04 265.11 35.47 Z" />
<path fill="#ffffff" d=" M 109.53 51.11 C 115.13 47.81 121.09 45.13 126.53 41.56 C 128.37 43.76 130.25 45.94 131.89 48.31 C 129.28 47.45 126.87 45.65 124.03 45.68 C 121.20 45.57 118.74 47.18 116.41 48.56 C 118.25 52.03 120.08 55.50 122.02 58.92 C 123.24 57.98 124.52 57.10 125.58 55.96 C 125.78 54.21 125.73 52.45 125.79 50.69 C 127.83 53.93 129.67 57.29 131.22 60.79 C 129.77 59.87 128.41 58.81 126.87 58.05 C 125.23 57.88 123.78 58.91 122.28 59.41 C 124.34 63.09 125.95 67.07 128.39 70.52 C 129.00 70.73 130.23 71.14 130.84 71.35 C 128.67 73.50 125.32 74.46 122.61 75.99 C 123.21 75.06 123.82 74.13 124.44 73.21 C 120.34 66.05 116.73 58.61 112.62 51.46 C 111.85 51.37 110.30 51.20 109.53 51.11 Z" />
<path fill="#ffffff" d=" M 290.04 46.70 C 294.54 49.57 299.52 51.97 303.21 55.91 C 310.40 65.32 299.92 81.29 288.43 78.48 C 283.39 76.66 279.17 73.16 274.81 70.14 C 275.63 70.26 277.28 70.51 278.10 70.63 C 282.67 63.57 287.28 56.55 291.82 49.48 C 291.21 48.56 290.62 47.63 290.04 46.70 Z" />
<path fill="#294179" d=" M 281.71 73.77 C 286.29 66.28 291.20 59.00 295.99 51.65 C 299.11 53.37 302.97 55.75 302.29 59.95 C 301.39 65.91 297.66 71.30 293.20 75.23 C 289.65 78.38 284.90 76.30 281.71 73.77 Z" />
<path fill="#ffffff" d=" M 97.23 59.57 C 99.16 58.10 101.06 56.59 102.94 55.05 C 102.85 56.34 101.60 57.90 102.90 58.95 C 108.00 64.88 112.88 71.02 118.23 76.72 C 119.02 76.68 120.60 76.61 121.39 76.57 C 118.73 78.70 116.11 80.89 113.28 82.79 C 113.73 81.87 114.19 80.96 114.66 80.05 C 109.74 74.24 104.93 68.33 99.86 62.64 C 101.19 69.55 104.07 76.04 105.52 82.93 C 99.30 79.67 93.50 75.66 87.26 72.46 C 91.09 78.02 95.24 83.37 99.41 88.69 C 100.61 90.53 103.04 89.57 104.82 89.74 C 102.55 91.57 100.28 93.40 98.01 95.22 C 98.18 93.27 99.25 91.03 97.77 89.33 C 93.54 83.45 89.23 77.60 84.74 71.93 C 83.98 71.97 82.45 72.04 81.68 72.08 C 83.63 70.47 85.60 68.90 87.60 67.37 C 92.45 70.31 97.32 73.21 102.24 76.02 C 100.69 70.50 98.82 65.08 97.23 59.57 Z" />
<path fill="#ffffff" d=" M 137.28 57.79 C 138.77 60.66 139.55 63.81 140.39 66.92 C 137.82 68.06 135.32 69.37 132.73 70.47 L 132.83 69.85 C 133.97 68.10 135.77 66.71 136.31 64.61 C 136.81 62.37 136.90 60.05 137.28 57.79 Z" />
<path fill="#ffffff" d=" M 188.66 59.86 C 217.64 56.72 247.51 62.90 272.94 77.14 C 301.34 92.88 324.05 118.57 336.20 148.68 C 346.63 174.26 349.32 202.92 343.90 230.01 C 338.66 256.78 325.43 281.89 306.46 301.47 C 286.34 322.46 259.69 337.12 231.14 342.68 C 202.63 348.35 172.40 345.04 145.84 333.21 C 117.00 320.55 92.68 298.03 77.66 270.37 C 64.35 245.99 58.39 217.65 60.87 189.98 C 63.35 160.05 75.71 131.09 95.45 108.48 C 118.90 81.28 152.91 63.44 188.66 59.86 Z" />
<path fill="#294179" d=" M 200.21 62.98 C 202.80 62.98 205.39 63.00 207.98 63.11 C 208.03 70.01 207.64 76.90 207.78 83.81 C 210.44 84.18 213.21 84.26 215.73 85.31 C 216.89 87.75 215.38 90.61 215.52 93.22 C 217.19 93.55 218.90 93.72 220.60 93.96 C 221.98 92.49 223.15 90.68 225.03 89.80 C 226.38 90.10 227.68 90.56 228.99 90.99 C 231.50 88.15 233.14 82.60 237.93 83.82 C 241.94 85.01 242.90 89.62 244.50 92.94 C 245.76 85.42 246.86 77.88 248.12 70.36 C 251.00 71.41 253.86 72.50 256.69 73.66 C 255.15 80.60 253.58 87.53 252.03 94.46 C 253.04 95.07 254.05 95.69 255.06 96.31 C 258.68 92.71 265.64 94.08 267.19 99.07 C 268.67 102.42 266.10 105.31 264.56 108.05 C 267.27 108.02 269.62 109.23 271.52 111.09 C 272.94 108.78 274.93 106.32 277.96 106.52 C 281.99 106.60 282.31 111.37 283.47 114.24 C 285.99 107.68 288.99 101.32 291.73 94.85 C 294.13 96.81 296.47 98.84 298.72 100.97 C 296.44 106.10 294.15 111.23 291.82 116.34 C 295.80 118.78 298.94 124.26 295.55 128.47 C 295.95 130.80 296.15 133.16 296.48 135.50 C 299.43 133.74 303.41 133.32 306.14 135.72 C 308.73 138.31 306.20 141.77 305.60 144.65 C 304.47 145.03 303.35 145.43 302.23 145.83 C 303.56 147.65 304.63 149.65 304.38 151.99 C 305.79 152.35 307.21 152.71 308.63 153.07 C 313.22 145.64 318.03 138.34 322.59 130.89 C 324.26 133.65 325.85 136.47 327.41 139.29 C 322.81 146.07 317.64 152.45 313.18 159.31 C 312.38 163.95 317.01 165.98 320.16 168.17 C 319.82 171.15 318.94 174.17 319.70 177.16 C 320.31 179.59 320.31 182.10 319.62 184.52 C 319.99 186.64 320.26 188.78 320.49 190.92 C 322.13 191.27 323.78 191.62 325.42 191.98 C 330.02 186.82 335.08 182.09 339.95 177.19 C 340.30 179.99 341.23 182.81 340.87 185.65 C 337.04 189.78 332.64 193.33 328.76 197.40 C 326.82 200.96 325.71 204.79 324.76 208.69 C 322.91 211.01 320.01 212.15 317.73 213.99 C 321.35 217.15 322.49 222.31 320.75 226.77 C 319.54 229.89 321.17 233.95 318.47 236.45 C 316.77 238.08 314.42 236.75 312.50 236.35 C 311.58 239.20 310.96 242.44 308.64 244.54 C 306.21 246.52 302.88 246.39 300.00 245.69 C 299.07 246.22 298.14 246.75 297.22 247.29 C 297.48 249.60 297.28 251.91 296.40 254.08 C 310.86 243.69 325.67 233.76 340.36 223.70 C 339.85 226.75 339.25 229.78 338.64 232.81 C 323.21 242.66 307.77 252.51 292.32 262.33 C 288.83 264.65 284.00 266.38 283.84 271.31 C 280.91 271.50 277.74 271.48 275.23 273.22 C 266.93 278.49 258.66 283.81 250.36 289.08 C 251.77 291.44 253.10 293.85 254.38 296.29 C 279.13 284.70 303.74 272.80 328.54 261.32 C 327.37 263.84 326.13 266.32 324.83 268.78 C 301.62 278.60 278.40 288.40 255.23 298.31 C 256.04 300.68 256.82 303.07 257.57 305.47 C 273.55 302.09 289.50 298.51 305.53 295.31 C 303.38 297.61 301.52 300.94 298.02 301.12 C 284.68 303.39 271.34 305.63 258.00 307.89 C 258.32 310.49 258.57 313.09 258.84 315.70 C 264.89 318.56 271.32 320.86 278.11 320.65 C 276.15 322.91 273.87 324.95 271.01 325.96 C 262.94 329.14 255.16 333.04 246.92 335.78 C 212.91 346.33 174.76 344.32 142.76 328.28 C 138.82 326.14 134.43 324.65 131.06 321.60 C 136.74 321.41 142.42 320.83 147.63 318.34 C 147.81 315.12 148.06 311.90 148.36 308.69 C 135.24 306.31 122.13 303.85 109.01 301.44 C 105.88 301.04 104.13 298.12 102.03 296.12 C 117.72 299.08 133.33 302.52 149.01 305.56 C 149.80 302.81 150.66 300.08 151.64 297.39 C 129.85 289.17 108.04 280.96 86.24 272.76 C 82.94 271.92 82.06 268.25 80.54 265.66 C 104.76 275.00 128.82 284.76 153.00 294.20 C 154.24 292.07 155.51 289.96 156.82 287.87 C 150.72 283.80 144.84 279.39 138.65 275.45 C 137.36 276.19 136.21 277.17 134.86 277.81 C 132.01 277.97 129.73 275.86 127.37 274.58 C 127.24 273.16 127.12 271.75 126.98 270.34 C 123.92 269.15 120.72 268.41 117.61 267.40 C 113.86 266.19 115.30 260.80 111.88 259.17 C 97.13 249.51 82.43 239.76 67.73 230.02 C 67.17 227.20 66.71 224.35 66.34 221.50 C 75.91 228.01 85.48 234.54 94.92 241.24 C 93.56 238.46 91.85 235.28 93.09 232.14 C 93.90 231.09 94.95 230.27 95.93 229.40 C 95.05 226.97 93.99 224.62 92.77 222.35 C 91.23 219.73 92.16 216.62 92.10 213.78 C 89.58 215.02 86.99 216.68 84.05 215.93 C 79.91 212.23 83.81 206.72 86.21 203.22 C 79.44 197.04 72.66 190.88 65.88 184.72 C 66.27 181.71 66.77 178.72 67.25 175.73 C 74.83 183.00 82.29 190.37 89.73 197.78 C 90.58 197.34 92.27 196.46 93.12 196.02 C 90.91 194.12 88.22 192.44 87.57 189.37 C 84.91 188.11 81.95 186.71 80.72 183.84 C 79.67 180.58 81.38 176.74 84.56 175.42 C 86.83 174.12 89.37 175.20 91.71 175.70 C 91.87 174.97 92.20 173.51 92.36 172.78 C 94.10 172.84 95.83 172.94 97.57 173.03 C 95.11 170.51 90.48 167.17 93.71 163.40 C 92.05 161.07 91.84 158.23 91.46 155.49 C 87.74 150.04 83.35 145.07 79.43 139.76 C 81.04 136.58 82.76 133.46 84.53 130.37 C 88.94 136.80 92.39 143.91 97.12 150.10 C 100.93 149.21 99.45 145.00 99.95 142.16 C 101.66 140.28 104.30 140.57 106.60 140.51 C 107.57 139.48 108.58 138.48 109.48 137.39 C 110.06 135.90 109.96 134.15 110.83 132.80 C 111.85 132.49 112.87 132.24 113.91 132.04 C 112.87 128.81 111.67 125.54 111.50 122.12 C 112.38 119.92 115.30 120.50 117.16 119.98 C 117.55 119.57 118.32 118.74 118.71 118.32 C 115.39 112.35 111.96 106.45 108.80 100.40 C 111.92 97.57 115.13 94.85 118.43 92.24 C 120.30 97.38 121.81 102.65 123.71 107.78 C 127.25 104.24 133.18 105.29 135.57 109.63 C 137.78 109.47 140.19 109.47 141.92 111.09 C 144.49 112.68 144.08 116.03 144.72 118.58 C 145.12 117.41 145.48 116.23 145.86 115.05 C 146.24 112.31 149.65 111.07 149.01 108.04 C 148.59 103.81 151.97 100.53 155.83 99.56 C 156.74 97.89 157.75 96.29 158.90 94.78 C 157.33 87.21 155.69 79.65 154.12 72.08 C 157.61 70.81 161.12 69.61 164.68 68.55 C 165.50 76.00 166.01 83.48 166.66 90.94 C 166.75 95.46 169.83 99.40 168.94 104.02 C 170.47 103.66 172.00 103.30 173.53 102.93 C 172.58 100.44 171.39 97.45 172.94 94.94 C 174.16 94.16 175.52 93.65 176.83 93.04 C 175.19 89.48 178.23 86.67 180.16 84.03 C 181.39 82.46 183.75 80.44 185.65 82.19 C 188.52 84.54 189.25 88.67 192.34 90.83 C 195.42 89.87 197.17 86.36 200.20 85.01 C 200.23 77.66 200.21 70.32 200.21 62.98 Z" />
<path fill="#ffffff" d=" M 314.81 63.14 C 317.41 65.42 319.99 67.74 322.40 70.22 C 321.31 69.89 320.22 69.55 319.15 69.20 C 315.08 73.76 310.89 78.21 306.80 82.74 C 305.00 84.60 303.82 87.37 304.82 89.92 C 306.00 94.54 312.66 96.64 315.96 92.92 C 319.89 88.91 323.72 84.77 327.39 80.51 C 329.00 78.89 327.59 76.64 327.44 74.73 C 329.76 76.76 332.03 78.85 334.31 80.93 C 332.42 80.98 330.09 79.81 328.64 81.55 C 323.90 85.82 320.37 91.37 315.23 95.19 C 310.54 98.20 305.16 94.32 302.37 90.51 C 300.06 87.92 299.75 83.81 302.14 81.15 C 306.44 75.96 311.27 71.24 315.69 66.16 C 315.47 65.40 315.03 63.89 314.81 63.14 Z" />
<path fill="#ffffff" d=" M 76.06 77.30 C 78.74 78.71 81.42 80.17 83.80 82.06 C 79.67 81.36 75.06 80.41 71.70 83.69 C 78.08 89.58 84.69 95.21 91.16 101.00 C 92.18 100.60 93.21 100.20 94.24 99.81 C 92.08 102.54 89.81 105.20 87.27 107.60 C 87.54 106.52 87.82 105.44 88.11 104.36 C 81.50 98.78 75.19 92.86 68.57 87.29 C 65.82 90.97 67.14 95.37 68.34 99.35 C 66.22 97.29 64.50 94.88 62.75 92.51 C 67.48 87.72 72.06 82.73 76.06 77.30 Z" />
<path fill="#ffffff" d=" M 183.59 83.64 C 185.83 85.75 186.80 88.64 187.09 91.64 C 188.35 91.96 189.60 92.31 190.85 92.69 C 189.88 94.23 188.78 95.69 187.80 97.22 C 186.62 97.08 185.45 96.94 184.28 96.79 C 184.28 93.81 184.36 90.83 184.19 87.85 C 181.91 90.78 182.02 94.63 181.58 98.13 C 179.76 98.36 177.94 98.67 176.11 98.80 C 175.31 96.47 176.85 95.21 178.91 94.53 C 178.62 92.84 178.37 91.16 178.15 89.47 C 178.79 89.26 180.07 88.85 180.71 88.64 C 181.61 86.94 182.57 85.27 183.59 83.64 Z" />
<path fill="#ffffff" d=" M 202.23 89.13 C 204.70 88.03 207.18 86.63 209.93 86.49 C 211.47 86.79 212.71 87.84 214.05 88.59 C 212.96 92.62 209.74 95.34 206.22 97.26 C 206.60 98.53 207.01 99.79 207.24 101.10 C 206.25 104.15 202.89 105.13 200.25 106.26 C 200.70 106.72 201.60 107.66 202.05 108.13 C 201.50 110.86 200.10 113.31 199.06 115.87 C 199.41 116.44 200.11 117.60 200.46 118.18 C 199.83 119.80 199.19 121.43 198.40 122.98 C 195.85 120.96 195.64 117.00 194.98 113.98 C 193.55 104.85 199.67 96.51 207.27 92.17 C 207.85 91.87 210.32 89.83 207.91 90.15 C 201.51 90.40 197.07 96.12 193.61 100.94 C 192.86 99.64 192.09 98.36 191.28 97.10 C 193.74 95.32 196.09 93.37 197.82 90.84 C 198.69 89.20 200.68 89.44 202.23 89.13 Z" />
<path fill="#ffffff" d=" M 232.46 90.49 C 233.68 89.05 235.14 87.65 236.92 86.94 C 238.35 86.60 238.96 88.36 239.63 89.27 C 240.96 92.07 242.10 94.96 243.49 97.73 C 242.49 100.44 243.06 103.30 242.88 106.11 C 242.69 108.39 241.45 110.40 240.51 112.43 C 241.26 113.25 242.01 114.06 242.76 114.88 C 242.42 115.64 241.73 117.15 241.38 117.90 C 239.95 116.53 238.52 115.16 237.09 113.81 C 238.67 106.97 240.05 99.85 238.80 92.85 C 238.68 91.36 237.62 90.24 236.66 89.22 C 237.15 96.80 237.17 104.50 234.96 111.85 C 233.56 111.38 232.15 110.94 230.74 110.52 C 230.60 109.15 230.42 107.80 230.23 106.45 C 234.92 102.37 232.86 95.82 232.46 90.49 Z" />
<path fill="#ffffff" d=" M 318.49 104.03 C 319.04 94.39 329.77 87.03 339.01 88.83 C 344.29 89.83 345.25 95.78 348.88 98.84 C 346.93 101.22 345.04 103.66 342.76 105.74 C 343.29 102.21 345.18 98.70 344.29 95.08 C 343.48 91.98 339.91 90.41 336.95 91.10 C 331.67 92.17 327.41 96.15 324.63 100.61 C 322.64 103.67 322.18 108.22 325.13 110.85 C 327.48 113.36 331.23 112.48 334.27 112.98 C 327.68 116.83 318.34 111.76 318.49 104.03 Z" />
<path fill="#ffffff" d=" M 225.16 92.15 C 226.74 91.84 228.23 92.87 229.66 93.42 C 230.05 96.25 230.01 99.14 230.02 101.99 C 229.43 104.15 227.20 105.21 225.61 106.56 C 226.32 107.67 226.97 108.83 227.54 110.02 C 226.64 114.34 222.30 116.32 218.98 118.56 C 220.77 123.95 217.25 128.87 213.68 132.54 C 212.97 123.76 214.90 114.84 218.90 107.00 C 220.92 102.99 223.85 99.55 226.35 95.85 C 224.61 96.43 223.01 97.53 221.18 97.83 C 221.52 95.50 223.39 93.60 225.16 92.15 Z" />
<path fill="#ffffff" d=" M 159.13 98.08 C 161.11 97.31 164.29 95.89 165.54 98.43 C 167.75 101.64 165.83 105.43 163.96 108.26 C 164.75 110.13 165.99 111.95 165.94 114.06 C 165.65 116.31 163.84 117.86 162.46 119.49 C 163.44 123.21 162.97 127.00 161.08 130.34 C 160.99 133.65 161.85 137.05 161.20 140.40 C 156.51 134.76 155.22 127.01 156.36 119.91 C 157.38 112.14 160.85 105.02 164.38 98.12 C 162.30 98.90 160.29 100.03 159.08 101.96 C 154.35 108.67 153.30 117.05 151.84 124.91 C 150.60 122.76 149.19 120.56 149.00 118.01 C 148.81 115.86 150.40 114.23 151.49 112.58 C 151.43 109.83 150.83 106.82 152.36 104.33 C 153.34 102.73 155.37 103.47 156.91 103.33 C 157.50 101.55 157.71 99.45 159.13 98.08 Z" />
<path fill="#ffffff" d=" M 211.93 97.81 C 214.69 96.87 218.36 95.75 219.85 99.16 C 219.72 100.90 218.24 102.08 217.39 103.50 C 212.78 109.78 210.98 117.58 210.33 125.22 C 208.25 121.77 206.71 118.02 205.78 114.11 C 206.77 111.93 207.40 109.60 207.41 107.20 C 210.38 104.94 213.03 101.83 211.93 97.81 Z" />
<path fill="#ffffff" d=" M 256.95 97.00 C 259.44 97.29 263.76 95.69 264.59 99.11 C 265.51 101.74 264.01 104.10 262.06 105.72 C 262.38 106.56 262.71 107.39 263.05 108.23 C 261.10 110.01 258.73 111.18 256.28 112.08 C 257.30 113.78 259.15 115.74 257.73 117.78 C 255.32 121.69 250.86 123.57 246.97 125.65 C 246.11 124.12 245.27 122.57 244.47 121.02 C 249.71 113.40 255.01 105.69 261.90 99.44 C 260.60 99.39 259.17 99.18 258.15 100.19 C 253.70 103.27 250.05 107.30 246.46 111.31 C 245.97 108.34 245.07 105.37 245.34 102.34 C 246.18 100.56 247.40 98.86 249.13 97.86 C 251.37 96.57 253.21 98.96 254.97 100.00 C 255.62 99.00 256.28 98.00 256.95 97.00 Z" />
<path fill="#ffffff" d=" M 180.42 100.74 C 183.56 100.56 186.64 99.37 189.78 99.58 L 190.33 102.62 C 189.65 102.02 188.97 101.40 188.31 100.77 C 180.73 103.66 175.00 109.58 168.80 114.57 C 169.13 112.73 169.08 110.72 170.03 109.06 C 171.20 107.10 173.54 106.48 175.46 105.55 C 176.80 103.72 177.84 101.01 180.42 100.74 Z" />
<path fill="#ffffff" d=" M 57.44 102.39 C 60.31 100.10 64.93 101.20 66.69 104.35 C 68.02 106.53 67.28 109.14 67.17 111.51 C 71.87 111.83 76.57 112.26 81.27 112.69 C 82.18 112.08 83.09 111.48 84.02 110.89 C 82.84 113.06 81.53 115.15 80.22 117.24 C 74.84 116.74 69.46 116.18 64.08 115.76 C 63.65 116.68 63.22 117.60 62.80 118.52 C 66.26 120.51 69.42 123.01 72.98 124.81 C 73.72 124.60 75.19 124.19 75.92 123.98 C 71.81 129.30 69.06 135.38 66.26 141.44 C 66.23 140.59 66.15 138.90 66.11 138.05 C 63.68 137.85 61.26 137.53 58.82 137.50 C 56.65 140.05 55.90 143.58 54.38 146.56 C 56.18 147.89 57.71 149.96 59.99 150.41 C 61.15 149.82 62.24 149.10 63.35 148.42 C 62.36 151.17 61.21 153.86 59.88 156.46 C 59.23 154.47 59.14 152.09 57.35 150.71 C 51.87 145.74 46.19 140.98 40.69 136.03 C 40.00 136.02 38.63 135.98 37.94 135.96 C 38.58 134.30 39.22 132.64 39.85 130.98 C 49.37 131.90 58.91 132.63 68.43 133.58 C 69.35 132.17 70.24 130.75 71.11 129.31 C 64.00 124.79 57.03 120.02 49.78 115.74 C 49.00 116.04 47.45 116.64 46.67 116.94 C 50.22 112.09 52.60 106.17 57.44 102.39 Z" />
<path fill="#ffffff" d=" M 188.06 102.65 C 188.45 103.06 188.85 103.48 189.24 103.90 C 187.32 105.84 185.60 107.95 183.90 110.07 C 184.47 111.19 185.82 112.11 185.73 113.51 C 183.32 116.65 179.24 117.54 175.74 118.90 C 176.66 119.70 177.58 120.49 178.50 121.30 C 176.46 126.85 171.00 129.91 166.30 132.95 C 167.64 119.71 178.04 110.16 188.06 102.65 Z" />
<path fill="#294179" d=" M 51.50 111.17 C 53.15 108.83 54.74 105.63 57.93 105.30 C 60.70 105.18 63.42 107.02 64.59 109.49 C 65.47 112.59 63.32 115.35 61.84 117.86 C 58.39 115.63 54.93 113.43 51.50 111.17 Z" />
<path fill="#ffffff" d=" M 126.85 107.81 C 130.25 108.36 133.60 109.91 134.76 113.42 C 136.16 112.77 137.56 112.09 139.03 111.61 C 142.01 113.50 141.04 117.37 138.55 119.21 C 139.35 119.41 140.14 119.62 140.94 119.84 C 141.05 120.46 141.26 121.70 141.36 122.32 C 145.51 125.87 146.88 131.44 148.74 136.35 C 142.40 131.95 138.06 125.42 134.01 119.00 C 132.10 116.05 130.76 112.64 128.01 110.34 C 129.27 116.72 132.69 122.42 136.16 127.84 C 134.10 126.81 131.92 126.07 129.71 125.46 C 130.36 124.77 131.01 124.08 131.67 123.39 C 130.14 122.68 127.74 122.86 126.91 121.13 C 127.54 120.05 128.21 119.00 128.93 117.98 C 127.54 114.76 126.50 111.35 126.85 107.81 Z" />
<path fill="#ffffff" d=" M 273.72 117.06 C 274.39 114.36 274.78 110.70 277.87 109.68 C 281.72 111.71 279.18 116.53 279.30 119.87 C 279.70 121.80 278.06 122.91 276.92 124.13 C 276.68 122.33 276.42 120.53 276.11 118.74 C 276.42 117.31 278.18 115.71 277.02 114.33 C 275.88 115.20 274.81 116.14 273.72 117.06 Z" />
<path fill="#ffffff" d=" M 352.17 114.73 C 353.03 113.16 355.72 113.16 357.15 112.00 C 357.95 113.27 358.76 114.55 359.58 115.82 C 353.28 122.86 346.92 129.85 340.66 136.93 C 340.71 137.78 340.82 139.47 340.87 140.32 C 338.80 137.31 336.96 134.13 335.46 130.79 C 336.15 131.26 337.54 132.21 338.23 132.68 C 339.94 130.76 341.68 128.85 343.41 126.93 C 341.78 123.97 340.08 121.05 338.36 118.15 C 336.19 118.71 334.03 119.27 331.89 119.90 C 331.82 121.38 331.76 122.86 331.69 124.34 C 330.06 121.92 328.60 119.38 327.14 116.86 C 328.73 117.32 330.29 117.99 331.96 118.18 C 338.17 117.45 344.14 115.33 350.37 114.68 L 350.28 115.24 C 347.28 117.12 343.27 116.93 339.87 117.99 C 341.38 120.64 342.91 123.29 344.43 125.94 C 347.46 122.41 350.84 119.16 353.65 115.44 C 353.28 115.26 352.54 114.91 352.17 114.73 Z" />
<path fill="#ffffff" d=" M 263.74 121.01 C 262.98 117.90 264.34 113.26 267.97 113.00 C 270.43 114.66 271.11 117.69 271.04 120.49 C 271.99 121.09 272.92 121.73 273.81 122.42 C 273.55 125.23 271.60 127.43 270.14 129.71 C 273.58 134.85 268.35 139.93 265.08 143.58 C 267.31 135.58 268.16 127.29 267.79 119.00 C 267.43 119.00 266.70 119.00 266.34 119.00 C 266.03 123.84 265.19 128.62 264.18 133.35 C 261.28 130.79 255.72 128.88 257.28 124.02 C 257.50 120.71 261.23 120.57 263.74 121.01 Z" />
<path fill="#ffffff" d=" M 229.60 120.39 C 229.02 117.70 229.30 114.96 231.64 113.18 C 234.40 115.84 236.33 119.18 237.91 122.63 C 238.72 122.44 240.33 122.06 241.14 121.87 C 241.32 125.29 240.87 128.69 239.99 131.99 C 241.61 131.59 243.23 130.52 244.96 130.99 C 245.52 135.25 242.89 139.08 241.18 142.81 C 241.87 142.98 243.24 143.31 243.93 143.48 C 243.46 149.55 240.22 154.84 237.36 160.04 C 239.65 148.20 239.56 135.56 234.86 124.30 C 234.23 122.57 233.08 121.12 231.73 119.90 C 234.37 130.23 235.66 140.89 235.17 151.57 C 232.06 148.87 228.45 146.16 227.16 142.08 C 226.39 140.30 228.09 138.88 228.87 137.48 C 226.70 134.65 224.35 131.70 223.73 128.08 C 224.04 125.93 226.44 125.85 228.03 125.14 C 228.14 123.43 228.41 121.71 229.60 120.39 Z" />
<path fill="#e96a28" d=" M 466.54 115.71 C 474.95 113.91 484.05 116.85 490.00 123.02 C 499.33 132.23 501.61 147.66 495.18 159.12 C 491.13 166.63 483.65 172.45 475.08 173.57 C 465.60 175.11 455.72 170.60 450.14 162.90 C 442.48 152.79 442.13 137.90 449.31 127.44 C 453.29 121.55 459.47 117.00 466.54 115.71 Z" />
<path fill="#e96a28" d=" M 792.51 115.57 C 799.49 114.33 806.99 116.18 812.51 120.66 C 823.18 128.79 827.02 144.45 821.56 156.67 C 818.15 164.83 810.80 171.50 802.03 173.25 C 793.47 175.23 784.09 172.27 778.01 165.99 C 768.97 157.02 766.82 142.19 772.54 130.89 C 776.33 123.07 783.82 116.90 792.51 115.57 Z" />
<path fill="#e96a28" d=" M 511.72 115.72 C 524.57 115.71 537.43 115.71 550.28 115.72 C 550.28 118.48 550.28 121.24 550.29 124.00 C 540.52 123.99 530.76 124.01 521.00 124.00 C 521.00 129.58 520.98 135.16 521.03 140.74 C 529.21 140.69 537.39 140.71 545.58 140.72 C 545.58 143.33 545.57 145.95 545.57 148.56 C 537.40 148.59 529.23 148.61 521.06 148.54 C 520.94 156.79 521.02 165.04 521.00 173.29 C 517.90 173.29 514.81 173.29 511.72 173.28 C 511.71 154.09 511.71 134.90 511.72 115.72 Z" />
<path fill="#e96a28" d=" M 562.00 115.71 C 574.84 115.70 587.68 115.73 600.52 115.70 C 600.56 118.46 600.58 121.23 600.61 124.00 C 590.83 124.01 581.05 123.97 571.27 124.03 C 571.30 129.59 571.28 135.15 571.30 140.71 C 579.49 140.73 587.69 140.68 595.89 140.74 C 595.87 143.35 595.85 145.96 595.82 148.58 C 587.66 148.57 579.51 148.60 571.36 148.55 C 571.21 156.80 571.33 165.04 571.28 173.28 C 568.18 173.29 565.09 173.29 562.00 173.29 C 561.99 154.10 562.00 134.90 562.00 115.71 Z" />
<path fill="#e96a28" d=" M 612.13 115.74 C 615.26 115.71 618.39 115.71 621.53 115.70 C 621.60 134.90 621.63 154.11 621.51 173.31 C 618.38 173.29 615.25 173.29 612.13 173.26 C 612.13 154.08 612.13 134.91 612.13 115.74 Z" />
<path fill="#e96a28" d=" M 635.86 134.98 C 638.66 125.72 646.39 117.87 656.00 115.92 C 662.22 114.84 669.02 115.15 674.61 118.37 C 678.67 120.49 681.64 124.10 683.89 128.01 C 681.42 129.71 678.93 131.37 676.45 133.05 C 674.84 130.53 673.22 127.86 670.58 126.29 C 664.59 122.62 656.22 123.12 650.95 127.87 C 640.59 137.20 642.00 156.69 654.56 163.45 C 662.54 167.96 673.10 163.92 676.99 155.86 C 679.38 157.53 682.85 158.34 684.44 160.80 C 678.33 173.35 660.38 177.67 648.78 170.26 C 637.12 163.27 631.60 147.85 635.86 134.98 Z" />
<path fill="#e96a28" d=" M 696.48 173.30 C 696.38 154.10 696.38 134.90 696.47 115.70 C 709.41 115.73 722.35 115.69 735.29 115.72 C 735.28 118.48 735.28 121.24 735.28 124.00 C 725.48 124.00 715.67 124.00 705.87 124.00 C 705.86 129.33 705.86 134.67 705.87 140.00 C 714.44 140.00 723.02 140.00 731.59 140.00 C 731.58 142.62 731.56 145.25 731.52 147.87 C 722.97 147.87 714.42 147.86 705.88 147.88 C 705.86 153.59 705.87 159.29 705.87 165.00 C 715.91 165.00 725.96 165.00 736.00 165.00 C 735.99 167.76 735.99 170.52 736.00 173.28 C 722.82 173.30 709.65 173.27 696.48 173.30 Z" />
<path fill="#e96a28" d=" M 837.00 115.71 C 849.76 115.71 862.52 115.71 875.28 115.71 C 875.28 118.48 875.28 121.24 875.29 124.00 C 865.61 124.02 855.93 123.96 846.26 124.04 C 846.30 129.59 846.28 135.15 846.29 140.71 C 854.37 140.71 862.44 140.73 870.52 140.70 C 870.56 143.31 870.57 145.94 870.59 148.56 C 862.51 148.59 854.43 148.60 846.36 148.55 C 846.21 156.80 846.33 165.04 846.28 173.29 C 843.18 173.29 840.09 173.29 837.00 173.29 C 836.99 154.10 837.00 134.90 837.00 115.71 Z" />
<path fill="#ffffff" d=" M 114.84 123.09 C 116.46 122.21 118.22 121.63 119.91 120.93 C 121.58 122.13 123.26 123.31 125.04 124.33 C 125.55 125.71 126.02 127.10 126.48 128.49 C 122.59 128.30 119.47 125.03 115.58 125.41 C 117.33 126.94 119.17 128.37 120.99 129.83 C 119.36 129.87 117.73 129.97 116.11 129.86 C 115.55 127.68 114.18 125.31 114.84 123.09 Z" />
<path fill="#ffffff" d=" M 281.93 121.88 C 283.10 120.82 284.71 121.73 286.06 121.82 C 288.15 121.77 291.19 120.14 292.29 122.76 C 292.18 125.88 292.40 128.98 293.12 132.04 C 293.54 135.33 289.64 135.93 287.32 136.58 C 287.79 138.30 288.87 140.06 288.33 141.89 C 287.12 144.35 284.27 145.10 282.00 146.21 C 283.65 150.34 280.34 153.50 276.99 155.20 C 276.16 152.25 274.48 149.00 276.16 146.03 C 279.71 137.99 283.18 129.12 290.72 123.96 C 290.32 123.64 289.52 123.01 289.12 122.69 C 281.09 129.92 275.52 139.44 272.05 149.61 C 269.86 146.86 269.42 143.35 269.70 139.95 C 270.48 139.93 272.02 139.90 272.79 139.88 C 272.86 136.02 272.43 131.84 274.41 128.35 C 275.85 127.00 277.38 128.65 278.79 129.18 C 279.54 126.67 279.89 123.74 281.93 121.88 Z" />
<path fill="#ffffff" d=" M 182.68 125.66 C 185.51 122.72 189.81 122.49 193.59 121.82 C 193.41 125.69 192.79 129.57 191.05 133.07 C 190.16 131.97 189.28 130.87 188.40 129.75 C 187.66 133.09 186.46 136.34 184.23 138.99 C 183.30 137.99 182.38 137.00 181.46 135.99 C 180.38 139.26 179.36 142.71 177.04 145.35 C 176.17 145.14 175.32 144.89 174.49 144.59 C 174.05 146.95 173.80 149.54 172.08 151.38 C 168.84 148.80 167.49 144.21 169.76 140.54 C 169.35 140.10 168.54 139.21 168.13 138.77 C 169.34 136.08 171.53 134.09 173.87 132.37 C 172.01 137.15 169.64 142.41 171.45 147.57 C 174.43 139.96 176.48 131.43 182.68 125.66 Z" />
<path fill="#ffffff" d=" M 466.52 124.65 C 472.30 122.65 478.87 124.57 483.11 128.84 C 491.54 137.50 491.17 153.10 482.11 161.17 C 476.75 166.21 467.79 166.56 461.96 162.13 C 449.54 153.05 451.45 129.91 466.52 124.65 Z" />
<path fill="#ffffff" d=" M 791.49 124.72 C 797.73 122.49 805.01 124.77 809.20 129.81 C 816.14 137.95 816.09 150.99 809.24 159.18 C 806.08 163.06 801.14 165.57 796.08 165.17 C 788.10 165.15 781.64 158.43 779.85 151.01 C 776.92 141.08 781.23 128.41 791.49 124.72 Z" />
<path fill="#ffffff" d=" M 248.45 133.93 C 246.98 132.01 247.46 129.63 247.78 127.42 C 253.85 127.69 261.22 133.35 259.06 140.07 C 259.27 140.60 259.70 141.64 259.91 142.16 C 258.49 144.64 256.47 146.67 254.23 148.42 C 255.45 142.20 255.42 134.93 251.41 129.71 C 251.69 135.94 253.77 142.77 250.57 148.58 C 249.17 150.11 248.42 147.79 247.64 146.87 C 247.92 145.81 248.24 144.76 248.61 143.74 C 247.58 142.30 245.83 140.93 246.27 138.94 C 246.63 137.13 247.65 135.56 248.45 133.93 Z" />
<path fill="#ffffff" d=" M 124.58 133.88 C 125.37 132.30 125.43 129.21 127.97 130.05 C 131.41 130.82 131.51 135.09 132.23 137.85 C 125.06 138.03 117.94 139.77 111.30 142.42 C 111.01 143.01 110.45 144.18 110.16 144.77 C 120.02 141.74 130.26 140.02 140.58 139.98 C 138.47 141.69 136.61 143.87 134.02 144.87 C 131.35 145.51 128.83 144.20 126.47 143.17 C 124.88 145.02 123.31 147.15 120.88 147.93 C 119.28 148.27 117.85 147.21 116.39 146.76 C 113.90 147.92 110.25 149.49 108.25 146.70 C 105.62 144.26 109.58 142.23 111.18 140.69 C 111.53 139.55 111.93 138.44 112.39 137.35 C 113.73 136.67 115.30 136.88 116.75 136.71 C 117.56 135.12 117.97 132.93 119.98 132.43 C 121.56 132.75 123.07 133.34 124.58 133.88 Z" />
<path fill="#ffffff" d=" M 192.95 136.82 C 195.56 134.30 197.89 130.60 201.85 130.32 C 204.30 130.99 205.05 133.41 204.35 135.65 C 206.31 135.88 208.67 135.38 210.31 136.67 C 211.71 138.64 212.66 140.88 214.03 142.87 C 212.24 143.79 210.54 144.86 208.79 145.84 C 207.29 145.38 206.00 144.46 204.67 143.68 C 202.97 147.06 199.30 145.86 196.55 144.73 C 195.10 152.05 185.82 152.61 182.94 158.90 C 184.26 151.45 186.71 142.40 194.75 139.73 C 198.53 137.87 202.95 140.65 206.53 138.60 C 202.23 136.84 197.54 136.55 192.95 136.82 Z" />
<path fill="#ffffff" d=" M 358.01 131.39 C 360.94 130.66 363.94 130.22 366.93 129.77 C 368.90 136.25 371.40 142.57 374.15 148.76 C 371.62 150.35 369.14 152.02 366.46 153.35 C 368.90 149.91 371.85 146.32 370.56 141.77 C 362.49 144.92 354.26 147.72 346.33 151.19 C 346.14 151.91 345.77 153.34 345.59 154.06 C 344.38 150.91 343.10 147.78 342.02 144.59 C 342.89 145.29 343.74 146.01 344.58 146.75 C 352.65 143.49 360.88 140.63 368.91 137.27 C 366.77 133.09 362.09 132.42 358.01 131.39 Z" />
<path fill="#294179" d=" M 42.36 135.88 C 47.22 136.14 52.06 136.74 56.92 137.13 C 55.75 139.87 54.88 142.78 53.17 145.25 C 49.41 142.31 45.93 139.04 42.36 135.88 Z" />
<path fill="#ffffff" d=" M 291.99 138.31 C 295.65 138.00 299.34 138.05 302.95 137.28 C 303.26 137.43 303.88 137.74 304.19 137.90 C 303.37 141.82 300.21 144.67 299.01 148.46 C 295.60 149.06 292.20 149.70 288.81 150.40 C 291.73 146.17 295.52 142.71 299.63 139.65 C 296.45 139.42 293.69 141.14 290.80 142.12 C 290.03 140.76 290.22 138.72 291.99 138.31 Z" />
<path fill="#ffffff" d=" M 139.53 147.46 C 140.39 144.78 142.26 140.86 145.62 141.31 C 148.42 143.21 148.92 146.85 149.99 149.83 C 151.81 149.27 153.60 148.26 155.56 148.37 C 158.17 149.18 157.60 152.41 157.74 154.49 C 161.64 154.72 164.92 156.92 167.16 160.05 C 161.74 160.95 156.24 159.78 150.83 160.68 C 148.24 161.30 146.58 158.57 144.75 157.20 C 142.28 154.52 137.99 151.71 139.53 147.46 Z" />
<path fill="#ffffff" d=" M 101.45 144.52 C 102.83 144.43 104.21 144.35 105.60 144.28 C 105.52 144.48 105.37 144.88 105.29 145.08 C 106.35 149.75 111.97 151.07 115.09 154.17 C 109.80 152.49 104.17 149.59 101.45 144.52 Z" />
<path fill="#ffffff" d=" M 36.34 147.26 C 39.94 144.73 45.35 147.36 46.34 151.45 C 47.39 155.26 45.99 159.14 45.22 162.87 C 48.89 163.85 52.55 164.88 56.22 165.87 C 56.74 165.31 57.79 164.20 58.31 163.64 C 57.79 166.98 56.78 170.22 55.77 173.45 C 55.49 172.70 54.91 171.19 54.62 170.43 C 46.86 168.05 39.00 165.80 31.09 163.95 C 30.47 164.39 29.22 165.25 28.60 165.69 C 30.78 159.48 30.87 151.71 36.34 147.26 Z" />
<path fill="#ffffff" d=" M 121.53 149.66 C 123.87 148.32 126.35 144.31 129.08 146.96 C 121.51 155.71 122.00 168.09 123.59 178.83 C 122.39 175.36 120.38 172.27 118.89 168.94 C 117.71 166.09 119.09 163.17 120.39 160.65 C 119.05 157.14 117.71 152.14 121.53 149.66 Z" />
<path fill="#ffffff" d=" M 131.57 148.32 C 134.70 150.93 132.91 154.76 132.19 158.04 C 132.85 159.72 133.83 161.25 134.39 162.97 C 134.80 165.30 132.56 166.80 131.18 168.29 C 134.13 173.37 129.25 178.11 126.57 182.07 C 125.26 170.86 123.53 157.53 131.57 148.32 Z" />
<path fill="#ffffff" d=" M 255.41 154.57 C 257.33 152.48 258.91 149.62 261.87 148.92 C 263.88 149.51 264.68 151.62 265.85 153.15 C 268.72 152.24 271.29 153.31 273.09 155.65 C 263.68 153.78 253.60 153.87 245.01 158.64 C 246.61 156.23 247.78 152.68 251.03 152.11 C 252.74 152.38 253.98 153.71 255.41 154.57 Z" />
<path fill="#294179" d=" M 33.86 152.93 C 37.05 149.52 43.83 151.37 44.94 155.88 C 45.24 158.10 44.72 160.32 44.31 162.49 C 40.08 161.49 35.90 160.26 31.71 159.09 C 32.17 156.98 32.34 154.61 33.86 152.93 Z" />
<path fill="#ffffff" d=" M 100.24 153.87 C 98.86 152.09 102.21 151.27 103.07 150.15 C 104.65 151.89 105.82 153.94 106.60 156.15 C 107.73 155.31 108.84 154.45 110.06 153.73 C 111.83 156.13 111.73 159.22 112.16 162.04 C 112.73 161.70 113.89 161.01 114.47 160.67 C 116.61 164.22 116.03 168.46 115.59 172.37 C 116.23 172.19 117.51 171.82 118.15 171.64 C 119.27 174.38 119.54 177.37 119.90 180.28 C 111.65 172.92 105.77 163.34 100.24 153.87 Z" />
<path fill="#ffffff" d=" M 205.24 158.20 C 207.31 156.08 209.20 153.51 212.06 152.44 C 214.00 151.62 215.17 153.78 216.51 154.75 C 218.00 153.49 219.52 152.28 221.10 151.13 C 221.83 151.95 222.56 152.78 223.29 153.61 C 218.43 155.70 213.36 157.79 209.63 161.67 C 206.31 164.89 205.35 169.57 203.75 173.73 C 202.40 176.95 204.43 180.08 205.44 183.07 C 202.77 180.52 199.94 177.72 199.01 174.04 C 198.50 172.09 200.95 171.58 202.07 170.63 C 200.81 167.74 198.68 164.64 199.53 161.37 C 200.31 158.91 203.12 158.70 205.24 158.20 Z" />
<path fill="#ffffff" d=" M 284.97 158.45 C 286.35 155.98 288.03 153.68 290.21 151.84 C 290.94 152.47 291.67 153.10 292.41 153.74 C 295.26 152.65 300.34 149.26 301.22 154.30 C 303.58 154.52 305.95 154.91 308.21 155.69 C 307.91 156.61 307.61 157.53 307.32 158.45 C 309.42 160.95 311.32 163.63 312.86 166.53 C 309.78 167.14 304.87 169.15 303.43 165.01 C 299.48 165.75 295.44 165.54 291.58 164.44 C 287.85 169.31 281.70 165.57 277.35 163.70 C 285.62 160.35 295.09 157.15 303.91 160.30 C 304.94 160.71 306.06 160.86 307.13 160.45 C 300.89 155.60 292.21 157.41 284.97 158.45 Z" />
<path fill="#ffffff" d=" M 94.53 158.00 C 94.41 156.20 95.56 154.65 96.16 153.04 C 100.96 160.42 105.50 168.01 111.04 174.88 C 108.17 173.86 105.10 173.35 102.19 174.60 C 100.15 171.95 97.87 169.31 96.92 166.04 C 96.07 164.47 97.61 163.33 98.54 162.34 C 97.04 161.09 95.02 160.04 94.53 158.00 Z" />
<path fill="#ffffff" d=" M 208.12 169.50 C 210.20 162.33 217.20 158.18 223.73 155.59 C 224.14 157.71 224.53 159.84 224.89 161.98 C 222.22 162.90 219.57 162.22 216.97 161.46 C 214.15 160.84 213.95 164.32 212.94 166.07 C 212.28 168.20 209.89 168.68 208.12 169.50 Z" />
<path fill="#ffffff" d=" M 375.25 154.49 C 376.30 157.75 377.13 161.07 377.82 164.42 C 377.25 163.82 376.11 162.61 375.54 162.00 C 367.44 164.02 359.38 166.22 351.25 168.12 C 351.11 168.94 350.83 170.58 350.69 171.40 C 349.49 168.01 348.61 164.52 347.99 160.98 C 348.67 161.86 349.35 162.74 350.02 163.64 C 358.09 161.47 366.33 159.84 374.32 157.38 C 374.55 156.66 375.01 155.21 375.25 154.49 Z" />
<path fill="#ffffff" d=" M 236.99 167.71 C 244.42 159.33 256.17 156.12 267.05 157.42 C 270.37 157.98 274.32 157.75 276.93 160.20 C 275.93 162.67 272.90 162.12 270.76 162.63 C 268.84 166.17 264.75 164.48 261.65 164.00 C 258.93 168.54 253.33 165.56 249.42 164.66 C 246.36 168.08 241.09 167.02 236.99 167.71 Z" />
<path fill="#ffffff" d=" M 217.41 164.39 C 219.08 163.99 220.76 164.71 222.39 165.01 C 223.26 164.60 224.14 164.20 225.02 163.81 C 225.35 169.01 224.44 174.75 220.58 178.56 C 216.99 181.81 211.82 181.36 207.37 180.87 C 210.53 174.88 216.50 170.59 223.31 170.01 C 223.44 169.50 223.68 168.47 223.80 167.96 C 218.16 168.69 212.96 171.14 208.37 174.43 C 209.20 171.94 211.10 170.19 213.47 169.17 C 214.63 167.49 215.49 165.36 217.41 164.39 Z" />
<path fill="#ffffff" d=" M 168.16 169.57 C 170.10 167.57 171.97 164.84 175.03 164.69 C 176.95 164.91 178.14 166.63 179.51 167.79 C 182.35 168.23 185.54 168.22 187.87 170.15 C 189.36 171.35 189.74 173.77 188.14 175.06 C 185.10 177.44 180.95 176.98 177.33 176.89 C 177.95 177.96 178.52 179.04 179.06 180.15 C 177.28 182.81 173.83 182.89 171.01 183.45 C 172.26 187.54 168.09 189.25 165.22 190.81 C 165.44 184.68 166.66 177.81 171.63 173.67 C 174.86 170.96 179.28 171.15 183.22 171.48 C 178.21 169.65 171.89 168.82 167.54 172.59 C 162.73 176.62 161.80 183.23 161.30 189.11 C 159.84 186.23 158.05 183.34 157.96 180.03 C 158.61 178.98 159.49 178.11 160.31 177.20 C 160.92 173.78 161.79 170.35 163.91 167.52 C 165.34 168.17 166.76 168.85 168.16 169.57 Z" />
<path fill="#ffffff" d=" M 267.99 165.63 C 269.48 167.05 270.73 168.73 271.35 170.72 C 273.90 177.74 276.80 184.86 276.87 192.44 C 274.09 190.55 271.64 188.16 270.11 185.13 C 270.89 184.78 272.47 184.07 273.25 183.71 C 270.22 181.37 265.80 179.29 265.45 175.02 C 266.34 173.68 267.79 172.91 269.04 171.95 C 268.60 169.86 268.22 167.75 267.99 165.63 Z" />
<path fill="#ffffff" d=" M 289.82 171.00 C 293.02 168.59 296.85 166.28 300.98 167.76 C 301.09 170.21 301.33 172.71 302.95 174.68 C 301.00 177.82 297.97 180.00 295.12 182.25 C 295.68 182.75 296.80 183.74 297.37 184.24 C 296.49 185.69 295.56 187.12 294.60 188.53 C 294.03 191.00 292.65 193.12 290.73 194.76 C 288.29 196.70 287.37 199.73 285.92 202.36 C 285.76 197.91 288.93 194.44 290.60 190.57 C 293.50 184.15 297.17 177.74 297.57 170.56 C 295.53 169.99 295.04 172.05 294.46 173.37 C 292.57 178.45 290.64 183.52 288.23 188.39 C 287.11 187.33 285.79 186.40 285.08 184.99 C 284.87 183.54 285.53 182.16 285.83 180.77 C 284.34 178.44 282.02 176.03 282.58 173.04 C 283.45 169.96 287.50 168.41 289.82 171.00 Z" />
<path fill="#ffffff" d=" M 272.39 168.03 C 274.78 168.91 277.26 169.47 279.73 170.07 C 280.24 172.69 279.90 175.36 279.70 178.00 C 283.60 179.67 283.41 183.97 283.18 187.55 C 286.52 191.93 281.96 196.62 279.64 200.25 C 280.84 189.03 277.90 177.78 272.39 168.03 Z" />
<path fill="#ffffff" d=" M 241.99 172.27 C 245.06 171.29 248.49 167.93 251.66 170.38 C 253.11 171.14 252.93 173.01 252.35 174.29 C 251.04 177.15 248.62 179.26 246.33 181.33 C 247.10 182.18 249.03 182.48 248.75 183.94 C 248.41 189.79 245.52 195.11 243.15 200.35 C 238.47 191.76 238.19 181.23 241.99 172.27 Z" />
<path fill="#ffffff" d=" M 127.69 186.98 C 132.09 179.21 138.60 171.76 147.78 169.98 C 145.60 171.43 143.50 173.00 141.50 174.69 C 141.70 177.25 142.58 180.02 141.45 182.47 C 140.34 184.72 137.51 184.48 135.51 185.32 C 134.04 187.27 132.72 189.34 131.02 191.12 C 129.87 189.77 128.76 188.39 127.69 186.98 Z" />
<path fill="#ffffff" d=" M 152.96 171.46 C 154.51 170.91 156.06 170.36 157.61 169.82 C 157.14 171.80 156.85 173.82 156.77 175.86 C 155.74 178.46 154.47 181.23 155.20 184.09 C 155.82 187.82 158.17 190.88 160.09 194.03 C 155.91 191.96 150.80 189.82 149.38 184.92 C 148.48 181.85 150.50 179.17 152.38 177.00 C 152.40 175.14 152.56 173.28 152.96 171.46 Z" />
<path fill="#ffffff" d=" M 303.64 178.67 C 306.20 175.14 308.43 170.47 313.03 169.35 C 316.46 170.63 316.57 174.95 317.18 178.00 C 318.09 181.73 315.19 184.48 313.13 187.13 C 311.85 188.30 313.24 190.15 312.47 191.51 C 311.33 193.36 309.87 195.00 308.62 196.77 C 306.47 197.02 304.15 196.94 302.29 198.22 C 300.16 199.66 298.97 202.02 297.64 204.14 C 295.42 204.28 293.20 204.45 290.98 204.60 C 300.99 199.32 310.63 191.05 313.06 179.49 C 311.84 180.10 310.66 180.85 309.91 182.03 C 306.57 186.64 303.48 191.60 298.83 195.03 C 297.87 193.23 297.00 191.20 298.09 189.24 C 299.81 185.61 298.69 179.78 303.64 178.67 Z" />
<path fill="#ffffff" d=" M 364.29 171.29 C 371.66 169.89 381.49 174.51 381.50 182.91 C 381.08 191.40 371.41 196.02 363.83 194.82 C 357.98 193.99 351.60 189.62 351.85 183.11 C 352.04 176.56 358.30 172.18 364.29 171.29 Z" />
<path fill="#ffffff" d=" M 234.01 171.39 C 235.00 172.43 237.47 173.05 236.93 174.93 C 236.07 180.82 235.75 186.86 237.20 192.70 C 234.67 190.95 231.77 189.38 230.25 186.58 C 230.16 185.18 231.60 184.39 232.26 183.35 C 232.18 179.30 232.10 175.09 234.01 171.39 Z" />
<path fill="#ffffff" d=" M 26.78 174.08 C 29.67 173.74 32.58 173.42 35.50 173.37 C 33.56 174.83 31.31 175.83 29.47 177.42 C 27.33 179.75 26.83 183.12 26.97 186.18 C 30.77 186.95 34.65 187.17 38.50 187.58 C 38.55 186.04 38.41 184.53 38.08 183.04 C 36.88 181.77 35.35 180.88 33.96 179.84 C 37.77 179.98 41.55 180.42 45.29 181.10 C 43.67 181.84 41.90 182.31 40.42 183.32 C 39.65 184.66 39.47 186.23 39.07 187.70 C 43.71 188.25 48.34 188.87 53.00 189.26 C 53.17 186.19 53.77 182.77 51.99 180.02 C 50.45 177.81 48.13 176.31 46.43 174.23 C 49.56 174.93 52.57 176.07 55.59 177.13 C 54.32 183.61 53.91 190.22 53.03 196.76 C 52.64 196.09 51.85 194.76 51.46 194.09 C 43.29 192.63 34.96 192.11 26.73 191.04 C 26.28 191.73 25.37 193.11 24.91 193.81 C 25.32 187.21 26.69 180.70 26.78 174.08 Z" />
<path fill="#ffffff" d=" M 145.65 177.09 C 145.10 174.91 147.38 173.81 148.58 172.42 C 148.89 173.81 149.20 175.22 149.53 176.62 C 147.97 178.43 145.86 180.24 145.97 182.87 C 145.65 186.42 148.18 189.24 149.93 192.07 C 147.04 190.76 144.20 189.37 141.45 187.79 C 144.31 185.00 146.15 181.14 145.65 177.09 Z" />
<path fill="#ffffff" d=" M 92.27 177.26 C 93.54 176.41 94.66 175.36 96.00 174.61 C 97.95 175.10 99.55 176.34 101.20 177.42 C 106.12 175.77 110.03 179.53 112.53 183.27 C 115.88 184.29 116.75 187.58 116.97 190.69 C 107.49 189.36 98.56 185.67 89.67 182.29 C 87.55 181.34 85.12 180.80 83.46 179.08 C 85.36 175.90 89.29 177.38 92.27 177.26 Z" />
<path fill="#294179" d=" M 362.56 176.74 C 367.43 175.95 372.92 175.09 377.44 177.60 C 380.92 179.30 380.93 184.84 377.71 186.81 C 374.57 188.84 370.74 189.40 367.10 189.86 C 363.27 190.15 359.07 190.43 355.67 188.32 C 352.93 186.80 352.38 182.68 354.44 180.39 C 356.50 178.10 359.68 177.40 362.56 176.74 Z" />
<path fill="#ffffff" d=" M 184.42 181.87 C 186.79 180.82 188.77 179.13 190.96 177.79 C 192.21 178.83 191.15 180.56 191.18 181.90 C 195.25 182.67 200.89 182.77 202.95 187.02 C 202.48 189.86 202.27 192.70 202.52 195.57 C 201.16 198.38 197.35 196.97 194.90 197.14 C 192.63 196.68 190.87 199.73 188.64 198.57 C 186.25 197.27 185.10 194.66 183.75 192.44 C 180.24 194.95 175.85 193.10 171.95 192.85 C 174.00 191.02 176.16 189.02 175.90 185.99 C 178.90 185.62 182.05 185.06 184.97 186.19 C 189.58 187.66 192.87 191.37 196.53 194.32 C 195.03 188.34 190.36 183.52 184.42 181.87 Z" />
<path fill="#ffffff" d=" M 261.40 185.87 C 261.38 183.76 261.49 180.93 263.53 179.74 C 269.26 187.37 273.33 196.63 273.27 206.30 C 271.81 205.06 270.42 203.76 269.14 202.35 C 269.74 201.41 270.35 200.47 270.96 199.54 C 268.86 198.05 266.13 196.71 265.49 193.98 C 265.61 192.73 265.80 191.49 266.06 190.26 C 264.10 189.34 261.52 188.43 261.40 185.87 Z" />
<path fill="#ffffff" d=" M 82.63 181.38 C 91.95 186.93 102.36 190.26 112.89 192.67 C 108.78 194.58 104.51 196.62 99.84 196.34 C 99.75 195.54 99.57 193.92 99.48 193.11 C 96.21 193.07 92.81 192.91 89.98 191.06 C 90.32 190.16 90.66 189.25 91.00 188.35 C 87.50 187.11 82.95 185.83 82.63 181.38 Z" />
<path fill="#ffffff" d=" M 253.71 191.09 C 254.42 189.29 256.70 189.06 258.16 188.12 C 264.30 193.85 266.69 202.49 265.99 210.70 C 264.62 209.18 263.30 207.62 262.04 206.02 C 262.28 205.29 262.53 204.57 262.78 203.84 C 260.19 202.48 257.72 200.79 256.09 198.30 C 256.56 197.80 257.52 196.81 258.00 196.31 C 256.35 194.80 253.81 193.61 253.71 191.09 Z" />
<path fill="#ffffff" d=" M 217.36 194.92 C 218.02 193.58 218.18 191.30 220.07 191.16 C 223.00 190.89 225.68 192.39 228.32 193.46 C 229.18 192.86 230.04 192.27 230.96 191.75 C 232.93 193.23 234.08 195.46 235.34 197.52 C 229.85 196.13 223.77 195.85 218.69 198.74 C 213.52 201.68 208.59 206.20 207.20 212.20 C 211.13 208.48 214.51 203.89 219.69 201.79 C 226.18 198.62 233.79 199.59 240.21 202.44 C 236.50 204.47 232.45 207.08 228.02 205.97 C 226.18 208.97 222.84 210.15 219.43 209.68 C 218.39 211.56 217.44 214.38 214.93 214.60 C 211.88 214.61 208.83 214.57 205.81 215.04 C 205.67 213.90 205.53 212.75 205.39 211.61 C 204.66 210.43 203.90 209.26 203.34 208.00 C 203.91 205.17 206.50 203.64 208.60 201.99 C 208.57 200.69 208.63 199.39 208.77 198.10 C 210.53 195.16 214.42 195.44 217.36 194.92 Z" />
<path fill="#ffffff" d=" M 315.81 193.72 C 317.32 192.55 318.80 194.28 320.17 194.84 C 322.36 194.87 325.49 193.54 326.73 196.11 C 326.74 199.89 323.78 202.85 321.90 205.91 C 321.75 210.99 315.24 210.32 311.74 211.24 C 310.77 212.36 309.74 213.83 308.03 213.13 C 304.12 212.29 300.68 210.09 297.35 207.97 C 306.70 208.32 316.88 206.36 323.62 199.36 C 320.69 199.83 317.82 200.65 315.19 202.06 C 310.81 204.29 305.78 204.68 300.95 204.42 C 302.18 202.90 303.06 200.84 304.96 200.03 C 306.60 199.64 308.28 200.17 309.93 200.29 C 311.64 197.92 313.25 195.29 315.81 193.72 Z" />
<path fill="#ffffff" d=" M 89.10 200.95 C 91.51 197.70 96.03 197.52 99.68 196.89 C 93.70 200.70 88.18 205.63 85.62 212.43 C 91.97 206.87 97.97 199.60 106.95 198.63 L 106.29 201.14 C 106.90 200.92 108.14 200.47 108.75 200.24 C 106.11 201.98 102.99 203.61 102.03 206.87 C 101.38 209.53 98.40 210.07 96.33 211.26 C 94.33 212.51 92.03 211.72 89.92 211.28 C 88.32 212.44 86.69 213.55 84.96 214.52 C 84.66 212.91 83.44 211.14 84.60 209.60 C 86.35 206.85 87.64 203.86 89.10 200.95 Z" />
<path fill="#ffffff" d=" M 354.03 196.74 C 355.42 198.31 356.38 200.98 358.87 200.91 C 364.92 201.24 370.97 201.52 377.02 201.74 C 379.58 202.24 380.93 199.69 382.53 198.23 C 382.39 200.74 382.25 203.26 382.15 205.78 C 375.07 210.02 367.87 214.07 360.88 218.45 C 366.90 218.73 372.94 219.29 378.97 219.15 C 380.02 218.15 380.84 216.93 381.74 215.80 C 381.56 218.66 381.47 221.52 381.39 224.38 C 380.04 223.10 379.19 220.80 377.04 220.83 C 368.61 220.10 360.10 220.36 351.69 219.38 C 352.98 218.05 354.40 216.84 356.02 215.92 C 363.10 211.79 370.10 207.52 377.14 203.33 C 370.76 203.03 364.38 202.57 357.99 202.50 C 356.11 202.29 355.42 204.55 354.34 205.61 L 353.71 205.64 C 353.89 202.68 354.02 199.71 354.03 196.74 Z" />
<path fill="#ffffff" d=" M 25.54 208.09 C 28.87 196.64 47.76 195.48 52.51 206.37 C 54.25 211.59 53.54 217.22 54.04 222.62 C 53.39 221.66 52.75 220.69 52.13 219.71 C 43.75 220.03 35.37 220.43 26.99 220.81 C 26.76 221.54 26.30 222.99 26.07 223.72 C 25.20 218.59 24.75 213.25 25.54 208.09 Z" />
<path fill="#ffffff" d=" M 103.48 213.50 C 109.03 207.23 115.35 201.00 123.66 198.73 C 123.65 200.76 123.27 202.76 121.13 203.54 C 120.80 205.24 121.01 207.23 119.77 208.61 C 118.40 210.45 115.97 210.70 113.95 211.34 C 113.81 213.19 114.27 215.36 112.93 216.88 C 111.28 218.73 108.58 218.57 106.35 218.96 C 105.24 219.96 104.12 220.95 102.99 221.93 C 102.21 221.63 101.43 221.34 100.65 221.06 C 98.93 221.87 96.05 224.77 94.87 221.88 C 94.17 219.61 94.28 216.76 95.86 214.87 C 97.46 213.49 99.49 212.75 101.39 211.90 C 99.79 215.42 96.89 218.19 95.60 221.87 C 98.87 219.74 100.88 216.31 103.48 213.50 Z" />
<path fill="#ffffff" d=" M 169.06 204.97 C 168.99 203.19 169.28 201.43 169.44 199.67 C 171.09 199.72 172.74 199.32 174.38 199.46 C 176.68 201.22 179.11 202.84 182.09 203.09 C 185.75 203.57 186.22 207.84 186.28 210.79 C 190.11 215.27 192.87 220.62 193.86 226.46 C 190.95 223.92 188.41 220.93 186.59 217.53 C 185.24 215.01 184.60 212.11 182.69 209.91 C 181.89 213.84 183.26 217.63 184.87 221.14 C 181.97 218.17 178.53 215.05 178.65 210.52 C 175.15 209.54 170.62 208.74 169.06 204.97 Z" />
<path fill="#294179" d=" M 28.14 207.16 C 31.05 204.50 35.26 204.21 39.00 203.98 C 42.87 203.92 47.32 203.81 50.43 206.51 C 52.85 208.59 52.40 212.05 52.61 214.90 C 43.86 215.35 35.11 215.78 26.35 216.06 C 26.30 213.06 25.61 209.41 28.14 207.16 Z" />
<path fill="#ffffff" d=" M 255.22 203.30 C 256.70 204.68 258.25 206.06 259.17 207.90 C 256.48 209.71 253.75 211.46 250.97 213.12 C 251.64 209.57 253.22 206.29 255.22 203.30 Z" />
<path fill="#ffffff" d=" M 228.49 211.61 C 233.46 210.35 237.76 207.48 242.20 205.03 C 240.89 207.14 239.32 209.06 237.65 210.90 C 239.60 215.97 233.29 216.65 229.82 216.63 C 228.83 218.02 227.93 219.52 226.59 220.60 C 225.45 220.53 224.35 220.27 223.24 220.06 C 222.53 222.44 221.62 224.75 220.72 227.06 C 219.85 225.68 219.11 224.19 218.02 222.96 C 216.47 222.21 214.72 221.97 213.08 221.50 C 216.63 216.34 222.42 212.94 228.49 211.61 Z" />
<path fill="#ffffff" d=" M 108.91 228.33 C 115.71 220.85 122.77 213.59 130.26 206.78 C 127.28 211.56 127.08 218.03 122.16 221.45 C 122.36 222.84 122.61 224.23 122.60 225.65 C 120.74 227.47 118.22 225.55 116.09 225.28 C 115.59 230.40 108.92 230.87 105.37 228.61 C 105.20 226.70 105.32 224.78 105.20 222.88 C 107.57 222.40 109.96 222.06 112.35 221.71 C 110.91 223.75 109.60 225.91 108.91 228.33 Z" />
<path fill="#ffffff" d=" M 142.67 209.85 C 151.22 211.35 159.04 215.38 166.81 219.07 C 161.11 219.83 155.21 220.89 149.55 219.25 C 149.62 218.64 149.76 217.42 149.82 216.81 C 148.37 216.67 146.92 216.53 145.47 216.36 C 144.64 214.15 143.63 212.01 142.67 209.85 Z" />
<path fill="#ffffff" d=" M 135.24 233.80 C 132.31 226.15 134.19 217.73 137.74 210.65 C 138.97 214.00 141.36 217.71 138.86 221.10 C 139.99 222.82 141.35 224.51 141.73 226.59 C 140.70 227.75 139.22 228.29 137.88 228.98 C 137.66 230.91 136.68 232.53 135.24 233.80 Z" />
<path fill="#294179" d=" M 564.22 210.76 C 567.74 210.74 571.26 210.74 574.78 210.76 C 574.75 232.84 574.80 254.92 574.75 277.00 C 574.91 280.25 573.70 284.65 577.72 285.93 C 577.77 288.83 577.77 291.74 577.73 294.65 C 574.44 294.67 570.59 295.47 567.92 293.02 C 565.30 290.76 565.96 286.98 565.68 283.91 C 562.57 288.09 558.61 291.78 553.69 293.69 C 544.13 297.64 532.38 295.29 525.06 287.98 C 511.70 275.58 512.22 251.75 525.77 239.70 C 533.78 232.47 546.72 231.18 555.73 237.27 C 559.06 239.38 561.66 242.38 564.18 245.36 C 564.28 233.83 564.21 222.29 564.22 210.76 Z" />
<path fill="#294179" d=" M 837.49 210.75 C 840.91 210.74 844.33 210.74 847.77 210.74 C 847.77 215.00 847.77 219.26 847.76 223.51 C 844.33 223.52 840.91 223.52 837.49 223.51 C 837.48 219.25 837.48 215.00 837.49 210.75 Z" />
<path fill="#294179" d=" M 1072.00 210.74 C 1075.41 210.74 1078.83 210.74 1082.26 210.74 C 1082.26 233.18 1082.26 255.61 1082.25 278.05 C 1082.19 280.53 1082.72 283.50 1085.12 284.79 C 1088.20 286.79 1091.96 285.21 1095.22 284.53 C 1095.75 287.32 1096.40 290.10 1096.62 292.94 C 1091.19 294.70 1085.19 296.18 1079.56 294.51 C 1074.70 293.09 1071.67 287.98 1071.98 283.05 C 1072.02 258.95 1071.99 234.85 1072.00 210.74 Z" />
<path fill="#294179" d=" M 1339.00 210.74 C 1342.50 210.74 1346.00 210.74 1349.51 210.75 C 1349.50 222.56 1349.55 234.38 1349.48 246.20 C 1353.05 241.16 1357.73 236.61 1363.78 234.75 C 1370.73 232.55 1379.46 232.62 1384.96 238.06 C 1390.15 243.27 1390.95 251.07 1391.23 258.05 C 1391.31 270.20 1391.22 282.34 1391.27 294.49 C 1387.75 294.52 1384.24 294.52 1380.73 294.49 C 1380.76 284.32 1380.72 274.14 1380.75 263.97 C 1380.81 258.57 1380.95 252.77 1378.11 247.96 C 1376.28 244.70 1372.62 242.75 1368.93 242.74 C 1362.68 242.55 1357.05 246.35 1353.25 251.04 C 1351.26 253.61 1349.39 256.63 1349.51 260.00 C 1349.50 271.50 1349.53 283.01 1349.51 294.51 C 1346.00 294.52 1342.50 294.52 1339.00 294.51 C 1339.00 266.59 1339.00 238.67 1339.00 210.74 Z" />
<path fill="#294179" d=" M 1548.74 210.74 C 1552.15 210.74 1555.57 210.74 1559.00 210.74 C 1559.00 233.16 1559.00 255.57 1559.00 277.99 C 1558.83 280.57 1559.53 283.58 1562.00 284.90 C 1565.07 286.73 1568.73 285.21 1571.92 284.52 C 1572.46 287.34 1573.00 290.16 1573.54 292.99 C 1567.79 294.56 1561.54 296.44 1555.69 294.30 C 1551.10 292.66 1548.46 287.71 1548.73 282.99 C 1548.75 258.91 1548.73 234.82 1548.74 210.74 Z" />
<path fill="#ffffff" d=" M 246.77 217.69 C 252.50 218.35 257.62 215.44 261.95 212.04 C 262.65 212.99 263.37 213.94 264.02 214.94 C 263.14 215.49 262.25 216.01 261.35 216.51 C 260.77 218.39 260.53 221.26 258.01 221.44 C 253.91 221.80 250.15 219.75 246.77 217.69 Z" />
<path fill="#ffffff" d=" M 302.69 213.18 C 310.70 217.02 317.75 224.99 317.45 234.30 C 315.33 234.20 312.81 233.52 312.76 230.94 C 311.84 228.48 314.10 224.71 311.22 223.29 C 309.41 222.22 308.44 220.38 307.58 218.56 C 305.65 217.06 304.03 215.22 302.69 213.18 Z" />
<path fill="#294179" d=" M 451.00 213.00 C 469.09 213.00 487.17 213.00 505.26 213.00 C 505.26 216.08 505.25 219.17 505.26 222.26 C 490.68 222.25 476.11 222.28 461.54 222.24 C 461.48 230.98 461.53 239.73 461.52 248.48 C 474.19 248.49 486.85 248.48 499.52 248.49 C 499.51 251.41 499.51 254.34 499.49 257.27 C 486.82 257.28 474.15 257.20 461.49 257.31 C 461.55 266.54 461.50 275.77 461.52 285.00 C 476.43 285.00 491.34 285.00 506.26 285.00 C 506.25 288.17 506.25 291.33 506.26 294.50 C 487.85 294.56 469.44 294.46 451.03 294.55 C 450.96 267.37 451.02 240.18 451.00 213.00 Z" />
<path fill="#294179" d=" M 1125.00 213.00 C 1147.17 213.00 1169.34 213.01 1191.50 212.99 C 1191.51 216.08 1191.51 219.17 1191.50 222.27 C 1182.16 222.27 1172.82 222.21 1163.49 222.30 C 1163.55 246.37 1163.50 270.44 1163.51 294.51 C 1160.01 294.51 1156.51 294.51 1153.02 294.54 C 1152.97 270.44 1153.03 246.35 1152.99 222.25 C 1143.66 222.27 1134.33 222.25 1125.00 222.26 C 1124.99 219.17 1124.99 216.08 1125.00 213.00 Z" />
<path fill="#ffffff" d=" M 286.54 213.62 C 289.16 215.98 292.97 218.92 291.36 222.93 C 293.03 225.53 294.99 228.06 295.77 231.11 C 296.38 232.59 294.64 233.55 294.01 234.64 C 295.16 236.97 296.60 239.32 296.69 242.00 C 296.34 243.42 295.22 244.44 294.42 245.61 C 294.18 248.61 293.84 251.67 292.26 254.31 C 290.68 252.73 289.22 251.05 287.87 249.27 C 287.40 250.95 286.93 252.64 286.04 254.15 C 282.01 250.93 280.80 245.19 282.17 240.36 C 280.76 239.67 278.71 239.58 278.13 237.85 C 277.43 234.04 279.22 230.43 280.52 226.96 C 279.28 225.51 277.17 224.24 277.51 222.04 C 277.83 218.71 280.89 216.76 282.84 214.37 C 285.86 224.93 284.41 236.34 288.49 246.66 C 289.13 248.14 290.14 249.42 291.10 250.70 C 290.13 241.83 288.74 233.00 288.33 224.07 C 288.25 220.51 287.31 217.07 286.54 213.62 Z" />
<path fill="#ffffff" d=" M 297.20 216.60 C 298.14 215.72 299.08 214.85 300.04 213.99 C 302.36 215.63 304.12 217.90 304.30 220.83 C 306.26 222.06 309.37 223.05 309.11 225.92 C 309.11 231.76 309.99 238.12 306.71 243.32 C 304.42 242.53 302.87 240.87 302.64 238.41 C 301.73 238.65 300.82 238.89 299.92 239.14 C 299.75 237.50 299.63 235.86 299.52 234.22 C 296.85 229.15 296.10 223.38 295.04 217.81 C 301.30 224.32 305.22 232.71 306.75 241.57 C 309.52 232.21 303.31 223.16 297.20 216.60 Z" />
<path fill="#ffffff" d=" M 311.14 214.74 C 313.32 215.32 316.05 215.60 317.26 217.82 C 318.13 220.31 318.60 222.93 319.16 225.51 C 316.13 222.20 313.69 218.41 311.14 214.74 Z" />
<path fill="#294179" d=" M 798.49 214.49 C 801.92 214.48 805.35 214.48 808.79 214.51 C 808.75 221.16 808.78 227.81 808.77 234.46 C 813.26 234.50 817.75 234.48 822.26 234.49 C 822.25 237.16 822.25 239.84 822.26 242.51 C 817.76 242.52 813.26 242.50 808.76 242.55 C 808.78 254.02 808.76 265.49 808.76 276.96 C 808.80 279.64 808.89 282.92 811.47 284.49 C 815.51 287.16 820.51 284.94 824.44 283.17 C 825.26 285.93 826.09 288.69 826.92 291.46 C 821.66 293.89 815.90 295.80 810.03 295.13 C 806.03 294.67 801.87 292.70 799.88 289.05 C 798.66 286.56 798.47 283.72 798.46 281.00 C 798.50 268.17 798.47 255.35 798.49 242.53 C 795.82 242.52 793.14 242.51 790.49 242.51 C 790.48 239.83 790.48 237.16 790.49 234.49 C 793.14 234.48 795.81 234.48 798.48 234.48 C 798.48 227.81 798.48 221.15 798.49 214.49 Z" />
<path fill="#ffffff" d=" M 125.18 230.62 C 126.36 226.56 129.25 223.32 131.49 219.82 C 131.02 224.97 131.01 230.19 132.19 235.25 C 131.17 235.42 130.15 235.55 129.12 235.64 C 128.65 234.70 128.24 233.74 127.88 232.76 C 126.96 232.06 126.02 231.39 125.18 230.62 Z" />
<path fill="#ffffff" d=" M 97.20 225.97 C 98.43 226.83 99.66 227.69 100.91 228.53 C 99.09 230.93 96.99 233.33 96.53 236.43 C 99.62 235.90 100.59 232.04 102.70 229.99 C 104.50 230.80 106.33 231.54 108.19 232.23 C 107.93 233.14 107.68 234.05 107.42 234.96 C 103.98 235.25 102.61 239.55 99.06 239.59 C 95.93 240.51 94.61 236.47 95.09 234.06 C 96.09 232.32 97.47 230.84 98.64 229.22 C 97.81 228.62 96.99 228.02 96.17 227.43 C 96.43 227.06 96.94 226.33 97.20 225.97 Z" />
<path fill="#ffffff" d=" M 152.10 234.99 C 152.38 232.30 152.87 228.70 156.10 228.11 C 157.73 227.26 158.11 229.94 158.33 230.97 C 155.21 234.91 151.89 238.76 149.98 243.49 C 148.54 241.78 146.53 240.24 146.38 237.83 C 147.35 235.55 149.99 235.37 152.10 234.99 Z" />
<path fill="#ffffff" d=" M 118.80 235.03 C 119.14 232.60 120.86 230.72 122.24 228.82 C 123.59 231.22 124.76 233.83 124.54 236.66 C 125.37 239.81 122.71 241.73 120.44 243.27 C 119.51 240.65 118.17 237.89 118.80 235.03 Z" />
<path fill="#ffffff" d=" M 155.41 239.43 C 157.80 235.89 159.95 232.04 163.41 229.39 C 161.67 236.43 155.22 243.72 159.36 251.07 C 158.90 252.93 158.77 255.01 157.53 256.56 C 156.49 257.93 154.61 257.38 153.16 257.55 C 151.56 262.61 146.30 264.67 143.78 269.13 C 144.52 258.32 149.75 248.44 155.41 239.43 Z" />
<path fill="#ffffff" d=" M 165.44 231.57 C 166.98 234.12 169.10 236.83 168.42 240.01 C 167.73 240.99 166.96 241.93 166.14 242.82 C 167.22 246.06 168.59 249.47 167.78 252.95 C 167.19 255.15 165.15 256.47 163.58 257.95 C 163.87 261.91 164.48 266.38 161.61 269.61 C 161.24 272.62 159.78 275.22 156.94 276.47 C 155.56 272.50 154.11 268.33 154.60 264.06 C 154.83 260.64 159.29 260.43 160.69 257.69 C 162.45 254.46 162.03 250.65 161.42 247.17 C 160.47 241.67 162.60 236.19 165.44 231.57 Z" />
<path fill="#ffffff" d=" M 109.23 236.95 C 109.11 234.74 111.22 231.16 113.65 233.19 C 116.75 234.85 115.24 238.84 116.90 241.36 C 118.65 243.87 116.88 246.94 116.38 249.57 C 117.06 249.91 118.42 250.57 119.09 250.91 C 117.89 252.27 116.93 254.16 114.93 254.42 C 112.71 253.81 112.83 251.40 112.56 249.58 C 110.21 247.38 110.67 244.38 112.24 241.88 C 111.08 240.36 108.86 239.15 109.23 236.95 Z" />
<path fill="#ffffff" d=" M 175.59 233.91 C 184.25 236.53 193.71 240.21 198.28 248.60 C 201.37 253.97 199.79 260.48 196.98 265.60 C 189.56 266.44 182.27 268.36 175.54 271.61 C 175.01 270.48 174.49 269.35 173.97 268.23 C 176.30 265.46 178.39 262.33 178.48 258.58 C 181.45 255.32 182.13 249.17 178.04 246.53 C 177.15 242.34 175.91 238.21 175.59 233.91 Z" />
<path fill="#ffffff" d=" M 255.52 233.91 C 260.36 234.17 268.12 234.32 268.44 240.82 C 271.21 241.15 274.32 241.56 276.23 243.84 C 278.30 245.96 278.27 249.11 278.56 251.86 C 279.98 253.09 282.07 253.98 282.46 256.03 C 282.49 257.69 281.71 259.23 281.27 260.80 C 281.59 262.11 281.89 263.43 282.15 264.76 C 280.22 262.60 278.86 260.04 277.36 257.59 C 271.61 248.43 263.89 240.70 255.52 233.91 Z" />
<path fill="#294179" d=" M 593.01 234.46 C 596.43 234.48 599.85 234.48 603.27 234.52 C 603.24 244.67 603.28 254.82 603.25 264.97 C 603.32 271.07 603.24 277.86 607.18 282.92 C 610.89 287.35 617.56 287.20 622.56 285.34 C 629.71 282.35 636.44 275.25 635.51 266.99 C 635.45 256.16 635.49 245.32 635.49 234.49 C 638.90 234.48 642.31 234.48 645.72 234.46 C 645.88 250.32 645.65 266.18 645.82 282.04 C 645.65 284.03 647.74 284.83 648.82 286.14 C 649.23 288.96 648.97 291.83 648.92 294.68 C 645.43 294.68 641.11 295.57 638.59 292.49 C 636.43 289.50 637.16 285.57 636.98 282.13 C 632.82 288.36 626.51 293.28 619.08 294.82 C 612.59 296.17 604.84 296.12 599.69 291.35 C 594.45 286.45 593.25 278.85 593.01 272.02 C 592.99 259.50 593.00 246.98 593.01 234.46 Z" />
<path fill="#294179" d=" M 668.08 243.99 C 676.36 233.78 691.43 230.87 703.43 235.54 C 709.32 237.87 714.06 242.58 717.01 248.13 C 713.65 249.21 710.29 250.27 706.93 251.32 C 704.93 248.60 702.76 245.81 699.63 244.34 C 691.83 240.27 681.36 242.79 676.28 249.98 C 668.58 260.03 670.70 276.37 681.38 283.50 C 689.72 289.45 702.69 286.35 707.51 277.31 C 710.87 278.38 714.26 279.38 717.59 280.54 C 709.86 296.79 686.27 300.20 672.80 289.27 C 659.15 278.87 657.14 257.03 668.08 243.99 Z" />
<path fill="#294179" d=" M 729.72 241.17 C 736.65 236.70 744.58 233.28 752.97 233.44 C 760.23 233.18 768.01 235.39 772.89 241.05 C 776.46 245.16 778.06 250.64 778.22 256.01 C 778.38 264.68 778.14 273.36 778.29 282.04 C 777.93 284.15 780.11 285.01 781.49 286.07 C 781.52 288.91 781.52 291.76 781.51 294.62 C 778.21 294.73 774.54 295.34 771.70 293.26 C 769.11 291.47 769.60 287.95 769.27 285.22 C 761.36 294.48 747.16 298.66 735.99 293.07 C 728.70 289.63 724.42 280.86 726.47 273.01 C 727.84 266.75 733.25 262.20 739.11 260.18 C 748.45 256.91 758.77 258.01 768.03 261.04 C 768.00 256.23 768.09 250.99 765.20 246.88 C 762.33 242.58 756.92 240.87 751.97 240.99 C 745.08 241.13 738.74 244.30 733.15 248.10 C 732.00 245.79 730.85 243.48 729.72 241.17 Z" />
<path fill="#294179" d=" M 883.39 234.58 C 892.32 232.12 902.45 233.47 909.96 239.06 C 919.85 246.16 924.36 259.43 921.80 271.21 C 919.95 281.39 912.49 290.31 902.74 293.80 C 890.68 298.21 875.77 294.50 868.18 283.87 C 858.74 271.52 860.05 252.24 871.45 241.55 C 874.79 238.31 878.95 235.95 883.39 234.58 Z" />
<path fill="#294179" d=" M 945.81 246.37 C 950.49 239.60 957.90 234.69 966.13 233.69 C 971.71 232.99 978.15 233.35 982.32 237.63 C 987.45 242.64 988.15 250.27 988.48 257.05 C 988.58 269.54 988.49 282.02 988.51 294.51 C 985.10 294.51 981.69 294.51 978.29 294.54 C 978.01 282.01 978.57 269.47 977.95 256.95 C 977.63 251.99 976.28 246.03 971.35 243.69 C 965.34 241.22 958.59 243.91 953.83 247.77 C 950.00 251.09 946.41 255.70 946.75 261.05 C 946.75 272.21 946.84 283.38 946.71 294.54 C 943.30 294.51 939.89 294.51 936.49 294.51 C 936.48 274.50 936.48 254.50 936.48 234.50 C 939.55 234.48 942.63 234.48 945.71 234.46 C 945.78 238.43 945.75 242.40 945.81 246.37 Z" />
<path fill="#294179" d=" M 1004.86 241.23 C 1012.01 236.54 1020.31 233.10 1029.02 233.44 C 1036.90 233.28 1045.39 236.37 1049.75 243.27 C 1054.16 249.97 1053.49 258.36 1053.52 266.01 C 1053.65 271.99 1053.20 278.00 1053.74 283.96 C 1054.60 284.69 1055.52 285.38 1056.48 286.03 C 1056.52 288.90 1056.51 291.79 1056.49 294.67 C 1053.29 294.68 1049.68 295.33 1046.94 293.28 C 1044.23 291.50 1044.79 287.91 1044.46 285.14 C 1038.95 291.68 1030.54 295.65 1021.96 295.56 C 1015.79 295.69 1009.47 293.28 1005.40 288.55 C 1000.46 282.99 999.75 274.11 1003.86 267.89 C 1006.75 263.58 1011.46 260.82 1016.40 259.51 C 1025.14 257.12 1034.47 258.23 1043.00 260.97 C 1042.97 256.62 1043.43 251.95 1041.12 248.04 C 1038.81 243.66 1033.89 241.27 1029.08 241.05 C 1021.51 240.45 1014.48 244.02 1008.33 248.03 C 1007.17 245.76 1005.99 243.50 1004.86 241.23 Z" />
<path fill="#294179" d=" M 1206.57 244.53 C 1216.42 231.83 1236.81 229.65 1249.23 239.78 C 1257.65 246.35 1261.39 257.56 1260.35 268.00 C 1243.75 268.02 1227.16 267.96 1210.57 268.03 C 1211.35 274.87 1214.90 281.52 1220.98 285.02 C 1229.85 290.63 1243.05 287.18 1247.83 277.78 C 1250.79 278.61 1253.76 279.42 1256.73 280.29 C 1248.63 297.26 1223.41 300.49 1209.99 288.12 C 1197.79 277.40 1196.32 257.06 1206.57 244.53 Z" />
<path fill="#294179" d=" M 1277.79 242.76 C 1286.45 233.24 1301.30 230.94 1312.91 235.94 C 1318.45 238.33 1322.78 242.85 1325.60 248.12 C 1322.24 249.22 1318.86 250.27 1315.49 251.31 C 1313.72 248.83 1311.83 246.32 1309.10 244.84 C 1301.69 240.38 1291.27 242.22 1285.78 248.89 C 1276.87 258.90 1278.95 276.56 1290.38 283.78 C 1298.72 289.32 1311.29 286.19 1316.06 277.36 C 1319.43 278.34 1322.80 279.36 1326.13 280.52 C 1318.51 296.76 1294.95 300.16 1281.49 289.35 C 1267.33 278.67 1265.60 255.56 1277.79 242.76 Z" />
<path fill="#294179" d=" M 1417.81 246.36 C 1422.40 239.98 1429.24 235.12 1437.09 233.85 C 1442.75 232.99 1449.36 233.05 1453.84 237.17 C 1459.38 242.08 1460.20 250.04 1460.50 256.99 C 1460.54 269.50 1460.50 282.01 1460.51 294.52 C 1457.07 294.52 1453.64 294.52 1450.21 294.49 C 1450.21 283.01 1450.29 271.54 1450.19 260.07 C 1449.90 255.17 1449.67 249.66 1446.21 245.81 C 1442.67 241.88 1436.56 242.20 1432.06 244.08 C 1425.79 246.73 1420.04 252.12 1418.83 259.02 C 1418.68 270.84 1418.80 282.66 1418.79 294.48 C 1415.35 294.52 1411.91 294.52 1408.49 294.52 C 1408.48 274.50 1408.48 254.49 1408.49 234.48 C 1411.58 234.48 1414.68 234.48 1417.79 234.52 C 1417.75 238.46 1417.74 242.41 1417.81 246.36 Z" />
<path fill="#294179" d=" M 1495.43 234.59 C 1504.58 232.05 1514.97 233.56 1522.55 239.47 C 1533.73 247.92 1537.48 264.15 1532.12 276.93 C 1528.73 285.57 1521.05 292.35 1512.06 294.64 C 1503.27 296.76 1493.43 295.37 1486.15 289.80 C 1475.16 281.82 1471.25 266.29 1475.72 253.69 C 1478.79 244.69 1486.27 237.26 1495.43 234.59 Z" />
<path fill="#294179" d=" M 1600.37 234.54 C 1609.54 232.06 1619.95 233.61 1627.47 239.60 C 1638.29 247.89 1642.04 263.49 1637.24 276.08 C 1634.07 284.85 1626.53 291.88 1617.57 294.44 C 1608.42 296.90 1598.02 295.46 1590.51 289.48 C 1578.49 280.45 1575.33 262.38 1582.41 249.36 C 1586.04 242.24 1592.68 236.75 1600.37 234.54 Z" />
<path fill="#294179" d=" M 1658.29 241.30 C 1664.05 235.31 1672.66 232.49 1680.88 233.63 C 1688.68 234.32 1695.01 239.79 1699.53 245.83 C 1699.46 242.05 1699.47 238.27 1699.49 234.50 C 1702.55 234.48 1705.62 234.48 1708.71 234.45 C 1708.85 251.29 1708.73 268.13 1708.77 284.97 C 1708.70 290.95 1709.26 297.14 1707.19 302.88 C 1704.68 309.80 1698.79 315.21 1691.89 317.60 C 1683.81 320.50 1674.84 320.71 1666.57 318.51 C 1660.00 316.73 1654.57 312.10 1650.72 306.61 C 1652.73 304.84 1654.75 303.07 1656.77 301.31 C 1660.37 306.31 1665.71 310.02 1671.81 311.18 C 1680.24 313.12 1690.68 311.28 1695.62 303.50 C 1699.57 297.81 1697.85 290.59 1698.26 284.13 C 1693.41 290.39 1686.14 295.18 1677.99 295.05 C 1669.81 295.61 1661.84 291.57 1656.73 285.32 C 1646.42 272.93 1647.24 252.96 1658.29 241.30 Z" />
<path fill="#294179" d=" M 837.49 234.49 C 840.92 234.48 844.35 234.48 847.79 234.52 C 847.76 254.50 847.76 274.49 847.79 294.49 C 844.35 294.52 840.92 294.52 837.49 294.51 C 837.48 274.50 837.48 254.50 837.49 234.49 Z" />
<path fill="#294179" d=" M 1719.56 234.51 C 1723.12 234.47 1726.70 234.48 1730.28 234.48 C 1737.10 251.14 1743.66 267.91 1750.48 284.57 C 1756.80 267.95 1762.74 251.18 1768.89 234.49 C 1772.21 234.48 1775.54 234.48 1778.88 234.50 C 1769.16 259.57 1759.39 284.62 1749.69 309.70 C 1748.37 313.05 1746.41 316.39 1743.12 318.09 C 1738.84 320.52 1733.75 320.37 1729.04 319.78 C 1728.97 316.70 1728.98 313.63 1729.00 310.55 C 1732.13 310.48 1736.52 311.96 1738.40 308.50 C 1741.07 304.05 1743.25 299.19 1744.63 294.19 C 1736.58 274.18 1727.80 254.45 1719.56 234.51 Z" />
<path fill="#ffffff" d=" M 135.12 235.52 C 136.05 236.87 137.66 238.07 137.41 239.92 C 136.71 246.41 141.02 251.75 143.86 257.16 C 142.29 257.69 140.71 258.20 139.12 258.68 C 139.85 261.74 141.43 265.45 139.12 268.21 C 137.03 270.52 135.54 273.36 133.16 275.39 C 130.28 273.82 129.44 270.51 128.52 267.62 C 127.45 266.92 124.37 267.05 125.32 265.11 C 127.18 261.38 129.65 256.61 126.26 252.96 C 126.96 253.03 128.35 253.17 129.05 253.24 C 131.65 259.28 128.57 266.55 132.96 271.98 C 132.18 259.80 132.26 247.44 135.12 235.52 Z" />
<path fill="#ffffff" d=" M 233.76 240.77 C 236.55 234.60 246.38 234.47 249.88 239.97 C 248.63 242.57 246.32 244.47 245.00 247.03 C 244.42 248.69 245.30 250.41 245.48 252.08 C 243.36 254.64 240.99 257.40 240.99 260.93 C 241.14 265.56 242.63 270.19 245.41 273.92 C 244.05 275.59 242.69 277.25 241.33 278.91 C 237.57 275.87 233.53 273.17 229.21 271.00 C 231.91 266.07 235.79 260.87 234.57 254.90 C 234.01 250.26 231.83 245.35 233.76 240.77 Z" />
<path fill="#ffffff" d=" M 170.78 243.98 C 172.14 241.77 173.00 239.33 173.68 236.84 C 174.19 239.65 175.67 242.66 174.03 245.38 C 175.75 248.12 178.00 250.77 178.35 254.11 C 177.81 255.67 175.94 255.82 174.68 256.51 C 174.31 259.75 174.62 263.70 171.83 265.98 C 170.60 265.90 169.41 265.61 168.22 265.36 C 168.47 268.43 166.89 270.84 164.00 271.85 C 166.04 267.86 167.88 263.60 167.14 259.00 C 170.61 254.79 171.68 249.29 170.78 243.98 Z" />
<path fill="#ffffff" d=" M 95.63 241.67 C 99.70 242.33 103.75 241.44 106.84 238.67 C 107.56 239.80 108.28 240.94 109.00 242.08 C 107.75 244.77 107.88 247.73 108.43 250.58 C 104.25 247.49 99.93 244.60 95.63 241.67 Z" />
<path fill="#ffffff" d=" M 253.21 239.69 C 254.76 241.57 256.67 243.43 257.02 245.96 C 256.55 246.97 255.95 247.90 255.38 248.85 C 257.07 250.67 259.26 252.37 259.78 254.94 C 259.88 256.81 258.09 257.99 257.12 259.37 C 258.22 261.72 259.96 264.29 258.94 266.98 C 258.09 267.95 257.06 268.73 256.10 269.56 C 255.43 272.06 254.09 274.28 252.42 276.24 C 251.44 264.07 252.58 251.86 253.21 239.69 Z" />
<path fill="#ffffff" d=" M 1218.44 245.26 C 1225.12 240.07 1235.13 239.89 1241.96 244.88 C 1247.04 248.35 1249.97 254.22 1250.76 260.22 C 1237.28 260.22 1223.80 260.26 1210.32 260.20 C 1211.22 254.50 1213.65 248.75 1218.44 245.26 Z" />
<path fill="#ffffff" d=" M 44.26 247.27 C 44.98 245.16 45.69 243.05 46.44 240.95 C 47.05 243.04 47.68 245.14 48.28 247.23 C 50.51 247.25 52.74 247.25 54.97 247.26 C 53.19 248.55 51.41 249.86 49.64 251.16 C 50.29 253.25 50.94 255.33 51.57 257.43 C 49.81 256.20 48.07 254.95 46.32 253.72 C 44.60 254.97 42.88 256.21 41.13 257.41 C 41.77 255.34 42.45 253.28 43.13 251.23 C 41.34 249.91 39.56 248.58 37.79 247.25 C 39.95 247.25 42.11 247.26 44.26 247.27 Z" />
<path fill="#ffffff" d=" M 259.49 241.97 C 266.26 249.68 273.07 257.39 279.13 265.68 C 278.58 266.11 277.47 266.95 276.91 267.37 C 274.73 267.30 272.37 267.81 270.34 266.78 C 268.28 265.96 269.10 263.45 268.80 261.75 C 266.32 262.73 263.55 263.56 261.36 261.51 C 263.88 257.68 263.03 253.09 260.46 249.55 C 260.89 246.96 260.34 244.41 259.49 241.97 Z" />
<path fill="#ffffff" d=" M 358.23 247.28 C 358.93 245.18 359.63 243.08 360.37 240.99 C 361.00 243.07 361.64 245.15 362.26 247.24 C 364.47 247.25 366.68 247.26 368.89 247.27 C 367.14 248.57 365.40 249.86 363.65 251.15 C 364.29 253.26 364.93 255.37 365.54 257.49 C 363.77 256.23 362.02 254.95 360.26 253.68 C 358.50 255.00 356.73 256.32 354.98 257.66 C 355.65 255.51 356.35 253.37 357.06 251.24 C 355.30 249.90 353.54 248.57 351.79 247.24 C 353.94 247.25 356.08 247.26 358.23 247.28 Z" />
<path fill="#ffffff" d=" M 542.47 242.64 C 551.57 241.23 560.90 247.59 564.05 256.00 C 564.37 261.97 564.36 268.00 564.06 273.97 C 562.46 279.63 557.23 283.58 551.92 285.57 C 543.21 288.79 533.16 283.92 528.98 275.94 C 521.83 264.03 528.10 245.22 542.47 242.64 Z" />
<path fill="#ffffff" d=" M 889.52 242.59 C 896.64 241.45 903.95 245.19 907.85 251.12 C 914.38 260.51 912.90 274.71 904.03 282.10 C 897.84 287.70 887.70 288.08 881.18 282.86 C 873.07 276.88 870.45 265.30 874.02 256.08 C 876.43 249.37 882.31 243.65 889.52 242.59 Z" />
<path fill="#ffffff" d=" M 1606.47 242.58 C 1613.88 241.45 1621.44 245.60 1625.19 251.96 C 1631.36 261.65 1629.25 275.97 1619.87 282.87 C 1613.86 287.57 1604.79 287.84 1598.62 283.32 C 1590.99 278.05 1587.64 267.79 1589.96 258.92 C 1591.73 250.95 1598.15 243.75 1606.47 242.58 Z" />
<path fill="#ffffff" d=" M 1498.29 243.41 C 1505.01 240.94 1512.87 243.19 1517.68 248.38 C 1526.18 257.18 1525.96 272.61 1517.17 281.14 C 1511.36 287.09 1501.35 288.42 1494.40 283.69 C 1485.89 278.29 1482.54 266.84 1485.57 257.42 C 1487.44 251.17 1492.10 245.68 1498.29 243.41 Z" />
<path fill="#ffffff" d=" M 1673.26 243.46 C 1683.20 239.65 1694.59 246.51 1698.07 256.04 C 1698.35 262.02 1698.37 268.06 1698.05 274.04 C 1696.39 279.76 1691.09 283.71 1685.71 285.69 C 1678.01 288.33 1669.30 284.90 1664.58 278.50 C 1655.85 267.59 1660.07 248.71 1673.26 243.46 Z" />
<path fill="#ffffff" d=" M 247.68 248.26 C 248.20 246.76 249.19 245.49 250.06 244.18 C 248.60 254.63 249.08 265.15 249.37 275.64 C 246.85 274.55 246.73 271.95 246.67 269.57 C 242.59 268.45 244.84 264.06 244.04 261.06 C 242.83 257.06 246.85 254.35 249.12 251.70 C 248.62 250.56 248.04 249.45 247.68 248.26 Z" />
<path fill="#ffffff" d=" M 122.37 247.12 C 122.96 247.07 124.14 246.98 124.73 246.94 C 123.97 248.75 123.28 250.59 122.90 252.53 C 122.41 251.93 121.92 251.32 121.44 250.72 C 121.67 249.82 122.14 248.02 122.37 247.12 Z" />
<path fill="#ffffff" d=" M 120.78 252.95 C 121.22 252.88 122.11 252.74 122.55 252.67 C 122.30 254.83 122.07 257.01 121.79 259.18 C 122.46 261.15 122.95 263.17 123.20 265.24 C 122.62 265.35 121.45 265.56 120.86 265.67 C 119.23 263.68 117.99 261.39 116.90 259.08 C 117.46 258.17 118.07 257.29 118.71 256.44 C 119.31 257.13 120.52 258.52 121.13 259.21 C 121.06 257.12 120.94 255.03 120.78 252.95 Z" />
<path fill="#ffffff" d=" M 284.40 261.89 C 284.37 257.81 289.09 253.72 293.03 255.70 C 290.60 258.33 287.40 260.03 284.40 261.89 Z" />
<path fill="#ffffff" d=" M 263.28 265.17 C 263.61 264.93 264.27 264.46 264.60 264.22 C 265.22 265.59 265.44 267.23 266.51 268.35 C 268.42 269.42 270.61 269.81 272.71 270.38 C 264.53 275.56 256.69 281.26 248.70 286.73 C 246.87 284.63 244.99 282.57 243.04 280.58 C 244.32 279.50 245.59 278.42 246.88 277.34 C 248.47 278.01 250.11 279.27 251.93 278.58 C 256.00 277.54 257.86 273.40 260.66 270.68 C 262.29 269.27 262.79 267.17 263.28 265.17 Z" />
<path fill="#ffffff" d=" M 150.04 267.79 C 149.93 265.99 152.26 265.40 153.26 264.32 C 153.05 266.31 152.73 268.29 152.33 270.26 C 153.15 272.67 153.79 275.15 154.68 277.55 C 154.77 277.83 154.96 278.39 155.05 278.67 C 153.75 277.49 152.42 276.32 151.04 275.24 C 151.07 273.60 151.14 271.96 151.20 270.32 C 150.91 269.69 150.33 268.42 150.04 267.79 Z" />
<path fill="#ffffff" d=" M 736.53 272.65 C 738.00 268.66 742.05 266.37 745.98 265.38 C 753.29 263.54 760.91 265.02 767.93 267.33 C 767.72 271.78 769.20 277.17 765.67 280.70 C 759.97 286.65 750.44 289.70 742.65 286.32 C 737.51 284.20 734.57 277.92 736.53 272.65 Z" />
<path fill="#ffffff" d=" M 1017.01 266.98 C 1025.13 262.93 1034.69 264.59 1042.97 267.29 C 1042.89 270.78 1043.28 274.32 1042.73 277.78 C 1039.87 283.59 1033.24 286.60 1027.12 287.58 C 1021.04 288.65 1013.67 285.86 1011.67 279.60 C 1009.82 274.80 1012.37 269.07 1017.01 266.98 Z" />
<path fill="#ffffff" d=" M 139.80 271.75 C 142.74 270.36 146.00 270.42 149.17 270.56 C 149.15 273.60 148.85 277.31 151.96 279.05 C 155.25 282.00 158.99 278.54 161.34 276.19 C 162.37 277.14 163.40 278.09 164.42 279.05 C 162.52 281.03 160.66 283.06 158.84 285.13 C 152.48 280.69 146.05 276.34 139.80 271.75 Z" />
<path fill="#ffffff" d=" M 164.35 274.31 C 166.82 273.10 169.27 271.87 171.69 270.56 C 172.04 271.16 172.73 272.36 173.08 272.95 C 170.87 274.39 168.69 275.85 166.52 277.36 C 165.98 276.59 164.90 275.07 164.35 274.31 Z" />
<path fill="#ffffff" d=" M 67.67 277.32 C 68.40 278.68 69.17 280.02 69.97 281.34 C 65.33 282.72 61.42 285.79 57.37 288.34 C 53.31 290.90 56.33 297.88 60.97 296.71 C 65.17 294.90 68.84 292.10 72.78 289.82 C 72.87 289.05 73.04 287.49 73.13 286.72 C 74.98 289.71 77.30 292.35 79.08 295.40 C 77.33 300.74 75.36 306.00 73.72 311.38 C 76.85 308.84 80.24 306.60 83.19 303.85 C 83.28 303.11 83.48 301.62 83.57 300.87 C 84.62 302.34 85.71 303.78 86.85 305.18 C 85.37 305.02 83.72 304.43 82.52 305.66 C 78.06 308.82 74.05 312.62 69.39 315.51 C 71.01 308.98 73.60 302.74 75.45 296.28 C 71.89 298.86 68.50 301.68 64.93 304.26 C 64.84 305.42 64.75 306.58 64.66 307.75 C 63.51 306.28 62.32 304.84 61.10 303.44 C 62.90 303.54 64.86 303.70 66.23 302.28 C 69.47 299.43 73.66 297.40 76.07 293.77 C 76.01 293.38 75.89 292.60 75.83 292.21 C 74.96 291.31 73.48 290.18 72.26 291.20 C 68.12 293.23 64.60 296.77 59.97 297.66 C 55.71 297.22 52.38 291.81 53.83 287.85 C 57.39 283.11 64.19 282.18 67.67 277.32 Z" />
<path fill="#ffffff" d=" M 339.24 276.96 C 345.57 278.09 351.89 279.32 358.21 280.52 C 358.70 280.17 359.66 279.47 360.15 279.12 C 358.96 281.25 357.75 283.36 356.46 285.43 C 356.47 284.83 356.48 283.63 356.49 283.03 C 354.73 282.88 352.99 282.61 351.23 282.61 C 349.96 284.51 348.95 286.57 347.87 288.59 C 349.42 290.00 351.15 291.25 353.32 291.48 C 352.70 292.65 352.11 293.83 351.53 295.02 C 350.82 293.03 349.90 291.10 348.34 289.64 C 344.96 286.18 341.95 282.30 338.06 279.38 C 338.45 278.57 338.85 277.76 339.24 276.96 Z" />
<path fill="#294179" d=" M 340.55 280.21 C 343.85 280.80 347.16 281.42 350.45 282.12 C 349.47 283.96 348.48 285.79 347.48 287.63 C 345.09 285.23 342.81 282.73 340.55 280.21 Z" />
<path fill="#ffffff" d=" M 197.10 292.10 C 197.64 289.52 198.91 286.37 201.94 286.11 C 205.73 284.83 209.77 289.78 207.68 293.12 C 210.02 293.78 208.75 297.13 211.61 297.05 C 211.00 297.14 210.38 297.24 209.78 297.34 C 208.12 297.88 206.56 298.67 205.10 299.62 C 204.83 299.20 204.31 298.38 204.05 297.96 C 204.29 297.61 204.76 296.90 204.99 296.55 C 205.92 296.85 207.78 297.44 208.70 297.74 C 207.83 296.27 206.98 294.80 206.06 293.37 C 203.06 293.48 199.77 293.79 197.10 292.10 Z" />
<path fill="#ffffff" d=" M 334.34 286.32 C 336.10 287.12 337.87 287.89 339.60 288.75 C 336.97 289.21 333.71 288.43 331.66 290.56 C 329.51 293.07 331.41 296.59 333.60 298.38 C 336.67 300.86 341.20 303.06 345.04 301.00 C 347.87 299.14 346.52 295.48 346.48 292.72 C 347.41 295.24 348.89 298.07 347.64 300.76 C 346.27 304.38 341.77 306.06 338.24 304.72 C 333.77 303.15 329.77 299.10 329.49 294.20 C 329.60 290.89 332.62 288.85 334.34 286.32 Z" />
<path fill="#ffffff" d=" M 195.12 295.28 C 195.84 295.37 197.28 295.54 198.00 295.63 C 196.96 297.10 197.44 298.58 199.09 299.41 C 198.66 300.62 198.21 301.83 197.79 303.05 C 197.38 301.84 196.55 299.41 196.13 298.19 C 195.91 299.87 195.66 301.56 195.40 303.24 C 193.83 302.32 194.30 300.70 194.64 299.24 C 194.09 298.96 192.99 298.41 192.45 298.13 C 193.19 296.79 196.64 298.56 195.73 296.41 C 195.58 296.13 195.27 295.56 195.12 295.28 Z" />
<path fill="#c5c7cd" d=" M 202.31 295.15 C 205.33 293.61 202.48 298.45 202.31 295.15 Z" />
<path fill="#ffffff" d=" M 199.95 296.47 C 201.30 295.57 202.71 297.87 201.53 298.82 C 200.18 299.77 198.79 297.41 199.95 296.47 Z" />
<path fill="#ffffff" d=" M 207.14 300.87 C 206.94 299.12 209.32 298.64 210.53 299.31 C 211.18 300.85 207.81 302.95 207.14 300.87 Z" />
<path fill="#ffffff" d=" M 322.14 302.43 C 323.23 301.18 324.31 299.92 325.38 298.65 C 325.41 299.17 325.47 300.22 325.51 300.74 C 329.46 303.69 333.10 307.04 337.03 310.03 C 337.91 310.98 339.12 310.79 340.25 310.54 C 338.99 311.98 337.82 313.50 336.69 315.04 C 335.96 313.32 334.77 311.87 333.27 310.78 C 329.58 307.98 326.23 304.66 322.14 302.43 Z" />
<path fill="#c5c7cd" d=" M 200.32 300.28 C 200.85 300.80 200.85 300.80 200.32 300.28 Z" />
<path fill="#ffffff" d=" M 202.25 300.26 C 203.49 299.07 205.57 301.21 204.30 302.40 C 203.05 303.69 200.98 301.46 202.25 300.26 Z" />
<path fill="#ffffff" d=" M 198.64 302.38 C 199.72 302.54 200.79 302.71 201.86 302.90 C 201.09 303.87 200.31 304.84 199.55 305.82 C 199.32 304.96 198.87 303.24 198.64 302.38 Z" />
<path fill="#ffffff" d=" M 206.28 302.35 C 208.62 302.45 207.06 306.52 205.18 305.59 C 204.03 304.63 204.89 302.53 206.28 302.35 Z" />
<path fill="#c5c7cd" d=" M 196.22 304.03 C 199.12 302.36 196.50 307.36 196.22 304.03 Z" />
<path fill="#c5c7cd" d=" M 202.41 304.94 C 205.45 303.48 202.44 308.27 202.41 304.94 Z" />
<path fill="#ffffff" d=" M 211.56 308.96 C 212.71 307.43 213.70 305.18 215.95 305.20 C 217.92 305.41 219.73 306.27 221.55 307.00 C 222.64 306.08 223.72 305.16 224.90 304.38 C 226.17 305.51 227.17 306.89 228.20 308.24 C 229.16 307.74 230.13 307.25 231.10 306.77 C 231.76 307.85 232.41 308.94 233.06 310.03 C 227.87 308.68 222.36 307.67 217.09 309.22 C 212.69 310.27 209.04 313.03 205.41 315.58 C 205.94 313.79 206.06 311.77 207.30 310.29 C 208.60 309.52 210.12 309.33 211.56 308.96 Z" />
<path fill="#ffffff" d=" M 177.80 308.99 C 178.87 308.00 179.90 306.94 181.13 306.14 C 182.41 306.58 183.59 307.25 184.79 307.88 C 186.12 307.24 187.43 306.52 188.87 306.15 C 190.17 306.86 191.05 308.09 192.05 309.15 C 192.82 309.10 194.35 309.01 195.12 308.96 C 197.75 309.68 198.25 312.89 199.35 315.00 C 194.73 311.95 189.72 308.88 184.02 308.69 C 180.45 308.46 177.21 310.17 173.85 311.05 C 174.58 310.14 175.33 309.24 176.08 308.34 C 176.51 308.51 177.37 308.83 177.80 308.99 Z" />
<path fill="#ffffff" d=" M 88.61 306.78 C 89.71 307.98 90.83 309.16 92.01 310.30 C 89.55 309.83 88.03 312.05 86.38 313.43 C 83.34 316.55 79.51 319.01 77.35 322.89 C 76.36 321.77 75.35 320.68 74.30 319.62 C 79.80 316.33 84.28 311.46 88.61 306.78 Z" />
<path fill="#ffffff" d=" M 309.96 315.39 C 313.61 312.78 316.04 307.59 320.91 307.26 C 324.92 307.54 325.25 311.99 324.13 314.97 C 327.71 316.02 331.28 317.27 335.04 317.47 C 333.93 318.37 332.85 319.30 331.78 320.25 C 328.36 319.33 325.01 318.15 321.54 317.40 C 321.34 317.75 320.94 318.45 320.73 318.81 C 321.91 321.51 324.89 323.70 327.66 324.97 C 326.64 325.95 325.65 326.94 324.65 327.93 C 322.13 324.60 318.81 322.01 315.91 319.03 C 314.18 317.46 312.51 315.34 309.96 315.39 Z" />
<path fill="#ffffff" d=" M 201.19 307.89 C 201.72 307.59 202.77 307.00 203.30 306.70 C 202.94 313.43 201.92 321.62 207.24 326.80 C 212.34 331.05 219.04 328.00 224.65 326.75 C 223.40 329.55 220.10 329.75 217.52 330.39 C 212.93 331.37 207.49 330.38 204.51 326.49 C 200.58 321.18 200.74 314.16 201.19 307.89 Z" />
<path fill="#294179" d=" M 313.47 312.55 C 315.39 310.91 317.99 308.40 320.63 310.29 C 323.75 312.07 322.70 316.49 319.79 317.88 C 317.16 317.06 315.59 314.26 313.47 312.55 Z" />
<path fill="#ffffff" d=" M 177.28 312.21 C 185.35 308.98 194.21 313.06 200.55 318.11 C 199.17 317.91 197.80 317.68 196.43 317.41 C 194.11 318.30 191.55 318.59 189.99 316.27 C 187.12 316.85 184.29 316.24 182.49 313.80 C 182.06 314.19 181.19 314.97 180.76 315.36 C 179.57 314.34 178.41 313.29 177.28 312.21 Z" />
<path fill="#ffffff" d=" M 206.05 318.01 C 210.57 313.58 216.60 310.61 222.99 310.50 C 227.42 310.48 232.32 310.76 235.89 313.73 C 232.88 314.10 229.59 313.31 226.89 315.05 C 225.52 315.94 223.90 315.38 222.42 315.18 C 220.43 317.62 217.79 316.27 215.49 315.14 C 214.03 319.15 209.41 318.34 206.05 318.01 Z" />
<path fill="#ffffff" d=" M 88.80 315.45 C 90.32 314.28 91.87 313.13 93.40 311.98 C 96.60 315.28 100.05 318.32 103.48 321.37 C 102.44 322.97 101.41 324.58 100.39 326.19 C 100.78 323.39 101.12 320.45 99.46 317.96 C 95.85 321.50 92.45 325.27 89.03 329.01 C 87.92 329.99 87.44 331.34 87.43 332.81 C 86.36 331.65 85.22 330.55 84.08 329.46 C 88.77 325.33 92.69 320.44 97.05 315.98 C 94.57 314.07 91.58 314.78 88.80 315.45 Z" />
<path fill="#ffffff" d=" M 298.59 325.24 C 301.78 322.90 304.77 320.30 307.67 317.60 C 309.13 318.72 310.60 319.83 312.07 320.95 C 308.33 319.79 304.49 320.51 301.74 323.37 C 303.56 325.38 305.05 327.76 307.13 329.51 C 309.21 328.31 309.00 325.79 308.69 323.76 C 310.18 325.61 311.71 327.44 313.25 329.26 C 311.26 328.40 309.06 327.93 307.53 329.87 C 309.16 332.73 311.67 335.05 313.98 337.40 C 312.69 338.47 311.43 339.55 310.18 340.65 C 310.28 340.08 310.48 338.94 310.59 338.37 C 306.43 334.13 303.30 328.91 298.59 325.24 Z" />
<path fill="#ffffff" d=" M 105.58 323.11 C 106.60 323.88 107.64 324.64 108.68 325.39 C 106.67 327.63 103.81 329.81 103.51 332.99 C 105.48 333.88 107.42 333.12 109.28 332.39 C 107.97 334.09 106.68 335.80 105.41 337.53 C 105.23 337.60 104.88 337.75 104.70 337.82 C 105.62 335.73 105.01 333.74 103.00 332.64 C 100.68 335.07 98.57 337.77 97.24 340.88 C 95.83 339.70 94.39 338.54 92.96 337.39 C 93.48 337.51 94.52 337.76 95.04 337.88 C 98.50 332.92 102.73 328.48 105.58 323.11 Z" />
<path fill="#ffffff" d=" M 110.11 326.61 C 111.75 327.81 113.40 328.98 115.06 330.14 C 114.22 331.84 113.39 333.55 112.54 335.25 C 112.85 332.11 112.01 329.12 110.11 326.61 Z" />
<path fill="#ffffff" d=" M 317.23 326.61 C 318.25 328.40 319.30 330.19 320.10 332.11 C 318.54 333.66 316.79 335.00 315.13 336.44 C 317.19 333.54 317.67 330.08 317.23 326.61 Z" />
<path fill="#ffffff" d=" M 292.43 329.95 C 293.39 329.29 294.36 328.65 295.33 327.99 C 298.15 333.29 302.08 337.86 305.36 342.86 C 305.87 342.80 306.89 342.69 307.40 342.63 C 305.66 343.91 303.89 345.16 302.13 346.41 C 302.31 345.90 302.68 344.88 302.86 344.37 C 299.74 340.28 296.97 335.94 293.85 331.87 C 294.54 336.64 295.74 341.31 296.59 346.06 C 292.87 343.58 289.33 340.86 285.66 338.32 C 284.09 339.31 282.70 337.78 281.27 337.26 C 282.64 336.39 283.99 335.51 285.35 334.63 C 288.51 336.87 291.66 339.13 294.84 341.33 C 294.05 337.53 293.22 333.74 292.43 329.95 Z" />
<path fill="#ffffff" d=" M 117.49 331.91 C 121.01 334.61 126.45 336.09 127.39 341.04 C 128.13 346.07 124.82 351.55 119.91 353.03 C 115.43 354.20 111.86 350.58 108.16 348.75 C 111.16 345.69 112.92 341.73 115.22 338.17 C 116.28 336.22 118.07 334.31 117.49 331.91 Z" />
<path fill="#294179" d=" M 111.80 349.99 C 114.52 344.68 117.86 339.71 120.90 334.59 C 122.71 336.00 125.57 337.23 125.30 340.01 C 125.01 344.16 122.57 347.99 119.58 350.79 C 117.36 352.97 113.75 352.09 111.80 349.99 Z" />
<path fill="#ffffff" d=" M 97.60 341.02 C 101.01 342.89 104.72 342.96 108.24 341.36 C 106.69 342.81 105.12 344.24 103.55 345.67 C 101.61 344.06 99.61 342.53 97.60 341.02 Z" />
<path fill="#ffffff" d=" M 271.74 342.03 C 272.32 341.71 273.49 341.06 274.07 340.74 C 279.07 345.42 283.55 350.75 289.15 354.72 C 287.65 355.44 286.17 356.19 284.71 356.98 C 284.24 354.79 282.48 353.32 281.05 351.75 C 279.01 352.84 276.97 353.93 274.94 355.04 C 275.24 356.52 275.53 357.98 275.85 359.46 C 276.54 359.57 277.90 359.80 278.59 359.91 C 277.12 360.74 275.64 361.57 274.17 362.40 C 274.60 360.32 274.89 358.19 274.45 356.10 C 273.62 351.40 273.30 346.56 271.74 342.03 Z" />
<path fill="#ffffff" d=" M 285.42 340.59 C 285.86 340.77 286.74 341.13 287.19 341.32 C 289.35 344.84 290.67 350.72 295.67 350.70 C 294.17 351.65 292.70 352.66 291.27 353.71 C 292.02 348.56 287.29 344.97 285.42 340.59 Z" />
<path fill="#ffffff" d=" M 139.11 345.13 C 142.24 343.79 144.95 346.81 147.78 347.69 C 147.35 349.55 146.94 351.42 146.52 353.30 C 145.46 350.66 145.66 346.28 142.08 345.83 C 139.45 344.71 137.18 348.20 138.65 350.34 C 140.20 352.83 142.83 354.48 144.20 357.11 C 145.75 360.80 142.04 365.17 138.16 364.48 C 135.47 363.86 133.32 361.95 130.91 360.71 C 131.39 358.86 131.87 357.02 132.42 355.19 C 133.05 357.31 133.35 359.59 134.48 361.53 C 136.00 363.96 140.43 364.54 141.68 361.54 C 142.60 358.08 138.95 356.08 137.24 353.65 C 134.67 351.15 135.81 346.36 139.11 345.13 Z" />
<path fill="#294179" d=" M 273.37 344.13 C 275.77 346.36 278.22 348.57 280.31 351.11 C 278.60 352.24 276.77 353.16 274.96 354.10 C 274.34 350.79 273.84 347.46 273.37 344.13 Z" />
<path fill="#ffffff" d=" M 259.61 347.44 C 260.68 349.16 261.76 350.88 262.79 352.62 C 261.21 351.68 259.72 350.56 258.00 349.88 C 256.12 349.42 254.22 350.20 252.37 350.48 C 253.25 353.29 254.23 356.08 255.36 358.81 C 257.42 357.84 258.79 356.24 258.89 353.89 C 259.67 356.03 260.47 358.16 261.32 360.28 C 259.52 358.72 257.49 357.60 255.24 359.03 C 256.63 361.95 256.64 366.08 259.83 367.78 C 257.80 368.35 255.80 369.05 253.83 369.80 C 254.16 369.34 254.82 368.42 255.15 367.96 C 253.36 362.72 251.51 357.50 249.75 352.25 C 249.26 352.05 248.26 351.66 247.77 351.47 C 251.79 350.34 255.76 349.05 259.61 347.44 Z" />
<path fill="#ffffff" d=" M 151.09 348.86 C 155.35 350.42 159.70 351.70 164.07 352.91 C 163.94 354.83 163.81 356.75 163.66 358.68 C 162.59 356.01 161.70 353.08 158.98 351.62 C 157.17 357.19 155.57 362.84 153.69 368.39 C 154.05 368.80 154.78 369.62 155.14 370.03 C 153.48 369.64 151.82 369.25 150.15 368.89 C 152.50 363.01 154.08 356.86 155.98 350.83 C 152.88 350.26 150.48 352.24 148.27 354.07 C 149.20 352.33 150.14 350.59 151.09 348.86 Z" />
<path fill="#ffffff" d=" M 238.48 353.55 C 244.12 351.88 248.72 357.76 249.00 362.89 C 249.51 367.57 246.33 373.65 240.93 373.01 C 231.87 371.99 229.78 356.70 238.48 353.55 Z" />
<path fill="#ffffff" d=" M 170.02 354.19 C 170.97 354.37 171.93 354.54 172.88 354.73 C 173.89 361.50 173.68 368.54 175.81 375.09 C 173.93 374.63 172.03 374.23 170.12 373.95 C 172.64 372.76 171.23 369.90 171.31 367.80 C 169.09 367.33 166.88 366.84 164.67 366.36 C 163.93 367.58 163.20 368.80 162.48 370.03 C 162.99 370.86 163.51 371.69 164.03 372.53 C 162.37 372.21 160.71 371.93 159.05 371.68 C 160.96 370.37 162.62 368.73 163.66 366.64 C 165.82 362.52 168.69 358.70 170.02 354.19 Z" />
<path fill="#294179" d=" M 237.24 355.15 C 239.08 353.31 242.52 354.13 243.52 356.51 C 245.54 360.43 246.66 365.14 245.67 369.51 C 244.84 373.17 239.48 372.93 238.30 369.63 C 236.35 365.29 234.45 359.48 237.24 355.15 Z" />
<path fill="#ffffff" d=" M 179.29 356.16 C 183.82 356.74 188.36 357.23 192.91 357.59 C 193.15 359.49 193.39 361.38 193.62 363.29 C 192.07 361.05 190.88 358.09 187.88 357.54 C 187.04 363.69 185.72 369.94 186.35 376.16 C 184.59 376.03 182.83 375.94 181.07 375.91 C 181.90 375.06 182.95 374.28 182.89 372.96 C 183.51 367.59 184.19 362.22 184.50 356.83 C 181.64 357.44 179.54 359.39 177.75 361.58 C 178.25 359.76 178.78 357.96 179.29 356.16 Z" />
<path fill="#ffffff" d=" M 212.94 358.92 C 215.08 356.11 218.95 357.42 221.96 357.06 C 222.40 358.83 222.84 360.60 223.25 362.39 C 221.24 360.43 219.39 357.03 216.04 357.94 C 213.01 358.00 212.93 362.72 215.36 363.76 C 218.33 365.32 222.50 365.28 224.35 368.48 C 226.21 371.87 223.60 376.17 219.91 376.61 C 217.63 376.69 215.37 376.38 213.10 376.35 C 212.65 374.49 212.20 372.62 211.78 370.76 C 213.96 373.06 216.21 376.50 219.87 375.88 C 222.56 375.63 224.01 371.95 222.00 370.05 C 219.36 368.07 215.70 368.04 213.23 365.78 C 211.60 363.92 211.14 360.83 212.94 358.92 Z" />
<path fill="#294179" d=" M 165.06 365.66 C 166.62 362.71 168.28 359.80 170.05 356.97 C 170.49 360.25 170.87 363.55 171.14 366.86 C 169.11 366.45 167.08 366.05 165.06 365.66 Z" />
<path fill="#ffffff" d=" M 195.40 357.60 C 199.58 358.08 203.79 358.31 207.98 357.84 C 208.38 359.72 208.79 361.59 209.17 363.49 C 207.95 362.13 206.95 360.53 205.50 359.40 C 203.71 358.61 201.68 358.69 199.77 358.43 C 199.93 360.92 199.22 363.71 200.15 366.03 C 202.67 367.16 203.83 364.63 204.84 362.84 C 204.75 365.34 204.77 367.85 204.94 370.35 C 203.60 369.13 202.36 365.63 200.18 367.19 C 199.30 370.17 199.87 373.37 199.61 376.45 C 201.74 376.12 204.23 376.48 206.01 375.02 C 207.23 373.84 208.08 372.34 209.10 371.00 C 208.83 373.06 208.48 375.10 208.13 377.16 C 203.78 376.81 199.42 376.92 195.07 377.05 C 197.29 374.89 196.33 371.66 196.54 368.92 C 196.31 365.15 197.25 361.09 195.40 357.60 Z" />
</svg>
